<svg width="40" height="40" viewBox="0 0 40 40" fill="none" xmlns="http://www.w3.org/2000/svg">
<g id="tabler:2fa">
<path id="Vector" d="M11.6667 26.6673H5L10.7833 18.9006C11.1385 18.5102 11.3959 18.041 11.5343 17.5316C11.6727 17.0223 11.6882 16.4874 11.5794 15.9709C11.4707 15.4544 11.2409 14.9711 10.9089 14.5608C10.5769 14.1505 10.1522 13.8249 9.66975 13.6108C9.18732 13.3967 8.66094 13.3002 8.13394 13.3293C7.60694 13.3584 7.09437 13.5122 6.63843 13.778C6.18248 14.0439 5.79619 14.4143 5.51135 14.8586C5.2265 15.303 5.05124 15.8086 5 16.3339M16.6667 26.6673V13.3339H23.3333M16.6667 20.0006H21.6667M28.3333 26.6673V16.6673C28.3333 15.7832 28.6845 14.9354 29.3096 14.3102C29.9348 13.6851 30.7826 13.3339 31.6667 13.3339C32.5507 13.3339 33.3986 13.6851 34.0237 14.3102C34.6488 14.9354 35 15.7832 35 16.6673V26.6673M28.3333 21.6673H35" stroke="#FF6161" stroke-width="2.66667" stroke-linecap="round" stroke-linejoin="round"/>
</g>
</svg>
