<svg width="27" height="27" viewBox="0 0 27 27" fill="none" xmlns="http://www.w3.org/2000/svg">
<g id="tabler:2fa">
<path id="Vector" d="M7.875 17.9987H3.375L7.27875 12.7562C7.51849 12.4927 7.69222 12.176 7.78564 11.8322C7.87906 11.4884 7.8895 11.1273 7.81611 10.7787C7.74272 10.4301 7.58759 10.1038 7.36349 9.82689C7.13939 9.54993 6.85272 9.33014 6.52708 9.18562C6.20144 9.0411 5.84614 8.97598 5.49041 8.99561C5.13468 9.01523 4.7887 9.11905 4.48094 9.29852C4.17317 9.47799 3.91243 9.72798 3.72016 10.0279C3.52789 10.3278 3.40959 10.6691 3.375 11.0237M11.25 17.9987V8.99874H15.75M11.25 13.4987H14.625M19.125 17.9987V11.2487C19.125 10.652 19.3621 10.0797 19.784 9.65775C20.206 9.23579 20.7783 8.99874 21.375 8.99874C21.9717 8.99874 22.544 9.23579 22.966 9.65775C23.3879 10.0797 23.625 10.652 23.625 11.2487V17.9987M19.125 14.6237H23.625" stroke="#333333" stroke-width="2" stroke-linecap="round" stroke-linejoin="round"/>
</g>
</svg>
