<svg width="32" height="33" viewBox="0 0 32 33" fill="none" xmlns="http://www.w3.org/2000/svg">
<g id="carbon:two-factor-authentication">
<path id="Vector" d="M10.9999 23.68L8.99987 21.679L7.58887 23.089L10.9999 26.5L16.9999 20.5L15.5899 19.09L10.9999 23.68ZM27.9999 30.5H23.9999V28.5H27.9999V16.5H23.9999V8.5C23.9985 7.43954 23.5767 6.42289 22.8268 5.67303C22.077 4.92318 21.0603 4.50132 19.9999 4.5V2.5C21.5906 2.50185 23.1156 3.13459 24.2405 4.25941C25.3653 5.38422 25.998 6.90927 25.9999 8.5V14.5H27.9999C28.5301 14.5005 29.0385 14.7114 29.4135 15.0864C29.7885 15.4613 29.9993 15.9697 29.9999 16.5V28.5C29.9993 29.0303 29.7885 29.5387 29.4135 29.9136C29.0385 30.2886 28.5301 30.4995 27.9999 30.5Z" fill="#7A7AFF"/>
<path id="Vector_2" d="M20 14.5H18V8.5C18 6.9087 17.3679 5.38258 16.2426 4.25736C15.1174 3.13214 13.5913 2.5 12 2.5C10.4087 2.5 8.88258 3.13214 7.75736 4.25736C6.63214 5.38258 6 6.9087 6 8.5V14.5H4C3.46957 14.5 2.96086 14.7107 2.58579 15.0858C2.21071 15.4609 2 15.9696 2 16.5V28.5C2 29.0304 2.21071 29.5391 2.58579 29.9142C2.96086 30.2893 3.46957 30.5 4 30.5H20C20.5304 30.5 21.0391 30.2893 21.4142 29.9142C21.7893 29.5391 22 29.0304 22 28.5V16.5C22 15.9696 21.7893 15.4609 21.4142 15.0858C21.0391 14.7107 20.5304 14.5 20 14.5ZM8 8.5C8 7.43913 8.42143 6.42172 9.17157 5.67157C9.92172 4.92143 10.9391 4.5 12 4.5C13.0609 4.5 14.0783 4.92143 14.8284 5.67157C15.5786 6.42172 16 7.43913 16 8.5V14.5H8V8.5ZM20 28.5H4V16.5H20V28.5Z" fill="#7A7AFF"/>
</g>
</svg>
