<svg width="23" height="24" viewBox="0 0 23 24" fill="none" xmlns="http://www.w3.org/2000/svg">
<g id="carbon:user-access" clip-path="url(#clip0_585_12397)">
<path id="Vector" d="M11.5 22.0622H10.0625V18.4684C10.0619 17.8967 9.83457 17.3486 9.43032 16.9444C9.02607 16.5401 8.47795 16.3128 7.90625 16.3122H5.03125C4.45955 16.3128 3.91143 16.5401 3.50718 16.9444C3.10293 17.3486 2.87557 17.8967 2.875 18.4684V22.0622H1.4375V18.4684C1.43864 17.5157 1.81763 16.6022 2.49135 15.9285C3.16506 15.2548 4.07848 14.8758 5.03125 14.8747H7.90625C8.85902 14.8758 9.77244 15.2548 10.4462 15.9285C11.1199 16.6022 11.4989 17.5157 11.5 18.4684V22.0622ZM6.46875 7.68718C6.89522 7.68718 7.3121 7.81364 7.6667 8.05058C8.02129 8.28751 8.29766 8.62427 8.46087 9.01827C8.62407 9.41227 8.66677 9.84582 8.58357 10.2641C8.50037 10.6824 8.29501 11.0666 7.99345 11.3681C7.69189 11.6697 7.30768 11.8751 6.88941 11.9583C6.47114 12.0414 6.03759 11.9987 5.64359 11.8355C5.24959 11.6723 4.91283 11.396 4.67589 11.0414C4.43896 10.6868 4.3125 10.2699 4.3125 9.84343C4.3125 9.27156 4.53968 8.72311 4.94405 8.31873C5.34843 7.91436 5.89688 7.68718 6.46875 7.68718ZM6.46875 6.24968C5.75797 6.24968 5.06316 6.46045 4.47217 6.85534C3.88118 7.25022 3.42056 7.81149 3.14856 8.46816C2.87656 9.12484 2.80539 9.84742 2.94405 10.5445C3.08272 11.2417 3.42499 11.882 3.92759 12.3846C4.43018 12.8872 5.07052 13.2295 5.76764 13.3681C6.46476 13.5068 7.18735 13.4356 7.84402 13.1636C8.50069 12.8916 9.06196 12.431 9.45684 11.84C9.85173 11.249 10.0625 10.5542 10.0625 9.84343C10.0625 9.37149 9.96955 8.90418 9.78894 8.46816C9.60834 8.03215 9.34363 7.63598 9.00991 7.30227C8.6762 6.96856 8.28003 6.70384 7.84402 6.52324C7.408 6.34264 6.94069 6.24968 6.46875 6.24968ZM21.5625 9.12468C21.438 9.12634 21.3143 9.14422 21.1945 9.17787L20.4362 8.41959C20.7027 7.98245 20.8436 7.48038 20.8436 6.96843C20.8436 6.45648 20.7027 5.95441 20.4362 5.51728L21.1945 4.75899C21.5057 4.84563 21.8368 4.82675 22.1362 4.7053C22.4355 4.58386 22.6862 4.36669 22.8491 4.08772C23.012 3.80875 23.0778 3.48368 23.0365 3.16331C22.9951 2.84293 22.8487 2.54529 22.6203 2.31687C22.3919 2.08844 22.0942 1.94211 21.7739 1.90072C21.4535 1.85933 21.1284 1.92523 20.8495 2.0881C20.5705 2.25098 20.3533 2.50166 20.2319 2.801C20.1104 3.10034 20.0916 3.43148 20.1782 3.74268L19.4206 4.50096C18.9835 4.23449 18.4814 4.09353 17.9695 4.09353C17.4575 4.09353 16.9555 4.23449 16.5183 4.50096L15.76 3.74268C15.8467 3.43148 15.8278 3.10034 15.7063 2.801C15.5849 2.50166 15.3677 2.25098 15.0888 2.0881C14.8098 1.92523 14.4847 1.85933 14.1643 1.90072C13.844 1.94211 13.5463 2.08844 13.3179 2.31687C13.0895 2.54529 12.9431 2.84293 12.9018 3.16331C12.8604 3.48368 12.9263 3.80875 13.0891 4.08772C13.252 4.36669 13.5027 4.58386 13.802 4.7053C14.1014 4.82675 14.4325 4.84563 14.7437 4.75899L15.502 5.51728C15.2355 5.95441 15.0946 6.45648 15.0946 6.96843C15.0946 7.48038 15.2355 7.98245 15.502 8.41959L14.7437 9.17787C14.4325 9.09124 14.1014 9.11012 13.802 9.23156C13.5027 9.353 13.252 9.57017 13.0891 9.84915C12.9263 10.1281 12.8604 10.4532 12.9018 10.7736C12.9431 11.0939 13.0895 11.3916 13.3179 11.62C13.5463 11.8484 13.844 11.9948 14.1643 12.0361C14.4847 12.0775 14.8098 12.0116 15.0888 11.8488C15.3677 11.6859 15.5849 11.4352 15.7063 11.1359C15.8278 10.8365 15.8467 10.5054 15.76 10.1942L16.5183 9.4359C16.9555 9.70237 17.4575 9.84333 17.9695 9.84333C18.4814 9.84333 18.9835 9.70237 19.4206 9.4359L20.1789 10.1942C20.1026 10.484 20.119 10.7903 20.2258 11.0703C20.3325 11.3503 20.5242 11.5899 20.774 11.7553C21.0239 11.9208 21.3192 12.0039 21.6187 11.993C21.9181 11.982 22.2066 11.8776 22.4437 11.6944C22.6807 11.5111 22.8545 11.2582 22.9405 10.9712C23.0265 10.6842 23.0205 10.3774 22.9233 10.094C22.8261 9.81051 22.6426 9.56461 22.3986 9.39078C22.1545 9.21694 21.8621 9.12389 21.5625 9.12468ZM16.5312 6.96843C16.5312 6.68412 16.6156 6.4062 16.7735 6.1698C16.9315 5.9334 17.156 5.74916 17.4186 5.64035C17.6813 5.53155 17.9703 5.50309 18.2492 5.55855C18.528 5.61402 18.7842 5.75093 18.9852 5.95197C19.1863 6.153 19.3232 6.40914 19.3786 6.68799C19.4341 6.96684 19.4056 7.25587 19.2968 7.51854C19.188 7.78121 19.0038 8.00571 18.7674 8.16367C18.531 8.32162 18.2531 8.40593 17.9688 8.40593C17.5876 8.40555 17.2222 8.25398 16.9527 7.98448C16.6832 7.71498 16.5316 7.34956 16.5312 6.96843Z" fill="#4B7BE5"/>
</g>
<defs>
<clipPath id="clip0_585_12397">
<rect width="23" height="23" fill="white" transform="translate(0 0.5)"/>
</clipPath>
</defs>
</svg>
