<svg width="26" height="26" viewBox="0 0 26 26" fill="none" xmlns="http://www.w3.org/2000/svg">
<g id="fluent-mdl2:add-group" clip-path="url(#clip0_1976_79432)">
<path id="Vector" d="M15.8691 16.9229C16.4447 17.2106 16.9652 17.5703 17.4307 18.002C17.8962 18.4336 18.2897 18.9329 18.6113 19.5H16.6182C16.1611 18.9837 15.6195 18.5859 14.9932 18.3066C14.3669 18.0273 13.7025 17.8835 13 17.875C12.3229 17.875 11.6924 18.002 11.1084 18.2559C10.5244 18.5098 10.0081 18.8568 9.55957 19.2969C9.111 19.737 8.75977 20.2575 8.50586 20.8584C8.25195 21.4593 8.125 22.0898 8.125 22.75H6.5C6.5 22.1322 6.58464 21.5355 6.75391 20.96C6.92318 20.3844 7.16439 19.8385 7.47754 19.3223C7.79069 18.806 8.17578 18.349 8.63281 17.9512C9.08984 17.5534 9.58919 17.2106 10.1309 16.9229C9.49609 16.4658 9.00521 15.8945 8.6582 15.209C8.3112 14.5234 8.13346 13.7871 8.125 13C8.125 12.5514 8.04036 12.1325 7.87109 11.7432C7.70182 11.3538 7.46908 11.0068 7.17285 10.7021C6.87663 10.3975 6.53385 10.1647 6.14453 10.0039C5.75521 9.8431 5.33203 9.75846 4.875 9.75C4.42643 9.75 4.00749 9.83464 3.61816 10.0039C3.22884 10.1732 2.88184 10.4059 2.57715 10.7021C2.27246 10.9984 2.03971 11.3411 1.87891 11.7305C1.7181 12.1198 1.63346 12.543 1.625 13H0C0 12.5599 0.0592448 12.1283 0.177734 11.7051C0.296224 11.2819 0.461263 10.8883 0.672852 10.5244C0.88444 10.1605 1.15104 9.82194 1.47266 9.50879C1.79427 9.19564 2.14551 8.9375 2.52637 8.73438C2.23861 8.43815 2.01855 8.09538 1.86621 7.70605C1.71387 7.31673 1.63346 6.91471 1.625 6.5C1.625 6.05143 1.70964 5.63249 1.87891 5.24316C2.04818 4.85384 2.28092 4.50684 2.57715 4.20215C2.87337 3.89746 3.21615 3.66471 3.60547 3.50391C3.99479 3.3431 4.41797 3.25846 4.875 3.25C5.32357 3.25 5.74251 3.33464 6.13184 3.50391C6.52116 3.67318 6.86816 3.90592 7.17285 4.20215C7.47754 4.49837 7.71029 4.84115 7.87109 5.23047C8.0319 5.61979 8.11654 6.04297 8.125 6.5C8.125 6.91471 8.04883 7.31673 7.89648 7.70605C7.74414 8.09538 7.51986 8.43815 7.22363 8.73438C7.5791 8.92904 7.89648 9.16178 8.17578 9.43262C8.45508 9.70345 8.70898 9.99967 8.9375 10.3213C9.16602 9.98275 9.42839 9.67806 9.72461 9.40723C10.0208 9.13639 10.3424 8.90788 10.6895 8.72168C11.0365 8.53548 11.4046 8.38737 11.7939 8.27734C12.1833 8.16732 12.5853 8.11654 13 8.125C13.4062 8.125 13.804 8.17578 14.1934 8.27734C14.5827 8.37891 14.9508 8.52279 15.2979 8.70898C15.6449 8.89518 15.9707 9.12793 16.2754 9.40723C16.5801 9.68652 16.8424 9.99121 17.0625 10.3213C17.2826 9.99967 17.5322 9.70345 17.8115 9.43262C18.0908 9.16178 18.4124 8.92904 18.7764 8.73438C18.4886 8.43815 18.2686 8.09538 18.1162 7.70605C17.9639 7.31673 17.8835 6.91471 17.875 6.5C17.875 6.05143 17.9596 5.63249 18.1289 5.24316C18.2982 4.85384 18.5309 4.50684 18.8271 4.20215C19.1234 3.89746 19.4661 3.66471 19.8555 3.50391C20.2448 3.3431 20.668 3.25846 21.125 3.25C21.5736 3.25 21.9925 3.33464 22.3818 3.50391C22.7712 3.67318 23.1182 3.90592 23.4229 4.20215C23.7275 4.49837 23.9603 4.84115 24.1211 5.23047C24.2819 5.61979 24.3665 6.04297 24.375 6.5C24.375 6.91471 24.2988 7.31673 24.1465 7.70605C23.9941 8.09538 23.7699 8.43815 23.4736 8.73438C23.863 8.94596 24.2142 9.2041 24.5273 9.50879C24.8405 9.81348 25.1029 10.1478 25.3145 10.5117C25.526 10.8757 25.6953 11.2734 25.8223 11.7051C25.9492 12.1367 26.0085 12.5684 26 13H24.375C24.375 12.5514 24.2904 12.1325 24.1211 11.7432C23.9518 11.3538 23.7191 11.0068 23.4229 10.7021C23.1266 10.3975 22.7839 10.1647 22.3945 10.0039C22.0052 9.8431 21.582 9.75846 21.125 9.75C20.6764 9.75 20.2575 9.83464 19.8682 10.0039C19.4788 10.1732 19.1318 10.4059 18.8271 10.7021C18.5225 10.9984 18.2897 11.3411 18.1289 11.7305C17.9681 12.1198 17.8835 12.543 17.875 13C17.875 13.7786 17.7015 14.5107 17.3545 15.1963C17.0075 15.8818 16.5124 16.4574 15.8691 16.9229ZM21.125 4.875C20.8965 4.875 20.6849 4.91732 20.4902 5.00195C20.2956 5.08659 20.1263 5.20085 19.9824 5.34473C19.8385 5.48861 19.7201 5.66211 19.627 5.86523C19.5339 6.06836 19.4915 6.27995 19.5 6.5C19.5 6.72852 19.5423 6.9401 19.627 7.13477C19.7116 7.32943 19.8258 7.4987 19.9697 7.64258C20.1136 7.78646 20.2871 7.90495 20.4902 7.99805C20.6934 8.09115 20.9049 8.13346 21.125 8.125C21.3535 8.125 21.5651 8.08268 21.7598 7.99805C21.9544 7.91341 22.1237 7.79915 22.2676 7.65527C22.4115 7.51139 22.5299 7.33789 22.623 7.13477C22.7161 6.93164 22.7585 6.72005 22.75 6.5C22.75 6.27148 22.7077 6.0599 22.623 5.86523C22.5384 5.67057 22.4242 5.5013 22.2803 5.35742C22.1364 5.21354 21.9629 5.09505 21.7598 5.00195C21.5566 4.90885 21.3451 4.86654 21.125 4.875ZM4.875 8.125C5.10352 8.125 5.3151 8.08268 5.50977 7.99805C5.70443 7.91341 5.8737 7.79915 6.01758 7.65527C6.16146 7.51139 6.27995 7.33789 6.37305 7.13477C6.46615 6.93164 6.50846 6.72005 6.5 6.5C6.5 6.27148 6.45768 6.0599 6.37305 5.86523C6.28841 5.67057 6.17415 5.5013 6.03027 5.35742C5.88639 5.21354 5.71289 5.09505 5.50977 5.00195C5.30664 4.90885 5.09505 4.86654 4.875 4.875C4.64648 4.875 4.4349 4.91732 4.24023 5.00195C4.04557 5.08659 3.8763 5.20085 3.73242 5.34473C3.58854 5.48861 3.47005 5.66211 3.37695 5.86523C3.28385 6.06836 3.24154 6.27995 3.25 6.5C3.25 6.72852 3.29232 6.9401 3.37695 7.13477C3.46159 7.32943 3.57585 7.4987 3.71973 7.64258C3.86361 7.78646 4.03711 7.90495 4.24023 7.99805C4.44336 8.09115 4.65495 8.13346 4.875 8.125ZM13 16.25C13.4486 16.25 13.8675 16.1654 14.2568 15.9961C14.6462 15.8268 14.9932 15.5941 15.2979 15.2979C15.6025 15.0016 15.8353 14.6589 15.9961 14.2695C16.1569 13.8802 16.2415 13.457 16.25 13C16.25 12.5514 16.1654 12.1325 15.9961 11.7432C15.8268 11.3538 15.5941 11.0068 15.2979 10.7021C15.0016 10.3975 14.6589 10.1647 14.2695 10.0039C13.8802 9.8431 13.457 9.75846 13 9.75C12.5514 9.75 12.1325 9.83464 11.7432 10.0039C11.3538 10.1732 11.0068 10.4059 10.7021 10.7021C10.3975 10.9984 10.1647 11.3411 10.0039 11.7305C9.8431 12.1198 9.75846 12.543 9.75 13C9.75 13.4486 9.83464 13.8675 10.0039 14.2568C10.1732 14.6462 10.4059 14.9932 10.7021 15.2979C10.9984 15.6025 11.3411 15.8353 11.7305 15.9961C12.1198 16.1569 12.543 16.2415 13 16.25ZM22.75 21.125H26V22.75H22.75V26H21.125V22.75H17.875V21.125H21.125V17.875H22.75V21.125Z" fill="#4B7BE5"/>
</g>
<defs>
<clipPath id="clip0_1976_79432">
<rect width="26" height="26" fill="white"/>
</clipPath>
</defs>
</svg>
