<svg width="25" height="25" viewBox="0 0 25 25" fill="none" xmlns="http://www.w3.org/2000/svg">
<g id="mingcute:user-add-line" clip-path="url(#clip0_1530_31208)">
<g id="Group">
<path id="Vector" fill-rule="evenodd" clip-rule="evenodd" d="M16.6667 14.584C18.048 14.584 19.3728 15.1327 20.3495 16.1095C21.3263 17.0862 21.875 18.411 21.875 19.7923V21.8757C21.875 22.1519 21.7653 22.4169 21.5699 22.6122C21.3746 22.8076 21.1096 22.9173 20.8333 22.9173C20.5571 22.9173 20.2921 22.8076 20.0968 22.6122C19.9014 22.4169 19.7917 22.1519 19.7917 21.8757V19.7923C19.7917 18.9635 19.4624 18.1687 18.8764 17.5826C18.2903 16.9966 17.4955 16.6673 16.6667 16.6673H8.33333C7.50453 16.6673 6.70968 16.9966 6.12363 17.5826C5.53757 18.1687 5.20833 18.9635 5.20833 19.7923V21.8757C5.20833 22.1519 5.09859 22.4169 4.90324 22.6122C4.70789 22.8076 4.44293 22.9173 4.16667 22.9173C3.8904 22.9173 3.62545 22.8076 3.4301 22.6122C3.23475 22.4169 3.125 22.1519 3.125 21.8757V19.7923C3.125 18.411 3.67373 17.0862 4.65049 16.1095C5.62724 15.1327 6.952 14.584 8.33333 14.584H16.6667ZM20.8333 8.33398C21.1096 8.33398 21.3746 8.44373 21.5699 8.63908C21.7653 8.83443 21.875 9.09938 21.875 9.37565V10.4173H22.9167C23.1929 10.4173 23.4579 10.5271 23.6532 10.7224C23.8486 10.9178 23.9583 11.1827 23.9583 11.459C23.9583 11.7353 23.8486 12.0002 23.6532 12.1956C23.4579 12.3909 23.1929 12.5007 22.9167 12.5007H21.875V13.5423C21.875 13.8186 21.7653 14.0835 21.5699 14.2789C21.3746 14.4742 21.1096 14.584 20.8333 14.584C20.5571 14.584 20.2921 14.4742 20.0968 14.2789C19.9014 14.0835 19.7917 13.8186 19.7917 13.5423V12.5007H18.75C18.4737 12.5007 18.2088 12.3909 18.0134 12.1956C17.8181 12.0002 17.7083 11.7353 17.7083 11.459C17.7083 11.1827 17.8181 10.9178 18.0134 10.7224C18.2088 10.5271 18.4737 10.4173 18.75 10.4173H19.7917V9.37565C19.7917 9.09938 19.9014 8.83443 20.0968 8.63908C20.2921 8.44373 20.5571 8.33398 20.8333 8.33398ZM12.5 2.08398C13.8813 2.08398 15.2061 2.63272 16.1828 3.60947C17.1596 4.58622 17.7083 5.91098 17.7083 7.29232C17.7083 8.67365 17.1596 9.99841 16.1828 10.9752C15.2061 11.9519 13.8813 12.5007 12.5 12.5007C11.1187 12.5007 9.7939 11.9519 8.81715 10.9752C7.8404 9.99841 7.29167 8.67365 7.29167 7.29232C7.29167 5.91098 7.8404 4.58622 8.81715 3.60947C9.7939 2.63272 11.1187 2.08398 12.5 2.08398ZM12.5 4.16732C12.0896 4.16732 11.6833 4.24815 11.3041 4.40519C10.925 4.56224 10.5805 4.79243 10.2903 5.08261C10.0001 5.37279 9.76992 5.71729 9.61288 6.09643C9.45583 6.47557 9.375 6.88194 9.375 7.29232C9.375 7.7027 9.45583 8.10906 9.61288 8.4882C9.76992 8.86735 10.0001 9.21184 10.2903 9.50203C10.5805 9.79221 10.925 10.0224 11.3041 10.1794C11.6833 10.3365 12.0896 10.4173 12.5 10.4173C13.3288 10.4173 14.1237 10.0881 14.7097 9.50203C15.2958 8.91598 15.625 8.12112 15.625 7.29232C15.625 6.46352 15.2958 5.66866 14.7097 5.08261C14.1237 4.49656 13.3288 4.16732 12.5 4.16732Z" fill="#7A7AFF"/>
</g>
</g>
<defs>
<clipPath id="clip0_1530_31208">
<rect width="25" height="25" fill="white"/>
</clipPath>
</defs>
</svg>
