<svg width="28" height="28" viewBox="0 0 28 28" fill="none" xmlns="http://www.w3.org/2000/svg">
<g id="carbon:folder-add">
<path id="Vector" d="M22.75 17.5H21V21H17.5V22.75H21V26.25H22.75V22.75H26.25V21H22.75V17.5Z" fill="#28358B"/>
<path id="Vector_2" d="M24.5 7H14L11.025 4.025C10.675 3.675 10.2375 3.5 9.8 3.5H3.5C2.5375 3.5 1.75 4.2875 1.75 5.25V22.75C1.75 23.7125 2.5375 24.5 3.5 24.5H15.75V22.75H3.5V5.25H9.8L12.775 8.225L13.3 8.75H24.5V15.75H26.25V8.75C26.25 7.7875 25.4625 7 24.5 7Z" fill="#28358B"/>
</g>
</svg>
