<svg width="25" height="26" viewBox="0 0 25 26" fill="none" xmlns="http://www.w3.org/2000/svg">
<g id="uiw:file-add" clip-path="url(#clip0_11_210)">
<path id="Vector" d="M21.0488 19.25H17.4675V15.4425C17.4725 15.2113 17.3858 14.9875 17.2263 14.82C17.1526 14.7381 17.0623 14.6729 16.9614 14.6287C16.8605 14.5845 16.7514 14.5624 16.6413 14.5637C16.5309 14.5622 16.4215 14.5842 16.3204 14.6284C16.2193 14.6726 16.1288 14.738 16.055 14.82C15.8955 14.9875 15.8087 15.2113 15.8138 15.4425V19.2512H12.4163C12.3061 19.2499 12.197 19.272 12.0961 19.3162C11.9952 19.3604 11.9049 19.4256 11.8313 19.5075C11.6717 19.675 11.585 19.8988 11.59 20.13C11.585 20.3612 11.6717 20.585 11.8313 20.7525C11.9049 20.8344 11.9952 20.8996 12.0961 20.9438C12.197 20.988 12.3061 21.0101 12.4163 21.0087H15.8138V24.6212C15.8087 24.8525 15.8955 25.0763 16.055 25.2437C16.1288 25.3258 16.2193 25.3911 16.3204 25.4353C16.4215 25.4795 16.5309 25.5016 16.6413 25.5C16.87 25.5 17.0663 25.415 17.2263 25.2437C17.3858 25.0763 17.4725 24.8525 17.4675 24.6212V21.0087H21.0488C21.1589 21.01 21.268 20.9879 21.3689 20.9437C21.4698 20.8995 21.56 20.8343 21.6338 20.7525C21.7933 20.585 21.88 20.3612 21.875 20.13C21.88 19.8988 21.7933 19.675 21.6338 19.5075C21.5601 19.4256 21.4698 19.3604 21.3689 19.3162C21.268 19.272 21.1589 19.2499 21.0488 19.2512V19.25ZM21.6938 6.78375L16.6625 1.10125L16.1125 0.5025H4.72501C4.51251 0.5025 4.27501 0.49 4.06751 0.52375C3.81855 0.5591 3.59102 0.683976 3.42751 0.875C3.07626 1.2725 3.12751 1.77125 3.12751 2.26V23.7412C3.12751 24.23 3.07126 24.7587 3.42751 25.1287C3.78376 25.4987 4.02251 25.4987 4.48126 25.4987H10.7625C10.8728 25.5002 10.9822 25.4781 11.0833 25.4339C11.1844 25.3897 11.2749 25.3245 11.3488 25.2425C11.5083 25.075 11.595 24.8512 11.59 24.62C11.595 24.3888 11.5083 24.165 11.3488 23.9975C11.275 23.9154 11.1845 23.8501 11.0834 23.8059C10.9822 23.7617 10.8728 23.7397 10.7625 23.7412H4.80626L4.79876 2.205H13.8925V6.69625C13.8925 7.185 14.0825 7.625 14.3813 7.94125C14.6813 8.2575 15.0938 8.45375 15.5525 8.45375H20.2213V13.685C20.2162 13.9162 20.303 14.14 20.4625 14.3075C20.5362 14.3894 20.6264 14.4546 20.7273 14.4988C20.8282 14.543 20.9374 14.5651 21.0475 14.5637C21.2775 14.5637 21.4725 14.4775 21.6338 14.3075C21.7928 14.1398 21.8791 13.9161 21.8738 13.685V7.34375L21.875 6.995L21.6938 6.78375ZM15.6475 6.56875C15.5963 6.5025 15.565 6.38625 15.5538 6.21875V2.4L19.3775 6.69625H15.95C15.8 6.67625 15.7 6.635 15.6475 6.56875Z" fill="#28358B"/>
</g>
<defs>
<clipPath id="clip0_11_210">
<rect width="25" height="25" fill="white" transform="translate(0 0.5)"/>
</clipPath>
</defs>
</svg>
