<svg width="22" height="22" viewBox="0 0 22 22" fill="none" xmlns="http://www.w3.org/2000/svg">
<path id="Vector" d="M20.8378 10.126C21.0178 8.214 21.1078 7.257 20.7808 6.862C20.6984 6.75902 20.5962 6.67351 20.4803 6.6105C20.3644 6.54748 20.2371 6.50822 20.1058 6.495C19.6298 6.453 19.0328 7.133 17.8378 8.493C17.2198 9.197 16.9108 9.548 16.5668 9.603C16.3747 9.63295 16.178 9.60145 16.0048 9.513C15.6858 9.353 15.4748 8.918 15.0498 8.049L12.8128 3.465C12.0108 1.822 11.6098 1 10.9998 1C10.3898 1 9.98882 1.822 9.18682 3.465L6.94982 8.049C6.52582 8.919 6.31382 9.353 5.99482 9.513C5.82161 9.60132 5.62496 9.63281 5.43282 9.603C5.08882 9.548 4.77982 9.197 4.16182 8.493C2.96683 7.133 2.36982 6.453 1.89382 6.495C1.76256 6.50822 1.63525 6.54748 1.51935 6.6105C1.40345 6.67351 1.30128 6.75902 1.21883 6.862C0.891825 7.257 0.981825 8.214 1.16182 10.126L1.39082 12.562C1.76882 16.574 1.95682 18.581 3.14082 19.79C4.32182 21 6.09382 21 9.63982 21H12.3588C15.9038 21 17.6758 21 18.8588 19.79C19.7728 18.855 20.0928 17.445 20.3658 15M7.99982 17H13.9998" stroke="#3ABA6E" stroke-width="1.5" stroke-linecap="round"/>
</svg>
