<svg width="19" height="19" viewBox="0 0 19 19" fill="none" xmlns="http://www.w3.org/2000/svg">
<path id="Vector" d="M17.3705 8.8008C17.5145 7.2712 17.5865 6.5056 17.3249 6.1896C17.259 6.10721 17.1772 6.03881 17.0845 5.9884C16.9918 5.93798 16.8899 5.90657 16.7849 5.896C16.4041 5.8624 15.9265 6.4064 14.9705 7.4944C14.4761 8.0576 14.2289 8.3384 13.9537 8.3824C13.8 8.40636 13.6426 8.38116 13.5041 8.3104C13.2489 8.1824 13.0801 7.8344 12.7401 7.1392L10.9504 3.472C10.3088 2.1576 9.98801 1.5 9.5 1.5C9.01199 1.5 8.69119 2.1576 8.04957 3.472L6.25994 7.1392C5.92074 7.8352 5.75113 8.1824 5.49593 8.3104C5.35735 8.38106 5.20003 8.40625 5.04632 8.3824C4.77112 8.3384 4.52391 8.0576 4.0295 7.4944C3.07349 6.4064 2.59588 5.8624 2.21507 5.896C2.11006 5.90657 2.00821 5.93798 1.91549 5.9884C1.82276 6.03881 1.74103 6.10721 1.67506 6.1896C1.41346 6.5056 1.48546 7.2712 1.62946 8.8008L1.81267 10.7496C2.11507 13.9592 2.26547 15.5648 3.21269 16.532C4.15751 17.5 5.57513 17.5 8.41198 17.5H10.5872C13.4233 17.5 14.8409 17.5 15.7873 16.532C16.5185 15.784 16.7745 14.656 16.9929 12.7M7.09996 14.3H11.9" stroke="#4B7BE5" stroke-width="1.5" stroke-linecap="round"/>
</svg>
