<svg width="18" height="14" viewBox="0 0 18 14" fill="none" xmlns="http://www.w3.org/2000/svg">
<path id="Vector" d="M16.0849 7.21212L17.2727 8.40849L11.7321 14L8.7879 11.0303L9.97578 9.83394L11.7321 11.5988L16.0849 7.21212ZM7.51517 0C8.4153 0 9.27856 0.357575 9.91505 0.994062C10.5515 1.63055 10.9091 2.49381 10.9091 3.39394C10.9091 4.29407 10.5515 5.15733 9.91505 5.79382C9.27856 6.4303 8.4153 6.78788 7.51517 6.78788C6.61504 6.78788 5.75178 6.4303 5.1153 5.79382C4.47881 5.15733 4.12123 4.29407 4.12123 3.39394C4.12123 2.49381 4.47881 1.63055 5.1153 0.994062C5.75178 0.357575 6.61504 0 7.51517 0ZM7.51517 1.69697C7.06511 1.69697 6.63348 1.87576 6.31524 2.194C5.99699 2.51224 5.8182 2.94388 5.8182 3.39394C5.8182 3.844 5.99699 4.27563 6.31524 4.59388C6.63348 4.91212 7.06511 5.09091 7.51517 5.09091C7.96524 5.09091 8.39687 4.91212 8.71511 4.59388C9.03336 4.27563 9.21214 3.844 9.21214 3.39394C9.21214 2.94388 9.03336 2.51224 8.71511 2.194C8.39687 1.87576 7.96524 1.69697 7.51517 1.69697ZM7.51517 7.63636C8.09214 7.63636 8.7879 7.71273 9.56002 7.85697L8.14305 9.27394L7.51517 9.24848C4.99517 9.24848 2.33942 10.4873 2.33942 11.0303V11.9636H7.60002L9.21214 13.5758H0.727295V11.0303C0.727295 8.77333 5.24972 7.63636 7.51517 7.63636Z" fill="white"/>
</svg>
