<svg width="44" height="24" viewBox="0 0 44 24" fill="none" xmlns="http://www.w3.org/2000/svg">
<path id="Vector" d="M40.3312 7.8811e-07C39.7342 0.000154507 39.1463 0.146065 38.6186 0.425055C38.0909 0.704046 37.6392 1.10768 37.3029 1.60088C36.9666 2.09409 36.7558 2.66195 36.6889 3.25514C36.6219 3.84832 36.7008 4.44888 36.9187 5.00465L29.2036 12.7197C28.3436 12.3811 27.3872 12.3811 26.5272 12.7197L21.012 7.2045C21.2303 6.6486 21.3096 6.04778 21.2429 5.45427C21.1762 4.86076 20.9655 4.29253 20.6291 3.799C20.2928 3.30547 19.8409 2.90159 19.3129 2.62247C18.7849 2.34334 18.1967 2.19744 17.5994 2.19744C17.0022 2.19744 16.414 2.34334 15.886 2.62247C15.358 2.90159 14.9061 3.30547 14.5698 3.799C14.2334 4.29253 14.0227 4.86076 13.956 5.45427C13.8893 6.04778 13.9685 6.6486 14.1869 7.2045L5.00533 16.3861C4.2212 16.0785 3.35507 16.0503 2.55257 16.3062C1.75008 16.5621 1.06016 17.0865 0.598827 17.7912C0.137494 18.4959 -0.0671172 19.338 0.0193962 20.1759C0.10591 21.0137 0.478272 21.7962 1.07387 22.3918C1.66947 22.9874 2.45199 23.3598 3.28984 23.4463C4.12769 23.5328 4.96978 23.3282 5.67451 22.8669C6.37925 22.4055 6.90365 21.7156 7.15954 20.9131C7.41543 20.1106 7.3872 19.2445 7.0796 18.4604L16.2612 9.27877C17.1213 9.61731 18.0776 9.61731 18.9377 9.27877L24.4529 14.794C24.2345 15.3499 24.1552 15.9507 24.2219 16.5442C24.2887 17.1377 24.4994 17.7059 24.8357 18.1995C25.1721 18.693 25.6239 19.0969 26.1519 19.376C26.6799 19.6551 27.2681 19.801 27.8654 19.801C28.4626 19.801 29.0509 19.6551 29.5789 19.376C30.1069 19.0969 30.5587 18.693 30.8951 18.1995C31.2314 17.7059 31.4421 17.1377 31.5089 16.5442C31.5756 15.9507 31.4963 15.3499 31.2779 14.794L38.9929 7.07892C39.495 7.27615 40.0344 7.36018 40.5726 7.32502C41.1108 7.28986 41.6347 7.13637 42.1068 6.8755C42.5789 6.61462 42.9877 6.2528 43.3039 5.81582C43.6201 5.37884 43.836 4.87747 43.9362 4.34746C44.0364 3.81746 44.0184 3.27188 43.8835 2.74962C43.7487 2.22737 43.5002 1.7413 43.1559 1.32609C42.8116 0.910879 42.3799 0.576751 41.8917 0.347531C41.4034 0.118311 40.8706 -0.000352851 40.3312 7.8811e-07Z" fill="#4B7BE5"/>
</svg>
