<svg width="35" height="35" viewBox="0 0 35 35" fill="none" xmlns="http://www.w3.org/2000/svg">
<g id="icon-park-outline:avatar">
<path id="Vector" d="M3.64883 30.7921C3.64988 30.8667 3.66563 30.9405 3.69518 31.0091C3.72473 31.0777 3.76751 31.1398 3.82107 31.1919C3.87463 31.244 3.93792 31.285 4.00733 31.3126C4.07674 31.3402 4.15091 31.3538 4.2256 31.3528H30.7724C30.8471 31.3539 30.9214 31.3404 30.9909 31.3128C31.0604 31.2852 31.1237 31.2442 31.1774 31.1922C31.231 31.1401 31.2739 31.0779 31.3035 31.0093C31.3331 30.9406 31.3488 30.8668 31.3499 30.7921V30.1227C31.363 29.9207 31.39 28.9145 30.7264 27.801C30.3079 27.0988 29.7005 26.4929 28.921 25.9985C27.9782 25.4006 26.7787 24.9682 25.3277 24.7079C24.5911 24.6042 23.8605 24.4621 23.1387 24.2821C21.2196 23.7921 21.0519 23.3582 21.0504 23.3538C21.0393 23.311 21.0232 23.2696 21.0023 23.2306C20.9862 23.1504 20.9476 22.8456 21.022 22.0297C21.2101 19.9566 22.3221 18.7316 23.2153 17.7473C23.4967 17.4374 23.7629 17.1435 23.9678 16.8562C24.8523 15.6166 24.9339 14.2057 24.9376 14.1182C24.9409 13.9632 24.9195 13.8086 24.8741 13.6603C24.7866 13.3905 24.624 13.2228 24.5045 13.0988C24.4762 13.0705 24.4487 13.0413 24.4221 13.0113C24.4133 13.0011 24.39 12.9734 24.4111 12.8341C24.4826 12.3855 24.532 11.9336 24.5591 11.4801C24.6 10.7495 24.6313 9.65716 24.4425 8.59331C24.4148 8.39011 24.3728 8.18909 24.3171 7.99174C24.118 7.25966 23.7986 6.63403 23.3546 6.11778C23.278 6.03393 21.4201 4.07612 16.0264 3.67508C15.2805 3.61966 14.5433 3.64956 13.8171 3.68674C13.6023 3.69152 13.3885 3.7179 13.179 3.76549C12.622 3.90914 12.4732 4.26206 12.4346 4.45966C12.3697 4.78778 12.4834 5.04153 12.5585 5.2107C12.5695 5.23476 12.5833 5.26466 12.5592 5.34341C12.4346 5.53737 12.237 5.71237 12.0364 5.87789C11.9781 5.92674 10.6262 7.09341 10.5519 8.61664C10.3513 9.77528 10.3659 11.58 10.6029 12.8276C10.6175 12.8968 10.6372 12.9989 10.6044 13.0682C10.3491 13.2964 10.0604 13.5553 10.0611 14.1459C10.064 14.2057 10.1464 15.6159 11.0309 16.8562C11.2351 17.1435 11.5012 17.4366 11.782 17.7465L11.7834 17.7473C12.6766 18.7316 13.7886 19.9566 13.9767 22.0289C14.0504 22.8456 14.0117 23.1497 13.9964 23.2306C13.9753 23.2696 13.9589 23.3109 13.9476 23.3538C13.9469 23.3582 13.7799 23.7906 11.8695 24.2799C10.767 24.5621 9.68196 24.7064 9.64914 24.7101C8.23894 24.9485 7.04675 25.3707 6.10539 25.965C5.32883 26.4557 4.71998 27.0638 4.29706 27.7711C3.62039 28.9013 3.63862 29.9309 3.6481 30.119V30.7921H3.64883Z" stroke="#7A7AFF" stroke-width="2" stroke-linejoin="round"/>
</g>
</svg>
