<svg width="23" height="23" viewBox="0 0 23 23" fill="none" xmlns="http://www.w3.org/2000/svg">
<g id="ph:list-fill">
<path id="Vector" d="M20.125 10.7812V12.2188C20.125 12.4094 20.0493 12.5922 19.9145 12.727C19.7797 12.8618 19.5969 12.9375 19.4062 12.9375H3.59375C3.40313 12.9375 3.22031 12.8618 3.08552 12.727C2.95073 12.5922 2.875 12.4094 2.875 12.2188V10.7812C2.875 10.5906 2.95073 10.4078 3.08552 10.273C3.22031 10.1382 3.40313 10.0625 3.59375 10.0625H19.4062C19.5969 10.0625 19.7797 10.1382 19.9145 10.273C20.0493 10.4078 20.125 10.5906 20.125 10.7812ZM19.4062 15.8125H3.59375C3.40313 15.8125 3.22031 15.8882 3.08552 16.023C2.95073 16.1578 2.875 16.3406 2.875 16.5312V17.9688C2.875 18.1594 2.95073 18.3422 3.08552 18.477C3.22031 18.6118 3.40313 18.6875 3.59375 18.6875H19.4062C19.5969 18.6875 19.7797 18.6118 19.9145 18.477C20.0493 18.3422 20.125 18.1594 20.125 17.9688V16.5312C20.125 16.3406 20.0493 16.1578 19.9145 16.023C19.7797 15.8882 19.5969 15.8125 19.4062 15.8125ZM19.4062 4.3125H3.59375C3.40313 4.3125 3.22031 4.38823 3.08552 4.52302C2.95073 4.65781 2.875 4.84063 2.875 5.03125V6.46875C2.875 6.65937 2.95073 6.84219 3.08552 6.97698C3.22031 7.11177 3.40313 7.1875 3.59375 7.1875H19.4062C19.5969 7.1875 19.7797 7.11177 19.9145 6.97698C20.0493 6.84219 20.125 6.65937 20.125 6.46875V5.03125C20.125 4.84063 20.0493 4.65781 19.9145 4.52302C19.7797 4.38823 19.5969 4.3125 19.4062 4.3125Z" fill="#333333"/>
</g>
</svg>
