<svg width="26" height="26" viewBox="0 0 26 26" fill="none" xmlns="http://www.w3.org/2000/svg">
<g id="Property 1=Variant2">
<rect id="Rectangle 627" x="0.5" y="0.5" width="25" height="25" rx="4.5" fill="white" stroke="#C6D8FF"/>
<path id="Vector" d="M18.1317 7.2134C17.9378 7.10532 17.7246 7.03658 17.5041 7.01113C17.2837 6.98567 17.0605 7.004 16.8471 7.06505C16.6337 7.12611 16.4345 7.2287 16.2608 7.36695C16.087 7.50521 15.9422 7.67642 15.8345 7.8708L12.6987 13.5243L10.9041 11.7264C10.7482 11.5647 10.5619 11.4358 10.3558 11.3471C10.1497 11.2585 9.92806 11.2118 9.70378 11.2098C9.4795 11.2079 9.25708 11.2507 9.0495 11.3358C8.84191 11.4209 8.65332 11.5465 8.49473 11.7054C8.33613 11.8643 8.21071 12.0532 8.12578 12.2612C8.04085 12.4691 7.99811 12.6919 8.00006 12.9166C8.00201 13.1413 8.04861 13.3633 8.13713 13.5698C8.22566 13.7762 8.35434 13.963 8.51566 14.1191L11.8939 17.5034C12.2131 17.824 12.6438 18 13.0881 18L13.322 17.9831C13.5809 17.9468 13.8279 17.8508 14.0434 17.7027C14.259 17.5545 14.4373 17.3583 14.5643 17.1294L18.7871 9.51472C18.8949 9.32051 18.9635 9.10692 18.9889 8.88616C19.0143 8.66539 18.996 8.44178 18.9352 8.22808C18.8743 8.01438 18.7721 7.81478 18.6342 7.64068C18.4963 7.46658 18.3256 7.32139 18.1317 7.2134Z" fill="#4B7BE5"/>
</g>
</svg>
