<svg width="30" height="30" viewBox="0 0 30 30" fill="none" xmlns="http://www.w3.org/2000/svg">
<g id="Property 1=Variant2">
<rect id="Rectangle 542" x="0.5" y="0.5" width="29" height="29" rx="4.5" fill="#DADAFF" stroke="#BBBBFF"/>
<path id="Vector" d="M21.816 7.291C21.5516 7.14361 21.2608 7.04988 20.9602 7.01517C20.6596 6.98046 20.3552 7.00545 20.0642 7.08871C19.7733 7.17197 19.5016 7.31186 19.2647 7.50039C19.0278 7.68892 18.8302 7.9224 18.6835 8.18745L14.4073 15.8967L11.9601 13.445C11.7476 13.2246 11.4934 13.0489 11.2124 12.9279C10.9314 12.807 10.6292 12.7433 10.3233 12.7407C10.0175 12.738 9.7142 12.7964 9.43113 12.9124C9.14806 13.0284 8.89089 13.1998 8.67463 13.4164C8.45836 13.6331 8.28733 13.8907 8.17152 14.1743C8.05571 14.4579 7.99743 14.7617 8.00009 15.0681C8.00274 15.3745 8.06628 15.6773 8.187 15.9588C8.30771 16.2403 8.48319 16.4949 8.70318 16.7078L13.3098 21.3228C13.7451 21.76 14.3325 22 14.9383 22L15.2573 21.9769C15.6103 21.9275 15.9471 21.7966 16.241 21.5946C16.535 21.3925 16.7782 21.1249 16.9514 20.8128L22.7097 10.4292C22.8567 10.1643 22.9502 9.87307 22.9848 9.57203C23.0195 9.27099 22.9946 8.96606 22.9116 8.67465C22.8286 8.38324 22.6892 8.11106 22.5012 7.87365C22.3132 7.63625 22.0804 7.43826 21.816 7.291Z" fill="#4B7BE5"/>
</g>
</svg>
