<svg width="21" height="22" viewBox="0 0 21 22" fill="none" xmlns="http://www.w3.org/2000/svg">
<g id="Group 47272">
<path id="Vector" d="M6.12651 6.62773C6.30072 6.45375 6.53685 6.35602 6.78306 6.35602C7.02926 6.35602 7.2654 6.45375 7.4396 6.62773L10.4993 9.68747L13.5591 6.62773C13.6441 6.53645 13.7467 6.46324 13.8607 6.41246C13.9746 6.36168 14.0977 6.33438 14.2224 6.33218C14.3472 6.32997 14.4711 6.35292 14.5868 6.39965C14.7024 6.44638 14.8075 6.51593 14.8958 6.60415C14.984 6.69237 15.0535 6.79746 15.1003 6.91315C15.147 7.02883 15.1699 7.15275 15.1677 7.27749C15.1655 7.40224 15.1382 7.52526 15.0874 7.63923C15.0367 7.7532 14.9635 7.85577 14.8722 7.94082L11.8124 11.0006L14.8722 14.0603C15.0363 14.2364 15.1256 14.4694 15.1214 14.7101C15.1171 14.9508 15.0196 15.1804 14.8494 15.3506C14.6792 15.5208 14.4495 15.6184 14.2088 15.6226C13.9681 15.6268 13.7352 15.5375 13.5591 15.3734L10.4993 12.3137L7.4396 15.3734C7.35454 15.4647 7.25197 15.5379 7.13801 15.5887C7.02404 15.6394 6.90102 15.6667 6.77627 15.6689C6.65152 15.6712 6.52761 15.6482 6.41193 15.6015C6.29624 15.5547 6.19115 15.4852 6.10293 15.397C6.01471 15.3088 5.94516 15.2037 5.89843 15.088C5.8517 14.9723 5.82875 14.8484 5.83096 14.7236C5.83316 14.5989 5.86046 14.4759 5.91124 14.3619C5.96202 14.2479 6.03523 14.1454 6.12651 14.0603L9.18625 11.0006L6.12651 7.94082C5.95253 7.76662 5.8548 7.53048 5.8548 7.28428C5.8548 7.03807 5.95253 6.80194 6.12651 6.62773Z" fill="white"/>
<path id="Vector_2" fill-rule="evenodd" clip-rule="evenodd" d="M4.69852 0.804944C8.55412 0.377519 12.4452 0.377519 16.3008 0.804944C18.564 1.05765 20.3911 2.84023 20.6562 5.11583C21.1146 9.0266 21.1146 12.977 20.6562 16.8878C20.3899 19.1634 18.5627 20.9447 16.3008 21.1987C12.4452 21.6261 8.55412 21.6261 4.69852 21.1987C2.4353 20.9447 0.608129 19.1634 0.343034 16.8878C-0.114345 12.9771 -0.114345 9.02649 0.343034 5.11583C0.608129 2.84023 2.43654 1.05765 4.69852 0.804944ZM16.0951 2.6507C12.3762 2.23848 8.62309 2.23848 4.90415 2.6507C4.2157 2.72707 3.57311 3.03332 3.08017 3.51996C2.58724 4.00659 2.27277 4.6452 2.18755 5.33262C1.74698 9.09965 1.74698 12.9052 2.18755 16.6722C2.27302 17.3594 2.58762 17.9978 3.08052 18.4841C3.57343 18.9705 4.21589 19.2766 4.90415 19.3529C8.59195 19.7642 12.4073 19.7642 16.0951 19.3529C16.7832 19.2763 17.4253 18.9702 17.918 18.4838C18.4107 17.9974 18.7251 17.3592 18.8105 16.6722C19.2511 12.9052 19.2511 9.09965 18.8105 5.33262C18.7248 4.64584 18.4103 4.00794 17.9177 3.52182C17.425 3.0357 16.783 2.7297 16.0951 2.65318V2.6507Z" fill="white"/>
</g>
</svg>