<svg width="22" height="22" viewBox="0 0 22 22" fill="none" xmlns="http://www.w3.org/2000/svg">
<g id="fa:copy" clip-path="url(#clip0_123_430)">
<path id="Vector" d="M20.8214 4.71429C21.1488 4.71429 21.4271 4.82887 21.6562 5.05804C21.8854 5.2872 22 5.56548 22 5.89286V20.8214C22 21.1488 21.8854 21.4271 21.6562 21.6562C21.4271 21.8854 21.1488 22 20.8214 22H9.03571C8.70833 22 8.43006 21.8854 8.20089 21.6562C7.97173 21.4271 7.85714 21.1488 7.85714 20.8214V17.2857H1.17857C0.85119 17.2857 0.572917 17.1711 0.34375 16.942C0.114583 16.7128 0 16.4345 0 16.1071V7.85714C0 7.52976 0.0818452 7.16964 0.245536 6.77679C0.409226 6.38393 0.605655 6.07292 0.834821 5.84375L5.84375 0.834821C6.07292 0.605655 6.38393 0.409226 6.77679 0.245536C7.16964 0.0818452 7.52976 0 7.85714 0H12.9643C13.2917 0 13.5699 0.114583 13.7991 0.34375C14.0283 0.572917 14.1429 0.85119 14.1429 1.17857V5.20536C14.6994 4.87798 15.2232 4.71429 15.7143 4.71429H20.8214ZM14.1429 7.32924L10.4721 11H14.1429V7.32924ZM6.28571 2.61496L2.61496 6.28571H6.28571V2.61496ZM8.69196 10.558L12.5714 6.67857V1.57143H7.85714V6.67857C7.85714 7.00595 7.74256 7.28423 7.51339 7.51339C7.28423 7.74256 7.00595 7.85714 6.67857 7.85714H1.57143V15.7143H7.85714V12.5714C7.85714 12.244 7.93899 11.8839 8.10268 11.4911C8.26637 11.0982 8.4628 10.7872 8.69196 10.558ZM20.4286 20.4286V6.28571H15.7143V11.3929C15.7143 11.7202 15.5997 11.9985 15.3705 12.2277C15.1414 12.4568 14.8631 12.5714 14.5357 12.5714H9.42857V20.4286H20.4286Z" fill="#7A7AFF"/>
</g>
<defs>
<clipPath id="clip0_123_430">
<rect width="22" height="22" fill="white"/>
</clipPath>
</defs>
</svg>
