<svg width="40" height="40" viewBox="0 0 40 40" fill="none" xmlns="http://www.w3.org/2000/svg">
<g id="Group 47328">
<rect id="Rectangle 674" x="0.5" y="0.5" width="39" height="39" rx="9.5" fill="white" stroke="#FFD98E"/>
<g id="icon">
<g id="Group 47327">
<path id="Vector" d="M22.4 19.5953C22.4 16.6049 19.6196 13.5977 16.2284 13.5977H14.1716C10.7636 13.5977 8 16.2833 8 19.5953C8 22.4489 10.052 24.8369 12.8 25.4429C13.2505 25.542 13.7104 25.5919 14.1716 25.5917M25.8284 13.5977C26.3 13.5977 26.7584 13.6493 27.2 13.7465C29.948 14.3525 32 16.7405 32 19.5953C31.9985 20.4225 31.8232 21.2403 31.4854 21.9954C31.1476 22.7506 30.6549 23.4263 30.0392 23.9789" stroke="#F4B400" stroke-width="1.75" stroke-linecap="round" stroke-linejoin="round"/>
<g id="Group 47326">
<path id="Vector_2" d="M17.5996 19.5938C17.5996 22.583 20.38 25.5902 23.7712 25.5902" stroke="#F4B400" stroke-width="1.75" stroke-linecap="round" stroke-linejoin="round"/>
</g>
</g>
<path id="Vector_3" d="M26 29.2015C26 29.044 26.031 28.8881 26.0913 28.7426C26.1517 28.5971 26.24 28.4649 26.3515 28.3535C26.4629 28.2422 26.5952 28.1538 26.7408 28.0936C26.8864 28.0333 27.0424 28.0023 27.2 28.0023C27.3576 28.0023 27.5136 28.0333 27.6592 28.0936C27.8048 28.1538 27.9371 28.2422 28.0485 28.3535C28.16 28.4649 28.2483 28.5971 28.3087 28.7426C28.369 28.8881 28.4 29.044 28.4 29.2015C28.4 29.5196 28.2736 29.8246 28.0485 30.0495C27.8235 30.2744 27.5183 30.4008 27.2 30.4008C26.8817 30.4008 26.5765 30.2744 26.3515 30.0495C26.1264 29.8246 26 29.5196 26 29.2015ZM26.1176 22C26.1016 21.8487 26.1176 21.6958 26.1646 21.5511C26.2116 21.4064 26.2885 21.2731 26.3904 21.1601C26.4922 21.047 26.6167 20.9566 26.7558 20.8947C26.8948 20.8328 27.0454 20.8008 27.1976 20.8008C27.3498 20.8008 27.5004 20.8328 27.6394 20.8947C27.7785 20.9566 27.903 21.047 28.0048 21.1601C28.1067 21.2731 28.1836 21.4064 28.2306 21.5511C28.2776 21.6958 28.2936 21.8487 28.2776 22L27.8576 26.2058C27.8405 26.3689 27.7636 26.5198 27.6418 26.6295C27.5199 26.7393 27.3616 26.8 27.1976 26.8C27.0336 26.8 26.8753 26.7393 26.7534 26.6295C26.6316 26.5198 26.5547 26.3689 26.5376 26.2058L26.1176 22Z" fill="#F4B400"/>
</g>
</g>
</svg>
