<svg width="23" height="23" viewBox="0 0 23 23" fill="none" xmlns="http://www.w3.org/2000/svg">
<g id="maki:cross">
<path id="Vector" d="M5.96024 3.405L11.7502 9.195L17.5102 3.435C17.6375 3.29958 17.7907 3.19124 17.9609 3.11649C18.131 3.04174 18.3144 3.00212 18.5002 3C18.8981 3 19.2796 3.15804 19.5609 3.43934C19.8422 3.72064 20.0002 4.10218 20.0002 4.5C20.0037 4.6839 19.9696 4.86658 19.9 5.03682C19.8303 5.20706 19.7266 5.36128 19.5952 5.49L13.7602 11.25L19.5952 17.085C19.8425 17.3269 19.9874 17.6544 20.0002 18C20.0002 18.3978 19.8422 18.7794 19.5609 19.0607C19.2796 19.342 18.8981 19.5 18.5002 19.5C18.3091 19.5079 18.1183 19.476 17.9402 19.4063C17.762 19.3366 17.6003 19.2306 17.4652 19.095L11.7502 13.305L5.97524 19.08C5.8485 19.2109 5.69709 19.3154 5.52975 19.3875C5.3624 19.4596 5.18244 19.4978 5.00024 19.5C4.60242 19.5 4.22089 19.342 3.93958 19.0607C3.65828 18.7794 3.50024 18.3978 3.50024 18C3.49675 17.8161 3.53087 17.6334 3.60051 17.4632C3.67016 17.2929 3.77385 17.1387 3.90524 17.01L9.74024 11.25L3.90524 5.415C3.65802 5.17314 3.51305 4.84562 3.50024 4.5C3.50024 4.10218 3.65828 3.72064 3.93958 3.43934C4.22089 3.15804 4.60242 3 5.00024 3C5.36024 3.0045 5.70524 3.15 5.96024 3.405Z" fill="#4B7BE5"/>
</g>
</svg>
