<svg width="18" height="18" viewBox="0 0 18 18" fill="none" xmlns="http://www.w3.org/2000/svg">
<g id="solar:crown-line-duotone">
<g id="Group">
<path id="Vector" d="M13.1025 8.43375L12.7057 8.0355L13.1033 8.43375H13.1025ZM4.89675 8.43375L4.5 8.83275L4.8975 8.43375H4.89675ZM5.99775 8.96925L6.2235 9.4845L5.997 8.96925H5.99775ZM9.681 5.08725L9.42525 4.58625L9.68025 5.08725H9.681ZM8.319 5.08725L8.57475 4.58625L8.31975 5.08725H8.319ZM14.3438 9.231L14.2065 10.5097L15.324 10.6298L15.462 9.35175L14.3438 9.23175V9.231ZM9.816 15.1875H8.184V16.3125H9.816V15.1875ZM3.7935 10.5097L3.65625 9.231L2.538 9.351L2.67525 10.6298L3.7935 10.5097ZM7.06125 8.47425L8.40375 6.06825L7.42125 5.52L6.07875 7.92675L7.06125 8.47425ZM9.59625 6.06825L10.9388 8.47425L11.9213 7.92675L10.5787 5.52L9.59625 6.06825ZM10.9388 8.47425C11.0603 8.69175 11.1713 8.89425 11.28 9.048C11.3918 9.20625 11.5425 9.38175 11.7758 9.4845L12.2295 8.45475C12.2715 8.47275 12.264 8.49225 12.2003 8.4015C12.1002 8.24748 12.0071 8.08908 11.9213 7.92675L10.9388 8.47425ZM12.7057 8.0355C12.5122 8.229 12.3968 8.343 12.306 8.41575C12.2198 8.4855 12.2183 8.46525 12.2633 8.45925L12.417 9.57375C12.669 9.5385 12.8632 9.41175 13.014 9.29025C13.1602 9.17175 13.323 9.00825 13.5 8.83275L12.7057 8.0355ZM11.7758 9.4845C11.9775 9.573 12.1995 9.60375 12.417 9.57375L12.2633 8.45925C12.2518 8.46092 12.2401 8.45936 12.2295 8.45475L11.7758 9.4845ZM4.50075 8.832C4.677 9.00825 4.83975 9.17175 4.986 9.2895C5.13675 9.4125 5.331 9.5385 5.583 9.57375L5.73675 8.45925C5.78175 8.46525 5.78025 8.4855 5.694 8.41575C5.55517 8.295 5.42179 8.16812 5.29425 8.0355L4.5 8.83275L4.50075 8.832ZM6.07875 7.92675C5.99261 8.08909 5.89927 8.24749 5.799 8.4015C5.736 8.4915 5.7285 8.47275 5.7705 8.454L6.2235 9.4845C6.456 9.38175 6.609 9.207 6.72 9.048C6.828 8.8935 6.93975 8.69175 7.06125 8.47425L6.07875 7.92675ZM5.583 9.57375C5.8005 9.60375 6.0225 9.57375 6.2235 9.4845L5.7705 8.454C5.75989 8.45861 5.7482 8.46092 5.73675 8.45925L5.583 9.57375ZM8.184 15.1875C7.1055 15.1875 6.35025 15.1867 5.77425 15.1125C5.21325 15.0412 4.89675 14.9078 4.659 14.6955L3.909 15.534C4.3815 15.957 4.9515 16.1415 5.631 16.2285C6.2955 16.3133 7.1355 16.3125 8.184 16.3125V15.1875ZM2.67525 10.6298C2.78625 11.6632 2.87475 12.675 3.02475 13.4955C3.1005 13.9095 3.1965 14.2995 3.3285 14.6378C3.45975 14.9738 3.64125 15.294 3.909 15.534L4.659 14.6955C4.572 14.6175 4.473 14.475 4.37625 14.2283C4.26586 13.9248 4.184 13.6117 4.13175 13.293C3.99075 12.5265 3.90825 11.583 3.7935 10.5097L2.67525 10.6298ZM14.2065 10.5097C14.091 11.583 14.0085 12.5265 13.869 13.2922C13.7993 13.6725 13.719 13.9838 13.6238 14.2283C13.527 14.475 13.428 14.6182 13.341 14.6955L14.091 15.534C14.3588 15.294 14.5402 14.9738 14.6715 14.6378C14.8035 14.2995 14.8995 13.9095 14.9752 13.4955C15.1252 12.675 15.2138 11.6625 15.3248 10.6298L14.2065 10.5097ZM9.816 16.3125C10.8645 16.3125 11.7045 16.3133 12.369 16.2285C13.0493 16.1415 13.6185 15.957 14.091 15.534L13.341 14.6955C13.1033 14.9078 12.7868 15.0405 12.2257 15.1125C11.6498 15.1867 10.8945 15.1875 9.816 15.1875V16.3125ZM8.0625 3.75C8.0625 3.2325 8.4825 2.8125 9 2.8125V1.6875C8.45299 1.6875 7.92839 1.9048 7.54159 2.29159C7.1548 2.67839 6.9375 3.20299 6.9375 3.75H8.0625ZM9 2.8125C9.5175 2.8125 9.9375 3.2325 9.9375 3.75H11.0625C11.0625 3.20299 10.8452 2.67839 10.4584 2.29159C10.0716 1.9048 9.54701 1.6875 9 1.6875V2.8125ZM15.5625 6.75C15.5625 6.89918 15.5032 7.04226 15.3977 7.14775C15.2923 7.25324 15.1492 7.3125 15 7.3125V8.4375C15.4476 8.4375 15.8768 8.25971 16.1932 7.94324C16.5097 7.62677 16.6875 7.19755 16.6875 6.75H15.5625ZM14.4375 6.75C14.4375 6.60082 14.4968 6.45774 14.6023 6.35225C14.7077 6.24676 14.8508 6.1875 15 6.1875V5.0625C14.5524 5.0625 14.1232 5.24029 13.8068 5.55676C13.4903 5.87323 13.3125 6.30245 13.3125 6.75H14.4375ZM15 6.1875C15.1492 6.1875 15.2923 6.24676 15.3977 6.35225C15.5032 6.45774 15.5625 6.60082 15.5625 6.75H16.6875C16.6875 6.30245 16.5097 5.87323 16.1932 5.55676C15.8768 5.24029 15.4476 5.0625 15 5.0625V6.1875ZM3 7.3125C2.85082 7.3125 2.70774 7.25324 2.60225 7.14775C2.49676 7.04226 2.4375 6.89918 2.4375 6.75H1.3125C1.3125 7.19755 1.49029 7.62677 1.80676 7.94324C2.12322 8.25971 2.55245 8.4375 3 8.4375V7.3125ZM2.4375 6.75C2.4375 6.60082 2.49676 6.45774 2.60225 6.35225C2.70774 6.24676 2.85082 6.1875 3 6.1875V5.0625C2.55245 5.0625 2.12322 5.24029 1.80676 5.55676C1.49029 5.87323 1.3125 6.30245 1.3125 6.75H2.4375ZM3 6.1875C3.14918 6.1875 3.29226 6.24676 3.39775 6.35225C3.50324 6.45774 3.5625 6.60082 3.5625 6.75H4.6875C4.6875 6.30245 4.50971 5.87323 4.19324 5.55676C3.87678 5.24029 3.44755 5.0625 3 5.0625V6.1875ZM15 7.3125C14.9978 7.31251 14.9955 7.31251 14.9932 7.3125L14.9805 8.4375H15V7.3125ZM15.462 9.35175C15.4987 9.01425 15.5302 8.7195 15.5475 8.4735C15.5687 8.24945 15.5677 8.02385 15.5445 7.8L14.4293 7.95C14.4405 8.0325 14.4412 8.1675 14.4255 8.394C14.4105 8.6145 14.3813 8.88675 14.3438 9.231L15.462 9.35175ZM14.9932 7.3125C14.9135 7.3117 14.8349 7.2939 14.7626 7.26027C14.6903 7.22664 14.626 7.17797 14.574 7.1175L13.7228 7.8525C14.0273 8.205 14.4773 8.4315 14.9805 8.4375L14.9932 7.3125ZM14.574 7.1175C14.4855 7.01554 14.4371 6.88498 14.4375 6.75H13.3125C13.3125 7.17075 13.4678 7.557 13.7228 7.8525L14.574 7.1175ZM13.5 8.83275C14.0077 8.3265 14.2695 8.0715 14.4435 7.9635L13.8533 7.0065C13.5383 7.2015 13.1602 7.5825 12.7057 8.0355L13.5 8.83275ZM3.5625 6.75C3.56295 6.88498 3.51445 7.01554 3.426 7.1175L4.27725 7.8525C4.53225 7.557 4.6875 7.17075 4.6875 6.75H3.5625ZM5.29425 8.0355C4.83975 7.5825 4.46175 7.20075 4.14675 7.0065L3.5565 7.9635C3.7305 8.0715 3.9915 8.3265 4.5 8.83275L5.29425 8.0355ZM3.426 7.1175C3.37402 7.17797 3.30973 7.22664 3.23743 7.26027C3.16513 7.2939 3.08648 7.3117 3.00675 7.3125L3.0195 8.4375C3.25863 8.43468 3.49443 8.38106 3.71126 8.28021C3.9281 8.17935 4.12103 8.03356 4.27725 7.8525L3.426 7.1175ZM3.00675 7.3125C3.0045 7.31251 3.00225 7.31251 3 7.3125V8.4375H3.0195L3.00675 7.3125ZM3.65625 9.231C3.62419 8.95249 3.59694 8.67345 3.5745 8.394C3.55955 8.24643 3.55829 8.0978 3.57075 7.95L2.4555 7.8C2.43232 8.02385 2.43132 8.24945 2.4525 8.4735C2.46975 8.7195 2.50125 9.0135 2.538 9.351L3.65625 9.231ZM9.9375 3.75C9.9375 4.11375 9.7305 4.43025 9.42525 4.58625L9.936 5.58825C10.2751 5.41557 10.5597 5.15246 10.7586 4.82803C10.9574 4.50361 11.0626 4.1305 11.0625 3.75H9.9375ZM9.42525 4.58625C9.29775 4.65075 9.1545 4.6875 9 4.6875V5.8125C9.336 5.8125 9.65475 5.7315 9.936 5.5875L9.42525 4.58625ZM10.5787 5.52C10.4242 5.2425 10.2855 4.99275 10.158 4.78875L9.204 5.385C9.3135 5.5605 9.4365 5.78325 9.59625 6.06825L10.5787 5.52ZM9 4.6875C8.8455 4.6875 8.7015 4.65 8.57475 4.58625L8.064 5.58825C8.34525 5.7315 8.664 5.8125 9 5.8125V4.6875ZM8.57475 4.58625C8.42049 4.50774 8.29098 4.38805 8.20056 4.24045C8.11015 4.09284 8.06236 3.92309 8.0625 3.75H6.9375C6.93757 4.13037 7.04283 4.50332 7.24163 4.8276C7.44044 5.15189 7.72505 5.41488 8.064 5.5875L8.57475 4.58625ZM8.40375 6.06825C8.56275 5.78175 8.6865 5.5605 8.796 5.38575L7.842 4.78875C7.7145 4.99275 7.57575 5.2425 7.42125 5.52L8.40375 6.06825Z" fill="#3ABA6E"/>
<path id="Vector_2" opacity="0.5" d="M3.75 13.125H14.25" stroke="#3ABA6E" stroke-width="1.125" stroke-linecap="round"/>
</g>
</g>
</svg>
