<svg width="21" height="21" viewBox="0 0 21 21" fill="none" xmlns="http://www.w3.org/2000/svg">
<g id="mingcute:delete-3-line" clip-path="url(#clip0_1913_22867)">
<g id="Group">
<path id="Vector" fill-rule="evenodd" clip-rule="evenodd" d="M12.495 1.75C12.8623 1.7501 13.2202 1.86575 13.5181 2.08058C13.8161 2.29541 14.0388 2.59853 14.1549 2.947L14.63 4.375H17.5C17.7321 4.375 17.9546 4.46719 18.1187 4.63128C18.2828 4.79538 18.375 5.01794 18.375 5.25C18.375 5.48206 18.2828 5.70462 18.1187 5.86872C17.9546 6.03281 17.7321 6.125 17.5 6.125H16.625V16.625C16.625 17.3212 16.3484 17.9889 15.8562 18.4812C15.3639 18.9734 14.6962 19.25 14 19.25H7C6.30381 19.25 5.63613 18.9734 5.14384 18.4812C4.65156 17.9889 4.375 17.3212 4.375 16.625V6.125H3.5C3.26794 6.125 3.04538 6.03281 2.88128 5.86872C2.71719 5.70462 2.625 5.48206 2.625 5.25C2.625 5.01794 2.71719 4.79538 2.88128 4.63128C3.04538 4.46719 3.26794 4.375 3.5 4.375H6.37L6.84513 2.947C6.96124 2.59839 7.18413 2.29517 7.48221 2.08033C7.78029 1.86548 8.13844 1.74991 8.50587 1.75H12.495ZM14.875 6.125H6.125V16.625C6.125 16.8571 6.21719 17.0796 6.38128 17.2437C6.54538 17.4078 6.76794 17.5 7 17.5H14C14.2321 17.5 14.4546 17.4078 14.6187 17.2437C14.7828 17.0796 14.875 16.8571 14.875 16.625V6.125ZM12.495 3.5H8.505L8.21362 4.375H12.7864L12.495 3.5Z" fill="#FF6161"/>
</g>
</g>
<defs>
<clipPath id="clip0_1913_22867">
<rect width="21" height="21" fill="white"/>
</clipPath>
</defs>
</svg>
