<svg width="20" height="20" viewBox="0 0 20 20" fill="none" xmlns="http://www.w3.org/2000/svg">
<path id="Vector" d="M12.1423 11.429C12.7106 11.429 13.2556 11.6547 13.6575 12.0566C14.0593 12.4584 14.2851 13.0034 14.2851 13.5717V14.286C14.2851 17.1016 11.628 20 7.14253 20C2.65702 20 0 17.1016 0 14.286V13.5717C0 13.0034 0.225755 12.4584 0.6276 12.0566C1.02945 11.6547 1.57447 11.429 2.14276 11.429H12.1423ZM12.1423 12.8575H2.14276C1.95333 12.8575 1.77166 12.9327 1.63771 13.0667C1.50376 13.2006 1.42851 13.3823 1.42851 13.5717V14.286C1.42851 16.3402 3.47413 18.5715 7.14253 18.5715C10.8109 18.5715 12.8566 16.3402 12.8566 14.286V13.5717C12.8566 13.3823 12.7813 13.2006 12.6474 13.0667C12.5134 12.9327 12.3317 12.8575 12.1423 12.8575ZM7.14253 2.14366C8.18441 2.14366 9.18361 2.55755 9.92033 3.29426C10.657 4.03098 11.0709 5.03018 11.0709 6.07206C11.0709 7.11393 10.657 8.11313 9.92033 8.84985C9.18361 9.58657 8.18441 10.0005 7.14253 10.0005C6.10066 10.0005 5.10146 9.58657 4.36474 8.84985C3.62802 8.11313 3.21414 7.11393 3.21414 6.07206C3.21414 5.03018 3.62802 4.03098 4.36474 3.29426C5.10146 2.55755 6.10066 2.14366 7.14253 2.14366ZM7.14253 3.57217C6.47952 3.57217 5.84367 3.83555 5.37485 4.30437C4.90603 4.77319 4.64265 5.40905 4.64265 6.07206C4.64265 6.73507 4.90603 7.37092 5.37485 7.83974C5.84367 8.30856 6.47952 8.57194 7.14253 8.57194C7.80555 8.57194 8.4414 8.30856 8.91022 7.83974C9.37904 7.37092 9.64242 6.73507 9.64242 6.07206C9.64242 5.40905 9.37904 4.77319 8.91022 4.30437C8.4414 3.83555 7.80555 3.57217 7.14253 3.57217ZM13.9765 0.128039L14.0765 0.209464L16.4278 2.56222L18.7792 0.209464C18.9133 0.0753466 19.0952 0 19.2848 0C19.4745 0 19.6564 0.0753466 19.7905 0.209464C19.9247 0.343582 20 0.525485 20 0.715156C20 0.904827 19.9247 1.08673 19.7905 1.22085L17.4378 3.57217L19.7905 5.92349C19.9086 6.04185 19.9815 6.1979 19.9964 6.36444C20.0112 6.53098 19.9672 6.69746 19.872 6.83488L19.7905 6.93488C19.6722 7.05298 19.5161 7.12581 19.3496 7.14069C19.1831 7.15557 19.0166 7.11155 18.8791 7.0163L18.7792 6.93488L16.4278 4.58212L14.0765 6.93488C13.9424 7.06899 13.7605 7.14434 13.5708 7.14434C13.3811 7.14434 13.1992 7.06899 13.0651 6.93488C12.931 6.80076 12.8557 6.61885 12.8557 6.42918C12.8557 6.23951 12.931 6.05761 13.0651 5.92349L15.4179 3.57217L13.0651 1.22085C12.947 1.10249 12.8742 0.946445 12.8593 0.779904C12.8444 0.613364 12.8884 0.446881 12.9837 0.30946L13.0651 0.209464C13.1684 0.10658 13.3006 0.0377491 13.4441 0.0122139C13.5877 -0.0133213 13.7355 0.00566157 13.8679 0.0666136L13.9765 0.128039Z" fill="white"/>
</svg>
