<svg width="21" height="21" viewBox="0 0 21 21" fill="none" xmlns="http://www.w3.org/2000/svg">
<g id="gg:details-more">
<path id="Vector" d="M1.85181 7.23414C1.85181 7.01159 1.94021 6.79816 2.09758 6.64079C2.25495 6.48343 2.46838 6.39502 2.69093 6.39502H17.7952C18.0177 6.39502 18.2312 6.48343 18.3885 6.64079C18.5459 6.79816 18.6343 7.01159 18.6343 7.23414C18.6343 7.45669 18.5459 7.67013 18.3885 7.82749C18.2312 7.98486 18.0177 8.07327 17.7952 8.07327H2.69093C2.46838 8.07327 2.25495 7.98486 2.09758 7.82749C1.94021 7.67013 1.85181 7.45669 1.85181 7.23414ZM1.85181 10.5906C1.85181 10.3681 1.94021 10.1547 2.09758 9.99729C2.25495 9.83993 2.46838 9.75152 2.69093 9.75152H17.7952C18.0177 9.75152 18.2312 9.83993 18.3885 9.99729C18.5459 10.1547 18.6343 10.3681 18.6343 10.5906C18.6343 10.8132 18.5459 11.0266 18.3885 11.184C18.2312 11.3414 18.0177 11.4298 17.7952 11.4298H2.69093C2.46838 11.4298 2.25495 11.3414 2.09758 11.184C1.94021 11.0266 1.85181 10.8132 1.85181 10.5906ZM2.69093 13.108C2.46838 13.108 2.25495 13.1964 2.09758 13.3538C1.94021 13.5112 1.85181 13.7246 1.85181 13.9471C1.85181 14.1697 1.94021 14.3831 2.09758 14.5405C2.25495 14.6979 2.46838 14.7863 2.69093 14.7863H12.7604C12.983 14.7863 13.1964 14.6979 13.3538 14.5405C13.5111 14.3831 13.5996 14.1697 13.5996 13.9471C13.5996 13.7246 13.5111 13.5112 13.3538 13.3538C13.1964 13.1964 12.983 13.108 12.7604 13.108H2.69093Z" fill="#4B7BE5"/>
</g>
</svg>
