<svg width="23" height="18" viewBox="0 0 23 18" fill="none" xmlns="http://www.w3.org/2000/svg">
<g id="Group">
<path id="Vector" d="M13 5.998C13 3.506 10.683 1 7.857 1H6.143C3.303 1 1 3.238 1 5.998C1 8.376 2.71 10.366 5 10.871C5.37538 10.9537 5.75863 10.9952 6.143 10.995M15.857 1C16.25 1 16.632 1.043 17 1.124C19.29 1.629 21 3.619 21 5.998C20.9988 6.68739 20.8527 7.36883 20.5712 7.99814C20.2897 8.62744 19.8791 9.19057 19.366 9.651" stroke="#FF6161" stroke-width="1.75" stroke-linecap="round" stroke-linejoin="round"/>
<path id="Vector_2" d="M9 5.99805C9 8.48905 11.317 10.995 14.143 10.995M17 16.243L19.121 14.121M19.121 14.121L21.243 12M19.121 14.121L17 12M19.121 14.121L21.243 16.243" stroke="#FF6161" stroke-width="1.75" stroke-linecap="round" stroke-linejoin="round"/>
</g>
</svg>
