<svg width="13" height="13" viewBox="0 0 13 13" fill="none" xmlns="http://www.w3.org/2000/svg">
<g id="simple-line-icons:docs" clip-path="url(#clip0_828_103797)">
<path id="Vector" d="M9.75 0H5.28125C4.83255 0 4.46875 0.363797 4.46875 0.8125H8.9375V4.0625H12.1875V10.5625H9.34375V11.375H12.1875C12.6362 11.375 13 11.0112 13 10.5625V3.2502L9.75 0ZM9.75 3.25V1.14887L11.8507 3.25H9.75ZM0.8125 1.625C0.363797 1.625 0 1.9888 0 2.4375V12.1875C0 12.6362 0.363797 13 0.8125 13H7.71875C8.16745 13 8.53125 12.6362 8.53125 12.1875V4.8752L5.28125 1.625H0.8125ZM7.71875 12.1875H0.8125V2.4375H4.46875V5.6875H7.71875V12.1875ZM5.28125 4.875V2.77387L7.38197 4.875H5.28125Z" fill="#7A7AFF"/>
</g>
<defs>
<clipPath id="clip0_828_103797">
<rect width="13" height="13" fill="white"/>
</clipPath>
</defs>
</svg>
