<svg width="20" height="20" viewBox="0 0 20 20" fill="none" xmlns="http://www.w3.org/2000/svg">
<g id="carbon:two-factor-authentication">
<path id="Vector" d="M6.87504 14.4875L5.62504 13.2369L4.74316 14.1181L6.87504 16.25L10.625 12.5L9.74379 11.6187L6.87504 14.4875ZM17.5 18.75H15V17.5H17.5V10H15V5C14.9992 4.33721 14.7356 3.70181 14.2669 3.23315C13.7982 2.76448 13.1628 2.50083 12.5 2.5V1.25C13.4942 1.25116 14.4474 1.64662 15.1504 2.34963C15.8534 3.05264 16.2489 4.00579 16.25 5V8.75H17.5C17.8315 8.75033 18.1492 8.88213 18.3836 9.11648C18.6179 9.35083 18.7497 9.66858 18.75 10V17.5C18.7497 17.8314 18.6179 18.1492 18.3836 18.3835C18.1492 18.6179 17.8315 18.7497 17.5 18.75Z" fill="white"/>
<path id="Vector_2" d="M12.5 8.75H11.25V5C11.25 4.00544 10.8549 3.05161 10.1517 2.34835C9.44839 1.64509 8.49456 1.25 7.5 1.25C6.50544 1.25 5.55161 1.64509 4.84835 2.34835C4.14509 3.05161 3.75 4.00544 3.75 5V8.75H2.5C2.16848 8.75 1.85054 8.8817 1.61612 9.11612C1.3817 9.35054 1.25 9.66848 1.25 10V17.5C1.25 17.8315 1.3817 18.1495 1.61612 18.3839C1.85054 18.6183 2.16848 18.75 2.5 18.75H12.5C12.8315 18.75 13.1495 18.6183 13.3839 18.3839C13.6183 18.1495 13.75 17.8315 13.75 17.5V10C13.75 9.66848 13.6183 9.35054 13.3839 9.11612C13.1495 8.8817 12.8315 8.75 12.5 8.75ZM5 5C5 4.33696 5.26339 3.70107 5.73223 3.23223C6.20107 2.76339 6.83696 2.5 7.5 2.5C8.16304 2.5 8.79893 2.76339 9.26777 3.23223C9.73661 3.70107 10 4.33696 10 5V8.75H5V5ZM12.5 17.5H2.5V10H12.5V17.5Z" fill="white"/>
</g>
</svg>
