<svg width="45" height="45" viewBox="0 0 45 45" fill="none" xmlns="http://www.w3.org/2000/svg">
<g id="Group 47218">
<rect id="Rectangle 543" width="45" height="45" rx="10" fill="#A8FFCB"/>
<g id="Vector">
<path d="M13 27.25V28.4375C13 29.3823 13.3753 30.2885 14.0434 30.9566C14.7115 31.6247 15.6177 32 16.5625 32H28.4375C29.3823 32 30.2885 31.6247 30.9566 30.9566C31.6247 30.2885 32 29.3823 32 28.4375V27.25M27.25 22.5L22.5 27.25L27.25 22.5ZM22.5 27.25L17.75 22.5L22.5 27.25ZM22.5 27.25V13V27.25Z" fill="#A8FFCB"/>
<path d="M13 27.25V28.4375C13 29.3823 13.3753 30.2885 14.0434 30.9566C14.7115 31.6247 15.6177 32 16.5625 32H28.4375C29.3823 32 30.2885 31.6247 30.9566 30.9566C31.6247 30.2885 32 29.3823 32 28.4375V27.25M27.25 22.5L22.5 27.25M22.5 27.25L17.75 22.5M22.5 27.25V13" stroke="#3ABA6E" stroke-width="2" stroke-linecap="round" stroke-linejoin="round"/>
</g>
</g>
</svg>
