<svg width="23" height="24" viewBox="0 0 23 24" fill="none" xmlns="http://www.w3.org/2000/svg">
<g id="basil:download-outline">
<path id="Vector" fill-rule="evenodd" clip-rule="evenodd" d="M10.3106 3.82886C9.57992 3.82886 8.97103 4.38677 8.90684 5.11461C8.77357 6.63536 8.73983 8.16321 8.80582 9.68836L8.56699 9.70536L7.16041 9.80731C6.95499 9.82232 6.75698 9.89041 6.58578 10.0049C6.41458 10.1194 6.27604 10.2764 6.18374 10.4606C6.09144 10.6447 6.04853 10.8496 6.05922 11.0553C6.06991 11.261 6.13382 11.4604 6.24471 11.634C7.27975 13.2537 8.61343 14.6617 10.1746 15.7829L10.7373 16.1879C10.9601 16.348 11.2276 16.4342 11.5019 16.4342C11.7763 16.4342 12.0438 16.348 12.2666 16.1879L12.8292 15.7829C14.3901 14.6616 15.7235 13.2536 16.7582 11.634C16.8691 11.4604 16.933 11.261 16.9437 11.0553C16.9544 10.8496 16.9115 10.6447 16.8192 10.4606C16.7269 10.2764 16.5883 10.1194 16.4171 10.0049C16.2459 9.89041 16.0479 9.82232 15.8425 9.80731L14.4359 9.70536C14.3567 9.69946 14.2774 9.69379 14.198 9.68836C14.2641 8.16378 14.2301 6.63542 14.097 5.11461C14.0663 4.76353 13.9051 4.43672 13.6452 4.19869C13.3854 3.96066 13.0457 3.8287 12.6933 3.82886H10.3106ZM10.2577 10.3095C10.1502 8.62222 10.1701 6.9292 10.3172 5.24488H12.6867C12.8341 6.92917 12.8543 8.62219 12.7471 10.3095C12.7412 10.4031 12.754 10.4968 12.7846 10.5854C12.8153 10.674 12.8632 10.7556 12.9257 10.8255C12.9881 10.8954 13.0638 10.9522 13.1484 10.9926C13.2329 11.033 13.3247 11.0563 13.4183 11.061C13.7241 11.0761 14.0291 11.0949 14.334 11.1176L15.3545 11.1922C14.4481 12.527 13.3137 13.6918 12.0032 14.6331L11.5029 14.9928L11.0007 14.6331C9.69011 13.6915 8.55569 12.5264 7.64941 11.1912L8.66989 11.1185C8.9748 11.0959 9.28067 11.077 9.58558 11.0619C9.67927 11.0573 9.77112 11.0342 9.85579 10.9938C9.94046 10.9535 10.0163 10.8967 10.0788 10.8268C10.1413 10.7568 10.1894 10.6752 10.2201 10.5866C10.2508 10.4979 10.2636 10.4041 10.2577 10.3105V10.3095Z" fill="#4B7BE5"/>
<path id="Vector_2" d="M5.60181 16.8088C5.60181 16.6211 5.52722 16.441 5.39444 16.3082C5.26166 16.1754 5.08158 16.1008 4.8938 16.1008C4.70603 16.1008 4.52594 16.1754 4.39316 16.3082C4.26038 16.441 4.18579 16.6211 4.18579 16.8088V18.6969C4.18579 19.6088 4.9259 20.3489 5.83782 20.3489H17.166C17.6042 20.3489 18.0244 20.1748 18.3342 19.865C18.644 19.5552 18.818 19.135 18.818 18.6969V16.8088C18.818 16.6211 18.7434 16.441 18.6107 16.3082C18.4779 16.1754 18.2978 16.1008 18.11 16.1008C17.9222 16.1008 17.7422 16.1754 17.6094 16.3082C17.4766 16.441 17.402 16.6211 17.402 16.8088V18.6969C17.402 18.7595 17.3771 18.8195 17.3329 18.8638C17.2886 18.908 17.2286 18.9329 17.166 18.9329H5.83782C5.77523 18.9329 5.7152 18.908 5.67094 18.8638C5.62668 18.8195 5.60181 18.7595 5.60181 18.6969V16.8088Z" fill="#4B7BE5"/>
</g>
</svg>
