<svg width="18" height="16" viewBox="0 0 18 16" fill="none" xmlns="http://www.w3.org/2000/svg">
<g id="mingcute:up-fill">
<g id="Group">
<path id="Vector" fill-rule="evenodd" clip-rule="evenodd" d="M8.59176 10.7066C8.7905 10.8938 9.0599 10.999 9.34078 10.999C9.62166 10.999 9.89106 10.8938 10.0898 10.7066L14.0878 6.9359C14.1862 6.84302 14.2643 6.73275 14.3175 6.6114C14.3708 6.49005 14.3982 6.36 14.3981 6.22867C14.3981 6.09733 14.3706 5.96729 14.3173 5.84597C14.264 5.72465 14.1859 5.61441 14.0875 5.52157C13.989 5.42873 13.8721 5.35509 13.7435 5.30486C13.6149 5.25462 13.4771 5.22879 13.3379 5.22882C13.1987 5.22885 13.0608 5.25475 12.9322 5.30504C12.8036 5.35532 12.6868 5.42901 12.5884 5.5219L9.34078 8.5859L6.09317 5.5219C5.99544 5.42635 5.87852 5.35012 5.74923 5.29765C5.61994 5.24519 5.48087 5.21754 5.34014 5.21632C5.1994 5.21511 5.05982 5.24035 4.92954 5.29057C4.79925 5.34079 4.68087 5.41499 4.58131 5.50884C4.48174 5.60269 4.40298 5.7143 4.34963 5.83718C4.29627 5.96005 4.26939 6.09172 4.27054 6.2245C4.2717 6.35727 4.30087 6.48851 4.35636 6.61054C4.41185 6.73256 4.49254 6.84294 4.59373 6.93524L8.59106 10.7072L8.59176 10.7066Z" fill="#7A7AFF"/>
</g>
</g>
</svg>
