<svg width="22" height="22" viewBox="0 0 22 22" fill="none" xmlns="http://www.w3.org/2000/svg">
<g id="clarity:employee-line">
<path id="Vector" d="M10.0406 10.2001C9.19449 10.2001 8.36742 9.9492 7.66394 9.47915C6.96047 9.0091 6.41217 8.34101 6.0884 7.55935C5.76462 6.77768 5.67991 5.91757 5.84497 5.08776C6.01003 4.25795 6.41745 3.49572 7.0157 2.89747C7.61396 2.29921 8.37619 1.89179 9.206 1.72673C10.0358 1.56167 10.8959 1.64638 11.6776 1.97016C12.4592 2.29393 13.1273 2.84223 13.5974 3.5457C14.0674 4.24918 14.3183 5.07625 14.3183 5.92231C14.3183 7.05685 13.8676 8.14492 13.0654 8.94716C12.2632 9.7494 11.1751 10.2001 10.0406 10.2001ZM10.0406 2.91564C9.43622 2.91564 8.84546 3.09485 8.34297 3.4306C7.84049 3.76635 7.44885 4.24356 7.21758 4.80189C6.98632 5.36022 6.92581 5.97459 7.04371 6.56731C7.16161 7.16003 7.45262 7.70448 7.87995 8.1318C8.30727 8.55913 8.85172 8.85014 9.44444 8.96804C10.0372 9.08594 10.6515 9.02543 11.2099 8.79417C11.7682 8.5629 12.2454 8.17126 12.5812 7.66878C12.9169 7.16629 13.0961 6.57553 13.0961 5.9712C13.0961 5.56994 13.0171 5.17261 12.8635 4.80189C12.71 4.43117 12.4849 4.09433 12.2012 3.8106C11.9174 3.52686 11.5806 3.30179 11.2099 3.14823C10.8391 2.99468 10.4418 2.91564 10.0406 2.91564ZM13.4444 10.9395C10.1374 10.1954 6.67762 10.5538 3.59333 11.9601C3.16915 12.1627 2.81127 12.4817 2.56134 12.8798C2.31142 13.2779 2.17975 13.7389 2.18166 14.209V17.8451C2.18166 17.9253 2.19747 18.0048 2.22818 18.079C2.25889 18.1531 2.3039 18.2205 2.36065 18.2772C2.4174 18.334 2.48477 18.379 2.55891 18.4097C2.63305 18.4404 2.71252 18.4562 2.79277 18.4562C2.87302 18.4562 2.95249 18.4404 3.02663 18.4097C3.10078 18.379 3.16815 18.334 3.22489 18.2772C3.28164 18.2205 3.32665 18.1531 3.35737 18.079C3.38808 18.0048 3.40388 17.9253 3.40388 17.8451V14.209C3.39856 13.9711 3.46281 13.7368 3.58873 13.5349C3.71466 13.333 3.89679 13.1722 4.11277 13.0723C5.97071 12.2144 7.99413 11.7743 10.0406 11.7829C11.1872 11.7814 12.3299 11.9168 13.4444 12.1862V10.9395ZM13.53 16.7512H17.2822V17.6068H13.53V16.7512Z" fill="#7A7AFF"/>
<path id="Vector_2" d="M18.5123 13.1208H15.3529V14.343H17.9012V19.458H9.24175V14.343H13.0918V14.5997C13.0918 14.7617 13.1561 14.9172 13.2707 15.0318C13.3854 15.1464 13.5408 15.2108 13.7029 15.2108C13.8649 15.2108 14.0204 15.1464 14.135 15.0318C14.2496 14.9172 14.314 14.7617 14.314 14.5997V12.2224C14.314 12.0604 14.2496 11.9049 14.135 11.7903C14.0204 11.6757 13.8649 11.6113 13.7029 11.6113C13.5408 11.6113 13.3854 11.6757 13.2707 11.7903C13.1561 11.9049 13.0918 12.0604 13.0918 12.2224V13.1208H8.63064C8.46857 13.1208 8.31313 13.1852 8.19852 13.2998C8.08392 13.4144 8.01953 13.5698 8.01953 13.7319V20.0691C8.01953 20.2312 8.08392 20.3866 8.19852 20.5012C8.31313 20.6158 8.46857 20.6802 8.63064 20.6802H18.5123C18.6744 20.6802 18.8298 20.6158 18.9444 20.5012C19.059 20.3866 19.1234 20.2312 19.1234 20.0691V13.7319C19.1234 13.5698 19.059 13.4144 18.9444 13.2998C18.8298 13.1852 18.6744 13.1208 18.5123 13.1208Z" fill="#7A7AFF"/>
</g>
</svg>
