<svg width="39" height="39" viewBox="0 0 39 39" fill="none" xmlns="http://www.w3.org/2000/svg">
<g id="Group">
<path id="Vector" d="M25.6663 20.5278H37.9997M37.9997 20.5278L31.833 14.3611M37.9997 20.5278L31.833 26.6944M16.4163 1V21.5556C16.4163 28.4828 10.0801 35.4994 4.08301 38" stroke="#7A7AFF" stroke-width="2" stroke-linecap="round" stroke-linejoin="round"/>
<path id="Vector_2" d="M38 9.22222V4.08333C38 3.26558 37.6751 2.48132 37.0969 1.90309C36.5187 1.32485 35.7344 1 34.9167 1H4.08333C3.26558 1 2.48132 1.32485 1.90309 1.90309C1.32485 2.48132 1 3.26558 1 4.08333V34.9167C1 35.7344 1.32485 36.5187 1.90309 37.0969C2.48132 37.6751 3.26558 38 4.08333 38H34.9167C35.7344 38 36.5187 37.6751 37.0969 37.0969C37.6751 36.5187 38 35.7344 38 34.9167V31.3194" stroke="#7A7AFF" stroke-width="2" stroke-linecap="round" stroke-linejoin="round"/>
</g>
</svg>
