<svg width="21" height="17" viewBox="0 0 21 17" fill="none" xmlns="http://www.w3.org/2000/svg">
<path id="Vector" d="M13.4668 5.38674C13.3338 5.23894 13.1476 5.15001 12.949 5.13951C12.7505 5.12901 12.5559 5.1978 12.408 5.33075L9.90846 7.58035C9.83049 7.65066 9.76815 7.73656 9.72547 7.8325C9.6828 7.92843 9.66075 8.03225 9.66075 8.13725C9.66075 8.24224 9.6828 8.34607 9.72547 8.442C9.76815 8.53794 9.83049 8.62384 9.90846 8.69415L12.408 10.9437C12.5559 11.0769 12.7505 11.1458 12.9492 11.1354C13.1478 11.125 13.3342 11.0361 13.4673 10.8883C13.6004 10.7404 13.6694 10.5458 13.659 10.3471C13.6486 10.1485 13.5597 9.96206 13.4118 9.82895L12.364 8.88712H15.9094C16.0079 8.88712 16.1054 8.86772 16.1964 8.83004C16.2873 8.79235 16.37 8.73712 16.4396 8.66748C16.5093 8.59785 16.5645 8.51519 16.6022 8.42421C16.6399 8.33323 16.6593 8.23572 16.6593 8.13725C16.6593 8.03877 16.6399 7.94127 16.6022 7.85029C16.5645 7.75931 16.5093 7.67665 16.4396 7.60701C16.37 7.53738 16.2873 7.48215 16.1964 7.44446C16.1054 7.40678 16.0079 7.38738 15.9094 7.38738H12.364L13.4118 6.44555C13.5595 6.31241 13.6482 6.12608 13.6586 5.92753C13.6689 5.72898 13.5999 5.53446 13.4668 5.38674ZM0.662109 13.3873C0.662374 14.1164 0.952171 14.8154 1.46778 15.3309C1.98338 15.8463 2.68258 16.1358 3.41162 16.1358H17.909C18.2701 16.1358 18.6276 16.0647 18.9612 15.9265C19.2948 15.7884 19.5979 15.5858 19.8532 15.3305C20.1086 15.0752 20.3111 14.7721 20.4493 14.4385C20.5874 14.1049 20.6586 13.7474 20.6586 13.3863V2.88818C20.6586 2.15897 20.3689 1.45962 19.8532 0.943985C19.3376 0.428351 18.6383 0.138672 17.909 0.138672H3.41162C2.6824 0.138672 1.98306 0.428351 1.46742 0.943985C0.951789 1.45962 0.662109 2.15897 0.662109 2.88818V13.3873ZM3.41162 14.6371C2.72174 14.6371 2.16184 14.0772 2.16184 13.3873V2.88718C2.16184 2.19731 2.72174 1.63741 3.41162 1.63741H6.66504V14.6361L3.41162 14.6371ZM8.16477 14.6371V1.63841H17.909C18.5989 1.63841 19.1588 2.19831 19.1588 2.88818V13.3863C19.1588 14.0762 18.5989 14.6361 17.909 14.6361L8.16477 14.6371Z" fill="#4B7BE5"/>
</svg>
