<svg width="17" height="17" viewBox="0 0 17 17" fill="none" xmlns="http://www.w3.org/2000/svg">
<g id="solar:star-line-duotone" clip-path="url(#clip0_1913_19116)">
<path id="Vector" d="M6.48289 3.83197C7.38035 2.22264 7.82872 1.41797 8.49952 1.41797C9.17031 1.41797 9.61868 2.22264 10.5161 3.83197L10.7485 4.24847C11.0035 4.70605 11.131 4.93484 11.3293 5.08572C11.5276 5.23659 11.7756 5.29255 12.2714 5.40447L12.7219 5.50647C14.4644 5.90101 15.3349 6.09793 15.5425 6.76447C15.7493 7.4303 15.1557 8.12518 13.9678 9.51422L13.6604 9.87334C13.3233 10.2679 13.154 10.4655 13.0782 10.7092C13.0024 10.9536 13.0279 11.2171 13.0789 11.7433L13.1256 12.2229C13.3048 14.0766 13.3948 15.0031 12.8522 15.4146C12.3096 15.8269 11.4936 15.4508 9.86306 14.6999L9.44018 14.5058C8.97693 14.2919 8.74531 14.1857 8.49952 14.1857C8.25372 14.1857 8.0221 14.2919 7.55885 14.5058L7.13668 14.6999C5.50539 15.4508 4.68939 15.8262 4.14752 15.4153C3.60422 15.0031 3.69418 14.0766 3.87339 12.2229L3.92014 11.7441C3.97114 11.2171 3.99664 10.9536 3.92014 10.7099C3.84506 10.4655 3.67577 10.2679 3.3386 9.87405L3.03118 9.51422C1.84331 8.12589 1.24972 7.43101 1.45656 6.76447C1.6641 6.09793 2.53535 5.9003 4.27785 5.50647L4.72835 5.40447C5.22347 5.29255 5.47068 5.23659 5.66972 5.08572C5.86806 4.93484 5.99556 4.70605 6.25056 4.24847L6.48289 3.83197Z" stroke="#4B7BE5" stroke-width="1.5"/>
</g>
<defs>
<clipPath id="clip0_1913_19116">
<rect width="17" height="17" fill="white"/>
</clipPath>
</defs>
</svg>
