<svg width="39" height="39" viewBox="0 0 39 39" fill="none" xmlns="http://www.w3.org/2000/svg">
<g id="fxemoji:folder">
<path id="Vector" d="M1.59961 24.832V7.0187C1.59961 6.01918 2.41777 5.17969 3.4173 5.17969H13.0155C13.7229 5.17969 14.3655 5.60648 14.6605 6.24945L15.6286 8.37487C15.9236 9.01784 16.5662 9.44531 17.2736 9.44531H33.8555C34.855 9.44531 35.6484 10.2395 35.6484 11.2391V27.7199C35.6484 28.7194 34.855 29.5547 33.8555 29.5547H3.4173C3.36946 29.5547 3.32224 29.5273 3.27539 29.5236V32.9824H3.24934C3.24934 33.4395 2.87785 33.7926 2.42448 33.7926C1.9711 33.7926 1.59961 33.4142 1.59961 32.9609V24.832Z" fill="#7A7AFF"/>
<path id="Vector_2" d="M2.42448 33.7926C2.87785 33.7926 3.24934 33.4395 3.24934 32.9824H3.27539V16.0099C3.27539 15.0103 4.06293 14.168 5.06246 14.168H35.5007C36.5002 14.168 37.3242 15.0103 37.3242 16.0099V34.2294C37.3242 35.2289 36.5002 36.0293 35.5007 36.0293H5.06246C4.95696 36.0293 4.85367 36.0247 4.75312 36.0074C4.62828 36.0247 4.501 36.0367 4.37135 36.0367C2.84487 36.0367 1.6188 34.8005 1.6188 33.274C1.6188 33.2333 1.62155 33.1934 1.62322 33.1532C1.71059 33.5162 2.03722 33.7926 2.42448 33.7926Z" fill="#8E8EFF"/>
</g>
</svg>
