<svg width="24" height="24" viewBox="0 0 24 24" fill="none" xmlns="http://www.w3.org/2000/svg">
<g id="solar:folder-broken">
<path id="Vector" d="M18 10H13M22 11.798C22 9.166 22 7.849 21.23 6.994C21.1594 6.91508 21.0846 6.83997 21.006 6.769C20.151 6 18.834 6 16.202 6H15.828C14.675 6 14.098 6 13.56 5.847C13.2648 5.7626 12.9802 5.64449 12.712 5.495C12.224 5.224 11.816 4.815 11 4L10.45 3.45C10.176 3.176 10.04 3.04 9.896 2.92C9.27667 2.40664 8.51694 2.09194 7.716 2.017C7.53 2 7.336 2 6.95 2C6.067 2 5.626 2 5.258 2.07C4.46784 2.21922 3.741 2.60314 3.17231 3.17165C2.60361 3.74017 2.21947 4.46689 2.07 5.257C2 5.626 2 6.068 2 6.95M21.991 16C21.955 18.48 21.771 19.885 20.828 20.828C19.657 22 17.771 22 14 22H10C6.229 22 4.343 22 3.172 20.828C2 19.657 2 17.771 2 14V11" stroke="#4B7BE5" stroke-width="1.5" stroke-linecap="round"/>
</g>
</svg>
