<svg width="21" height="22" viewBox="0 0 21 22" fill="none" xmlns="http://www.w3.org/2000/svg">
<g id="Group">
<path id="Vector" d="M8 9.5C10.2091 9.5 12 7.70914 12 5.5C12 3.29086 10.2091 1.5 8 1.5C5.79086 1.5 4 3.29086 4 5.5C4 7.70914 5.79086 9.5 8 9.5Z" stroke="#7A7AFF" stroke-width="1.5"/>
<path id="Vector_2" d="M14 8.5C14.7956 8.5 15.5587 8.18393 16.1213 7.62132C16.6839 7.05871 17 6.29565 17 5.5C17 4.70435 16.6839 3.94129 16.1213 3.37868C15.5587 2.81607 14.7956 2.5 14 2.5M4.89 20.084C5.825 20.35 6.882 20.5 8 20.5C11.866 20.5 15 18.71 15 16.5C15 14.29 11.866 12.5 8 12.5C4.134 12.5 1 14.29 1 16.5C1 16.845 1.077 17.18 1.22 17.5M17 13.5C18.754 13.885 20 14.859 20 16C20 17.03 18.986 17.923 17.5 18.37" stroke="#7A7AFF" stroke-width="1.5" stroke-linecap="round"/>
</g>
</svg>
