<svg width="32" height="32" viewBox="0 0 32 32" fill="none" xmlns="http://www.w3.org/2000/svg">
<g id="iconoir:group">
<g id="Group">
<path id="Vector" d="M30.667 26.6667V25.3333C30.667 22.858 29.6837 20.484 27.9333 18.7337C26.183 16.9833 23.809 16 21.3337 16C18.8583 16 16.4843 16.9833 14.734 18.7337C12.9837 20.484 12.0003 22.858 12.0003 25.3333V26.6667" stroke="#7A7AFF" stroke-width="1.5" stroke-linecap="round"/>
<path id="Vector_2" d="M14.667 18.6667C14.667 16.8986 13.9646 15.2029 12.7144 13.9526C11.4641 12.7024 9.76843 12 8.00032 12C7.12484 12 6.25794 12.1724 5.4491 12.5075C4.64026 12.8425 3.90534 13.3336 3.28628 13.9526C2.66722 14.5717 2.17616 15.3066 1.84113 16.1154C1.50609 16.9243 1.33366 17.7912 1.33366 18.6667V19.3333" stroke="#7A7AFF" stroke-width="1.5" stroke-linecap="round"/>
<path id="Vector_3" d="M21.3337 16C19.9192 16 18.5626 15.4381 17.5624 14.4379C16.5622 13.4377 16.0003 12.0812 16.0003 10.6667C16.0003 9.25218 16.5622 7.89562 17.5624 6.89543C18.5626 5.89524 19.9192 5.33333 21.3337 5.33333C22.7481 5.33333 24.1047 5.89524 25.1049 6.89543C26.1051 7.89562 26.667 9.25218 26.667 10.6667C26.667 12.0812 26.1051 13.4377 25.1049 14.4379C24.1047 15.4381 22.7481 16 21.3337 16ZM8.00032 12C6.93946 12 5.92204 11.5786 5.17189 10.8284C4.42175 10.0783 4.00032 9.06087 4.00032 8C4.00032 6.93913 4.42175 5.92172 5.17189 5.17157C5.92204 4.42143 6.93946 4 8.00032 4C9.06119 4 10.0786 4.42143 10.8287 5.17157C11.5789 5.92172 12.0003 6.93913 12.0003 8C12.0003 9.06087 11.5789 10.0783 10.8287 10.8284C10.0786 11.5786 9.06119 12 8.00032 12Z" stroke="#7A7AFF" stroke-width="1.5" stroke-linecap="round" stroke-linejoin="round"/>
</g>
</g>
</svg>
