<svg width="40" height="40" viewBox="0 0 40 40" fill="none" xmlns="http://www.w3.org/2000/svg">
<g id="mingcute:group-line" clip-path="url(#clip0_1597_4640)">
<g id="Group">
<path id="Vector" fill-rule="evenodd" clip-rule="evenodd" d="M21.6668 21.6667C23.4349 21.6667 25.1306 22.369 26.3809 23.6193C27.6311 24.8695 28.3335 26.5652 28.3335 28.3333V31.6667C28.3335 32.1087 28.1579 32.5326 27.8453 32.8452C27.5328 33.1577 27.1089 33.3333 26.6668 33.3333C26.2248 33.3333 25.8009 33.1577 25.4883 32.8452C25.1758 32.5326 25.0002 32.1087 25.0002 31.6667V28.3333C25.0002 27.4493 24.649 26.6014 24.0238 25.9763C23.3987 25.3512 22.5509 25 21.6668 25H10.0002C9.11611 25 8.26826 25.3512 7.64314 25.9763C7.01802 26.6014 6.66683 27.4493 6.66683 28.3333V31.6667C6.66683 32.1087 6.49123 32.5326 6.17867 32.8452C5.86611 33.1577 5.44219 33.3333 5.00016 33.3333C4.55814 33.3333 4.13421 33.1577 3.82165 32.8452C3.50909 32.5326 3.3335 32.1087 3.3335 31.6667V28.3333C3.3335 26.5652 4.03588 24.8695 5.28612 23.6193C6.53636 22.369 8.23205 21.6667 10.0002 21.6667H21.6668ZM31.6668 21.6667C32.9929 21.6667 34.2647 22.1934 35.2024 23.1311C36.14 24.0688 36.6668 25.3406 36.6668 26.6667V30C36.6668 30.442 36.4912 30.866 36.1787 31.1785C35.8661 31.4911 35.4422 31.6667 35.0002 31.6667C34.5581 31.6667 34.1342 31.4911 33.8216 31.1785C33.5091 30.866 33.3335 30.442 33.3335 30V26.6667C33.3335 26.2246 33.1579 25.8007 32.8453 25.4882C32.5328 25.1756 32.1089 25 31.6668 25H29.3068C28.729 23.6803 27.8203 22.5321 26.6685 21.6667H31.6668ZM15.8335 5C17.8226 5 19.7303 5.79018 21.1368 7.1967C22.5433 8.60322 23.3335 10.5109 23.3335 12.5C23.3335 14.4891 22.5433 16.3968 21.1368 17.8033C19.7303 19.2098 17.8226 20 15.8335 20C13.8444 20 11.9367 19.2098 10.5302 17.8033C9.12367 16.3968 8.3335 14.4891 8.3335 12.5C8.3335 10.5109 9.12367 8.60322 10.5302 7.1967C11.9367 5.79018 13.8444 5 15.8335 5ZM30.0002 10C31.3262 10 32.598 10.5268 33.5357 11.4645C34.4734 12.4021 35.0002 13.6739 35.0002 15C35.0002 16.3261 34.4734 17.5979 33.5357 18.5355C32.598 19.4732 31.3262 20 30.0002 20C28.6741 20 27.4023 19.4732 26.4646 18.5355C25.5269 17.5979 25.0002 16.3261 25.0002 15C25.0002 13.6739 25.5269 12.4021 26.4646 11.4645C27.4023 10.5268 28.6741 10 30.0002 10ZM15.8335 8.33333C14.7284 8.33333 13.6686 8.77232 12.8872 9.55372C12.1058 10.3351 11.6668 11.3949 11.6668 12.5C11.6668 13.6051 12.1058 14.6649 12.8872 15.4463C13.6686 16.2277 14.7284 16.6667 15.8335 16.6667C16.9386 16.6667 17.9984 16.2277 18.7798 15.4463C19.5612 14.6649 20.0002 13.6051 20.0002 12.5C20.0002 11.3949 19.5612 10.3351 18.7798 9.55372C17.9984 8.77232 16.9386 8.33333 15.8335 8.33333ZM30.0002 13.3333C29.5581 13.3333 29.1342 13.5089 28.8216 13.8215C28.5091 14.134 28.3335 14.558 28.3335 15C28.3335 15.442 28.5091 15.8659 28.8216 16.1785C29.1342 16.4911 29.5581 16.6667 30.0002 16.6667C30.4422 16.6667 30.8661 16.4911 31.1787 16.1785C31.4912 15.8659 31.6668 15.442 31.6668 15C31.6668 14.558 31.4912 14.134 31.1787 13.8215C30.8661 13.5089 30.4422 13.3333 30.0002 13.3333Z" fill="#7A7AFF"/>
</g>
</g>
<defs>
<clipPath id="clip0_1597_4640">
<rect width="40" height="40" fill="white"/>
</clipPath>
</defs>
</svg>
