<svg width="27" height="27" viewBox="0 0 27 27" fill="none" xmlns="http://www.w3.org/2000/svg">
<g id="streamline:customer-support-1" clip-path="url(#clip0_2028_63833)">
<path id="Vector" d="M5.7853 13.4998V8.42768C5.80036 7.43067 6.012 6.44643 6.40811 5.53136C6.80421 4.61628 7.37698 3.78836 8.0936 3.09503C8.81022 2.40169 9.65661 1.85658 10.5843 1.49092C11.5119 1.12526 12.5026 0.946234 13.4996 0.964109C14.4965 0.946234 15.4872 1.12526 16.4149 1.49092C17.3426 1.85658 18.1889 2.40169 18.9056 3.09503C19.6222 3.78836 20.195 4.61628 20.5911 5.53136C20.9872 6.44643 21.1988 7.43067 21.2139 8.42768V13.4998M17.3567 23.6248C18.3797 23.6248 19.3608 23.2184 20.0841 22.4951C20.8075 21.7717 21.2139 20.7907 21.2139 19.7677V15.4284M17.3567 23.6248C17.3567 24.2642 17.1027 24.8774 16.6506 25.3295C16.1985 25.7816 15.5854 26.0355 14.946 26.0355H12.0532C11.4138 26.0355 10.8006 25.7816 10.3485 25.3295C9.89642 24.8774 9.64244 24.2642 9.64244 23.6248C9.64244 22.9855 9.89642 22.3723 10.3485 21.9202C10.8006 21.4681 11.4138 21.2141 12.0532 21.2141H14.946C15.5854 21.2141 16.1985 21.4681 16.6506 21.9202C17.1027 22.3723 17.3567 22.9855 17.3567 23.6248ZM2.89244 10.607H4.82101C5.07675 10.607 5.32202 10.7086 5.50286 10.8894C5.6837 11.0702 5.7853 11.3155 5.7853 11.5713V17.357C5.7853 17.6127 5.6837 17.858 5.50286 18.0388C5.32202 18.2197 5.07675 18.3213 4.82101 18.3213H2.89244C2.38095 18.3213 1.89041 18.1181 1.52873 17.7564C1.16706 17.3947 0.963867 16.9042 0.963867 16.3927V12.5355C0.963867 12.024 1.16706 11.5335 1.52873 11.1718C1.89041 10.8102 2.38095 10.607 2.89244 10.607ZM24.1067 18.3213H22.1782C21.9224 18.3213 21.6771 18.2197 21.4963 18.0388C21.3155 17.858 21.2139 17.6127 21.2139 17.357V11.5713C21.2139 11.3155 21.3155 11.0702 21.4963 10.8894C21.6771 10.7086 21.9224 10.607 22.1782 10.607H24.1067C24.6182 10.607 25.1088 10.8102 25.4704 11.1718C25.8321 11.5335 26.0353 12.024 26.0353 12.5355V16.3927C26.0353 16.9042 25.8321 17.3947 25.4704 17.7564C25.1088 18.1181 24.6182 18.3213 24.1067 18.3213Z" stroke="#333333" stroke-width="2" stroke-linecap="round" stroke-linejoin="round"/>
</g>
<defs>
<clipPath id="clip0_2028_63833">
<rect width="27" height="27" fill="white"/>
</clipPath>
</defs>
</svg>
