<svg width="19" height="18" viewBox="0 0 19 18" fill="none" xmlns="http://www.w3.org/2000/svg">
<g id="fa6-regular:images" clip-path="url(#clip0_1124_26438)">
<path id="Vector" d="M5.27778 2.91732H16.8889C17.1792 2.91732 17.4167 3.15482 17.4167 3.4451V10.834C17.4167 11.1243 17.1792 11.3618 16.8889 11.3618H16.1896L12.8019 6.17964C12.6568 5.95534 12.4061 5.8201 12.1389 5.8201C11.8717 5.8201 11.621 5.95534 11.4759 6.17964L9.75399 8.81194L9.34496 8.25447C9.19653 8.04996 8.95903 7.93121 8.70504 7.93121C8.45104 7.93121 8.21684 8.04996 8.0651 8.25447L5.79236 11.3618H5.27778C4.9875 11.3618 4.75 11.1243 4.75 10.834V3.4451C4.75 3.15482 4.9875 2.91732 5.27778 2.91732ZM3.16667 3.4451V10.834C3.16667 11.9984 4.11337 12.9451 5.27778 12.9451H16.8889C18.0533 12.9451 19 11.9984 19 10.834V3.4451C19 2.28069 18.0533 1.33398 16.8889 1.33398H5.27778C4.11337 1.33398 3.16667 2.28069 3.16667 3.4451ZM1.58333 4.23676C1.58333 3.79805 1.23038 3.4451 0.791667 3.4451C0.352951 3.4451 0 3.79805 0 4.23676V11.6257C0 14.1029 2.00885 16.1118 4.48611 16.1118H15.0417C15.4804 16.1118 15.8333 15.7588 15.8333 15.3201C15.8333 14.8814 15.4804 14.5284 15.0417 14.5284H4.48611C2.88299 14.5284 1.58333 13.2288 1.58333 11.6257V4.23676ZM8.44444 5.02843C8.44444 4.74848 8.33323 4.47999 8.13528 4.28204C7.93732 4.08408 7.66884 3.97287 7.38889 3.97287C7.10894 3.97287 6.84045 4.08408 6.6425 4.28204C6.44454 4.47999 6.33333 4.74848 6.33333 5.02843C6.33333 5.30838 6.44454 5.57686 6.6425 5.77482C6.84045 5.97277 7.10894 6.08398 7.38889 6.08398C7.66884 6.08398 7.93732 5.97277 8.13528 5.77482C8.33323 5.57686 8.44444 5.30838 8.44444 5.02843Z" fill="#7A7AFF"/>
</g>
<defs>
<clipPath id="clip0_1124_26438">
<rect width="19" height="16.8889" fill="white" transform="translate(0 0.277344)"/>
</clipPath>
</defs>
</svg>
