<svg width="4" height="13" viewBox="0 0 4 13" fill="none" xmlns="http://www.w3.org/2000/svg">
<path id="Vector" d="M3.888 4.41434L0.223927 4.82461L0.0927253 5.36783L0.812739 5.48647C1.28315 5.58654 1.37595 5.73807 1.27355 6.15692L0.0927253 11.1145C-0.217681 12.3967 0.260729 13 1.38555 13C2.25757 13 3.27039 12.6398 3.7296 12.1452L3.8704 11.5505C3.55039 11.8021 3.08318 11.9021 2.77278 11.9021C2.33277 11.9021 2.17276 11.6262 2.28637 11.1402L3.888 4.41434ZM4 1.42951C4 1.80864 3.83143 2.17225 3.53136 2.44033C3.2313 2.70842 2.82432 2.85903 2.39997 2.85903C1.97561 2.85903 1.56864 2.70842 1.26858 2.44033C0.968513 2.17225 0.799939 1.80864 0.799939 1.42951C0.799939 1.05038 0.968513 0.686781 1.26858 0.418695C1.56864 0.150609 1.97561 0 2.39997 0C2.82432 0 3.2313 0.150609 3.53136 0.418695C3.83143 0.686781 4 1.05038 4 1.42951Z" fill="#4B7BE5"/>
</svg>
