<svg width="18" height="19" viewBox="0 0 18 19" fill="none" xmlns="http://www.w3.org/2000/svg">
<g id="carbon:password">
<path id="Vector" d="M11.8125 1.625C11.022 1.62482 10.2424 1.80982 9.5362 2.16517C8.83003 2.52053 8.21692 3.03636 7.746 3.67133C7.27507 4.3063 6.95944 5.04275 6.82438 5.82166C6.68932 6.60058 6.73859 7.4003 6.96825 8.15675L1.125 14V17.375H4.5L10.3433 11.5317C11.0396 11.7431 11.7733 11.8019 12.4944 11.704C13.2154 11.6062 13.907 11.354 14.5218 10.9648C15.1366 10.5755 15.6603 10.0583 16.0571 9.44831C16.454 8.83835 16.7146 8.15 16.8214 7.43019C16.9282 6.71037 16.8785 5.97599 16.6757 5.27711C16.473 4.57823 16.122 3.93127 15.6466 3.38032C15.1712 2.82936 14.5827 2.38737 13.921 2.08446C13.2594 1.78154 12.5402 1.62483 11.8125 1.625ZM11.8125 10.625C11.4252 10.6248 11.0401 10.5675 10.6695 10.4551L10.0243 10.2594L9.54788 10.7358L7.75856 12.5251L6.98287 11.75L6.1875 12.5454L6.96319 13.3211L6.07106 14.2132L5.29537 13.4375L4.5 14.2329L5.27569 15.0086L4.03425 16.25H2.25V14.4657L7.76363 8.95213L8.24062 8.47569L8.04488 7.8305C7.80445 7.03793 7.82007 6.18973 8.08951 5.40656C8.35895 4.62338 8.86849 3.9451 9.54565 3.46821C10.2228 2.99133 11.0331 2.74011 11.8613 2.7503C12.6894 2.76049 13.4933 3.03156 14.1585 3.52497C14.8237 4.01837 15.3164 4.70897 15.5665 5.49854C15.8166 6.28811 15.8114 7.13644 15.5515 7.92285C15.2917 8.70927 14.7905 9.39372 14.1192 9.87884C13.4479 10.364 12.6407 10.6251 11.8125 10.625Z" fill="#4B7BE5"/>
<path id="Vector_2" d="M12.375 7.25C12.9963 7.25 13.5 6.74632 13.5 6.125C13.5 5.50368 12.9963 5 12.375 5C11.7537 5 11.25 5.50368 11.25 6.125C11.25 6.74632 11.7537 7.25 12.375 7.25Z" fill="#4B7BE5"/>
</g>
</svg>
