<svg width="24" height="24" viewBox="0 0 24 24" fill="none" xmlns="http://www.w3.org/2000/svg">
<g id="carbon:copy-link">
<path id="Vector" d="M8.96038 14.2503C8.22636 14.2503 7.50881 14.0327 6.89847 13.6249C6.28814 13.2172 5.81243 12.6376 5.53153 11.9594C5.25062 11.2813 5.17713 10.5351 5.32035 9.81517C5.46357 9.09526 5.81706 8.43399 6.33613 7.915L10.1656 4.087C10.8616 3.39101 11.8056 3 12.7899 3C13.7742 3 14.7181 3.39101 15.4141 4.087C16.1101 4.78299 16.5011 5.72697 16.5011 6.71125C16.5011 7.69554 16.1101 8.63951 15.4141 9.3355L14.9994 9.7495L13.9381 8.68975L14.3559 8.272C14.769 7.85686 15.0007 7.29483 15.0002 6.70913C14.9996 6.12343 14.7668 5.56185 14.3529 5.1475C13.9316 4.74541 13.3715 4.52107 12.7891 4.52107C12.2067 4.52107 11.6467 4.74541 11.2254 5.1475L7.39738 8.9755C7.19188 9.18077 7.02885 9.42454 6.91762 9.69286C6.80639 9.96118 6.74914 10.2488 6.74914 10.5393C6.74914 10.8297 6.80639 11.1173 6.91762 11.3856C7.02885 11.654 7.19188 11.8977 7.39738 12.103C7.81871 12.5051 8.37873 12.7294 8.96113 12.7294C9.54353 12.7294 10.1036 12.5051 10.5249 12.103L11.5854 13.1635C11.2414 13.5092 10.8323 13.7832 10.3817 13.9698C9.93113 14.1563 9.44804 14.2516 8.96038 14.2503Z" fill="#7A7AFF"/>
<path id="Vector_2" d="M14.9604 12.7502C14.2264 12.7503 13.5088 12.5327 12.8985 12.1249C12.2881 11.7172 11.8124 11.1376 11.5315 10.4594C11.2506 9.7813 11.1771 9.03508 11.3204 8.31517C11.4636 7.59526 11.8171 6.93399 12.3361 6.415L12.7509 6.001L13.8114 7.06225L13.3974 7.47625C12.9828 7.89089 12.7498 8.45325 12.7498 9.03963C12.7498 9.626 12.9828 10.1884 13.3974 10.603C13.8187 11.0051 14.3787 11.2294 14.9611 11.2294C15.5435 11.2294 16.1036 11.0051 16.5249 10.603L20.3536 6.77425C20.7675 6.35935 20.9999 5.79726 20.9999 5.21125C20.9999 4.62524 20.7675 4.06315 20.3536 3.64825C19.9323 3.24616 19.3723 3.02182 18.7899 3.02182C18.2075 3.02182 17.6475 3.24616 17.2261 3.64825L16.1656 2.587C16.8616 1.89101 17.8056 1.5 18.7899 1.5C19.7742 1.5 20.7181 1.89101 21.4141 2.587C22.1101 3.28299 22.5011 4.22697 22.5011 5.21125C22.5011 6.19553 22.1101 7.1395 21.4141 7.8355L17.5861 11.6628C17.2422 12.0085 16.8331 12.2826 16.3825 12.4693C15.9319 12.656 15.4481 12.7514 14.9604 12.7502Z" fill="#7A7AFF"/>
<path id="Vector_3" d="M18 22.5H3C2.6023 22.4996 2.221 22.3414 1.93978 22.0602C1.65856 21.779 1.5004 21.3977 1.5 21V6C1.5004 5.6023 1.65856 5.221 1.93978 4.93978C2.221 4.65856 2.6023 4.5004 3 4.5H6V6H3V21H18V13.5H19.5V21C19.4996 21.3977 19.3414 21.779 19.0602 22.0602C18.779 22.3414 18.3977 22.4996 18 22.5Z" fill="#7A7AFF"/>
</g>
</svg>
