<svg width="26" height="20" viewBox="0 0 26 20" fill="none" xmlns="http://www.w3.org/2000/svg">
<g id="Group 47201">
<path id="Vector" d="M5.78188 19.2799C4.22091 19.2799 2.77143 18.6853 1.69362 17.5889C1.15668 17.052 0.730755 16.4147 0.440161 15.7132C0.149568 15.0117 0 14.2599 0 13.5006C0 12.7413 0.149568 11.9895 0.440161 11.288C0.730755 10.5865 1.15668 9.94919 1.69362 9.41234L6.84111 4.26485C7.92748 3.18453 9.39729 2.57812 10.9294 2.57812C12.4615 2.57812 13.9313 3.18453 15.0176 4.26485C15.5566 4.80057 15.9843 5.43756 16.2761 6.13919C16.568 6.84081 16.7182 7.59321 16.7182 8.35311C16.7182 9.11301 16.568 9.86542 16.2761 10.567C15.9843 11.2687 15.5566 11.9057 15.0176 12.4414C14.646 12.813 14.0699 12.813 13.6982 12.4414C13.3266 12.0697 13.3266 11.4936 13.6982 11.122C15.222 9.59817 15.222 7.10805 13.6982 5.56566C12.1559 4.02327 9.66573 4.02327 8.14192 5.56566L2.99443 10.7132C1.47062 12.237 1.45204 14.7271 2.99443 16.2695C3.73775 17.0128 4.70407 17.4402 5.78188 17.4216C6.82253 17.4216 7.80743 17.0128 8.55075 16.2695C8.92241 15.8978 9.49848 15.8978 9.87014 16.2695C10.2418 16.6411 10.2418 17.2172 9.87014 17.5889C8.77374 18.6853 7.32427 19.2799 5.78188 19.2799Z" fill="#4B7BE5"/>
<path id="Vector_2" d="M15.1105 17.3667C13.5681 17.3667 12.1 16.7721 11.0222 15.6757C10.4853 15.1388 10.0594 14.5015 9.76878 13.8C9.47818 13.0986 9.32861 12.3467 9.32861 11.5874C9.32861 10.8282 9.47818 10.0763 9.76878 9.37484C10.0594 8.67337 10.4853 8.03602 11.0222 7.49917C11.3939 7.12751 11.97 7.14609 12.3416 7.49917C12.7133 7.87083 12.6947 8.4469 12.3416 8.81856C10.8178 10.3424 10.7992 12.8325 12.3416 14.3749C13.0849 15.1182 14.107 15.5456 15.1291 15.527C16.1697 15.527 17.1546 15.1182 17.8979 14.3749L23.0083 9.26456C23.7516 8.52124 24.1604 7.53634 24.1604 6.49569C24.1604 5.45504 23.7516 4.45156 23.0083 3.72682C21.4659 2.18443 18.9758 2.18443 17.452 3.72682C17.0803 4.09848 16.5042 4.0799 16.1326 3.72682C15.7609 3.35516 15.7795 2.77909 16.1326 2.40743C17.2189 1.32711 18.6887 0.720703 20.2208 0.720703C21.7529 0.720703 23.2227 1.32711 24.3091 2.40743C25.4055 3.50383 26.0001 4.9533 26.0001 6.49569C26.0001 8.03808 25.4055 9.48755 24.3091 10.584L19.1988 15.6943C18.1024 16.7907 16.6529 17.3853 15.1105 17.3853V17.3667Z" fill="#4B7BE5"/>
</g>
</svg>
