<svg width="26" height="26" viewBox="0 0 26 26" fill="none" xmlns="http://www.w3.org/2000/svg">
<g id="bx:link">
<path id="Vector" d="M9.17039 12.2341C10.3978 11.0067 12.5385 11.0067 13.7659 12.2341L14.5318 13L16.0636 11.4682L15.2977 10.7023C14.2761 9.67959 12.9155 9.11517 11.4681 9.11517C10.0208 9.11517 8.66014 9.67959 7.63856 10.7023L5.33972 13C4.32604 14.0169 3.75684 15.3943 3.75684 16.8301C3.75684 18.266 4.32604 19.6433 5.33972 20.6603C5.84225 21.1635 6.43927 21.5625 7.09648 21.8343C7.75368 22.1061 8.45812 22.2454 9.16931 22.2441C9.88069 22.2456 10.5853 22.1064 11.2428 21.8346C11.9002 21.5628 12.4974 21.1637 13 20.6603L13.7659 19.8943L12.2341 18.3625L11.4681 19.1284C10.8577 19.7362 10.0313 20.0774 9.16985 20.0774C8.30841 20.0774 7.48205 19.7362 6.87156 19.1284C6.26327 18.5182 5.9217 17.6917 5.9217 16.8301C5.9217 15.9685 6.26327 15.1421 6.87156 14.5318L9.17039 12.2341Z" fill="#4B7BE5"/>
<path id="Vector_2" d="M13.0002 5.33976L12.2343 6.10568L13.7661 7.63751L14.532 6.8716C15.1425 6.26384 15.9689 5.92263 16.8303 5.92263C17.6918 5.92263 18.5181 6.26384 19.1286 6.8716C19.7369 7.48181 20.0785 8.30828 20.0785 9.16989C20.0785 10.0315 19.7369 10.858 19.1286 11.4682L16.8298 13.7659C15.6024 14.9933 13.4617 14.9933 12.2343 13.7659L11.4684 13L9.93652 14.5318L10.7024 15.2978C11.724 16.3204 13.0847 16.8848 14.532 16.8848C15.9794 16.8848 17.34 16.3204 18.3616 15.2978L20.6604 13C21.6741 11.9831 22.2433 10.6058 22.2433 9.16989C22.2433 7.73402 21.6741 6.3567 20.6604 5.33976C19.6438 4.32555 18.2664 3.75598 16.8303 3.75598C15.3943 3.75598 14.0169 4.32555 13.0002 5.33976Z" fill="#4B7BE5"/>
</g>
</svg>
