<svg width="23" height="25" viewBox="0 0 23 25" fill="none" xmlns="http://www.w3.org/2000/svg">
<path id="Vector" d="M16.8834 14.0382C17.6284 14.0382 18.3254 14.1784 18.9742 14.4587C19.6231 14.7391 20.1959 15.1236 20.6926 15.6123C21.1893 16.101 21.5738 16.6698 21.8462 17.3186C22.1185 17.9675 22.2587 18.6685 22.2667 19.4215C22.2667 20.1665 22.1265 20.8635 21.8462 21.5124C21.5658 22.1612 21.1813 22.734 20.6926 23.2307C20.2039 23.7274 19.6351 24.1119 18.9863 24.3843C18.3374 24.6566 17.6364 24.7968 16.8834 24.8048C16.1384 24.8048 15.4414 24.6646 14.7926 24.3843C14.1437 24.1039 13.5709 23.7194 13.0742 23.2307C12.5775 22.742 12.193 22.1733 11.9206 21.5244C11.6483 20.8755 11.5081 20.1745 11.5001 19.4215C11.5001 18.6765 11.6403 17.9795 11.9206 17.3307C12.201 16.6818 12.5855 16.109 13.0742 15.6123C13.5629 15.1156 14.1316 14.7311 14.7805 14.4587C15.4294 14.1864 16.1304 14.0462 16.8834 14.0382ZM16.8834 23.2667C17.4121 23.2667 17.9088 23.1666 18.3734 22.9663C18.8381 22.7661 19.2426 22.4937 19.5871 22.1492C19.9316 21.8047 20.2079 21.3962 20.4162 20.9235C20.6245 20.4509 20.7286 19.9502 20.7286 19.4215C20.7286 18.8928 20.6285 18.3961 20.4282 17.9315C20.228 17.4668 19.9516 17.0623 19.5991 16.7178C19.2466 16.3734 18.8381 16.097 18.3734 15.8887C17.9088 15.6804 17.4121 15.5763 16.8834 15.5763C16.3547 15.5763 15.858 15.6764 15.3934 15.8767C14.9287 16.0769 14.5202 16.3533 14.1677 16.7058C13.8152 17.0583 13.5388 17.4668 13.3386 17.9315C13.1383 18.3961 13.0382 18.8928 13.0382 19.4215C13.0382 19.9502 13.1383 20.4469 13.3386 20.9115C13.5388 21.3762 13.8112 21.7847 14.1557 22.1372C14.5002 22.4897 14.9087 22.7661 15.3814 22.9663C15.854 23.1666 16.3547 23.2667 16.8834 23.2667ZM14.5763 18.6525H19.1905V20.1905H14.5763V18.6525ZM10.3465 23.2667C10.5468 23.5551 10.7631 23.8275 10.9954 24.0839C11.2277 24.3402 11.48 24.5805 11.7524 24.8048H0.733398V10.962H3.80959V6.46786C3.80959 5.60268 3.9658 4.78957 4.27823 4.02853C4.59065 3.2675 5.02324 2.60259 5.57599 2.03382C6.12875 1.46504 6.77763 1.01643 7.52265 0.687984C8.26766 0.359536 9.08077 0.195312 9.96197 0.195312C10.8352 0.195312 11.6443 0.359536 12.3893 0.687984C13.1343 1.01643 13.7872 1.46504 14.3479 2.03382C14.9087 2.60259 15.3413 3.2675 15.6457 4.02853C15.9501 4.78957 16.1063 5.60268 16.1144 6.46786V10.962H19.1905V12.5001H2.27149V23.2667H10.3465ZM5.34768 10.962H14.5763V6.46786C14.5763 5.81897 14.4601 5.21014 14.2278 4.64137C13.9955 4.07259 13.675 3.56791 13.2665 3.12731C12.8579 2.68671 12.3692 2.34624 11.8005 2.10592C11.2317 1.86559 10.6189 1.74142 9.96197 1.73341C9.30507 1.73341 8.69625 1.85758 8.13548 2.10592C7.57472 2.35425 7.08605 2.69472 6.66948 3.12731C6.25292 3.5599 5.92848 4.06058 5.69616 4.62935C5.46384 5.19813 5.34768 5.81096 5.34768 6.46786V10.962Z" fill="#4B7BE5"/>
</svg>
