<svg width="24" height="24" viewBox="0 0 24 24" fill="none" xmlns="http://www.w3.org/2000/svg">
<g id="carbon:flow-logs-vpc">
<path id="Vector" d="M13.5 14.25H22.5V15.75H13.5V14.25ZM13.5 17.25H22.5V18.75H13.5V17.25ZM13.5 20.25H19.5V21.75H13.5V20.25Z" fill="#3ABA6E"/>
<path id="Vector_2" d="M17.9995 3C17.3362 3.00197 16.6923 3.22393 16.1687 3.6311C15.6451 4.03827 15.2713 4.60764 15.106 5.25H8.99952V3H2.99951V9H8.99952V6.75H15.106C15.1759 7.01845 15.2832 7.27572 15.4248 7.51425L7.51376 15.4253C7.05652 15.1497 6.53335 15.0028 5.99951 15C5.43794 14.9979 4.88705 15.1535 4.40953 15.449C3.932 15.7445 3.54701 16.1682 3.29837 16.6717C3.04972 17.1752 2.9474 17.7384 3.00305 18.2972C3.05869 18.8561 3.27007 19.388 3.61313 19.8326C3.95619 20.2773 4.41716 20.6166 4.94359 20.8122C5.47002 21.0078 6.04077 21.0516 6.5909 20.9388C7.14103 20.826 7.64845 20.5611 8.05543 20.1741C8.46242 19.7872 8.75262 19.2937 8.89301 18.75H11.9995V17.25H8.89301C8.82316 16.9816 8.71586 16.7243 8.57426 16.4858L16.4853 8.57475C16.9425 8.85028 17.4657 8.9972 17.9995 9C18.7952 9 19.5582 8.68393 20.1208 8.12132C20.6834 7.55871 20.9995 6.79565 20.9995 6C20.9995 5.20435 20.6834 4.44129 20.1208 3.87868C19.5582 3.31607 18.7952 3 17.9995 3ZM7.49951 7.5H4.49951V4.5H7.49951V7.5ZM5.99951 19.5C5.70284 19.5 5.41283 19.412 5.16616 19.2472C4.91949 19.0824 4.72723 18.8481 4.6137 18.574C4.50016 18.2999 4.47046 17.9983 4.52834 17.7074C4.58621 17.4164 4.72908 17.1491 4.93885 16.9393C5.14863 16.7296 5.41591 16.5867 5.70688 16.5288C5.99785 16.4709 6.29945 16.5007 6.57354 16.6142C6.84763 16.7277 7.0819 16.92 7.24672 17.1666C7.41154 17.4133 7.49951 17.7033 7.49951 18C7.49912 18.3977 7.34095 18.779 7.05974 19.0602C6.77852 19.3414 6.39722 19.4996 5.99951 19.5ZM17.9995 7.5C17.7028 7.5 17.4128 7.41203 17.1662 7.2472C16.9195 7.08238 16.7272 6.84811 16.6137 6.57403C16.5002 6.29994 16.4705 5.99834 16.5283 5.70736C16.5862 5.41639 16.7291 5.14912 16.9389 4.93934C17.1486 4.72956 17.4159 4.5867 17.7069 4.52882C17.9979 4.47094 18.2995 4.50065 18.5735 4.61418C18.8476 4.72771 19.0819 4.91997 19.2467 5.16665C19.4115 5.41332 19.4995 5.70333 19.4995 6C19.4991 6.3977 19.341 6.779 19.0597 7.06022C18.7785 7.34144 18.3972 7.4996 17.9995 7.5Z" fill="#3ABA6E"/>
</g>
</svg>
