<svg width="29" height="24" viewBox="0 0 29 24" fill="none" xmlns="http://www.w3.org/2000/svg">
<g id="Group 47263">
<path id="Vector" d="M15.0968 15.3854L18.6491 18.9476L15.0869 22.5097L16.4959 23.9088L21.4571 18.9476L16.4959 13.9863L15.0968 15.3854ZM22.0426 15.3854L25.5948 18.9476L22.0327 22.5097L23.4416 23.9088L28.4029 18.9476L23.4416 13.9863L22.0426 15.3854Z" fill="#3ABA6E"/>
<path id="Vector_2" d="M12.5271 17.9542H2.60461V2.98119L13.946 10.8299C14.1121 10.9451 14.3094 11.0068 14.5116 11.0068C14.7137 11.0068 14.9111 10.9451 15.0772 10.8299L26.4186 2.98119V12.0007H28.4031V2.07825C28.4031 1.55192 28.194 1.04716 27.8218 0.674995C27.4497 0.30283 26.9449 0.09375 26.4186 0.09375H2.60461C2.07829 0.09375 1.57353 0.30283 1.20136 0.674995C0.829197 1.04716 0.620117 1.55192 0.620117 2.07825V17.9542C0.620117 18.4805 0.829197 18.9853 1.20136 19.3575C1.57353 19.7296 2.07829 19.9387 2.60461 19.9387H12.5271V17.9542ZM24.2356 2.07825L14.5116 8.80569L4.78756 2.07825H24.2356Z" fill="#3ABA6E"/>
</g>
</svg>
