<svg width="50" height="43" viewBox="0 0 50 43" fill="none" xmlns="http://www.w3.org/2000/svg">
<g id="Group">
<path id="Vector" fill-rule="evenodd" clip-rule="evenodd" d="M2 8.57143V34.8571C2 36.6 2.69234 38.2715 3.92473 39.5038C5.15711 40.7362 6.82858 41.4286 8.57143 41.4286H41.4286C43.1714 41.4286 44.8429 40.7362 46.0753 39.5038C47.3077 38.2715 48 36.6 48 34.8571V8.57143C48 6.82858 47.3077 5.15711 46.0753 3.92473C44.8429 2.69234 43.1714 2 41.4286 2H8.57143C6.82858 2 5.15711 2.69234 3.92473 3.92473C2.69234 5.15711 2 6.82858 2 8.57143Z" stroke="#4B7BE5" stroke-opacity="0.5" stroke-width="2.5" stroke-linecap="round" stroke-linejoin="round"/>
<path id="Vector_2" d="M8.57129 11.8555L24.9999 21.7126L41.4284 11.8555" stroke="#4B7BE5" stroke-opacity="0.5" stroke-width="2.5" stroke-linecap="round" stroke-linejoin="round"/>
</g>
</svg>
