<svg width="12" height="11" viewBox="0 0 12 11" fill="none" xmlns="http://www.w3.org/2000/svg">
<path id="Vector" d="M12 3.52446V8.53547C12 8.72519 11.957 8.89632 11.8711 9.04884C11.7852 9.20137 11.6699 9.33157 11.5254 9.43946C11.3809 9.54734 11.2207 9.6329 11.0449 9.69614C10.8691 9.75939 10.6875 9.78915 10.5 9.78543C10.3164 9.78543 10.1348 9.75566 9.95508 9.69614C9.77539 9.63662 9.61523 9.55292 9.47461 9.44503C9.33398 9.33715 9.2207 9.20509 9.13477 9.04884C9.04883 8.8926 9.00391 8.72147 9 8.53547C9 8.34574 9.04297 8.17461 9.12891 8.02209C9.21484 7.86956 9.33008 7.7375 9.47461 7.6259C9.61914 7.51429 9.7793 7.43059 9.95508 7.37479C10.1309 7.31898 10.3125 7.28922 10.5 7.2855C10.7578 7.2855 11.0078 7.34317 11.25 7.45849V4.43961L7.5 5.33244V9.24973C7.5 9.43946 7.45703 9.61058 7.37109 9.76311C7.28516 9.91563 7.16992 10.0458 7.02539 10.1537C6.88086 10.2616 6.7207 10.3472 6.54492 10.4104C6.36914 10.4736 6.1875 10.5034 6 10.4997C5.81641 10.4997 5.63477 10.4699 5.45508 10.4104C5.27539 10.3509 5.11523 10.2672 4.97461 10.1593C4.83398 10.0514 4.7207 9.91935 4.63477 9.76311C4.54883 9.60686 4.50391 9.43573 4.5 9.24973C4.5 9.06 4.54297 8.88888 4.62891 8.73635C4.71484 8.58383 4.83008 8.45176 4.97461 8.34016C5.11914 8.22855 5.2793 8.14485 5.45508 8.08905C5.63086 8.03325 5.8125 8.00349 6 7.99977C6.25781 7.99977 6.50781 8.05743 6.75 8.17275V4.77442L12 3.52446ZM6 9.78543C6.07812 9.78543 6.16016 9.77427 6.24609 9.75195C6.33203 9.72962 6.41406 9.69614 6.49219 9.6515C6.57031 9.60686 6.63086 9.55106 6.67383 9.4841C6.7168 9.41713 6.74219 9.33901 6.75 9.24973C6.75 9.16045 6.72656 9.08232 6.67969 9.01536C6.63281 8.9484 6.57031 8.8926 6.49219 8.84796C6.41406 8.80331 6.33398 8.76983 6.25195 8.74751C6.16992 8.72519 6.08594 8.71403 6 8.71403C5.92188 8.71403 5.83984 8.72519 5.75391 8.74751C5.66797 8.76983 5.58594 8.80331 5.50781 8.84796C5.42969 8.8926 5.36914 8.9484 5.32617 9.01536C5.2832 9.08232 5.25781 9.16045 5.25 9.24973C5.25 9.33901 5.27344 9.41713 5.32031 9.4841C5.36719 9.55106 5.42969 9.60686 5.50781 9.6515C5.58594 9.69614 5.66602 9.72962 5.74805 9.75195C5.83008 9.77427 5.91406 9.78543 6 9.78543ZM10.5 9.07116C10.5781 9.07116 10.6602 9.06 10.7461 9.03768C10.832 9.01536 10.9141 8.98188 10.9922 8.93724C11.0703 8.8926 11.1309 8.83679 11.1738 8.76983C11.2168 8.70287 11.2422 8.62475 11.25 8.53547C11.25 8.44618 11.2266 8.36806 11.1797 8.3011C11.1328 8.23414 11.0703 8.17833 10.9922 8.13369C10.9141 8.08905 10.834 8.05557 10.752 8.03325C10.6699 8.01093 10.5859 7.99977 10.5 7.99977C10.4219 7.99977 10.3398 8.01093 10.2539 8.03325C10.168 8.05557 10.0859 8.08905 10.0078 8.13369C9.92969 8.17833 9.86914 8.23414 9.82617 8.3011C9.7832 8.36806 9.75781 8.44618 9.75 8.53547C9.75 8.62475 9.77344 8.70287 9.82031 8.76983C9.86719 8.83679 9.92969 8.8926 10.0078 8.93724C10.0859 8.98188 10.166 9.01536 10.248 9.03768C10.3301 9.06 10.4141 9.07116 10.5 9.07116ZM2.25 3.35705H1.5V2.64279H2.25V3.35705ZM1.5 4.07132H2.25V4.78558H1.5V4.07132ZM6.75 2.64279H7.5V3.35705H6.75V2.64279ZM6 6.92837H0V0.5H9V3.35705L8.25 3.53562V1.21426H7.5V1.92853H6.75V1.21426H2.25V1.92853H1.5V1.21426H0.75V6.21411H1.5V5.49985H2.25V6.21411H6V6.92837Z" fill="#7A7AFF"/>
</svg>
