<svg width="19" height="19" viewBox="0 0 19 19" fill="none" xmlns="http://www.w3.org/2000/svg">
<g id="fluent-mdl2:media" clip-path="url(#clip0_1124_26446)">
<path id="Vector" d="M19 6.21582V14.5469C19 14.8623 18.932 15.1468 18.7959 15.4004C18.6598 15.654 18.4774 15.8704 18.2485 16.0498C18.0197 16.2292 17.7661 16.3714 17.4878 16.4766C17.2095 16.5817 16.9219 16.6312 16.625 16.625C16.3343 16.625 16.0467 16.5755 15.7622 16.4766C15.4777 16.3776 15.2241 16.2384 15.0015 16.0591C14.7788 15.8797 14.5994 15.6602 14.4634 15.4004C14.3273 15.1406 14.2562 14.8561 14.25 14.5469C14.25 14.2314 14.318 13.9469 14.4541 13.6934C14.5902 13.4398 14.7726 13.2202 15.0015 13.0347C15.2303 12.8491 15.4839 12.71 15.7622 12.6172C16.0405 12.5244 16.3281 12.4749 16.625 12.4688C17.0332 12.4688 17.429 12.5646 17.8125 12.7563V7.7373L11.875 9.22168V15.7344C11.875 16.0498 11.807 16.3343 11.6709 16.5879C11.5348 16.8415 11.3524 17.0579 11.1235 17.2373C10.8947 17.4167 10.6411 17.5589 10.3628 17.6641C10.0845 17.7692 9.79688 17.8187 9.5 17.8125C9.20931 17.8125 8.92171 17.763 8.63721 17.6641C8.3527 17.5651 8.09912 17.4259 7.87646 17.2466C7.65381 17.0672 7.47445 16.8477 7.33838 16.5879C7.20231 16.3281 7.13119 16.0436 7.125 15.7344C7.125 15.4189 7.19303 15.1344 7.3291 14.8809C7.46517 14.6273 7.64762 14.4077 7.87646 14.2222C8.10531 14.0366 8.35889 13.8975 8.63721 13.8047C8.91553 13.7119 9.20312 13.6624 9.5 13.6562C9.9082 13.6562 10.304 13.7521 10.6875 13.9438V8.29395L19 6.21582ZM9.5 16.625C9.6237 16.625 9.75358 16.6064 9.88965 16.5693C10.0257 16.5322 10.1556 16.4766 10.2793 16.4023C10.403 16.3281 10.4989 16.2354 10.5669 16.124C10.6349 16.0127 10.6751 15.8828 10.6875 15.7344C10.6875 15.5859 10.6504 15.4561 10.5762 15.3447C10.502 15.2334 10.403 15.1406 10.2793 15.0664C10.1556 14.9922 10.0288 14.9365 9.89893 14.8994C9.76904 14.8623 9.63607 14.8438 9.5 14.8438C9.3763 14.8438 9.24642 14.8623 9.11035 14.8994C8.97428 14.9365 8.8444 14.9922 8.7207 15.0664C8.597 15.1406 8.50114 15.2334 8.43311 15.3447C8.36507 15.4561 8.32487 15.5859 8.3125 15.7344C8.3125 15.8828 8.34961 16.0127 8.42383 16.124C8.49805 16.2354 8.597 16.3281 8.7207 16.4023C8.8444 16.4766 8.97119 16.5322 9.10107 16.5693C9.23096 16.6064 9.36393 16.625 9.5 16.625ZM16.625 15.4375C16.7487 15.4375 16.8786 15.4189 17.0146 15.3818C17.1507 15.3447 17.2806 15.2891 17.4043 15.2148C17.528 15.1406 17.6239 15.0479 17.6919 14.9365C17.7599 14.8252 17.8001 14.6953 17.8125 14.5469C17.8125 14.3984 17.7754 14.2686 17.7012 14.1572C17.627 14.0459 17.528 13.9531 17.4043 13.8789C17.2806 13.8047 17.1538 13.749 17.0239 13.7119C16.894 13.6748 16.7611 13.6562 16.625 13.6562C16.5013 13.6562 16.3714 13.6748 16.2354 13.7119C16.0993 13.749 15.9694 13.8047 15.8457 13.8789C15.722 13.9531 15.6261 14.0459 15.5581 14.1572C15.4901 14.2686 15.4499 14.3984 15.4375 14.5469C15.4375 14.6953 15.4746 14.8252 15.5488 14.9365C15.623 15.0479 15.722 15.1406 15.8457 15.2148C15.9694 15.2891 16.0962 15.3447 16.2261 15.3818C16.356 15.4189 16.4889 15.4375 16.625 15.4375ZM3.5625 5.9375H2.375V4.75H3.5625V5.9375ZM2.375 7.125H3.5625V8.3125H2.375V7.125ZM10.6875 4.75H11.875V5.9375H10.6875V4.75ZM9.5 11.875H0V1.1875H14.25V5.9375L13.0625 6.23438V2.375H11.875V3.5625H10.6875V2.375H3.5625V3.5625H2.375V2.375H1.1875V10.6875H2.375V9.5H3.5625V10.6875H9.5V11.875Z" fill="#4B7BE5"/>
</g>
<defs>
<clipPath id="clip0_1124_26446">
<rect width="19" height="19" fill="white"/>
</clipPath>
</defs>
</svg>
