<svg width="62" height="62" viewBox="0 0 62 62" fill="none" xmlns="http://www.w3.org/2000/svg">
<g id="circum:mobile-1">
<path id="Vector" d="M25.8337 48.9115H36.167C36.5096 48.9115 36.8381 48.7754 37.0803 48.5331C37.3226 48.2909 37.4587 47.9624 37.4587 47.6198C37.4587 47.2772 37.3226 46.9487 37.0803 46.7064C36.8381 46.4642 36.5096 46.3281 36.167 46.3281H25.8337C25.4911 46.3281 25.1625 46.4642 24.9203 46.7064C24.6781 46.9487 24.542 47.2772 24.542 47.6198C24.542 47.9624 24.6781 48.2909 24.9203 48.5331C25.1625 48.7754 25.4911 48.9115 25.8337 48.9115Z" fill="#92B4FF"/>
<path id="Vector_2" d="M43.2118 56.6693H18.789C17.1682 56.5726 15.6512 55.8398 14.568 54.6303C13.4848 53.4208 12.923 51.8325 13.0049 50.211V11.7865C12.923 10.1649 13.4848 8.57658 14.568 7.3671C15.6512 6.15761 17.1682 5.42481 18.789 5.32812H43.2118C44.8326 5.42481 46.3496 6.15761 47.4328 7.3671C48.516 8.57658 49.0778 10.1649 48.9959 11.7865V50.211C49.0778 51.8325 48.516 53.4208 47.4328 54.6303C46.3496 55.8398 44.8326 56.5726 43.2118 56.6693ZM18.789 7.91146C17.8546 8.01016 16.9961 8.47119 16.3977 9.19563C15.7993 9.92008 15.5087 10.8502 15.5882 11.7865V50.211C15.5087 51.1472 15.7993 52.0773 16.3977 52.8018C16.9961 53.5262 17.8546 53.9873 18.789 54.086H43.2118C44.1463 53.9873 45.0048 53.5262 45.6032 52.8018C46.2015 52.0773 46.4921 51.1472 46.4126 50.211V11.7865C46.4921 10.8502 46.2015 9.92008 45.6032 9.19563C45.0048 8.47119 44.1463 8.01016 43.2118 7.91146H18.789Z" fill="#92B4FF"/>
</g>
</svg>
