<svg width="18" height="18" viewBox="0 0 18 18" fill="none" xmlns="http://www.w3.org/2000/svg">
<g id="streamline:interface-edit-write-2-change-document-edit-modify-paper-pencil-write-writing" clip-path="url(#clip0_763_17248)">
<g id="Group">
<path id="Vector" d="M9.6423 11.5718L5.78516 12.2661L6.42801 8.35748L13.7952 1.01605C13.9147 0.895546 14.0569 0.799897 14.2136 0.734622C14.3702 0.669348 14.5383 0.635742 14.708 0.635742C14.8777 0.635742 15.0458 0.669348 15.2025 0.734622C15.3591 0.799897 15.5013 0.895546 15.6209 1.01605L16.9837 2.37891C17.1042 2.49844 17.1999 2.64064 17.2652 2.79731C17.3304 2.95399 17.364 3.12204 17.364 3.29177C17.364 3.4615 17.3304 3.62955 17.2652 3.78622C17.1999 3.9429 17.1042 4.0851 16.9837 4.20463L9.6423 11.5718Z" stroke="#4B7BE5" stroke-width="1.5" stroke-linecap="round" stroke-linejoin="round"/>
<path id="Vector_2" d="M15.4283 12.2141V16.0713C15.4283 16.4123 15.2928 16.7393 15.0517 16.9804C14.8106 17.2215 14.4836 17.357 14.1426 17.357H1.92829C1.5873 17.357 1.26027 17.2215 1.01916 16.9804C0.778037 16.7393 0.642578 16.4123 0.642578 16.0713V3.857C0.642578 3.51601 0.778037 3.18898 1.01916 2.94787C1.26027 2.70675 1.5873 2.57129 1.92829 2.57129H5.78543" stroke="#4B7BE5" stroke-width="1.5" stroke-linecap="round" stroke-linejoin="round"/>
</g>
</g>
<defs>
<clipPath id="clip0_763_17248">
<rect width="18" height="18" fill="white"/>
</clipPath>
</defs>
</svg>
