<svg width="22" height="22" viewBox="0 0 22 22" fill="none" xmlns="http://www.w3.org/2000/svg">
<g id="fluent:folder-move-16-regular">
<path id="Vector" d="M2.75 6.1875V8.25H7.68075C7.86273 8.24996 8.03728 8.17777 8.16613 8.04925L10.0279 6.1875L8.16613 4.32575C8.03728 4.19723 7.86273 4.12504 7.68075 4.125H4.8125C4.26549 4.125 3.74089 4.3423 3.35409 4.72909C2.9673 5.11589 2.75 5.64049 2.75 6.1875ZM1.375 6.1875C1.375 5.27582 1.73716 4.40148 2.38182 3.75682C3.02648 3.11216 3.90082 2.75 4.8125 2.75H7.68075C8.22757 2.75048 8.75183 2.9681 9.13825 3.355L11.2846 5.5H17.1875C18.0992 5.5 18.9735 5.86216 19.6182 6.50682C20.2628 7.15148 20.625 8.02582 20.625 8.9375V9.97837C20.2008 9.6282 19.7398 9.32529 19.25 9.075V8.9375C19.25 8.39049 19.0327 7.86589 18.6459 7.47909C18.2591 7.0923 17.7345 6.875 17.1875 6.875H11.2846L9.13962 9.02C8.94796 9.2119 8.72033 9.36412 8.46976 9.46793C8.21918 9.57175 7.9506 9.62512 7.67938 9.625H2.75V15.8125C2.75 16.3595 2.9673 16.8841 3.35409 17.2709C3.74089 17.6577 4.26549 17.875 4.8125 17.875H8.53462C8.67075 18.3549 8.85087 18.8141 9.075 19.25H4.8125C3.90082 19.25 3.02648 18.8878 2.38182 18.2432C1.73716 17.5985 1.375 16.7242 1.375 15.8125V6.1875ZM15.8125 9.625C17.4535 9.625 19.0273 10.2769 20.1877 11.4373C21.3481 12.5977 22 14.1715 22 15.8125C22 17.4535 21.3481 19.0273 20.1877 20.1877C19.0273 21.3481 17.4535 22 15.8125 22C14.1715 22 12.5977 21.3481 11.4373 20.1877C10.2769 19.0273 9.625 17.4535 9.625 15.8125C9.625 14.1715 10.2769 12.5977 11.4373 11.4373C12.5977 10.2769 14.1715 9.625 15.8125 9.625ZM19.0479 16.2992L19.052 16.2951C19.178 16.1676 19.249 15.9959 19.25 15.8166V15.8084C19.2489 15.6278 19.1768 15.455 19.0492 15.3271L16.2992 12.5771C16.1703 12.448 15.9954 12.3754 15.813 12.3753C15.6305 12.3752 15.4555 12.4475 15.3264 12.5764C15.1973 12.7053 15.1247 12.8803 15.1246 13.0627C15.1245 13.2451 15.1968 13.4202 15.3258 13.5492L16.9029 15.125H13.0625C12.8802 15.125 12.7053 15.1974 12.5764 15.3264C12.4474 15.4553 12.375 15.6302 12.375 15.8125C12.375 15.9948 12.4474 16.1697 12.5764 16.2986C12.7053 16.4276 12.8802 16.5 13.0625 16.5H16.9029L15.3258 18.0758C15.2618 18.1397 15.2111 18.2156 15.1765 18.2991C15.1419 18.3826 15.1241 18.4721 15.1241 18.5625C15.1241 18.6529 15.1419 18.7424 15.1765 18.8259C15.2111 18.9094 15.2618 18.9853 15.3258 19.0492C15.3897 19.1132 15.4656 19.1639 15.5491 19.1985C15.6326 19.2331 15.7221 19.2509 15.8125 19.2509C15.9029 19.2509 15.9924 19.2331 16.0759 19.1985C16.1594 19.1639 16.2353 19.1132 16.2992 19.0492L19.0492 16.2992H19.0479Z" fill="#7A7AFF"/>
</g>
</svg>
