<svg width="34" height="34" viewBox="0 0 34 34" fill="none" xmlns="http://www.w3.org/2000/svg">
<g id="ant-design:usergroup-add-outlined">
<path id="Vector" d="M29.6174 25.6336H26.9611V22.9773C26.9611 22.8312 26.8416 22.7117 26.6955 22.7117H25.1017C24.9557 22.7117 24.8361 22.8312 24.8361 22.9773V25.6336H22.1799C22.0338 25.6336 21.9142 25.7531 21.9142 25.8992V27.493C21.9142 27.6391 22.0338 27.7586 22.1799 27.7586H24.8361V30.4148C24.8361 30.5609 24.9557 30.6805 25.1017 30.6805H26.6955C26.8416 30.6805 26.9611 30.5609 26.9611 30.4148V27.7586H29.6174C29.7635 27.7586 29.883 27.6391 29.883 27.493V25.8992C29.883 25.7531 29.7635 25.6336 29.6174 25.6336ZM12.4015 16.5492C12.3717 16.2603 12.3551 15.9682 12.3551 15.6727C12.3551 15.1447 12.4049 14.6301 12.4978 14.1287C12.5211 14.0092 12.458 13.8863 12.3484 13.8365C11.8969 13.634 11.4818 13.3551 11.1232 13.0031C10.7007 12.5934 10.3682 12.1001 10.1469 11.5547C9.9257 11.0094 9.82057 10.4238 9.83827 9.83555C9.86815 8.76972 10.2965 7.75703 11.0435 6.99336C11.8637 6.15332 12.966 5.69511 14.1381 5.7084C15.1973 5.71836 16.2199 6.12676 16.9935 6.85058C17.2558 7.09629 17.4816 7.36855 17.6709 7.66074C17.7373 7.76367 17.8668 7.80683 17.9797 7.76699C18.564 7.56445 19.1816 7.42168 19.8158 7.35527C20.0017 7.33535 20.108 7.13613 20.025 6.97011C18.9459 4.83515 16.7412 3.36094 14.1912 3.32109C10.5123 3.26465 7.44432 6.28281 7.44432 9.96172C7.44432 12.0469 8.40389 13.9062 9.90799 15.1248C8.85213 15.6129 7.87928 16.2869 7.03592 17.1303C5.21639 18.9465 4.18709 21.3437 4.12069 23.9037C4.1198 23.9391 4.12602 23.9744 4.13897 24.0074C4.15192 24.0404 4.17135 24.0705 4.1961 24.0958C4.22086 24.1212 4.25044 24.1414 4.28311 24.1551C4.31577 24.1689 4.35087 24.176 4.38631 24.176H6.24901C6.39178 24.176 6.51131 24.0631 6.51463 23.9203C6.57772 21.9945 7.35799 20.1916 8.72928 18.8236C9.70545 17.8475 10.9008 17.1701 12.2057 16.8414C12.3318 16.8049 12.4181 16.682 12.4015 16.5492ZM27.3596 15.6727C27.3596 12.0402 24.441 9.08847 20.8219 9.03203C17.143 8.97558 14.0783 11.9937 14.0783 15.6727C14.0783 17.7578 15.0412 19.6172 16.542 20.8357C15.4752 21.3302 14.504 22.0091 13.6732 22.8412C11.8537 24.6574 10.8244 27.0547 10.758 29.6113C10.7571 29.6468 10.7633 29.682 10.7763 29.715C10.7892 29.748 10.8087 29.7781 10.8334 29.8035C10.8582 29.8288 10.8877 29.849 10.9204 29.8628C10.9531 29.8765 10.9882 29.8836 11.0236 29.8836H12.883C13.0258 29.8836 13.1453 29.7707 13.1486 29.6279C13.2117 27.7021 13.992 25.8992 15.3633 24.5312C16.7943 23.1002 18.6935 22.3133 20.7189 22.3133C24.3846 22.3133 27.3596 19.3416 27.3596 15.6727ZM23.7238 18.6775C22.9203 19.4811 21.8545 19.9227 20.7189 19.9227C19.5834 19.9227 18.5176 19.4811 17.714 18.6775C17.3131 18.2787 16.9963 17.8034 16.7824 17.2798C16.5685 16.7562 16.4619 16.195 16.4689 15.6295C16.4789 14.5404 16.9139 13.4879 17.6742 12.7076C18.4711 11.8908 19.5369 11.4359 20.6758 11.4227C21.8014 11.4127 22.8937 11.851 23.6973 12.6379C24.5207 13.4447 24.9723 14.5238 24.9723 15.6727C24.9689 16.8082 24.5273 17.874 23.7238 18.6775Z" fill="#4B7BE5"/>
</g>
</svg>
