<svg width="236" height="221" viewBox="0 0 236 221" fill="none" xmlns="http://www.w3.org/2000/svg">
<g clip-path="url(#clip0_1530_37804)">
<path d="M18.3909 23.2445C18.4109 20.8735 19.0073 18.5433 20.1281 16.4567C21.2489 14.3702 22.8601 12.5906 24.8216 11.2727C26.783 9.95488 29.0352 9.13876 31.3822 8.8954C33.7292 8.65205 36.0997 8.98882 38.2876 9.87642C39.8783 6.59863 42.4437 3.89893 45.6285 2.15113C48.8134 0.403331 52.4603 -0.3061 56.0641 0.121066C59.6679 0.548232 63.0504 2.09086 65.7433 4.53536C68.4362 6.97986 70.3062 10.2053 71.0943 13.765C74.9943 14.0214 78.6423 15.7916 81.2674 18.7015C83.8924 21.6113 85.2889 25.4329 85.1617 29.3585C85.0344 33.2841 83.3935 37.0062 80.5855 39.7382C77.7776 42.4702 74.0227 43.9981 70.1144 43.9989H22.1924C19.6961 43.9992 17.2787 43.1203 15.3603 41.5151C13.4419 39.9099 12.144 37.6798 11.692 35.2126C11.2401 32.7453 11.6628 30.1969 12.8867 28.0104C14.1105 25.8239 16.0581 24.1376 18.3909 23.2445Z" fill="#D7D7D7"/>
<path d="M188.351 141.95C188.363 140.487 188.731 139.049 189.422 137.761C190.114 136.473 191.108 135.375 192.318 134.562C193.529 133.748 194.918 133.245 196.367 133.094C197.815 132.944 199.278 133.152 200.628 133.7C201.61 131.678 203.193 130.013 205.158 128.936C207.123 127.858 209.373 127.42 211.596 127.684C213.819 127.948 215.906 128.9 217.567 130.407C219.228 131.915 220.382 133.905 220.869 136.101C223.275 136.26 225.525 137.352 227.144 139.148C228.764 140.943 229.625 143.301 229.546 145.723C229.467 148.145 228.455 150.441 226.723 152.127C224.991 153.812 222.674 154.755 220.263 154.756H190.697C189.156 154.756 187.665 154.213 186.482 153.223C185.298 152.232 184.497 150.856 184.219 149.334C183.94 147.812 184.2 146.24 184.955 144.891C185.71 143.542 186.912 142.501 188.351 141.95Z" fill="#D7D7D7"/>
<path d="M28.401 115.438C28.4216 112.952 29.0465 110.509 30.2212 108.322C31.3959 106.134 33.0848 104.268 35.141 102.887C37.1971 101.505 39.5582 100.649 42.0185 100.394C44.4789 100.139 46.9641 100.492 49.2576 101.423C50.9259 97.9876 53.6156 95.1586 56.9542 93.3274C60.2929 91.4961 64.1154 90.7532 67.8927 91.2014C71.67 91.6496 75.2153 93.2668 78.0377 95.8291C80.8602 98.3914 82.8203 101.772 83.6467 105.503C87.7361 105.771 91.5616 107.626 94.3145 110.677C97.0674 113.728 98.5317 117.735 98.3979 121.851C98.2641 125.967 96.5427 129.87 93.5975 132.733C90.6524 135.597 86.7145 137.198 82.6164 137.196H32.3855C29.769 137.196 27.2354 136.274 25.2249 134.592C23.2143 132.909 21.8541 130.571 21.3805 127.985C20.9068 125.399 21.3498 122.728 22.6324 120.436C23.915 118.144 25.9561 116.377 28.401 115.44V115.438Z" fill="#F0F0F0"/>
<path d="M38.85 129.911C38.85 130.367 38.7157 130.812 38.464 131.19C38.2123 131.569 37.8545 131.864 37.4359 132.038C37.0173 132.213 36.5568 132.258 36.1124 132.169C35.668 132.081 35.2599 131.861 34.9395 131.539C34.6191 131.217 34.401 130.807 34.3126 130.361C34.2242 129.914 34.2695 129.451 34.4429 129.031C34.6163 128.61 34.9099 128.25 35.2866 127.997C35.6633 127.744 36.1062 127.609 36.5593 127.609C37.1668 127.609 37.7495 127.852 38.1791 128.284C38.6087 128.715 38.85 129.301 38.85 129.911Z" fill="#E6E6E6"/>
<path d="M47.4858 129.911C47.4858 130.367 47.3514 130.812 47.0997 131.19C46.848 131.569 46.4902 131.864 46.0717 132.038C45.6531 132.213 45.1925 132.258 44.7481 132.169C44.3038 132.081 43.8956 131.861 43.5752 131.539C43.2549 131.217 43.0367 130.807 42.9483 130.361C42.8599 129.914 42.9053 129.451 43.0787 129.031C43.2521 128.61 43.5457 128.25 43.9224 127.997C44.2991 127.744 44.742 127.609 45.195 127.609C45.8026 127.609 46.3852 127.852 46.8148 128.284C47.2444 128.715 47.4858 129.301 47.4858 129.911Z" fill="white"/>
<path d="M185.086 41.7672C185.1 40.0456 185.533 38.3536 186.347 36.8385C187.16 35.3235 188.33 34.0312 189.754 33.0742C191.178 32.1172 192.813 31.5245 194.517 31.3477C196.221 31.171 197.943 31.4155 199.531 32.0599C200.687 29.6814 202.55 27.7226 204.862 26.4547C207.174 25.1868 209.821 24.6723 212.436 24.9825C215.052 25.2928 217.507 26.4123 219.462 28.1863C221.417 29.9603 222.775 32.301 223.348 34.8846C226.175 35.0763 228.817 36.3637 230.718 38.4752C232.619 40.5867 233.63 43.3575 233.538 46.2036C233.446 49.0496 232.258 51.7485 230.225 53.7315C228.191 55.7144 225.471 56.8265 222.637 56.8332H187.847C186.034 56.8334 184.279 56.1953 182.887 55.0299C181.494 53.8645 180.552 52.2456 180.224 50.4545C179.896 48.6633 180.203 46.8133 181.091 45.226C181.979 43.6386 183.393 42.4144 185.087 41.766L185.086 41.7672Z" fill="#ECECEC"/>
<path d="M216.83 51.3641C216.83 51.6587 216.743 51.9468 216.58 52.1919C216.417 52.437 216.186 52.628 215.915 52.7408C215.644 52.8537 215.346 52.8832 215.059 52.8258C214.771 52.7683 214.507 52.6264 214.299 52.418C214.092 52.2097 213.951 51.9442 213.894 51.6551C213.837 51.3661 213.866 51.0665 213.978 50.7943C214.09 50.5221 214.281 50.2894 214.524 50.1258C214.768 49.9622 215.055 49.8749 215.348 49.875C215.741 49.875 216.118 50.0319 216.396 50.3111C216.674 50.5904 216.83 50.9691 216.83 51.3641Z" fill="white"/>
<path d="M222.417 51.3641C222.417 51.6587 222.33 51.9468 222.167 52.1919C222.004 52.4369 221.773 52.6279 221.502 52.7408C221.231 52.8536 220.933 52.8832 220.646 52.8258C220.358 52.7684 220.094 52.6266 219.887 52.4182C219.679 52.2099 219.538 51.9445 219.481 51.6555C219.423 51.3665 219.453 51.067 219.565 50.7947C219.677 50.5225 219.867 50.2898 220.111 50.1261C220.355 49.9624 220.641 49.875 220.934 49.875C221.129 49.8749 221.322 49.9134 221.502 49.9882C221.682 50.063 221.845 50.1726 221.983 50.3109C222.12 50.4492 222.229 50.6134 222.304 50.7941C222.378 50.9748 222.417 51.1685 222.417 51.3641Z" fill="white"/>
<path d="M211.243 51.3641C211.243 51.6587 211.156 51.9468 210.993 52.1919C210.831 52.437 210.599 52.628 210.328 52.7408C210.057 52.8537 209.759 52.8832 209.472 52.8258C209.184 52.7683 208.92 52.6264 208.712 52.418C208.505 52.2097 208.364 51.9442 208.307 51.6551C208.25 51.3661 208.279 51.0665 208.391 50.7943C208.504 50.5221 208.694 50.2894 208.937 50.1258C209.181 49.9622 209.468 49.8749 209.761 49.875C210.154 49.875 210.531 50.0319 210.809 50.3111C211.087 50.5904 211.243 50.9691 211.243 51.3641Z" fill="#E6E6E6"/>
<path d="M118 220.999C182.893 220.999 235.5 217.912 235.5 214.103C235.5 210.294 182.893 207.207 118 207.207C53.1065 207.207 0.5 210.294 0.5 214.103C0.5 217.912 53.1065 220.999 118 220.999Z" fill="#ECECEC"/>
<path d="M88.5743 19.9414H77.4308C70.4121 19.9417 63.5492 22.0217 57.7007 25.9215C51.8522 29.8212 47.2778 35.3674 44.5496 41.8663H35.6829C31.657 41.8483 27.6671 42.6296 23.9424 44.1655C20.2177 45.7013 16.8316 47.9615 13.9784 50.816C11.1252 53.6706 8.86124 57.0635 7.3164 60.7998C5.77157 64.5361 4.97632 68.5423 4.97632 72.5883C4.97632 76.6343 5.77157 80.6405 7.3164 84.3768C8.86124 88.1131 11.1252 91.5059 13.9784 94.3605C16.8316 97.2151 20.2177 99.4752 23.9424 101.011C27.6671 102.547 31.657 103.328 35.6829 103.31H88.5749L88.5743 19.9414Z" fill="#4B7BE5"/>
<path opacity="0.2" d="M88.5743 19.9414H77.4308C70.4121 19.9417 63.5492 22.0217 57.7007 25.9215C51.8522 29.8212 47.2778 35.3674 44.5496 41.8663H35.6829C31.657 41.8483 27.6671 42.6296 23.9424 44.1655C20.2177 45.7013 16.8316 47.9615 13.9784 50.816C11.1252 53.6706 8.86124 57.0635 7.3164 60.7998C5.77157 64.5361 4.97632 68.5423 4.97632 72.5883C4.97632 76.6343 5.77157 80.6405 7.3164 84.3768C8.86124 88.1131 11.1252 91.5059 13.9784 94.3605C16.8316 97.2151 20.2177 99.4752 23.9424 101.011C27.6671 102.547 31.657 103.328 35.6829 103.31H88.5749L88.5743 19.9414Z" fill="black"/>
<path opacity="0.5" d="M46.6658 37.6482H62.6525L74.4698 27.0938H56.059C52.2635 29.9522 49.0707 33.5397 46.6658 37.6482Z" fill="#4B7BE5"/>
<path opacity="0.5" d="M10.3352 55.4102C8.17931 58.6088 6.64914 62.1907 5.82642 65.9646H24.0675V55.4102H10.3352Z" fill="#4B7BE5"/>
<path opacity="0.5" d="M85.1722 22.4023H64.4222C62.2051 23.273 60.0814 24.3667 58.0833 25.6667H73.3549L85.1722 22.4023Z" fill="#4B7BE5"/>
<path d="M149.426 65.4979C147.908 59.0736 144.371 53.3117 139.339 49.0658C134.307 44.8199 128.048 42.3157 121.489 41.9243C118.727 35.3153 114.059 29.6893 108.085 25.7719C102.112 21.8546 95.1077 19.8255 87.976 19.9465C80.8443 20.0675 73.9122 22.333 68.0738 26.4507C62.2354 30.5685 57.7584 36.3496 55.2203 43.0486C51.016 41.8423 46.603 41.5565 42.2794 42.2103C37.9557 42.8642 33.8219 44.4426 30.157 46.8389C26.4921 49.2353 23.3813 52.3939 21.0347 56.1015C18.6881 59.8091 17.1602 63.9794 16.5541 68.3311C15.9481 72.6827 16.278 77.1144 17.5215 81.327C18.7651 85.5395 20.8934 89.435 23.7628 92.7505C26.6323 96.0659 30.176 98.7242 34.1549 100.546C38.1338 102.368 42.4553 103.31 46.8276 103.31H144.189C148.817 103.31 153.289 101.628 156.78 98.5746C160.271 95.5208 162.545 91.3014 163.183 86.6948C163.821 82.0881 162.78 77.4049 160.252 73.5092C157.723 69.6135 153.878 66.7681 149.426 65.4979Z" fill="#4B7BE5"/>
<path opacity="0.2" d="M148.768 67.8433L147.392 67.4541L147.065 66.0595C145.647 60.155 142.385 54.8619 137.757 50.9558C133.129 47.0497 127.377 44.7358 121.345 44.3532L119.836 44.2679L119.255 42.8672C116.724 36.7897 112.46 31.601 107 27.955C101.539 24.309 95.1275 22.3688 88.5719 22.3789C88.1416 22.3789 87.7174 22.3856 87.2932 22.4033C93.6235 22.6417 99.7538 24.6949 104.961 28.3208C110.168 31.9467 114.234 36.9938 116.679 42.8666L117.261 44.2673L118.77 44.3526C124.802 44.7352 130.553 47.0491 135.181 50.9552C139.81 54.8613 143.072 60.1544 144.489 66.0588L144.816 67.4535L146.192 67.8427C150.081 68.9532 153.439 71.4394 155.647 74.8426C157.855 78.2457 158.764 82.3365 158.207 86.3604C157.649 90.3843 155.663 94.0701 152.614 96.7379C149.565 99.4057 145.659 100.876 141.617 100.877H144.192C148.235 100.876 152.141 99.4057 155.19 96.7379C158.239 94.0701 160.225 90.3843 160.782 86.3604C161.339 82.3365 160.43 78.2457 158.222 74.8426C156.014 71.4394 152.656 68.9532 148.768 67.8427V67.8433Z" fill="black"/>
<path d="M146.192 67.8417L144.816 67.4525L144.489 66.0579C143.071 60.1534 139.81 54.8604 135.181 50.9542C130.553 47.0481 124.802 44.7342 118.77 44.3516L117.261 44.2663L116.679 42.8656C114.234 36.9929 110.168 31.9457 104.961 28.3199C99.7538 24.694 93.6235 22.6407 87.2932 22.4023H87.2508C80.7446 22.6889 74.4629 24.8768 69.1755 28.6977C63.8881 32.5186 59.8247 37.8066 57.4832 43.9137L56.6954 46.0021L54.5562 45.3876C54.4955 45.3687 54.4289 45.351 54.3683 45.3388C51.9135 44.6526 49.3774 44.3043 46.8294 44.3035C46.387 44.3035 45.9507 44.3157 45.5083 44.3339C38.1653 44.6801 31.2484 47.8994 26.2365 53.3036C21.2245 58.7079 18.5151 65.8682 18.6877 73.2537C18.8603 80.6392 21.901 87.6638 27.1599 92.8257C32.4188 97.9876 39.4784 100.877 46.8294 100.876H141.617C145.659 100.875 149.565 99.4053 152.614 96.7375C155.663 94.0697 157.649 90.384 158.207 86.3601C158.764 82.3361 157.855 78.2454 155.647 74.8422C153.439 71.439 150.081 68.9523 146.192 67.8417Z" fill="white"/>
<path d="M68.374 119.766H75.9153V132.287C75.9153 133.126 75.5833 133.932 74.9923 134.526C74.4013 135.12 73.5998 135.454 72.764 135.454H71.5253C70.6895 135.454 69.888 135.12 69.297 134.526C68.706 133.932 68.374 133.126 68.374 132.287V119.766Z" fill="#4B7BE5"/>
<path opacity="0.2" d="M68.374 119.766H75.9153V132.287C75.9153 133.126 75.5833 133.932 74.9923 134.526C74.4013 135.12 73.5998 135.454 72.764 135.454H71.5253C70.6895 135.454 69.888 135.12 69.297 134.526C68.706 133.932 68.374 133.126 68.374 132.287V119.766Z" fill="black"/>
<path d="M65.0068 103.309H79.2822V117.668C79.2822 119.257 78.654 120.782 77.5358 121.905C76.4176 123.029 74.901 123.66 73.3196 123.66H70.9694C69.3881 123.66 67.8714 123.029 66.7532 121.905C65.635 120.782 65.0068 119.257 65.0068 117.668V103.309Z" fill="#4B7BE5"/>
<path opacity="0.2" d="M79.2822 106.904L65.0068 109.07V103.309H79.2822V106.904Z" fill="black"/>
<path d="M76.2861 116.033C77.3321 116.033 78.1799 115.181 78.1799 114.13C78.1799 113.079 77.3321 112.227 76.2861 112.227C75.2402 112.227 74.3923 113.079 74.3923 114.13C74.3923 115.181 75.2402 116.033 76.2861 116.033Z" fill="white"/>
<path opacity="0.5" d="M71.2356 116.033C72.2815 116.033 73.1294 115.181 73.1294 114.13C73.1294 113.079 72.2815 112.227 71.2356 112.227C70.1897 112.227 69.3418 113.079 69.3418 114.13C69.3418 115.181 70.1897 116.033 71.2356 116.033Z" fill="white"/>
<path d="M119.683 156.506H87.9009C83.3218 156.501 78.9318 154.671 75.6939 151.417C72.4561 148.163 70.6347 143.751 70.6294 139.149V135.449H73.6595V139.149C73.6638 142.944 75.1656 146.581 77.8355 149.264C80.5053 151.948 84.1252 153.457 87.9009 153.461H119.683V156.506Z" fill="#4B7BE5"/>
<path d="M193.867 80.1758H141.782C137.418 80.1758 133.879 83.7317 133.879 88.1181V206.161C133.879 210.548 137.418 214.103 141.782 214.103H193.867C198.231 214.103 201.77 210.548 201.77 206.161V88.1181C201.77 83.7317 198.231 80.1758 193.867 80.1758Z" fill="#4B7BE5"/>
<path opacity="0.2" d="M193.867 80.1758H141.782C137.418 80.1758 133.879 83.7317 133.879 88.1181V206.161C133.879 210.548 137.418 214.103 141.782 214.103H193.867C198.231 214.103 201.77 210.548 201.77 206.161V88.1181C201.77 83.7317 198.231 80.1758 193.867 80.1758Z" fill="black"/>
<path d="M179.671 80.1758H127.587C123.222 80.1758 119.683 83.7317 119.683 88.1181V206.161C119.683 210.548 123.222 214.103 127.587 214.103H179.671C184.035 214.103 187.574 210.548 187.574 206.161V88.1181C187.574 83.7317 184.035 80.1758 179.671 80.1758Z" fill="#4B7BE5"/>
<path opacity="0.2" d="M184.939 206.162V88.1191C184.939 85.1948 182.58 82.8242 179.671 82.8242H127.587C124.677 82.8242 122.318 85.1948 122.318 88.1191V206.162C122.318 209.086 124.677 211.457 127.587 211.457H179.671C182.58 211.457 184.939 209.086 184.939 206.162Z" fill="black"/>
<path d="M184.939 206.162V88.1191C184.939 85.1948 182.58 82.8242 179.67 82.8242H130.037C127.127 82.8242 124.769 85.1948 124.769 88.1191V206.162C124.769 209.086 127.127 211.457 130.037 211.457H179.67C182.58 211.457 184.939 209.086 184.939 206.162Z" fill="white"/>
<path opacity="0.3" d="M176.743 98.3107H132.965C131.879 98.3075 130.839 97.8725 130.071 97.1009C129.303 96.3293 128.87 95.2837 128.867 94.1925C128.87 93.1012 129.303 92.0556 130.071 91.284C130.839 90.5123 131.879 90.0774 132.965 90.0742H176.743C177.829 90.0773 178.869 90.5121 179.637 91.2838C180.405 92.0555 180.838 93.1012 180.841 94.1925C180.838 95.2837 180.405 96.3294 179.637 97.1011C178.869 97.8728 177.829 98.3076 176.743 98.3107Z" fill="#4B7BE5"/>
<path d="M162.309 95.0906H132.306C132.069 95.0899 131.841 94.9948 131.673 94.826C131.505 94.6572 131.411 94.4285 131.41 94.1898C131.411 93.9512 131.505 93.7225 131.673 93.5538C131.841 93.385 132.069 93.2899 132.306 93.2891H162.309C162.546 93.2897 162.774 93.3848 162.942 93.5536C163.11 93.7224 163.205 93.9511 163.205 94.1898C163.205 94.4285 163.11 94.6572 162.942 94.826C162.774 94.9948 162.546 95.0899 162.309 95.0906Z" fill="white"/>
<path d="M173.139 95.0906C173.634 95.0906 174.035 94.6873 174.035 94.1898C174.035 93.6923 173.634 93.2891 173.139 93.2891C172.644 93.2891 172.243 93.6923 172.243 94.1898C172.243 94.6873 172.644 95.0906 173.139 95.0906Z" fill="#4B7BE5"/>
<path d="M177.091 95.0906C177.586 95.0906 177.987 94.6873 177.987 94.1898C177.987 93.6923 177.586 93.2891 177.091 93.2891C176.596 93.2891 176.195 93.6923 176.195 94.1898C176.195 94.6873 176.596 95.0906 177.091 95.0906Z" fill="#4B7BE5"/>
<path d="M169.188 95.0906C169.683 95.0906 170.084 94.6873 170.084 94.1898C170.084 93.6923 169.683 93.2891 169.188 93.2891C168.693 93.2891 168.292 93.6923 168.292 94.1898C168.292 94.6873 168.693 95.0906 169.188 95.0906Z" fill="#4B7BE5"/>
<path opacity="0.3" d="M176.743 111.545H132.965C131.879 111.542 130.839 111.107 130.071 110.335C129.303 109.564 128.87 108.518 128.867 107.427C128.87 106.336 129.303 105.29 130.071 104.518C130.839 103.747 131.879 103.312 132.965 103.309H176.743C177.829 103.312 178.869 103.747 179.637 104.518C180.405 105.29 180.838 106.336 180.841 107.427C180.838 108.518 180.405 109.564 179.637 110.335C178.869 111.107 177.829 111.542 176.743 111.545Z" fill="#4B7BE5"/>
<path d="M162.309 108.329H132.306C132.069 108.328 131.841 108.233 131.673 108.064C131.505 107.896 131.411 107.667 131.41 107.428C131.411 107.189 131.505 106.961 131.673 106.792C131.841 106.623 132.069 106.528 132.306 106.527H162.309C162.546 106.528 162.774 106.623 162.942 106.792C163.11 106.961 163.205 107.189 163.205 107.428C163.205 107.667 163.11 107.896 162.942 108.064C162.774 108.233 162.546 108.328 162.309 108.329Z" fill="white"/>
<path d="M173.139 108.329C173.634 108.329 174.035 107.926 174.035 107.428C174.035 106.931 173.634 106.527 173.139 106.527C172.644 106.527 172.243 106.931 172.243 107.428C172.243 107.926 172.644 108.329 173.139 108.329Z" fill="#4B7BE5"/>
<path d="M177.091 108.329C177.586 108.329 177.987 107.926 177.987 107.428C177.987 106.931 177.586 106.527 177.091 106.527C176.596 106.527 176.195 106.931 176.195 107.428C176.195 107.926 176.596 108.329 177.091 108.329Z" fill="#4B7BE5"/>
<path opacity="0.3" d="M169.188 108.329C169.683 108.329 170.084 107.926 170.084 107.428C170.084 106.931 169.683 106.527 169.188 106.527C168.693 106.527 168.292 106.931 168.292 107.428C168.292 107.926 168.693 108.329 169.188 108.329Z" fill="#4B7BE5"/>
<path opacity="0.3" d="M176.743 124.783H132.965C131.879 124.78 130.839 124.345 130.071 123.574C129.303 122.802 128.87 121.756 128.867 120.665C128.87 119.574 129.303 118.528 130.071 117.757C130.839 116.985 131.879 116.55 132.965 116.547H176.743C177.829 116.55 178.869 116.985 179.637 117.756C180.405 118.528 180.838 119.574 180.841 120.665C180.838 121.756 180.405 122.802 179.637 123.574C178.869 124.345 177.829 124.78 176.743 124.783Z" fill="#4B7BE5"/>
<path d="M162.309 121.568H132.306C132.069 121.567 131.841 121.472 131.673 121.303C131.505 121.134 131.411 120.905 131.41 120.666C131.411 120.428 131.505 120.199 131.673 120.03C131.841 119.862 132.069 119.766 132.306 119.766H162.309C162.546 119.766 162.774 119.861 162.942 120.03C163.11 120.199 163.205 120.428 163.205 120.666C163.205 120.905 163.11 121.134 162.942 121.303C162.774 121.472 162.547 121.567 162.309 121.568Z" fill="white"/>
<path d="M173.139 121.567C173.634 121.567 174.035 121.164 174.035 120.666C174.035 120.169 173.634 119.766 173.139 119.766C172.644 119.766 172.243 120.169 172.243 120.666C172.243 121.164 172.644 121.567 173.139 121.567Z" fill="#4B7BE5"/>
<path d="M177.091 121.567C177.586 121.567 177.987 121.164 177.987 120.666C177.987 120.169 177.586 119.766 177.091 119.766C176.596 119.766 176.195 120.169 176.195 120.666C176.195 121.164 176.596 121.567 177.091 121.567Z" fill="#4B7BE5"/>
<path opacity="0.6" d="M169.188 121.567C169.683 121.567 170.084 121.164 170.084 120.666C170.084 120.169 169.683 119.766 169.188 119.766C168.693 119.766 168.292 120.169 168.292 120.666C168.292 121.164 168.693 121.567 169.188 121.567Z" fill="#4B7BE5"/>
<path opacity="0.3" d="M176.743 129.785H132.965C130.702 129.785 128.867 131.629 128.867 133.903C128.867 136.178 130.702 138.022 132.965 138.022H176.743C179.006 138.022 180.841 136.178 180.841 133.903C180.841 131.629 179.006 129.785 176.743 129.785Z" fill="#4B7BE5"/>
<path d="M162.309 134.802H132.306C132.069 134.801 131.841 134.706 131.673 134.537C131.505 134.369 131.411 134.14 131.41 133.901C131.411 133.663 131.505 133.434 131.673 133.265C131.841 133.096 132.069 133.001 132.306 133H162.309C162.547 133.001 162.774 133.096 162.942 133.265C163.11 133.434 163.205 133.663 163.205 133.901C163.205 134.14 163.11 134.369 162.942 134.538C162.774 134.706 162.546 134.801 162.309 134.802Z" fill="white"/>
<path d="M173.139 134.805C173.634 134.805 174.035 134.402 174.035 133.905C174.035 133.407 173.634 133.004 173.139 133.004C172.644 133.004 172.243 133.407 172.243 133.905C172.243 134.402 172.644 134.805 173.139 134.805Z" fill="#4B7BE5"/>
<path opacity="0.3" d="M177.091 134.805C177.586 134.805 177.987 134.402 177.987 133.905C177.987 133.407 177.586 133.004 177.091 133.004C176.596 133.004 176.195 133.407 176.195 133.905C176.195 134.402 176.596 134.805 177.091 134.805Z" fill="#4B7BE5"/>
<path opacity="0.6" d="M169.188 134.805C169.683 134.805 170.084 134.402 170.084 133.905C170.084 133.407 169.683 133.004 169.188 133.004C168.693 133.004 168.292 133.407 168.292 133.905C168.292 134.402 168.693 134.805 169.188 134.805Z" fill="#4B7BE5"/>
<path opacity="0.3" d="M176.743 151.26H132.965C131.879 151.257 130.839 150.822 130.071 150.05C129.303 149.279 128.87 148.233 128.867 147.142C128.87 146.05 129.303 145.005 130.071 144.233C130.839 143.462 131.879 143.027 132.965 143.023H176.743C177.829 143.026 178.869 143.461 179.637 144.233C180.405 145.005 180.838 146.05 180.841 147.142C180.838 148.233 180.405 149.279 179.637 150.05C178.869 150.822 177.829 151.257 176.743 151.26Z" fill="#4B7BE5"/>
<path d="M162.309 148.04H132.306C132.069 148.04 131.841 147.944 131.673 147.776C131.505 147.607 131.411 147.378 131.41 147.14C131.411 146.901 131.505 146.672 131.673 146.503C131.841 146.334 132.069 146.239 132.306 146.238H162.309C162.547 146.239 162.774 146.334 162.942 146.503C163.11 146.672 163.205 146.901 163.205 147.14C163.205 147.378 163.11 147.607 162.942 147.776C162.774 147.945 162.546 148.04 162.309 148.04Z" fill="white"/>
<path d="M173.139 148.04C173.634 148.04 174.035 147.637 174.035 147.139C174.035 146.642 173.634 146.238 173.139 146.238C172.644 146.238 172.243 146.642 172.243 147.139C172.243 147.637 172.644 148.04 173.139 148.04Z" fill="#4B7BE5"/>
<path opacity="0.6" d="M177.091 148.04C177.586 148.04 177.987 147.637 177.987 147.139C177.987 146.642 177.586 146.238 177.091 146.238C176.596 146.238 176.195 146.642 176.195 147.139C176.195 147.637 176.596 148.04 177.091 148.04Z" fill="#4B7BE5"/>
<path d="M169.188 148.04C169.683 148.04 170.084 147.637 170.084 147.139C170.084 146.642 169.683 146.238 169.188 146.238C168.693 146.238 168.292 146.642 168.292 147.139C168.292 147.637 168.693 148.04 169.188 148.04Z" fill="#4B7BE5"/>
<path opacity="0.3" d="M176.743 164.494H132.965C131.879 164.491 130.839 164.056 130.071 163.285C129.303 162.513 128.87 161.467 128.867 160.376C128.87 159.285 129.303 158.239 130.071 157.468C130.839 156.696 131.879 156.261 132.965 156.258H176.743C177.829 156.261 178.869 156.696 179.637 157.467C180.405 158.239 180.838 159.285 180.841 160.376C180.838 161.467 180.405 162.513 179.637 163.285C178.869 164.056 177.829 164.491 176.743 164.494Z" fill="#4B7BE5"/>
<path d="M162.309 161.278H132.306C132.069 161.277 131.841 161.182 131.673 161.013C131.505 160.845 131.411 160.616 131.41 160.377C131.411 160.139 131.505 159.91 131.673 159.741C131.841 159.572 132.069 159.477 132.306 159.477H162.309C162.546 159.477 162.774 159.572 162.942 159.741C163.11 159.91 163.205 160.139 163.205 160.377C163.205 160.616 163.11 160.845 162.942 161.014C162.774 161.182 162.546 161.277 162.309 161.278Z" fill="white"/>
<path opacity="0.3" d="M173.139 161.278C173.634 161.278 174.035 160.875 174.035 160.377C174.035 159.88 173.634 159.477 173.139 159.477C172.644 159.477 172.243 159.88 172.243 160.377C172.243 160.875 172.644 161.278 173.139 161.278Z" fill="#4B7BE5"/>
<path d="M177.091 161.278C177.586 161.278 177.987 160.875 177.987 160.377C177.987 159.88 177.586 159.477 177.091 159.477C176.596 159.477 176.195 159.88 176.195 160.377C176.195 160.875 176.596 161.278 177.091 161.278Z" fill="#4B7BE5"/>
<path d="M169.188 161.278C169.683 161.278 170.084 160.875 170.084 160.377C170.084 159.88 169.683 159.477 169.188 159.477C168.693 159.477 168.292 159.88 168.292 160.377C168.292 160.875 168.693 161.278 169.188 161.278Z" fill="#4B7BE5"/>
<path opacity="0.3" d="M176.743 177.733H132.965C131.879 177.729 130.839 177.294 130.071 176.523C129.303 175.751 128.87 174.706 128.867 173.614C128.87 172.523 129.303 171.477 130.071 170.706C130.839 169.934 131.879 169.499 132.965 169.496H176.743C177.829 169.499 178.869 169.934 179.637 170.706C180.405 171.477 180.838 172.523 180.841 173.614C180.838 174.706 180.405 175.751 179.637 176.523C178.869 177.295 177.829 177.73 176.743 177.733Z" fill="#4B7BE5"/>
<path d="M162.309 174.516H132.306C132.069 174.516 131.841 174.421 131.673 174.252C131.505 174.083 131.411 173.854 131.41 173.616C131.411 173.377 131.505 173.148 131.673 172.98C131.841 172.811 132.069 172.716 132.306 172.715H162.309C162.546 172.715 162.774 172.811 162.942 172.979C163.11 173.148 163.205 173.377 163.205 173.616C163.205 173.854 163.11 174.083 162.942 174.252C162.774 174.421 162.546 174.516 162.309 174.516Z" fill="white"/>
<path opacity="0.3" d="M173.139 174.516C173.634 174.516 174.035 174.113 174.035 173.616C174.035 173.118 173.634 172.715 173.139 172.715C172.644 172.715 172.243 173.118 172.243 173.616C172.243 174.113 172.644 174.516 173.139 174.516Z" fill="#4B7BE5"/>
<path d="M177.091 174.516C177.586 174.516 177.987 174.113 177.987 173.616C177.987 173.118 177.586 172.715 177.091 172.715C176.596 172.715 176.195 173.118 176.195 173.616C176.195 174.113 176.596 174.516 177.091 174.516Z" fill="#4B7BE5"/>
<path opacity="0.3" d="M169.188 174.516C169.683 174.516 170.084 174.113 170.084 173.616C170.084 173.118 169.683 172.715 169.188 172.715C168.693 172.715 168.292 173.118 168.292 173.616C168.292 174.113 168.693 174.516 169.188 174.516Z" fill="#4B7BE5"/>
<path opacity="0.3" d="M176.743 182.734H132.965C130.702 182.734 128.867 184.578 128.867 186.853C128.867 189.127 130.702 190.971 132.965 190.971H176.743C179.006 190.971 180.841 189.127 180.841 186.853C180.841 184.578 179.006 182.734 176.743 182.734Z" fill="#4B7BE5"/>
<path d="M162.309 187.751H132.306C132.069 187.75 131.841 187.655 131.673 187.486C131.505 187.317 131.411 187.089 131.41 186.85C131.411 186.611 131.505 186.383 131.673 186.214C131.841 186.045 132.069 185.95 132.306 185.949H162.309C162.546 185.95 162.774 186.045 162.942 186.214C163.11 186.383 163.205 186.611 163.205 186.85C163.205 187.089 163.11 187.317 162.942 187.486C162.774 187.655 162.546 187.75 162.309 187.751Z" fill="white"/>
<path d="M173.139 187.751C173.634 187.751 174.035 187.347 174.035 186.85C174.035 186.352 173.634 185.949 173.139 185.949C172.644 185.949 172.243 186.352 172.243 186.85C172.243 187.347 172.644 187.751 173.139 187.751Z" fill="#4B7BE5"/>
<path d="M177.091 187.751C177.586 187.751 177.987 187.347 177.987 186.85C177.987 186.352 177.586 185.949 177.091 185.949C176.596 185.949 176.195 186.352 176.195 186.85C176.195 187.347 176.596 187.751 177.091 187.751Z" fill="#4B7BE5"/>
<path d="M169.188 187.751C169.683 187.751 170.084 187.347 170.084 186.85C170.084 186.352 169.683 185.949 169.188 185.949C168.693 185.949 168.292 186.352 168.292 186.85C168.292 187.347 168.693 187.751 169.188 187.751Z" fill="#4B7BE5"/>
<path opacity="0.3" d="M176.743 204.205H132.965C131.879 204.202 130.839 203.767 130.071 202.996C129.303 202.224 128.87 201.178 128.867 200.087C128.87 198.996 129.303 197.95 130.071 197.179C130.839 196.407 131.879 195.972 132.965 195.969H176.743C177.829 195.972 178.869 196.407 179.637 197.178C180.405 197.95 180.838 198.996 180.841 200.087C180.838 201.178 180.405 202.224 179.637 202.996C178.869 203.767 177.829 204.202 176.743 204.205Z" fill="#4B7BE5"/>
<path d="M162.309 200.99H132.306C132.069 200.989 131.841 200.894 131.673 200.725C131.505 200.556 131.411 200.327 131.41 200.088C131.411 199.85 131.505 199.621 131.673 199.452C131.841 199.283 132.069 199.188 132.306 199.188H162.309C162.546 199.188 162.774 199.283 162.942 199.452C163.11 199.621 163.205 199.85 163.205 200.088C163.205 200.327 163.11 200.556 162.942 200.725C162.774 200.894 162.547 200.989 162.309 200.99Z" fill="white"/>
<path d="M173.139 200.989C173.634 200.989 174.035 200.586 174.035 200.088C174.035 199.591 173.634 199.188 173.139 199.188C172.644 199.188 172.243 199.591 172.243 200.088C172.243 200.586 172.644 200.989 173.139 200.989Z" fill="#4B7BE5"/>
<path d="M177.091 200.989C177.586 200.989 177.987 200.586 177.987 200.088C177.987 199.591 177.586 199.188 177.091 199.188C176.596 199.188 176.195 199.591 176.195 200.088C176.195 200.586 176.596 200.989 177.091 200.989Z" fill="#4B7BE5"/>
<path opacity="0.6" d="M169.188 200.989C169.683 200.989 170.084 200.586 170.084 200.088C170.084 199.591 169.683 199.188 169.188 199.188C168.693 199.188 168.292 199.591 168.292 200.088C168.292 200.586 168.693 200.989 169.188 200.989Z" fill="#4B7BE5"/>
<path opacity="0.2" d="M191.607 107.828H197.735C198.212 107.828 198.669 108.018 199.006 108.357C199.343 108.696 199.532 109.155 199.532 109.634V117.242C199.532 117.479 199.486 117.714 199.395 117.933C199.305 118.152 199.173 118.351 199.006 118.519C198.839 118.686 198.641 118.819 198.423 118.91C198.205 119.001 197.971 119.048 197.735 119.048H191.607C191.131 119.048 190.673 118.857 190.336 118.519C189.999 118.18 189.81 117.72 189.81 117.241V109.634C189.81 109.397 189.856 109.162 189.947 108.943C190.037 108.724 190.17 108.524 190.336 108.357C190.503 108.189 190.701 108.056 190.92 107.965C191.138 107.875 191.371 107.828 191.607 107.828Z" fill="black"/>
<path opacity="0.2" d="M119.684 166.117V206.164C119.69 208.269 120.524 210.285 122.005 211.774C123.486 213.262 125.493 214.1 127.587 214.107H137.291L133.824 169.909L119.684 166.117Z" fill="black"/>
<path d="M105.237 166.457L101.363 171.313C101.023 171.745 100.591 172.095 100.099 172.338C99.6066 172.581 99.0667 172.711 98.5184 172.718H63.5433C62.6303 172.735 61.7553 173.088 61.0848 173.711C60.4143 174.334 59.9952 175.183 59.9072 176.096L56.8263 213.51C56.7819 213.941 56.829 214.377 56.9644 214.788C57.0998 215.199 57.3206 215.577 57.612 215.896C57.9034 216.215 58.2589 216.469 58.6549 216.64C59.051 216.811 59.4787 216.895 59.9097 216.888H128.39C129.303 216.871 130.178 216.518 130.848 215.895C131.519 215.272 131.938 214.423 132.026 213.51L135.738 168.429C135.782 167.998 135.735 167.563 135.6 167.151C135.464 166.74 135.244 166.362 134.952 166.043C134.661 165.724 134.305 165.47 133.909 165.299C133.513 165.128 133.086 165.044 132.655 165.051H108.081C107.533 165.058 106.993 165.188 106.501 165.431C106.009 165.675 105.577 166.025 105.237 166.457Z" fill="#4B7BE5"/>
<path opacity="0.3" d="M105.237 166.457L101.363 171.313C101.023 171.745 100.591 172.095 100.099 172.338C99.6066 172.581 99.0667 172.711 98.5184 172.718H63.5433C62.6303 172.735 61.7553 173.088 61.0848 173.711C60.4143 174.334 59.9952 175.183 59.9072 176.096L56.8263 213.51C56.7819 213.941 56.829 214.377 56.9644 214.788C57.0998 215.199 57.3206 215.577 57.612 215.896C57.9034 216.215 58.2589 216.469 58.6549 216.64C59.051 216.811 59.4787 216.895 59.9097 216.888H128.39C129.303 216.871 130.178 216.518 130.848 215.895C131.519 215.272 131.938 214.423 132.026 213.51L135.738 168.429C135.782 167.998 135.735 167.563 135.6 167.151C135.464 166.74 135.244 166.362 134.952 166.043C134.661 165.724 134.305 165.47 133.909 165.299C133.513 165.128 133.086 165.044 132.655 165.051H108.081C107.533 165.058 106.993 165.188 106.501 165.431C106.009 165.675 105.577 166.025 105.237 166.457Z" fill="black"/>
<path d="M91.408 169.118L88.2682 173.716C87.9703 174.137 87.5749 174.478 87.1161 174.71C86.6574 174.942 86.1492 175.058 85.6357 175.048H56.8705C56.45 175.03 56.0304 175.101 55.6388 175.256C55.2472 175.411 54.8925 175.647 54.5975 175.948C54.3025 176.25 54.0738 176.611 53.9264 177.007C53.779 177.403 53.716 177.826 53.7417 178.248L56.313 213.687C56.4114 214.573 56.8334 215.391 57.4973 215.982C58.1612 216.573 59.0198 216.895 59.9067 216.887H128.387C128.807 216.905 129.227 216.834 129.618 216.679C130.01 216.524 130.364 216.288 130.659 215.987C130.954 215.685 131.183 215.325 131.33 214.928C131.478 214.532 131.541 214.11 131.515 213.687L128.417 170.986C128.318 170.1 127.896 169.282 127.233 168.691C126.569 168.1 125.71 167.777 124.823 167.786H94.04C93.5265 167.776 93.0185 167.892 92.5598 168.124C92.1012 168.356 91.7058 168.697 91.408 169.118Z" fill="#4B7BE5"/>
<path d="M86.4849 67.8417C88.1533 64.83 91.3599 63.0533 93.2233 60.3883C95.1949 57.5933 94.0899 52.3717 88.4999 52.3717C84.8383 52.3717 83.0399 55.145 82.2816 57.4417L76.6699 55.08C78.2083 50.465 82.3899 46.5 88.4783 46.5C93.5699 46.5 97.0583 48.8183 98.8349 51.7217C100.352 54.2133 101.24 58.8717 98.8999 62.3383C96.2999 66.1733 93.8083 67.3433 92.4649 69.8133C91.9233 70.81 91.7066 71.46 91.7066 74.6667H85.4449C85.4233 72.9767 85.1633 70.225 86.4849 67.8417ZM92.8333 83.3333C92.8333 85.7167 90.8833 87.6667 88.4999 87.6667C86.1166 87.6667 84.1666 85.7167 84.1666 83.3333C84.1666 80.95 86.1166 79 88.4999 79C90.8833 79 92.8333 80.95 92.8333 83.3333Z" fill="#4B7BE5"/>
</g>
<defs>
<clipPath id="clip0_1530_37804">
<rect width="235" height="221" fill="white" transform="translate(0.5)"/>
</clipPath>
</defs>
</svg>
