<svg width="21" height="23" viewBox="0 0 21 23" fill="none" xmlns="http://www.w3.org/2000/svg">
<path id="Vector" d="M13.5 4.9C13.5 4.12203 13.8161 3.37593 14.3787 2.82582C14.9413 2.27571 15.7044 1.96667 16.5 1.96667C17.2956 1.96667 18.0587 2.27571 18.6213 2.82582C19.1839 3.37593 19.5 4.12203 19.5 4.9V5.63333C19.5 5.82783 19.579 6.01435 19.7197 6.15188C19.8603 6.2894 20.0511 6.36667 20.25 6.36667C20.4489 6.36667 20.6397 6.2894 20.7803 6.15188C20.921 6.01435 21 5.82783 21 5.63333V4.9C21 3.73305 20.5259 2.61389 19.682 1.78873C18.8381 0.96357 17.6935 0.5 16.5 0.5C15.3065 0.5 14.1619 0.96357 13.318 1.78873C12.4741 2.61389 12 3.73305 12 4.9V7.1H3.375C2.47989 7.1 1.62145 7.44768 0.988515 8.06655C0.355579 8.68542 0 9.52479 0 10.4V19.2C0 20.0752 0.355579 20.9146 0.988515 21.5335C1.62145 22.1523 2.47989 22.5 3.375 22.5H14.625C15.5201 22.5 16.3785 22.1523 17.0115 21.5335C17.6444 20.9146 18 20.0752 18 19.2V10.4C18 9.52479 17.6444 8.68542 17.0115 8.06655C16.3785 7.44768 15.5201 7.1 14.625 7.1H13.5V4.9ZM3.375 8.56667H14.625C15.1223 8.56667 15.5992 8.75982 15.9508 9.10364C16.3025 9.44745 16.5 9.91377 16.5 10.4V19.2C16.5 19.6862 16.3025 20.1525 15.9508 20.4964C15.5992 20.8402 15.1223 21.0333 14.625 21.0333H3.375C2.87772 21.0333 2.40081 20.8402 2.04917 20.4964C1.69754 20.1525 1.5 19.6862 1.5 19.2V10.4C1.5 9.91377 1.69754 9.44745 2.04917 9.10364C2.40081 8.75982 2.87772 8.56667 3.375 8.56667ZM10.5 15.1667C10.5 15.5557 10.342 15.9287 10.0607 16.2038C9.77936 16.4788 9.39782 16.6333 9 16.6333C8.60218 16.6333 8.22064 16.4788 7.93934 16.2038C7.65804 15.9287 7.5 15.5557 7.5 15.1667C7.5 14.7777 7.65804 14.4046 7.93934 14.1296C8.22064 13.8545 8.60218 13.7 9 13.7C9.39782 13.7 9.77936 13.8545 10.0607 14.1296C10.342 14.4046 10.5 14.7777 10.5 15.1667Z" fill="#3ABA6E"/>
</svg>
