<svg width="21" height="21" viewBox="0 0 21 21" fill="none" xmlns="http://www.w3.org/2000/svg">
<g id="fluent:open-28-filled">
<path id="Vector" d="M5.20854 4.11355C4.82703 4.11355 4.46114 4.2651 4.19137 4.53488C3.9216 4.80465 3.77004 5.17053 3.77004 5.55205V15.6215C3.77004 16.0031 3.9216 16.3689 4.19137 16.6387C4.46114 16.9085 4.82703 17.06 5.20854 17.06H15.278C15.6596 17.06 16.0254 16.9085 16.2952 16.6387C16.565 16.3689 16.7165 16.0031 16.7165 15.6215V12.3849C16.7165 12.1942 16.7923 12.0112 16.9272 11.8763C17.0621 11.7415 17.245 11.6657 17.4358 11.6657C17.6265 11.6657 17.8095 11.7415 17.9444 11.8763C18.0793 12.0112 18.155 12.1942 18.155 12.3849V15.6215C18.155 16.3846 17.8519 17.1163 17.3124 17.6559C16.7728 18.1954 16.0411 18.4985 15.278 18.4985H5.20854C4.44551 18.4985 3.71374 18.1954 3.1742 17.6559C2.63465 17.1163 2.33154 16.3846 2.33154 15.6215V5.55205C2.33154 4.78902 2.63465 4.05724 3.1742 3.5177C3.71374 2.97816 4.44551 2.67505 5.20854 2.67505H8.44517C8.63592 2.67505 8.81887 2.75083 8.95375 2.88571C9.08864 3.0206 9.16442 3.20354 9.16442 3.3943C9.16442 3.58506 9.08864 3.768 8.95375 3.90288C8.81887 4.03777 8.63592 4.11355 8.44517 4.11355H5.20854ZM11.3222 3.3943C11.3222 3.20354 11.3979 3.0206 11.5328 2.88571C11.6677 2.75083 11.8507 2.67505 12.0414 2.67505H17.4358C17.6265 2.67505 17.8095 2.75083 17.9444 2.88571C18.0793 3.0206 18.155 3.20354 18.155 3.3943V8.78867C18.155 8.97943 18.0793 9.16237 17.9444 9.29726C17.8095 9.43214 17.6265 9.50792 17.4358 9.50792C17.245 9.50792 17.0621 9.43214 16.9272 9.29726C16.7923 9.16237 16.7165 8.97943 16.7165 8.78867V5.13057L12.5499 9.29718C12.4836 9.36588 12.4042 9.42067 12.3165 9.45837C12.2287 9.49606 12.1343 9.5159 12.0388 9.51673C11.9433 9.51756 11.8486 9.49936 11.7602 9.4632C11.6718 9.42704 11.5915 9.37363 11.524 9.3061C11.4565 9.23856 11.4031 9.15826 11.3669 9.06987C11.3307 8.98147 11.3125 8.88676 11.3134 8.79126C11.3142 8.69576 11.334 8.60138 11.3717 8.51363C11.4094 8.42588 11.4642 8.34651 11.5329 8.28016L15.6995 4.11355H12.0414C11.8507 4.11355 11.6677 4.03777 11.5328 3.90288C11.3979 3.768 11.3222 3.58506 11.3222 3.3943Z" fill="#4B7BE5"/>
</g>
</svg>
