<svg width="24" height="25" viewBox="0 0 24 25" fill="none" xmlns="http://www.w3.org/2000/svg">
<g id="material-symbols-light:other-admission-outline">
<path id="Vector" d="M15.827 19.288C16.0137 19.288 16.1727 19.2227 16.304 19.092C16.4347 18.9613 16.5 18.8023 16.5 18.615C16.5 18.4283 16.4347 18.2693 16.304 18.138C16.1733 18.0073 16.0143 17.942 15.827 17.942C15.6403 17.942 15.4813 18.0073 15.35 18.138C15.2193 18.2693 15.154 18.4283 15.154 18.615C15.154 18.8023 15.2193 18.9613 15.35 19.092C15.4807 19.2227 15.6397 19.288 15.827 19.288ZM18 19.288C18.1867 19.288 18.3457 19.2227 18.477 19.092C18.6077 18.9613 18.673 18.8023 18.673 18.615C18.673 18.4283 18.6077 18.2693 18.477 18.138C18.3463 18.0073 18.1873 17.942 18 17.942C17.8133 17.942 17.6543 18.0073 17.523 18.138C17.3923 18.2693 17.327 18.4283 17.327 18.615C17.327 18.8023 17.3923 18.9613 17.523 19.092C17.6537 19.2227 17.8127 19.288 18 19.288ZM20.173 19.288C20.3597 19.288 20.5187 19.2227 20.65 19.092C20.7807 18.9613 20.846 18.8023 20.846 18.615C20.846 18.4283 20.7807 18.2693 20.65 18.138C20.5193 18.0073 20.3603 17.942 20.173 17.942C19.9863 17.942 19.8273 18.0073 19.696 18.138C19.5653 18.2693 19.5 18.4283 19.5 18.615C19.5 18.8023 19.5653 18.9613 19.696 19.092C19.8267 19.2227 19.9857 19.288 20.173 19.288ZM5.615 20.5C5.16833 20.5 4.78733 20.3427 4.472 20.028C4.15733 19.7133 4 19.3323 4 18.885V6.115C4 5.66833 4.15733 5.28733 4.472 4.972C4.78667 4.65733 5.16767 4.5 5.615 4.5H18.385C18.8317 4.5 19.2127 4.65733 19.528 4.972C19.8427 5.28667 20 5.66767 20 6.115V12.065C19.8247 12.005 19.6567 11.956 19.496 11.918C19.336 11.8807 19.1707 11.8433 19 11.806V6.116C19 5.962 18.936 5.82067 18.808 5.692C18.6793 5.564 18.5383 5.5 18.385 5.5H5.615C5.46167 5.5 5.32067 5.564 5.192 5.692C5.064 5.82067 5 5.96167 5 6.115V18.885C5 19.0383 5.064 19.1793 5.192 19.308C5.32067 19.436 5.46167 19.5 5.615 19.5H11.281C11.305 19.6867 11.336 19.8603 11.374 20.021C11.412 20.181 11.461 20.3407 11.521 20.5H5.615ZM5 18.5V19.5V5.5V11.806V11.731V18.5ZM7.5 16.77H11.46C11.4967 16.5987 11.5467 16.433 11.61 16.273L11.81 15.769H7.5V16.769V16.77ZM7.5 13H14.08C14.4087 12.7693 14.732 12.5737 15.05 12.413C15.3693 12.253 15.7117 12.1277 16.077 12.037V12H7.5V13ZM7.5 9.23H16.5V8.23H7.5V9.23ZM18 22.616C16.886 22.616 15.9407 22.228 15.164 21.452C14.3873 20.676 13.9993 19.7303 14 18.615C14 17.5017 14.388 16.5567 15.164 15.78C15.94 15.0033 16.8853 14.615 18 14.615C19.114 14.615 20.0593 15.0033 20.836 15.78C21.6127 16.5567 22.0007 17.5017 22 18.615C22 19.7297 21.612 20.675 20.836 21.451C20.0587 22.227 19.1133 22.616 18 22.616Z" fill="#7A7AFF"/>
</g>
</svg>
