<svg width="13" height="13" viewBox="0 0 13 13" fill="none" xmlns="http://www.w3.org/2000/svg">
<g id="carbon:volume-block-storage">
<path id="Vector" d="M6.90625 8.53125H4.0625V5.6875H6.90625V8.53125ZM4.875 7.71875H6.09375V6.5H4.875V7.71875ZM6.90625 12.1875H4.0625V9.34375H6.90625V12.1875ZM4.875 11.375H6.09375V10.1562H4.875V11.375ZM10.5625 8.53125H7.71875V5.6875H10.5625V8.53125ZM8.53125 7.71875H9.75V6.5H8.53125V7.71875ZM10.5625 12.1875H7.71875V9.34375H10.5625V12.1875ZM8.53125 11.375H9.75V10.1562H8.53125V11.375Z" fill="#7A7AFF"/>
<path id="Vector_2" d="M3.25 11.375H1.625C1.40958 11.3748 1.20304 11.2891 1.05071 11.1368C0.898387 10.9845 0.812715 10.7779 0.8125 10.5625V2.4375C0.812715 2.22208 0.898387 2.01554 1.05071 1.86322C1.20304 1.71089 1.40958 1.62522 1.625 1.625H4.70681C4.81355 1.62471 4.91928 1.64561 5.01789 1.68647C5.11649 1.72734 5.20601 1.78736 5.28125 1.86307L6.66819 3.25H11.375C11.5904 3.25022 11.797 3.33589 11.9493 3.48822C12.1016 3.64054 12.1873 3.84708 12.1875 4.0625V7.3125H11.375V4.0625H6.33181L4.70681 2.4375H1.625V10.5625H3.25V11.375Z" fill="#7A7AFF"/>
</g>
</svg>
