<svg width="20" height="20" viewBox="0 0 20 20" fill="none" xmlns="http://www.w3.org/2000/svg">
<g id="solar:lock-password-broken" clip-path="url(#clip0_585_12383)">
<g id="Group">
<path id="Vector" d="M7.49967 13.3333C7.49967 13.5543 7.41188 13.7663 7.2556 13.9226C7.09932 14.0789 6.88735 14.1667 6.66634 14.1667C6.44533 14.1667 6.23337 14.0789 6.07709 13.9226C5.92081 13.7663 5.83301 13.5543 5.83301 13.3333C5.83301 13.1123 5.92081 12.9004 6.07709 12.7441C6.23337 12.5878 6.44533 12.5 6.66634 12.5C6.88735 12.5 7.09932 12.5878 7.2556 12.7441C7.41188 12.9004 7.49967 13.1123 7.49967 13.3333ZM10.833 13.3333C10.833 13.5543 10.7452 13.7663 10.5889 13.9226C10.4326 14.0789 10.2207 14.1667 9.99967 14.1667C9.77866 14.1667 9.5667 14.0789 9.41042 13.9226C9.25414 13.7663 9.16634 13.5543 9.16634 13.3333C9.16634 13.1123 9.25414 12.9004 9.41042 12.7441C9.5667 12.5878 9.77866 12.5 9.99967 12.5C10.2207 12.5 10.4326 12.5878 10.5889 12.7441C10.7452 12.9004 10.833 13.1123 10.833 13.3333ZM14.1663 13.3333C14.1663 13.5543 14.0785 13.7663 13.9223 13.9226C13.766 14.0789 13.554 14.1667 13.333 14.1667C13.112 14.1667 12.9 14.0789 12.7438 13.9226C12.5875 13.7663 12.4997 13.5543 12.4997 13.3333C12.4997 13.1123 12.5875 12.9004 12.7438 12.7441C12.9 12.5878 13.112 12.5 13.333 12.5C13.554 12.5 13.766 12.5878 13.9223 12.7441C14.0785 12.9004 14.1663 13.1123 14.1663 13.3333Z" fill="#4B7BE5"/>
<path id="Vector_2" d="M4.99984 8.33299V6.66633C4.99984 6.38299 5.02317 6.10383 5.069 5.83299M14.9998 8.33299V6.66633C14.9999 5.65069 14.6907 4.65912 14.1133 3.82357C13.5359 2.98802 12.7178 2.34811 11.7677 1.989C10.8177 1.62989 9.78086 1.56861 8.79515 1.81331C7.80944 2.05802 6.92162 2.5971 6.24984 3.35883M9.1665 18.333H6.6665C4.30984 18.333 3.13067 18.333 2.399 17.6005C1.6665 16.8688 1.6665 15.6897 1.6665 13.333C1.6665 10.9763 1.6665 9.79716 2.399 9.06549C3.13067 8.33299 4.30984 8.33299 6.6665 8.33299H13.3332C15.6898 8.33299 16.869 8.33299 17.6007 9.06549C18.3332 9.79716 18.3332 10.9763 18.3332 13.333C18.3332 15.6897 18.3332 16.8688 17.6007 17.6005C16.869 18.333 15.6898 18.333 13.3332 18.333H12.4998" stroke="#4B7BE5" stroke-width="1.5" stroke-linecap="round"/>
</g>
</g>
<defs>
<clipPath id="clip0_585_12383">
<rect width="20" height="20" fill="white"/>
</clipPath>
</defs>
</svg>
