<svg width="20" height="20" viewBox="0 0 20 20" fill="none" xmlns="http://www.w3.org/2000/svg">
<path d="M19.3288 8.59856C19.2843 8.52002 19.2247 8.45101 19.1535 8.39549C19.0823 8.33996 19.0008 8.29901 18.9138 8.27496C18.8268 8.25092 18.7359 8.24425 18.6462 8.25534C18.5566 8.26643 18.4701 8.29506 18.3915 8.3396C18.313 8.38414 18.244 8.44372 18.1885 8.51493C18.1329 8.58614 18.092 8.66758 18.0679 8.75462C18.0439 8.84165 18.0372 8.93257 18.0483 9.02219C18.0594 9.1118 18.088 9.19835 18.1326 9.2769L19.3288 8.59856ZM15.3422 6.21523C15.4718 6.34053 15.6455 6.4099 15.8257 6.40842C16.006 6.40694 16.1785 6.33472 16.306 6.20731C16.4335 6.0799 16.5059 5.9075 16.5076 5.72724C16.5092 5.54698 16.44 5.37329 16.3148 5.24356L15.3422 6.21523ZM7.33332 16.1794L3.55849 12.4027L2.58774 13.3744L6.36074 17.1511L7.33332 16.1794ZM14.6969 11.9563L12.9406 12.6163L13.4237 13.9042L15.1818 13.2442L14.6969 11.9563ZM7.11974 6.7744L7.75682 5.03731L6.46615 4.5634L5.82907 6.3014L7.11974 6.7744ZM4.37707 9.30073C5.02974 9.12106 5.52565 8.99456 5.93174 8.70306L5.12874 7.58656C4.97015 7.70115 4.7639 7.76806 4.01224 7.97523L4.37707 9.30073ZM5.82907 6.3014C5.56049 7.03473 5.47615 7.23456 5.34965 7.38306L6.39649 8.27498C6.72007 7.89456 6.88599 7.40965 7.11974 6.7744L5.82907 6.3014ZM5.93174 8.70306C6.10315 8.57931 6.25899 8.4354 6.39649 8.27498L5.34965 7.38306C5.28445 7.45951 5.21027 7.52784 5.12874 7.58656L5.93174 8.70306ZM12.9406 12.6163C12.309 12.8546 11.8277 13.0233 11.4501 13.3496L12.3502 14.391C12.4969 14.2626 12.6958 14.1765 13.4246 13.9033L12.9406 12.6163ZM11.7654 15.7211C11.9717 14.9703 12.0386 14.765 12.1522 14.6064L11.0357 13.8043C10.7442 14.2104 10.6187 14.7063 10.4399 15.3571L11.7654 15.7211ZM11.4501 13.3506C11.2942 13.4844 11.1549 13.6375 11.0357 13.8043L12.1522 14.6064C12.21 14.5266 12.276 14.4542 12.3502 14.391L11.4501 13.3506ZM3.5594 12.4009C2.96724 11.8078 2.56574 11.4045 2.3054 11.0772C2.04324 10.7481 2.01665 10.6061 2.01665 10.5428L0.641653 10.5511C0.644403 11.0846 0.90932 11.5319 1.22924 11.9334C1.55007 12.3367 2.01849 12.8042 2.58682 13.3726L3.5594 12.4009ZM4.01224 7.97523C3.23765 8.18973 2.59874 8.3639 2.12115 8.5564C1.64449 8.74706 1.19349 9.00556 0.927653 9.46756L2.11932 10.1532C2.15049 10.0982 2.24399 9.98823 2.63265 9.8324C3.02132 9.67656 3.56949 9.52348 4.37707 9.30073L4.01224 7.97523ZM2.01665 10.5419C2.01558 10.4056 2.05069 10.2715 2.1184 10.1532L0.927653 9.46756C0.738316 9.7971 0.639015 10.171 0.641653 10.5511L2.01665 10.5419ZM6.36074 17.1511C6.93274 17.7231 7.40299 18.1951 7.80815 18.5169C8.21149 18.8396 8.66157 19.1054 9.19874 19.1063L9.20057 17.7313C9.13732 17.7313 8.99524 17.7047 8.66432 17.4416C8.33432 17.1795 7.92915 16.7761 7.33332 16.1794L6.36074 17.1511ZM10.4399 15.3571C10.2153 16.1711 10.0622 16.7221 9.90549 17.1135C9.74782 17.5058 9.6369 17.5993 9.5819 17.6305L10.263 18.8249C10.7305 18.5591 10.989 18.1044 11.1815 17.625C11.374 17.1446 11.55 16.5021 11.7654 15.7211L10.4399 15.3571ZM9.19874 19.1063C9.57182 19.1063 9.93849 19.0101 10.263 18.8249L9.5819 17.6305C9.46578 17.6968 9.33431 17.7316 9.20057 17.7313L9.19874 19.1063ZM15.1818 13.2424C16.4294 12.774 17.4396 12.3963 18.1573 11.9976C18.8861 11.5942 19.4691 11.0846 19.6432 10.2788L18.2994 9.98823C18.2499 10.2174 18.0867 10.4649 17.49 10.7949C16.8822 11.1331 15.9885 11.4705 14.6978 11.9554L15.1818 13.2424ZM13.9801 2.90606C13.0304 1.95548 12.2641 1.1864 11.6013 0.69323C10.9285 0.194563 10.219 -0.12902 9.41049 0.0497296L9.70749 1.39173C9.93665 1.34131 10.2291 1.38715 10.7818 1.79781C11.3428 2.2149 12.0257 2.89506 13.0075 3.87865L13.9801 2.90606ZM7.75682 5.03731C8.23532 3.7329 8.56807 2.82723 8.90265 2.21306C9.23265 1.60806 9.47832 1.44306 9.70749 1.39173L9.4114 0.0497296C8.6029 0.227563 8.09599 0.81973 7.6954 1.5549C7.30032 2.2809 6.92815 3.30206 6.46615 4.5634L7.75682 5.03731ZM18.1335 9.2769C18.3168 9.60231 18.3388 9.80856 18.2994 9.98823L19.6432 10.2788C19.7734 9.67656 19.6267 9.12381 19.3288 8.59856L18.1335 9.2769ZM13.0075 3.87865L15.3422 6.21523L16.3148 5.24356L13.9801 2.90606L13.0075 3.87865Z" fill="#4B7BE5"/>
</svg>
