<svg width="20" height="20" viewBox="0 0 20 20" fill="none" xmlns="http://www.w3.org/2000/svg">
<g id="solar:pin-bold-duotone">
<path id="Vector" fill-rule="evenodd" clip-rule="evenodd" d="M12.9054 4.75902L15.2569 7.11284C16.8531 8.71062 17.6512 9.5095 17.4655 10.3711C17.2791 11.2318 16.2224 11.6285 14.1097 12.4226L12.646 12.9724C12.0804 13.185 11.7972 13.2913 11.579 13.4801C11.4838 13.5634 11.3973 13.6571 11.3235 13.7594C11.1553 13.995 11.0752 14.2862 10.915 14.8701C10.55 16.1965 10.3676 16.8597 9.93203 17.108C9.74956 17.2128 9.54171 17.2667 9.33068 17.2667C8.83088 17.2667 8.34457 16.7796 7.37194 15.807L6.20891 14.6424L5.35291 13.7856L4.23113 12.6622C3.26485 11.6951 2.78171 11.212 2.77933 10.7146C2.77766 10.4995 2.83324 10.2878 2.94038 10.1013C3.18869 9.67055 3.84716 9.48888 5.16409 9.12553C5.74878 8.96448 6.04073 8.88436 6.27635 8.71538C6.38107 8.63922 6.47706 8.55116 6.56195 8.45199C6.74917 8.23144 6.85389 7.94664 7.06175 7.37702L7.59249 5.93078C8.37551 3.79433 8.76662 2.72571 9.62977 2.53531C10.4937 2.34491 11.2974 3.14935 12.9054 4.75902Z" fill="white"/>
<path id="Vector_2" d="M2.65794 18.1961L6.2089 14.642L5.35289 13.7852L1.80193 17.3393C1.69373 17.454 1.63448 17.6064 1.63678 17.764C1.63908 17.9217 1.70274 18.0723 1.81424 18.1838C1.92575 18.2953 2.07632 18.3589 2.23399 18.3612C2.39166 18.3635 2.54323 18.3043 2.65794 18.1961Z" fill="white"/>
</g>
</svg>
