<svg width="22" height="22" viewBox="0 0 22 22" fill="none" xmlns="http://www.w3.org/2000/svg">
<g id="Group 47304">
<path id="Vector" d="M14.606 15.7154L10.2139 11.3233V3.92969H11.7853V10.6711L15.7139 14.6075L14.606 15.7154Z" fill="#4B7BE5"/>
<path id="Vector_2" d="M11 0C9.5346 0.000207609 8.08415 0.294468 6.73454 0.865355C5.38492 1.43624 4.16358 2.27215 3.14286 3.32357V0H1.57143V6.28571H7.85714V4.71428H3.99143C5.46545 3.0763 7.46663 2.00634 9.6474 1.69023C11.8282 1.37412 14.0508 1.83183 15.9292 2.98386C17.8077 4.13589 19.2233 5.90947 19.9302 7.99657C20.6371 10.0837 20.5907 12.3525 19.7989 14.4089C19.0072 16.4653 17.5202 18.1795 15.5962 19.2537C13.6722 20.3279 11.4327 20.6942 9.2667 20.2892C7.10069 19.8841 5.14497 18.7331 3.73921 17.0362C2.33345 15.3393 1.56645 13.2036 1.57143 11H0C0 13.1756 0.645139 15.3023 1.85383 17.1113C3.06253 18.9202 4.78049 20.3301 6.79048 21.1627C8.80047 21.9952 11.0122 22.2131 13.146 21.7886C15.2798 21.3642 17.2398 20.3165 18.7782 18.7782C20.3165 17.2398 21.3642 15.2798 21.7886 13.146C22.2131 11.0122 21.9952 8.80047 21.1627 6.79048C20.3301 4.78049 18.9202 3.06253 17.1113 1.85383C15.3023 0.645139 13.1756 0 11 0Z" fill="#4B7BE5"/>
</g>
</svg>
