<svg width="26" height="26" viewBox="0 0 26 26" fill="none" xmlns="http://www.w3.org/2000/svg">
<g id="ic:baseline-refresh">
<path id="Vector" d="M19.1208 6.87787C18.319 6.07062 17.3654 5.43006 16.3148 4.99312C15.2643 4.55617 14.1377 4.3315 12.9999 4.33203C8.21162 4.33203 4.34412 8.21037 4.34412 12.9987C4.34412 17.787 8.21162 21.6654 12.9999 21.6654C17.0408 21.6654 20.41 18.9029 21.3741 15.1654H19.1208C18.6745 16.4323 17.8461 17.5296 16.7497 18.3058C15.6534 19.0819 14.3432 19.4987 12.9999 19.4987C9.41412 19.4987 6.49995 16.5845 6.49995 12.9987C6.49995 9.41287 9.41412 6.4987 12.9999 6.4987C14.7983 6.4987 16.4016 7.2462 17.5716 8.42703L14.0833 11.9154H21.6666V4.33203L19.1208 6.87787Z" fill="#3ABA6E"/>
</g>
</svg>
