<svg width="24" height="24" viewBox="0 0 24 24" fill="none" xmlns="http://www.w3.org/2000/svg">
<g id="iconamoon:star-off-duotone">
<g id="Group">
<path id="Vector" opacity="0.16" d="M11.9996 18.2801L18.4656 21.9001L17.6136 17.6141L8.7456 8.74609L1.5376 9.60109L6.9776 14.6311L5.5336 21.9001L11.9996 18.2801Z" fill="#8E8EFF"/>
<path id="Vector_2" d="M11.9998 2.00003L12.9078 1.58103C12.8278 1.40757 12.6997 1.26066 12.5388 1.15769C12.3779 1.05472 12.1909 1 11.9998 1C11.8088 1 11.6217 1.05472 11.4608 1.15769C11.2999 1.26066 11.1719 1.40757 11.0918 1.58103L11.9998 2.00003ZM15.1038 8.72803L14.1948 9.14803C14.2666 9.30307 14.3769 9.43714 14.5152 9.53744C14.6535 9.63775 14.8152 9.70096 14.9848 9.72103L15.1038 8.72803ZM22.4618 9.60103L23.1408 10.335C23.2811 10.2052 23.3812 10.038 23.4293 9.8531C23.4774 9.6682 23.4716 9.47337 23.4125 9.29168C23.3534 9.10999 23.2434 8.94905 23.0957 8.82789C22.9479 8.70673 22.7686 8.63043 22.5788 8.60803L22.4618 9.60103ZM18.4658 21.899L17.9768 22.772C18.1436 22.8656 18.3337 22.9094 18.5246 22.8983C18.7156 22.8871 18.8993 22.8214 19.054 22.709C19.2087 22.5966 19.328 22.4422 19.3976 22.264C19.4672 22.0859 19.4843 21.8916 19.4468 21.704L18.4658 21.899ZM11.9998 18.28L12.4888 17.407C12.3396 17.3235 12.1714 17.2796 12.0003 17.2796C11.8293 17.2796 11.6611 17.3235 11.5118 17.407L11.9998 18.28ZM5.53383 21.9L4.55383 21.704C4.51651 21.8914 4.53366 22.0856 4.60326 22.2636C4.67285 22.4415 4.79198 22.5958 4.94653 22.7082C5.10108 22.8205 5.28459 22.8863 5.47533 22.8976C5.66608 22.9089 5.85607 22.8653 6.02283 22.772L5.53383 21.9ZM6.97783 14.632L7.95883 14.826C7.99213 14.6583 7.98185 14.4848 7.92898 14.3221C7.87611 14.1595 7.7824 14.0131 7.65683 13.897L6.97783 14.632ZM1.53783 9.60003L1.42083 8.60703C1.23108 8.62943 1.05172 8.70573 0.903976 8.82689C0.756234 8.94805 0.646295 9.10899 0.587169 9.29068C0.528044 9.47237 0.522208 9.6672 0.570351 9.8521C0.618495 10.037 0.718603 10.2042 0.858827 10.334L1.53883 9.60003H1.53783ZM8.86383 9.73803C8.99542 9.72406 9.12294 9.68411 9.23898 9.6205C9.35502 9.55689 9.45728 9.47087 9.53984 9.36745C9.62239 9.26402 9.68359 9.14523 9.7199 9.01798C9.75621 8.89072 9.7669 8.75752 9.75135 8.62611C9.7358 8.49469 9.69432 8.36767 9.62931 8.2524C9.56431 8.13713 9.47707 8.03591 9.37266 7.95461C9.26824 7.8733 9.14873 7.81353 9.02105 7.77876C8.89336 7.74398 8.76005 7.7349 8.62883 7.75203L8.86383 9.73803ZM18.5948 17.418C18.5692 17.2892 18.5185 17.1667 18.4455 17.0575C18.3726 16.9482 18.2788 16.8545 18.1696 16.7815C18.0604 16.7085 17.9379 16.6577 17.8091 16.6321C17.6803 16.6064 17.5477 16.6064 17.4188 16.632C17.29 16.6576 17.1675 16.7084 17.0583 16.7813C16.949 16.8543 16.8553 16.948 16.7823 17.0572C16.7093 17.1664 16.6585 17.289 16.6329 17.4178C16.6072 17.5466 16.6072 17.6792 16.6328 17.808L18.5948 17.418ZM9.72083 4.55303C9.6097 4.79385 9.59879 5.06894 9.6905 5.31781C9.7822 5.56667 9.96901 5.7689 10.2098 5.88003C10.4506 5.99116 10.7257 6.00207 10.9746 5.91036C11.2235 5.81866 11.4257 5.63185 11.5368 5.39103L9.72083 4.55303ZM18.0398 12.328C17.8495 12.5092 17.7381 12.758 17.7298 13.0206C17.7214 13.2832 17.8168 13.5385 17.9952 13.7314C18.1736 13.9243 18.4208 14.0392 18.6833 14.0513C18.9457 14.0634 19.2024 13.9717 19.3978 13.796L18.0398 12.328ZM11.0918 2.41803L14.1948 9.14803L16.0118 8.31003L12.9078 1.58103L11.0918 2.41803ZM14.9858 9.72103L22.3438 10.594L22.5788 8.60803L15.2208 7.73503L14.9858 9.72103ZM18.9538 21.027L12.4878 17.407L11.5118 19.153L17.9768 22.772L18.9538 21.027ZM11.5118 17.407L5.04583 21.027L6.02283 22.772L12.4888 19.152L11.5118 17.407ZM6.51483 22.094L7.95883 14.826L5.99783 14.436L4.55383 21.704L6.51483 22.094ZM7.65683 13.897L2.21683 8.86703L0.859827 10.335L6.29983 15.365L7.65683 13.897ZM1.65683 10.594L8.86383 9.73903L8.62883 7.75203L1.42083 8.60703L1.65683 10.594ZM16.6328 17.808L17.4848 22.094L19.4468 21.704L18.5948 17.419L16.6328 17.808ZM11.5368 5.39103L12.9078 2.41903L11.0918 1.58103L9.72183 4.55303L11.5368 5.39103ZM21.7828 8.86703L18.0398 12.327L19.3978 13.797L23.1408 10.335L21.7828 8.86703Z" fill="#8E8EFF"/>
<path id="Vector_3" d="M4 4L20 20" stroke="#8E8EFF" stroke-width="2" stroke-linecap="round"/>
</g>
</g>
</svg>
