<svg width="21" height="21" viewBox="0 0 21 21" fill="none" xmlns="http://www.w3.org/2000/svg">
<g id="basil:edit-outline">
<path id="Vector" fill-rule="evenodd" clip-rule="evenodd" d="M18.7734 4.73842C18.8565 4.8646 18.8936 5.01561 18.8783 5.16594C18.863 5.31627 18.7963 5.45671 18.6894 5.56355L10.6455 13.6065C10.5632 13.6888 10.4606 13.7477 10.348 13.7772L6.99765 14.6522C6.8869 14.6811 6.77052 14.6805 6.66007 14.6505C6.54961 14.6205 6.44892 14.5621 6.36799 14.4812C6.28706 14.4003 6.2287 14.2996 6.19871 14.1891C6.16872 14.0787 6.16814 13.9623 6.19702 13.8515L7.07202 10.502C7.09757 10.4015 7.14575 10.3081 7.2129 10.229L15.2865 2.16067C15.4096 2.03778 15.5764 1.96875 15.7503 1.96875C15.9242 1.96875 16.091 2.03778 16.214 2.16067L18.6894 4.63517C18.7208 4.66668 18.7489 4.70127 18.7734 4.73842ZM17.2973 5.09892L15.7503 3.5528L8.29702 11.006L7.75015 13.0999L9.84402 12.553L17.2973 5.09892Z" fill="#8E8EFF"/>
<path id="Vector_2" d="M17.1859 15.0133C17.425 12.9693 17.5014 10.9095 17.4142 8.85331C17.4123 8.80487 17.4205 8.75656 17.4381 8.71139C17.4557 8.66623 17.4824 8.62518 17.5166 8.59081L18.3776 7.72981C18.4011 7.70615 18.431 7.68979 18.4636 7.68269C18.4962 7.67559 18.5302 7.67806 18.5614 7.68979C18.5926 7.70153 18.6198 7.72204 18.6397 7.74885C18.6595 7.77566 18.6712 7.80764 18.6734 7.84094C18.8354 10.2833 18.7739 12.7353 18.4896 15.1664C18.2831 16.9357 16.8621 18.3226 15.1007 18.5194C12.0429 18.8581 8.95706 18.8581 5.89924 18.5194C4.13874 18.3226 2.71686 16.9357 2.51036 15.1664C2.14759 12.0649 2.14759 8.9317 2.51036 5.83019C2.71686 4.06094 4.13786 2.67406 5.89924 2.47719C8.22006 2.21984 10.5584 2.15749 12.8896 2.29081C12.923 2.29321 12.955 2.30512 12.9818 2.32512C13.0086 2.34513 13.0291 2.3724 13.0409 2.40371C13.0526 2.43501 13.0552 2.46904 13.0483 2.50175C13.0413 2.53447 13.0251 2.56451 13.0016 2.58831L12.1327 3.45631C12.0987 3.49022 12.0581 3.51679 12.0134 3.5344C11.9687 3.55201 11.9209 3.56027 11.8729 3.55869C9.92752 3.49256 7.97995 3.56713 6.04536 3.78181C5.48006 3.84438 4.95236 4.0957 4.5475 4.49516C4.14264 4.89462 3.88426 5.4189 3.81411 5.98331C3.46328 8.98309 3.46328 12.0135 3.81411 15.0133C3.88426 15.5777 4.14264 16.102 4.5475 16.5015C4.95236 16.9009 5.48006 17.1522 6.04536 17.2148C8.98099 17.5429 12.019 17.5429 14.9555 17.2148C15.5208 17.1522 16.0485 16.9009 16.4534 16.5015C16.8582 16.102 17.1157 15.5777 17.1859 15.0133Z" fill="#8E8EFF"/>
</g>
</svg>
