<svg width="50" height="50" viewBox="0 0 50 50" fill="none" xmlns="http://www.w3.org/2000/svg">
<path d="M24.9994 27.084V37.5006M24.9994 43.7715L25.0202 43.7486M8.33268 28.1257L7.32227 28.3777C6.42085 28.6031 5.62061 29.1232 5.04873 29.8555C4.47686 30.5878 4.16616 31.4903 4.16602 32.4194V36.3298C4.16616 37.259 4.47686 38.1614 5.04873 38.8937C5.62061 39.626 6.42085 40.1462 7.32227 40.3715L10.9473 41.2798C11.1318 41.3258 11.3244 41.329 11.5104 41.2893C11.6964 41.2496 11.8708 41.168 12.0205 41.0506C12.1702 40.9333 12.2911 40.7834 12.3741 40.6123C12.4571 40.4411 12.4999 40.2533 12.4993 40.0631V28.6819C12.4994 28.4918 12.456 28.3043 12.3727 28.1335C12.2893 27.9627 12.1681 27.8132 12.0182 27.6963C11.8684 27.5794 11.6939 27.4982 11.5079 27.4589C11.322 27.4196 11.1295 27.4232 10.9452 27.4694L8.33268 28.1257ZM8.33268 28.1257V27.084C8.33268 16.7298 15.7952 8.33398 24.9994 8.33398C34.2035 8.33398 41.666 16.7298 41.666 27.084V28.1257M41.666 28.1257L42.6764 28.3777C43.5779 28.6031 44.3781 29.1232 44.95 29.8555C45.5218 30.5878 45.8325 31.4903 45.8327 32.4194V36.3298C45.8325 37.259 45.5218 38.1614 44.95 38.8937C44.3781 39.626 43.5779 40.1462 42.6764 40.3715L39.0514 41.2798C38.8669 41.3258 38.6743 41.329 38.4883 41.2893C38.3023 41.2496 38.1279 41.168 37.9782 41.0506C37.8285 40.9333 37.7076 40.7834 37.6246 40.6123C37.5416 40.4411 37.4988 40.2533 37.4994 40.0631V28.6819C37.4994 28.4921 37.5427 28.3048 37.626 28.1342C37.7092 27.9636 37.8302 27.8142 37.9798 27.6973C38.1294 27.5804 38.3037 27.4992 38.4893 27.4597C38.675 27.4202 38.8672 27.4235 39.0514 27.4694L41.666 28.1257Z" stroke="white" stroke-width="2.5" stroke-linecap="round" stroke-linejoin="round"/>
</svg>
