<svg width="24" height="24" viewBox="0 0 24 24" fill="none" xmlns="http://www.w3.org/2000/svg">
<g id="codicon:git-pull-request">
<path id="Vector" fill-rule="evenodd" clip-rule="evenodd" d="M8.4239 7.39249C8.01419 8.00997 7.42985 8.49144 6.7454 8.77549C6.5234 8.86549 6.0584 8.98249 6.0584 8.98249V16.4945C7.02639 16.694 7.87709 17.2662 8.4269 18.0875C8.8364 18.7055 9.0554 19.43 9.0554 20.1695C9.0674 20.684 8.9699 21.1955 8.7704 21.6695C8.48433 22.3639 7.99514 22.9558 7.36694 23.3674C6.73873 23.7791 6.00082 23.9914 5.2499 23.9765C4.50882 23.9789 3.78388 23.76 3.1679 23.348C2.54996 22.9377 2.06835 22.3525 1.7846 21.6672C1.50085 20.9819 1.42784 20.2275 1.5749 19.5005C1.7174 18.7715 2.0714 18.1025 2.5949 17.576C3.1184 17.0615 3.7799 16.7075 4.4984 16.556V8.92399C3.78054 8.76994 3.12074 8.41639 2.5949 7.90399C2.07221 7.37737 1.71727 6.70769 1.5749 5.97949C1.42754 5.25277 1.50009 4.49862 1.78329 3.81332C2.06649 3.12802 2.5475 2.54267 3.1649 2.13199C3.78171 1.71898 4.50759 1.49912 5.2499 1.50049C5.75185 1.49237 6.25033 1.58496 6.71588 1.77278C7.18143 1.9606 7.60461 2.23984 7.9604 2.59399C8.31587 2.94975 8.59593 3.37356 8.78382 3.84006C8.97171 4.30656 9.06357 4.80617 9.0539 5.30899C9.0569 6.04999 8.8379 6.77599 8.4239 7.39249ZM7.2899 19.184C7.09761 18.8249 6.81143 18.5247 6.4619 18.3155C6.11395 18.1045 5.71379 17.9954 5.3069 18.0005C4.97433 17.9995 4.64571 18.0725 4.34483 18.2142C4.04396 18.3559 3.77837 18.5628 3.5673 18.8198C3.35624 19.0768 3.20498 19.3775 3.12448 19.7002C3.04399 20.0229 3.03628 20.3595 3.1019 20.6855C3.18744 21.1229 3.40157 21.5249 3.71689 21.84C4.03221 22.155 4.43437 22.3688 4.8719 22.454C5.3039 22.541 5.7509 22.499 6.1619 22.334C6.5759 22.1585 6.9299 21.866 7.1819 21.494C7.4069 21.155 7.5344 20.759 7.5554 20.354C7.57368 19.9472 7.48196 19.543 7.2899 19.184ZM4.0619 7.11199C4.4324 7.35349 4.8659 7.48699 5.3069 7.48699C5.7134 7.48699 6.1139 7.37449 6.4619 7.17049C6.8101 6.95985 7.09529 6.65952 7.28766 6.30091C7.48003 5.94229 7.5725 5.53858 7.5554 5.13199C7.53496 4.72523 7.40543 4.33146 7.1804 3.99199C6.92874 3.61929 6.57444 3.32752 6.1604 3.15199C5.75168 2.98551 5.30282 2.94375 4.8704 3.03199C4.43303 3.11771 4.03115 3.33191 3.71613 3.6472C3.40111 3.96248 3.18726 4.36454 3.1019 4.80199C3.0149 5.23399 3.0569 5.68099 3.2219 6.09199C3.3974 6.50599 3.6899 6.85999 4.0619 7.11199ZM19.5554 16.556C20.2754 16.7015 20.9384 17.0585 21.4589 17.576C22.1579 18.281 22.5524 19.2365 22.5464 20.225C22.5494 20.9645 22.3304 21.6905 21.9164 22.307C21.5052 22.925 20.9198 23.407 20.2344 23.6919C19.5489 23.9769 18.7943 24.0519 18.0662 23.9074C17.3381 23.763 16.6692 23.4056 16.1444 22.8806C15.6196 22.3556 15.2626 21.6867 15.1184 20.9585C14.9748 20.2308 15.0501 19.4768 15.335 18.792C15.6199 18.1071 16.1015 17.5221 16.7189 17.111C17.1194 16.8365 17.5754 16.649 18.0524 16.556V8.23399C18.052 7.63751 17.8148 7.0656 17.3929 6.64397C16.9709 6.22234 16.3989 5.98549 15.8024 5.98549H13.0304L14.9339 7.89049L13.8689 8.95399L10.6754 5.76049V4.71049L13.8704 1.51549L14.9354 2.58199L13.0319 4.48699H15.8069C16.5495 4.48282 17.2764 4.70065 17.8943 5.11251C18.5122 5.52437 18.993 6.11148 19.2749 6.79849C19.4624 7.25149 19.5584 7.74049 19.5554 8.23399V16.556ZM20.3909 21.8195C20.7603 21.4537 20.9909 20.9707 21.0432 20.4534C21.0955 19.9362 20.9661 19.4168 20.6774 18.9845C20.4255 18.6124 20.0712 18.3212 19.6574 18.146C19.2487 17.9795 18.7998 17.9377 18.3674 18.026C17.9299 18.1115 17.528 18.3257 17.2129 18.641C16.8979 18.9563 16.6841 19.3585 16.5989 19.796C16.5107 20.2284 16.5524 20.6773 16.7189 21.086C16.8587 21.4297 17.0815 21.7334 17.3674 21.9699C17.6533 22.2064 17.9934 22.3683 18.3572 22.4411C18.721 22.514 19.0973 22.4954 19.4522 22.3872C19.8071 22.279 20.1296 22.0844 20.3909 21.821V21.8195Z" fill="#4B7BE5"/>
</g>
</svg>
