<svg width="21" height="22" viewBox="0 0 21 22" fill="none" xmlns="http://www.w3.org/2000/svg">
<path id="Vector" fill-rule="evenodd" clip-rule="evenodd" d="M6.59342 5.90851C6.20323 6.49655 5.64674 6.95507 4.99492 7.22559C4.7835 7.3113 4.34067 7.42272 4.34067 7.42272V14.5767C5.26251 14.7667 6.07267 15.3116 6.59627 16.0937C6.98625 16.6823 7.19482 17.3722 7.19482 18.0765C7.20624 18.5665 7.11339 19.0536 6.9234 19.505C6.65096 20.1664 6.18509 20.73 5.58683 21.122C4.98857 21.5141 4.28583 21.7162 3.5707 21.702C2.86494 21.7043 2.17456 21.4959 1.58794 21.1035C0.999446 20.7128 0.540791 20.1555 0.270566 19.5028C0.000340539 18.8502 -0.069186 18.1318 0.070868 17.4394C0.206576 16.7451 0.543703 16.108 1.04225 15.6066C1.5408 15.1166 2.17077 14.7795 2.85502 14.6352V7.36701C2.17138 7.2203 1.54303 6.8836 1.04225 6.39563C0.544469 5.89411 0.206448 5.25634 0.070868 4.56285C-0.0694742 3.87077 -0.000382175 3.15257 0.269323 2.49993C0.539028 1.8473 0.997108 1.28984 1.58508 0.898743C2.17249 0.505414 2.86377 0.296039 3.5707 0.297343C4.04872 0.289612 4.52344 0.377785 4.9668 0.556651C5.41017 0.735517 5.81317 1.00145 6.15201 1.33872C6.49054 1.67753 6.75724 2.08113 6.93618 2.5254C7.11511 2.96966 7.20259 3.44546 7.19339 3.92431C7.19624 4.62999 6.98768 5.32139 6.59342 5.90851ZM5.51347 17.138C5.33034 16.796 5.0578 16.5101 4.72493 16.3109C4.39356 16.1099 4.01248 16.006 3.62499 16.0109C3.30827 16.01 2.9953 16.0795 2.70877 16.2144C2.42224 16.3494 2.16931 16.5464 1.9683 16.7911C1.76729 17.0359 1.62325 17.3223 1.54659 17.6296C1.46993 17.9369 1.46259 18.2574 1.52508 18.5679C1.60654 18.9845 1.81047 19.3673 2.11076 19.6674C2.41105 19.9674 2.79404 20.171 3.21072 20.2521C3.62213 20.335 4.04782 20.295 4.43923 20.1378C4.8335 19.9707 5.17063 19.6921 5.41061 19.3379C5.62489 19.015 5.74631 18.6379 5.76631 18.2522C5.78372 17.8648 5.69637 17.4799 5.51347 17.138ZM2.43933 5.64138C2.79217 5.87136 3.20501 5.9985 3.62499 5.9985C4.01211 5.9985 4.39352 5.89136 4.72493 5.69709C5.05653 5.49649 5.32813 5.21047 5.51133 4.86895C5.69453 4.52743 5.78259 4.14296 5.76631 3.75575C5.74684 3.36837 5.62349 2.99338 5.40919 2.67009C5.16951 2.31515 4.83211 2.03729 4.4378 1.87013C4.04856 1.71158 3.6211 1.67181 3.20929 1.75584C2.79276 1.83748 2.41004 2.04147 2.11003 2.34173C1.81003 2.64199 1.60637 3.02488 1.52508 3.44148C1.44223 3.85289 1.48223 4.27858 1.63937 4.66999C1.8065 5.06426 2.08506 5.40139 2.43933 5.64138ZM17.1943 14.6352C17.88 14.7738 18.5114 15.1138 19.0071 15.6066C19.6728 16.278 20.0485 17.188 20.0428 18.1294C20.0456 18.8336 19.8371 19.525 19.4428 20.1121C19.0512 20.7007 18.4937 21.1597 17.8409 21.4311C17.1882 21.7024 16.4695 21.7738 15.7761 21.6363C15.0827 21.4987 14.4457 21.1584 13.946 20.6584C13.4462 20.1585 13.1061 19.5214 12.9688 18.8279C12.832 18.1349 12.9038 17.4168 13.1751 16.7646C13.4464 16.1124 13.9051 15.5553 14.493 15.1638C14.8745 14.9024 15.3087 14.7238 15.763 14.6352V6.7099C15.7626 6.14185 15.5367 5.5972 15.1349 5.19566C14.7331 4.79413 14.1883 4.56857 13.6202 4.56857H10.9804L12.7931 6.38277L11.7789 7.39558L8.7376 4.35429V3.35434L11.7803 0.311628L12.7946 1.32729L10.9818 3.14149H13.6245C14.3317 3.13752 15.024 3.34497 15.6124 3.73719C16.2009 4.12942 16.6587 4.68855 16.9272 5.34282C17.1058 5.77423 17.1972 6.23992 17.1943 6.7099V14.6352ZM17.99 19.6479C18.3418 19.2995 18.5614 18.8395 18.6112 18.3469C18.661 17.8543 18.5378 17.3597 18.2629 16.948C18.0229 16.5936 17.6856 16.3163 17.2915 16.1494C16.9022 15.9909 16.4748 15.9511 16.063 16.0352C15.6464 16.1166 15.2635 16.3206 14.9635 16.6208C14.6635 16.9211 14.4599 17.3041 14.3788 17.7208C14.2947 18.1326 14.3345 18.5601 14.493 18.9493C14.6261 19.2767 14.8383 19.5659 15.1106 19.7911C15.3829 20.0163 15.7068 20.1705 16.0533 20.2399C16.3997 20.3092 16.758 20.2916 17.096 20.1885C17.434 20.0854 17.7412 19.9002 17.99 19.6493V19.6479Z" fill="white"/>
</svg>
