<svg width="28" height="28" viewBox="0 0 28 28" fill="none" xmlns="http://www.w3.org/2000/svg">
<g id="codicon:git-pull-request">
<path id="Vector" fill-rule="evenodd" clip-rule="evenodd" d="M9.82805 8.624C9.35005 9.34439 8.66832 9.9061 7.8698 10.2375C7.6108 10.3425 7.0683 10.479 7.0683 10.479V19.243C8.19761 19.4758 9.1901 20.1433 9.83155 21.1015C10.3093 21.8225 10.5648 22.6678 10.5648 23.5305C10.5788 24.1308 10.465 24.7275 10.2323 25.2805C9.89855 26.0907 9.32782 26.7812 8.59492 27.2614C7.86202 27.7417 7.00112 27.9894 6.12505 27.972C5.26045 27.9748 4.41469 27.7195 3.69605 27.2388C2.97511 26.7601 2.41323 26.0774 2.08219 25.2778C1.75115 24.4783 1.66598 23.5982 1.83755 22.75C2.0038 21.8995 2.4168 21.119 3.02755 20.5047C3.6383 19.9045 4.41005 19.4915 5.2483 19.3148V10.4108C4.41079 10.231 3.64103 9.81855 3.02755 9.22075C2.41774 8.60636 2.00364 7.82506 1.83755 6.9755C1.66562 6.12766 1.75026 5.24782 2.08067 4.4483C2.41107 3.64879 2.97225 2.96587 3.69255 2.48675C4.41215 2.0049 5.25902 1.7484 6.12505 1.75C6.71065 1.74053 7.29221 1.84855 7.83536 2.06767C8.3785 2.28679 8.87221 2.61257 9.2873 3.02575C9.70201 3.44081 10.0287 3.93525 10.248 4.4795C10.4672 5.02375 10.5743 5.60662 10.563 6.19325C10.5665 7.05775 10.3111 7.90475 9.82805 8.624ZM8.50505 22.3807C8.28071 21.9618 7.94684 21.6116 7.53905 21.3675C7.1331 21.1214 6.66625 20.994 6.19155 21C5.80355 20.9989 5.42015 21.084 5.06913 21.2494C4.71811 21.4147 4.40826 21.656 4.16201 21.9558C3.91577 22.2557 3.7393 22.6066 3.64539 22.983C3.55148 23.3595 3.54249 23.7521 3.61905 24.1325C3.71884 24.6429 3.96866 25.1118 4.33653 25.4794C4.70441 25.847 5.1736 26.0964 5.68405 26.1957C6.18805 26.2973 6.70955 26.2483 7.18905 26.0557C7.67205 25.851 8.08505 25.5098 8.37905 25.0758C8.64155 24.6803 8.7903 24.2183 8.8148 23.7458C8.83612 23.2712 8.72912 22.7996 8.50505 22.3807ZM4.73905 8.29675C5.1713 8.5785 5.67705 8.73425 6.19155 8.73425C6.6658 8.73425 7.13305 8.603 7.53905 8.365C7.94527 8.11925 8.278 7.76886 8.50243 7.35048C8.72686 6.9321 8.83474 6.46111 8.8148 5.98675C8.79095 5.51219 8.63983 5.0528 8.3773 4.65675C8.08369 4.22194 7.67035 3.88154 7.1873 3.67675C6.71046 3.48252 6.18679 3.4338 5.6823 3.53675C5.17203 3.63676 4.70317 3.88665 4.33565 4.25449C3.96812 4.62233 3.71863 5.0914 3.61905 5.60175C3.51755 6.10575 3.56655 6.62725 3.75905 7.10675C3.9638 7.58975 4.30505 8.00275 4.73905 8.29675ZM22.8148 19.3148C23.6548 19.4845 24.4283 19.901 25.0355 20.5047C25.851 21.3272 26.3113 22.442 26.3043 23.5952C26.3078 24.458 26.0523 25.305 25.5693 26.0243C25.0896 26.7453 24.4066 27.3076 23.6069 27.64C22.8072 27.9724 21.9268 28.0599 21.0774 27.8914C20.2279 27.7229 19.4476 27.306 18.8353 26.6935C18.2231 26.081 17.8065 25.3005 17.6383 24.451C17.4707 23.602 17.5587 22.7224 17.891 21.9234C18.2234 21.1244 18.7853 20.4419 19.5056 19.9622C19.9728 19.642 20.5048 19.4233 21.0613 19.3148V9.60575C21.0608 8.90986 20.7841 8.24263 20.2918 7.75073C19.7996 7.25882 19.1322 6.9825 18.4363 6.9825H15.2023L17.423 9.205L16.1806 10.4458L12.4548 6.72V5.495L16.1823 1.7675L17.4248 3.01175L15.204 5.23425H18.4415C19.3079 5.22939 20.156 5.48352 20.8769 5.96402C21.5978 6.44452 22.1587 7.12948 22.4876 7.931C22.7063 8.4595 22.8183 9.03 22.8148 9.60575V19.3148ZM23.7895 25.4555C24.2205 25.0287 24.4896 24.4652 24.5506 23.8618C24.6115 23.2583 24.4607 22.6524 24.1238 22.148C23.8299 21.7139 23.4166 21.3741 22.9338 21.1698C22.457 20.9755 21.9333 20.9268 21.4288 21.0298C20.9184 21.1295 20.4495 21.3794 20.0819 21.7472C19.7143 22.1151 19.4649 22.5843 19.3655 23.0947C19.2626 23.5992 19.3113 24.1229 19.5056 24.5998C19.6686 25.0008 19.9285 25.3551 20.2621 25.631C20.5957 25.9069 20.9924 26.0958 21.4169 26.1808C21.8414 26.2657 22.2803 26.2441 22.6944 26.1178C23.1084 25.9916 23.4847 25.7646 23.7895 25.4573V25.4555Z" fill="#28358B"/>
</g>
</svg>
