<svg width="20" height="20" viewBox="0 0 20 20" fill="none" xmlns="http://www.w3.org/2000/svg">
<g id="fluent:key-reset-24-regular">
<path id="Vector" d="M14.1667 6.87565C14.4429 6.87565 14.7079 6.7659 14.9032 6.57055C15.0986 6.3752 15.2083 6.11025 15.2083 5.83398C15.2083 5.55772 15.0986 5.29276 14.9032 5.09741C14.7079 4.90206 14.4429 4.79232 14.1667 4.79232C13.8904 4.79232 13.6254 4.90206 13.4301 5.09741C13.2347 5.29276 13.125 5.55772 13.125 5.83398C13.125 6.11025 13.2347 6.3752 13.4301 6.57055C13.6254 6.7659 13.8904 6.87565 14.1667 6.87565ZM7.45833 7.16732C7.45922 5.71995 8.03457 4.33211 9.05802 3.30867C10.0815 2.28522 11.4693 1.70987 12.9167 1.70898C15.9133 1.70898 18.375 4.05815 18.375 7.08398C18.3767 8.23798 18.0103 9.36245 17.3292 10.294C17.004 10.0287 16.6467 9.80525 16.2658 9.62898C16.8236 8.89788 17.1252 8.00354 17.1242 7.08398C17.1242 4.77648 15.2517 2.95898 12.9158 2.95898C11.8 2.95987 10.7301 3.40353 9.94107 4.19255C9.15204 4.98158 8.70838 6.05147 8.7075 7.16732C8.7075 7.38565 8.73583 7.61648 8.78083 7.87148C8.82302 8.10528 8.80824 8.34581 8.73774 8.57268C8.66724 8.79956 8.5431 9.0061 8.37583 9.17482L3.17917 14.3707C3.08245 14.4674 3.00573 14.5823 2.9534 14.7086C2.90106 14.835 2.87414 14.9705 2.87417 15.1073V16.9173C2.87417 17.0323 2.9675 17.1257 3.0825 17.1257H5.16583C5.22109 17.1257 5.27408 17.1037 5.31315 17.0646C5.35222 17.0256 5.37417 16.9726 5.37417 16.9173V15.6673C5.37417 15.0923 5.84083 14.6257 6.41583 14.6257H7.87417V13.1673C7.87417 12.6257 8.28833 12.1798 8.8175 12.1298L9.715 13.0282C9.59202 13.1263 9.48566 13.2437 9.4 13.3757H9.125V14.834C9.125 15.409 8.65833 15.8757 8.08333 15.8757H6.625V16.9173C6.625 17.3041 6.47135 17.675 6.19786 17.9485C5.92437 18.222 5.55344 18.3757 5.16667 18.3757H3.08333C2.69656 18.3757 2.32563 18.222 2.05214 17.9485C1.77865 17.675 1.625 17.3041 1.625 16.9173V15.1073C1.625 14.499 1.86583 13.9165 2.29583 13.4873L7.49167 8.29065C7.51701 8.26394 7.53554 8.23151 7.5457 8.19612C7.55585 8.16072 7.55733 8.1234 7.55 8.08732C7.49282 7.78389 7.46215 7.47606 7.45833 7.16732ZM11.4833 9.40065C11.5447 9.34343 11.594 9.27443 11.6282 9.19777C11.6623 9.1211 11.6807 9.03834 11.6822 8.95442C11.6836 8.8705 11.6682 8.78714 11.6368 8.70932C11.6053 8.6315 11.5585 8.5608 11.4992 8.50145C11.4398 8.4421 11.3692 8.39532 11.2913 8.36388C11.2135 8.33245 11.1302 8.31701 11.0462 8.31849C10.9623 8.31997 10.8796 8.33834 10.8029 8.3725C10.7262 8.40666 10.6572 8.45591 10.6 8.51732L8.93333 10.184C8.81629 10.3012 8.75055 10.46 8.75055 10.6257C8.75055 10.7913 8.81629 10.9501 8.93333 11.0673L10.6 12.734C10.6572 12.7954 10.7262 12.8446 10.8029 12.8788C10.8796 12.913 10.9623 12.9313 11.0462 12.9328C11.1302 12.9343 11.2135 12.9189 11.2913 12.8874C11.3692 12.856 11.4398 12.8092 11.4992 12.7498C11.5585 12.6905 11.6053 12.6198 11.6368 12.542C11.6682 12.4642 11.6836 12.3808 11.6822 12.2969C11.6807 12.213 11.6623 12.1302 11.6282 12.0535C11.594 11.9769 11.5447 11.9079 11.4833 11.8507L10.8833 11.2507H14.1667C14.7435 11.2507 15.3074 11.4217 15.7871 11.7422C16.2667 12.0627 16.6406 12.5182 16.8613 13.0512C17.0821 13.5841 17.1398 14.1706 17.0273 14.7363C16.9148 15.3021 16.637 15.8218 16.2291 16.2297C15.8212 16.6376 15.3015 16.9154 14.7357 17.0279C14.1699 17.1405 13.5835 17.0827 13.0505 16.862C12.5176 16.6412 12.062 16.2674 11.7415 15.7877C11.4211 15.3081 11.25 14.7442 11.25 14.1673C11.25 14.0016 11.1842 13.8426 11.0669 13.7254C10.9497 13.6082 10.7908 13.5423 10.625 13.5423C10.4592 13.5423 10.3003 13.6082 10.1831 13.7254C10.0658 13.8426 10 14.0016 10 14.1673C10 14.9914 10.2444 15.797 10.7022 16.4822C11.1601 17.1674 11.8108 17.7015 12.5722 18.0168C13.3335 18.3322 14.1713 18.4147 14.9795 18.2539C15.7878 18.0932 16.5302 17.6963 17.1129 17.1136C17.6957 16.5309 18.0925 15.7884 18.2533 14.9802C18.414 14.1719 18.3315 13.3342 18.0162 12.5728C17.7008 11.8114 17.1667 11.1607 16.4815 10.7029C15.7963 10.245 14.9908 10.0007 14.1667 10.0007H10.8833L11.4833 9.40065Z" fill="white"/>
</g>
</svg>
