<svg width="20" height="20" viewBox="0 0 20 20" fill="none" xmlns="http://www.w3.org/2000/svg">
<g id="mdi:person-block-outline">
<path id="Vector" d="M8.33317 3.33398C7.44912 3.33398 6.60127 3.68517 5.97615 4.31029C5.35103 4.93542 4.99984 5.78326 4.99984 6.66732C4.99984 7.55137 5.35103 8.39922 5.97615 9.02434C6.60127 9.64946 7.44912 10.0007 8.33317 10.0007C9.21723 10.0007 10.0651 9.64946 10.6902 9.02434C11.3153 8.39922 11.6665 7.55137 11.6665 6.66732C11.6665 5.78326 11.3153 4.93542 10.6902 4.31029C10.0651 3.68517 9.21723 3.33398 8.33317 3.33398ZM8.33317 5.00065C8.7752 5.00065 9.19912 5.17625 9.51168 5.48881C9.82424 5.80137 9.99984 6.22529 9.99984 6.66732C9.99984 7.10935 9.82424 7.53327 9.51168 7.84583C9.19912 8.15839 8.7752 8.33398 8.33317 8.33398C7.89114 8.33398 7.46722 8.15839 7.15466 7.84583C6.8421 7.53327 6.6665 7.10935 6.6665 6.66732C6.6665 6.22529 6.8421 5.80137 7.15466 5.48881C7.46722 5.17625 7.89114 5.00065 8.33317 5.00065ZM8.33317 10.834C6.10817 10.834 1.6665 11.9423 1.6665 14.1673V16.6673H9.58317C9.37345 16.1623 9.24139 15.6285 9.1915 15.084H3.24984V14.1673C3.24984 13.634 5.85817 12.4173 8.33317 12.4173C8.74984 12.4173 9.1665 12.459 9.58317 12.5257C9.79701 11.9994 10.0923 11.5101 10.4582 11.0757C9.67484 10.9173 8.92484 10.834 8.33317 10.834ZM14.5832 10.834C12.4998 10.834 10.8332 12.5007 10.8332 14.584C10.8332 16.6673 12.4998 18.334 14.5832 18.334C16.6665 18.334 18.3332 16.6673 18.3332 14.584C18.3332 12.5007 16.6665 10.834 14.5832 10.834ZM14.5832 12.084C15.9665 12.084 17.0832 13.2007 17.0832 14.584C17.0832 15.0507 16.9582 15.484 16.7332 15.834L13.3332 12.434C13.6832 12.209 14.1165 12.084 14.5832 12.084ZM12.4332 13.334L15.8332 16.734C15.4832 16.959 15.0498 17.084 14.5832 17.084C13.1998 17.084 12.0832 15.9673 12.0832 14.584C12.0832 14.1173 12.2082 13.684 12.4332 13.334Z" fill="white"/>
</g>
</svg>
