<svg width="19" height="23" viewBox="0 0 19 23" fill="none" xmlns="http://www.w3.org/2000/svg">
<path id="Vector" d="M14.25 12.8569C14.9074 12.8569 15.5223 12.9806 16.0949 13.228C16.6674 13.4754 17.1728 13.8146 17.611 14.2458C18.0493 14.677 18.3886 15.1789 18.6289 15.7514C18.8692 16.3239 18.9929 16.9424 19 17.6069C19 18.2642 18.8763 18.8792 18.6289 19.4517C18.3815 20.0243 18.0422 20.5297 17.611 20.9679C17.1799 21.4062 16.678 21.7454 16.1055 21.9858C15.5329 22.2261 14.9144 22.3498 14.25 22.3569C13.5926 22.3569 12.9777 22.2332 12.4051 21.9858C11.8326 21.7384 11.3272 21.3991 10.889 20.9679C10.4507 20.5367 10.1114 20.0349 9.87109 19.4623C9.63077 18.8898 9.50707 18.2713 9.5 17.6069C9.5 16.9495 9.6237 16.3345 9.87109 15.762C10.1185 15.1895 10.4578 14.6841 10.889 14.2458C11.3201 13.8076 11.822 13.4683 12.3945 13.228C12.9671 12.9876 13.5856 12.8639 14.25 12.8569ZM14.25 20.9997C14.7165 20.9997 15.1548 20.9114 15.5647 20.7347C15.9747 20.5579 16.3317 20.3176 16.6356 20.0137C16.9395 19.7097 17.1834 19.3492 17.3672 18.9322C17.551 18.5152 17.6429 18.0734 17.6429 17.6069C17.6429 17.1403 17.5545 16.7021 17.3778 16.2921C17.2011 15.8822 16.9572 15.5252 16.6462 15.2213C16.3352 14.9173 15.9747 14.6735 15.5647 14.4897C15.1548 14.3059 14.7165 14.214 14.25 14.214C13.7835 14.214 13.3452 14.3024 12.9353 14.4791C12.5253 14.6558 12.1648 14.8996 11.8538 15.2107C11.5428 15.5217 11.2989 15.8822 11.1222 16.2921C10.9455 16.7021 10.8571 17.1403 10.8571 17.6069C10.8571 18.0734 10.9455 18.5116 11.1222 18.9216C11.2989 19.3316 11.5392 19.6921 11.8432 20.0031C12.1471 20.3141 12.5076 20.5579 12.9247 20.7347C13.3417 20.9114 13.7835 20.9997 14.25 20.9997ZM12.2143 16.9283H16.2857V18.2854H12.2143V16.9283ZM8.48214 20.9997C8.65885 21.2542 8.8497 21.4945 9.05469 21.7207C9.25967 21.9469 9.48233 22.1589 9.72266 22.3569H0V10.1426H2.71429V6.17718C2.71429 5.41378 2.85212 4.69634 3.12779 4.02483C3.40346 3.35333 3.78516 2.76665 4.27288 2.26479C4.7606 1.76293 5.33315 1.36709 5.99051 1.07729C6.64788 0.787481 7.36533 0.642578 8.14286 0.642578C8.91332 0.642578 9.62723 0.787481 10.2846 1.07729C10.942 1.36709 11.518 1.76293 12.0128 2.26479C12.5076 2.76665 12.8893 3.35333 13.1579 4.02483C13.4265 4.69634 13.5644 5.41378 13.5714 6.17718V10.1426H16.2857V11.4997H1.35714V20.9997H8.48214ZM4.07143 10.1426H12.2143V6.17718C12.2143 5.60463 12.1118 5.06743 11.9068 4.56557C11.7018 4.06371 11.4191 3.6184 11.0586 3.22963C10.6981 2.84087 10.2669 2.54046 9.76507 2.3284C9.26321 2.11635 8.72247 2.00679 8.14286 1.99972C7.56324 1.99972 7.02604 2.10928 6.53125 2.3284C6.03646 2.54753 5.60528 2.84794 5.23772 3.22963C4.87016 3.61133 4.58389 4.05311 4.37891 4.55497C4.17392 5.05683 4.07143 5.59756 4.07143 6.17718V10.1426Z" fill="#FF6161"/>
</svg>
