<svg width="22" height="22" viewBox="0 0 22 22" fill="none" xmlns="http://www.w3.org/2000/svg">
<path id="Vector" d="M12 20.5H5C3.114 20.5 2.172 20.5 1.586 19.914C1 19.328 1 18.386 1 16.5C1 14.614 1 13.672 1.586 13.086C2.172 12.5 3.114 12.5 5 12.5H17C18.886 12.5 19.828 12.5 20.414 13.086C21 13.672 21 14.614 21 16.5C21 18.386 21 19.328 20.414 19.914C19.828 20.5 18.886 20.5 17 20.5H16M10 1.5H17C18.886 1.5 19.828 1.5 20.414 2.086C21 2.672 21 3.614 21 5.5C21 7.386 21 8.328 20.414 8.914C19.828 9.5 18.886 9.5 17 9.5H5C3.114 9.5 2.172 9.5 1.586 8.914C1 8.328 1 7.386 1 5.5C1 3.614 1 2.672 1.586 2.086C2.172 1.5 3.114 1.5 5 1.5H6M10 5.5H17M5 5.5H7M10 16.5H17M5 16.5H7" stroke="#333333" stroke-width="1.5" stroke-linecap="round"/>
</svg>
