<svg width="38" height="37" viewBox="0 0 38 37" fill="none" xmlns="http://www.w3.org/2000/svg">
<g id="heroicons:server-stack">
<path id="Vector" d="M8.50781 21.9687H29.3203M8.50781 21.9687C7.28119 21.9687 6.1048 21.4815 5.23744 20.6141C4.37009 19.7468 3.88281 18.5704 3.88281 17.3437M8.50781 21.9687C7.28119 21.9687 6.1048 22.456 5.23744 23.3234C4.37009 24.1907 3.88281 25.3671 3.88281 26.5937C3.88281 27.8204 4.37009 28.9968 5.23744 29.8641C6.1048 30.7315 7.28119 31.2187 8.50781 31.2187H29.3203C30.5469 31.2187 31.7233 30.7315 32.5907 29.8641C33.458 28.9968 33.9453 27.8204 33.9453 26.5937C33.9453 25.3671 33.458 24.1907 32.5907 23.3234C31.7233 22.456 30.5469 21.9687 29.3203 21.9687M29.3203 21.9687C30.5469 21.9687 31.7233 21.4815 32.5907 20.6141C33.458 19.7468 33.9453 18.5704 33.9453 17.3437M3.88281 17.3437C3.88281 16.1171 4.37009 14.9407 5.23744 14.0734C6.1048 13.206 7.28119 12.7187 8.50781 12.7187H29.3203C30.5469 12.7187 31.7233 13.206 32.5907 14.0734C33.458 14.9407 33.9453 16.1171 33.9453 17.3437M3.88281 17.3437C3.88281 15.8427 4.36967 14.3821 5.27031 13.1813L9.2586 7.8625C9.74326 7.21629 10.3717 6.6918 11.0942 6.33056C11.8167 5.96932 12.6133 5.78125 13.4211 5.78125H24.407C26.0443 5.78125 27.5859 6.55208 28.5695 7.8625L32.5578 13.1813C33.4585 14.3821 33.9453 15.8427 33.9453 17.3437M29.3203 26.5937H29.3326V26.6061H29.3203V26.5937ZM29.3203 17.3437H29.3326V17.3561H29.3203V17.3437ZM24.6953 26.5937H24.7076V26.6061H24.6953V26.5937ZM24.6953 17.3437H24.7076V17.3561H24.6953V17.3437Z" stroke="#4B7BE5" stroke-width="2.3125" stroke-linecap="round" stroke-linejoin="round"/>
</g>
</svg>
