<svg width="24" height="24" viewBox="0 0 24 24" fill="none" xmlns="http://www.w3.org/2000/svg">
<g id="fluent:share-20-regular">
<path id="Vector" d="M15.996 15.4071L21.3924 10.0995L21.4608 10.0215C21.562 9.88557 21.6109 9.71765 21.5983 9.54858C21.5857 9.37951 21.5126 9.22064 21.3924 9.10114L15.996 3.79594L15.9216 3.73234C15.4896 3.40834 14.8536 3.72034 14.8536 4.29514V6.85114L14.5836 6.86914C10.308 7.20754 7.80358 9.91354 7.20598 14.8215C7.12918 15.4515 7.85158 15.8463 8.31958 15.4287C10.0368 13.8951 11.8116 12.9423 13.6536 12.5607C13.9488 12.4995 14.2452 12.4527 14.544 12.4203L14.8536 12.3927V14.9079L14.8596 15.0063C14.9316 15.5499 15.5904 15.8055 15.996 15.4071ZM14.6712 8.06554L16.0536 7.97314V5.53354L20.1888 9.59914L16.0536 13.6671V11.0787L14.4264 11.2251H14.4168C12.3732 11.4447 10.4448 12.2631 8.62438 13.6275C8.98198 12.0207 9.59278 10.8123 10.3956 9.94714C11.3916 8.87314 12.7836 8.21674 14.6712 8.06554ZM6.59998 4.80154C5.80433 4.80154 5.04126 5.11761 4.47866 5.68022C3.91605 6.24283 3.59998 7.00589 3.59998 7.80154V17.4015C3.59998 18.1972 3.91605 18.9602 4.47866 19.5229C5.04126 20.0855 5.80433 20.4015 6.59998 20.4015H16.2C16.9956 20.4015 17.7587 20.0855 18.3213 19.5229C18.8839 18.9602 19.2 18.1972 19.2 17.4015V16.2015C19.2 16.0424 19.1368 15.8898 19.0242 15.7773C18.9117 15.6648 18.7591 15.6015 18.6 15.6015C18.4408 15.6015 18.2882 15.6648 18.1757 15.7773C18.0632 15.8898 18 16.0424 18 16.2015V17.4015C18 17.8789 17.8103 18.3368 17.4728 18.6743C17.1352 19.0119 16.6774 19.2015 16.2 19.2015H6.59998C6.12259 19.2015 5.66475 19.0119 5.32718 18.6743C4.98962 18.3368 4.79998 17.8789 4.79998 17.4015V7.80154C4.79998 7.32415 4.98962 6.86631 5.32718 6.52875C5.66475 6.19118 6.12259 6.00154 6.59998 6.00154H10.2C10.3591 6.00154 10.5117 5.93833 10.6242 5.8258C10.7368 5.71328 10.8 5.56067 10.8 5.40154C10.8 5.24241 10.7368 5.0898 10.6242 4.97728C10.5117 4.86475 10.3591 4.80154 10.2 4.80154H6.59998Z" fill="#333333"/>
</g>
</svg>
