<svg width="30" height="31" viewBox="0 0 30 31" fill="none" xmlns="http://www.w3.org/2000/svg">
<path id="Vector" d="M5.11364 0.5C3.75742 0.5 2.45674 1.03876 1.49775 1.99775C0.538757 2.95674 0 4.25742 0 5.61364V15.8409C0 17.1971 0.538757 18.4978 1.49775 19.4568C2.45674 20.4158 3.75742 20.9545 5.11364 20.9545H15.2318C15.5633 21.8935 16.2257 22.6794 17.0949 23.165C17.9642 23.6506 18.9807 23.8026 19.9541 23.5926C20.9274 23.3825 21.7907 22.8248 22.3823 22.0239C22.974 21.2229 23.2533 20.2338 23.168 19.2417C23.0826 18.2497 22.6385 17.3228 21.9189 16.6346C21.1992 15.9465 20.2533 15.5443 19.2584 15.5036C18.2635 15.4628 17.2879 15.7861 16.5143 16.413C15.7407 17.0399 15.2222 17.9273 15.0559 18.9091H5.11364C4.2999 18.9091 3.5195 18.5858 2.9441 18.0104C2.36871 17.435 2.04545 16.6546 2.04545 15.8409V5.61364C2.04545 4.7999 2.36871 4.0195 2.9441 3.4441C3.5195 2.86871 4.2999 2.54545 5.11364 2.54545H15.3409C16.1546 2.54545 16.935 2.86871 17.5104 3.4441C18.0858 4.0195 18.4091 4.7999 18.4091 5.61364V6.29545C18.4091 6.5667 18.5168 6.82683 18.7086 7.01863C18.9004 7.21043 19.1606 7.31818 19.4318 7.31818C19.7031 7.31818 19.9632 7.21043 20.155 7.01863C20.3468 6.82683 20.4545 6.5667 20.4545 6.29545V5.61364C20.4545 4.25742 19.9158 2.95674 18.9568 1.99775C17.9978 1.03876 16.6971 0.5 15.3409 0.5H5.11364ZM19.0909 17.5455C19.6334 17.5455 20.1537 17.761 20.5373 18.1446C20.9209 18.5282 21.1364 19.0484 21.1364 19.5909C21.1364 20.1334 20.9209 20.6537 20.5373 21.0373C20.1537 21.4209 19.6334 21.6364 19.0909 21.6364C18.5484 21.6364 18.0282 21.4209 17.6446 21.0373C17.261 20.6537 17.0455 20.1334 17.0455 19.5909C17.0455 19.0484 17.261 18.5282 17.6446 18.1446C18.0282 17.761 18.5484 17.5455 19.0909 17.5455ZM14.9441 12.0909H24.8864C25.7001 12.0909 26.4805 12.4142 27.0559 12.9896C27.6313 13.565 27.9545 14.3454 27.9545 15.1591V25.3864C27.9545 26.2001 27.6313 26.9805 27.0559 27.5559C26.4805 28.1313 25.7001 28.4545 24.8864 28.4545H14.6591C13.8454 28.4545 13.065 28.1313 12.4896 27.5559C11.9142 26.9805 11.5909 26.2001 11.5909 25.3864V24.7045C11.5909 24.4333 11.4832 24.1732 11.2914 23.9814C11.0996 23.7896 10.8394 23.6818 10.5682 23.6818C10.2969 23.6818 10.0368 23.7896 9.84501 23.9814C9.65321 24.1732 9.54545 24.4333 9.54545 24.7045V25.3864C9.54545 26.7426 10.0842 28.0433 11.0432 29.0023C12.0022 29.9612 13.3029 30.5 14.6591 30.5H24.8864C26.2426 30.5 27.5433 29.9612 28.5023 29.0023C29.4612 28.0433 30 26.7426 30 25.3864V15.1591C30 13.8029 29.4612 12.5022 28.5023 11.5432C27.5433 10.5842 26.2426 10.0455 24.8864 10.0455H14.7682C14.4367 9.10651 13.7743 8.32062 12.9051 7.835C12.0358 7.34939 11.0193 7.19738 10.0459 7.40744C9.07262 7.61751 8.20929 8.17523 7.61766 8.97614C7.02604 9.77705 6.74673 10.7662 6.83204 11.7583C6.91736 12.7503 7.36146 13.6772 8.08114 14.3654C8.80082 15.0535 9.7467 15.4557 10.7416 15.4964C11.7365 15.5372 12.7121 15.2139 13.4857 14.587C14.2593 13.9601 14.7778 13.0727 14.9441 12.0909ZM8.86364 11.4091C8.86364 11.1405 8.91654 10.8745 9.01934 10.6263C9.12213 10.3782 9.2728 10.1527 9.46274 9.96274C9.65267 9.7728 9.87816 9.62213 10.1263 9.51934C10.3745 9.41654 10.6405 9.36364 10.9091 9.36364C11.1777 9.36364 11.4437 9.41654 11.6919 9.51934C11.94 9.62213 12.1655 9.7728 12.3554 9.96274C12.5454 10.1527 12.6961 10.3782 12.7988 10.6263C12.9016 10.8745 12.9545 11.1405 12.9545 11.4091C12.9545 11.9516 12.739 12.4718 12.3554 12.8554C11.9718 13.239 11.4516 13.4545 10.9091 13.4545C10.3666 13.4545 9.84633 13.239 9.46274 12.8554C9.07914 12.4718 8.86364 11.9516 8.86364 11.4091Z" fill="#28358B"/>
</svg>
