<svg width="25" height="24" viewBox="0 0 25 24" fill="none" xmlns="http://www.w3.org/2000/svg">
<path d="M12.5 0.5C10.356 0.5 8.616 2.22 8.53 4.344C6.73731 5.11001 5.20966 6.38662 4.13741 8.01474C3.06515 9.64286 2.4957 11.5505 2.5 13.5C2.5 13.67 2.492 13.86 2.5 14.063C1.315 14.759 0.5 16.035 0.5 17.5C0.5 19.697 2.303 21.5 4.5 21.5C5.075 21.5 5.63 21.378 6.125 21.156C7.858 22.612 10.118 23.5 12.5 23.5C14.882 23.5 17.142 22.612 18.875 21.156C19.3864 21.3837 19.9402 21.5009 20.5 21.5C22.697 21.5 24.5 19.697 24.5 17.5C24.5 16.02 23.675 14.723 22.47 14.03C22.485 13.87 22.5 13.71 22.5 13.5C22.5046 11.5505 21.9352 9.64269 20.8629 8.01452C19.7906 6.38635 18.2628 5.1098 16.47 4.344C16.383 2.22 14.643 0.5 12.5 0.5ZM12.5 2.5C13.616 2.5 14.5 3.384 14.5 4.5C14.5 5.616 13.616 6.5 12.5 6.5C11.384 6.5 10.5 5.616 10.5 4.5C10.5 3.384 11.384 2.5 12.5 2.5ZM8.97 6.344C9.64 7.618 10.97 8.5 12.5 8.5C14.03 8.5 15.36 7.618 16.03 6.344C17.3725 6.9959 18.504 8.01309 19.2946 9.27884C20.0853 10.5446 20.5031 12.0076 20.5 13.5C18.303 13.5 16.5 15.303 16.5 17.5C16.5 18.395 16.81 19.206 17.313 19.875C15.9251 20.92 14.2373 21.4899 12.5 21.5C10.7627 21.4901 9.07481 20.9202 7.687 19.875C8.21035 19.1935 8.49593 18.3593 8.5 17.5C8.5 15.303 6.697 13.5 4.5 13.5C4.5 10.38 6.29 7.644 8.97 6.344ZM4.5 15.5C5.616 15.5 6.5 16.384 6.5 17.5C6.5 18.616 5.616 19.5 4.5 19.5C3.384 19.5 2.5 18.616 2.5 17.5C2.5 16.384 3.384 15.5 4.5 15.5ZM20.5 15.5C21.616 15.5 22.5 16.384 22.5 17.5C22.5 18.616 21.616 19.5 20.5 19.5C19.384 19.5 18.5 18.616 18.5 17.5C18.5 16.384 19.384 15.5 20.5 15.5Z" fill="#7A7AFF"/>
</svg>
