<svg width="26" height="26" viewBox="0 0 26 26" fill="none" xmlns="http://www.w3.org/2000/svg">
<g id="fluent:share-20-regular">
<path id="Vector" d="M8.67098 16.6878L2.82488 10.9379L2.75077 10.8534C2.64107 10.7061 2.58817 10.5242 2.60178 10.341C2.61539 10.1579 2.6946 9.98577 2.82488 9.85631L8.67098 4.10901L8.75158 4.04011C9.21958 3.68911 9.90858 4.02711 9.90858 4.64981V7.41881L10.2011 7.43831C14.833 7.80491 17.5461 10.7364 18.1935 16.0534C18.2767 16.7359 17.4941 17.1636 16.9871 16.7112C15.1268 15.0498 13.2041 14.0176 11.2086 13.6042C10.8888 13.5379 10.5677 13.4872 10.244 13.4521L9.90858 13.4222V16.147L9.90208 16.2536C9.82408 16.8425 9.11038 17.1194 8.67098 16.6878ZM10.1062 8.73441L8.60858 8.63431V5.99141L4.12878 10.3958L8.60858 14.8028V11.9987L10.3714 12.1573H10.3818C12.5957 12.3952 14.6848 13.2818 16.6569 14.7599C16.2695 13.0192 15.6078 11.7101 14.7381 10.7728C13.6591 9.60931 12.1511 8.89821 10.1062 8.73441ZM18.85 5.19841C19.7119 5.19841 20.5386 5.54082 21.1481 6.15032C21.7576 6.75981 22.1 7.58646 22.1 8.44841V18.8484C22.1 19.7104 21.7576 20.537 21.1481 21.1465C20.5386 21.756 19.7119 22.0984 18.85 22.0984H8.44998C7.58802 22.0984 6.76137 21.756 6.15188 21.1465C5.54239 20.537 5.19998 19.7104 5.19998 18.8484V17.5484C5.19998 17.376 5.26846 17.2107 5.39036 17.0888C5.51225 16.9669 5.67759 16.8984 5.84998 16.8984C6.02237 16.8984 6.1877 16.9669 6.3096 17.0888C6.43149 17.2107 6.49998 17.376 6.49998 17.5484V18.8484C6.49998 19.3656 6.70542 19.8616 7.07112 20.2273C7.43681 20.593 7.9328 20.7984 8.44998 20.7984H18.85C19.3671 20.7984 19.8631 20.593 20.2288 20.2273C20.5945 19.8616 20.8 19.3656 20.8 18.8484V8.44841C20.8 7.93124 20.5945 7.43525 20.2288 7.06955C19.8631 6.70386 19.3671 6.49841 18.85 6.49841H14.95C14.7776 6.49841 14.6123 6.42993 14.4904 6.30803C14.3685 6.18613 14.3 6.0208 14.3 5.84841C14.3 5.67602 14.3685 5.51069 14.4904 5.38879C14.6123 5.26689 14.7776 5.19841 14.95 5.19841H18.85Z" fill="#333333"/>
</g>
</svg>
