<svg width="40" height="39" viewBox="0 0 40 39" fill="none" xmlns="http://www.w3.org/2000/svg">
<g id="Property 1=Variant2" clip-path="url(#clip0_1530_60831)">
<path id="Vector" d="M7.72959 13.8353L15.5601 13.1968C15.8548 13.1728 16.1376 13.0702 16.3791 12.8996C16.6206 12.7291 16.8119 12.4968 16.9329 12.2271L20.0881 5.18567C20.491 4.40481 21.6123 4.42427 21.9874 5.22039L24.6994 12.278C24.919 12.8495 25.4345 13.2527 26.0415 13.3255L34.0374 14.3008C34.9031 14.4429 35.2325 15.5158 34.5912 16.1179L28.6921 21.18C28.4693 21.3708 28.3015 21.6177 28.2059 21.895C28.1103 22.1723 28.0905 22.4702 28.1485 22.7577L29.6748 30.3786C29.8077 31.2449 28.8887 31.8901 28.1192 31.4687L21.2198 27.3114C20.696 26.9971 20.0423 26.9949 19.5173 27.3098L13.037 31.2024C12.2541 31.597 11.3566 30.9209 11.5195 30.0598L13.3717 22.5694C13.4424 22.2823 13.4348 21.9815 13.3497 21.6984C13.2645 21.4153 13.105 21.1602 12.8876 20.9598L7.11257 15.6331C6.49555 15.0065 6.86052 13.9473 7.72959 13.8353Z" fill="#FDD835"/>
<path id="Vector_2" d="M14.8655 16.5397L9.67906 15.3177C9.39299 15.2415 8.8945 15.1342 9.04874 14.6865C9.17091 14.332 9.97523 14.3935 9.97523 14.3935L14.5215 14.2644C16.2497 14.2203 16.694 14.6362 16.8141 15.2948C16.9502 16.0508 16.351 16.8904 14.8655 16.5397Z" fill="#FFFF8D"/>
<path id="Vector_3" d="M24.0525 12.7107L22.1581 7.19413C22.0527 6.91734 21.9005 6.43106 21.4678 6.62904C21.126 6.78644 21.267 7.57871 21.267 7.57871L21.4429 11.8957C21.4441 13.1654 21.7651 14.1189 22.4734 14.4373C23.4186 14.8597 24.4714 14.2433 24.0525 12.7107Z" fill="#F4B400"/>
</g>
<defs>
<clipPath id="clip0_1530_60831">
<rect width="30" height="30" fill="white" transform="translate(0.931641 28.3633) rotate(-70.9871)"/>
</clipPath>
</defs>
</svg>
