<svg width="30" height="31" viewBox="0 0 30 31" fill="none" xmlns="http://www.w3.org/2000/svg">
<g id="Property 1=Variant3" clip-path="url(#clip0_1530_60827)">
<path id="Vector" d="M27.6458 12.2616L21.5122 17.171C21.2813 17.3557 21.1043 17.599 20.9995 17.8755C20.8948 18.152 20.8661 18.4515 20.9166 18.7428L22.2401 26.3444C22.3429 27.2171 21.4026 27.8281 20.6463 27.3781L14.4504 23.045C13.9488 22.6941 13.2959 22.6482 12.752 22.9274L5.57858 26.5917C4.78143 26.9582 3.90825 26.2531 4.10304 25.3954L6.16121 17.8994C6.23916 17.6166 6.24023 17.3182 6.1643 17.0348C6.08838 16.7514 5.93821 16.4935 5.7293 16.2875L0.20118 10.8244C-0.393523 10.1806 0.00726614 9.13172 0.880857 9.05051L8.92533 8.63717C9.53538 8.60474 10.0785 8.24085 10.3375 7.68616L13.5316 0.834592C13.9599 0.0695453 15.082 0.127988 15.4287 0.93287L18.0833 8.17782C18.1853 8.45534 18.3598 8.70042 18.5888 8.88748C18.8177 9.07453 19.0927 9.1967 19.385 9.24123L27.1516 10.4261C28.0136 10.6004 28.3035 11.6825 27.6458 12.2616Z" fill="#7FA7FF"/>
<path id="Vector_2" d="M15.7198 9.45859L15.1854 4.15703C15.1643 3.86172 15.1034 3.35547 15.5768 3.35547C15.9518 3.35547 16.1557 4.13594 16.1557 4.13594L17.7588 8.39219C18.3635 10.0117 18.1151 10.5672 17.5315 10.8953C16.8612 11.2703 15.8721 10.9773 15.7198 9.45859Z" fill="#E9E9E9"/>
<path id="Vector_3" d="M22.3313 16.8961L26.9298 13.3078C27.1571 13.118 27.5673 12.8156 27.2391 12.4711C26.979 12.1992 26.2758 12.5906 26.2758 12.5906L22.2516 14.1633C21.0516 14.5781 20.2548 15.1922 20.1844 15.9656C20.093 16.9969 21.0188 17.7914 22.3313 16.8961Z" fill="#4B7BE5"/>
</g>
<defs>
<clipPath id="clip0_1530_60827">
<rect width="30" height="30" fill="white" transform="translate(0 0.136719)"/>
</clipPath>
</defs>
</svg>
