<svg width="30" height="30" viewBox="0 0 30 30" fill="none" xmlns="http://www.w3.org/2000/svg">
<g id="Property 1=Default">
<path id="Vector" d="M15.9493 1.69404L19.104 8.88936C19.2227 9.16015 19.4118 9.39412 19.6518 9.56686C19.8917 9.7396 20.1736 9.84477 20.4681 9.87139L28.1532 10.5604C29.0228 10.687 29.3696 11.7534 28.7392 12.3675L22.9501 17.2308C22.4814 17.6245 22.2681 18.2433 22.397 18.8409L24.0798 26.7183C24.2275 27.5831 23.3204 28.244 22.5423 27.8339L15.8345 23.9058C15.5815 23.7573 15.2935 23.679 15.0001 23.679C14.7068 23.679 14.4187 23.7573 14.1657 23.9058L7.45792 27.8315C6.68214 28.2394 5.77277 27.5808 5.92042 26.7159L7.60323 18.8386C7.7298 18.2409 7.51886 17.6222 7.05011 17.2284L1.2587 12.3698C0.630578 11.7581 0.977453 10.6894 1.84464 10.5628L9.5298 9.87373C9.82425 9.84711 10.1062 9.74194 10.3461 9.56921C10.586 9.39647 10.7752 9.16249 10.8939 8.8917L14.0485 1.69639C14.44 0.908887 15.5603 0.908887 15.9493 1.69404Z" fill="#C5C5C5"/>
<path id="Vector_2" d="M15.7198 9.32188L15.1854 4.02031C15.1643 3.725 15.1034 3.21875 15.5768 3.21875C15.9518 3.21875 16.1557 3.99922 16.1557 3.99922L17.7588 8.25547C18.3635 9.875 18.1151 10.4305 17.5315 10.7586C16.8612 11.1336 15.8721 10.8406 15.7198 9.32188Z" fill="#B7B7B7"/>
<path id="Vector_3" d="M22.3313 16.7594L26.9298 13.1711C27.1571 12.9812 27.5673 12.6789 27.2391 12.3344C26.979 12.0625 26.2758 12.4539 26.2758 12.4539L22.2516 14.0266C21.0516 14.4414 20.2548 15.0555 20.1844 15.8289C20.093 16.8602 21.0188 17.6547 22.3313 16.7594Z" fill="#B0B0B0"/>
</g>
</svg>
