<svg width="22" height="22" viewBox="0 0 22 22" fill="none" xmlns="http://www.w3.org/2000/svg">
<g id="Group 47211">
<path id="Vector" d="M20 14H18.5V15.5H20V20H2V15.5H9.5V14H2C1.6023 14.0004 1.221 14.1586 0.939778 14.4398C0.65856 14.721 0.500397 15.1023 0.5 15.5V20C0.500397 20.3977 0.65856 20.779 0.939778 21.0602C1.221 21.3414 1.6023 21.4996 2 21.5H20C20.3977 21.4996 20.779 21.3414 21.0602 21.0602C21.3414 20.779 21.4996 20.3977 21.5 20V15.5C21.4996 15.1023 21.3414 14.721 21.0602 14.4398C20.779 14.1586 20.3977 14.0004 20 14Z" fill="white"/>
<path id="Vector_2" d="M4.25 18.5C4.66421 18.5 5 18.1642 5 17.75C5 17.3358 4.66421 17 4.25 17C3.83579 17 3.5 17.3358 3.5 17.75C3.5 18.1642 3.83579 18.5 4.25 18.5Z" fill="white"/>
<path id="Vector_3" d="M21.5 5H15.5V9.5H11V15.5H17V11H21.5V5ZM15.5 14H12.5V11H15.5V14ZM20 9.5H17V6.5H20V9.5ZM12.5 6.5H6.5V0.5H12.5V6.5ZM8 5H11V2H8V5Z" fill="white"/>
</g>
</svg>
