<svg width="24" height="24" viewBox="0 0 24 24" fill="none" xmlns="http://www.w3.org/2000/svg">
<g id="solar:cloud-storage-broken">
<g id="Group">
<path id="Vector" d="M22 12.353C22 15.06 20.073 17.323 17.5 17.873M6.286 18C3.919 18 2 16.104 2 13.765C2 11.425 3.919 9.529 6.286 9.529C6.57 9.529 6.848 9.557 7.116 9.609M14.381 7.027C14.9934 6.81361 15.6375 6.70509 16.286 6.706C16.94 6.706 17.569 6.815 18.156 7.015M18.156 7.015C17.837 4.194 15.416 2 12.476 2C9.32 2 6.762 4.528 6.761 7.647C6.76017 8.31696 6.88009 8.98158 7.115 9.609C7.6683 9.71646 8.195 9.9319 8.665 10.243M18.156 7.015C18.8308 7.24569 19.4555 7.60045 20 8.061" stroke="#4B7BE5" stroke-width="1.5" stroke-linecap="round"/>
<path id="Vector_2" d="M8.5 17C8.5 15.586 8.5 14.879 8.94 14.44C9.379 14 10.086 14 11.5 14H12.5C13.914 14 14.621 14 15.06 14.44C15.5 14.879 15.5 15.586 15.5 17V19C15.5 20.414 15.5 21.121 15.06 21.56C14.621 22 13.914 22 12.5 22H11.5C10.086 22 9.379 22 8.94 21.56C8.5 21.121 8.5 20.414 8.5 19V17Z" stroke="#4B7BE5" stroke-width="1.5"/>
<path id="Vector_3" d="M11 18H13" stroke="#4B7BE5" stroke-width="1.5" stroke-linecap="round" stroke-linejoin="round"/>
</g>
</g>
</svg>
