<svg width="28" height="28" viewBox="0 0 28 28" fill="none" xmlns="http://www.w3.org/2000/svg">
<g id="ant-design:cloud-sync-outlined">
<path id="Vector" d="M22.1867 10.0871C20.9343 6.78125 17.7433 4.42969 14.0054 4.42969C10.2675 4.42969 7.07652 6.77852 5.82418 10.0844C3.46988 10.7051 1.73629 12.857 1.74996 15.4109C1.76636 18.2656 3.98121 20.5871 6.77027 20.8359C6.89879 20.8469 7.00816 20.7457 7.00816 20.6172V18.9656C7.00816 18.8562 6.92613 18.7633 6.81676 18.7496C6.07847 18.6566 5.38121 18.334 4.84527 17.8063C4.18902 17.1637 3.82808 16.2996 3.82808 15.3836C3.82808 14.618 4.07691 13.8961 4.54449 13.2945C5.00113 12.7094 5.64371 12.2855 6.35191 12.0996L7.38824 11.8262L7.76832 10.8227C8.00347 10.1992 8.3316 9.61406 8.74449 9.08633C9.15191 8.56133 9.6359 8.10195 10.1773 7.71914C11.3011 6.92891 12.6246 6.51055 14.0054 6.51055C15.3863 6.51055 16.7097 6.92891 17.8336 7.72187C18.3777 8.10469 18.8589 8.56406 19.2664 9.08906C19.6793 9.6168 20.0074 10.202 20.2425 10.8254L20.6199 11.8262L21.6535 12.0996C23.1355 12.4934 24.1718 13.8414 24.1718 15.3809C24.1718 16.2996 23.8109 17.1609 23.1546 17.8035C22.6214 18.3285 21.9269 18.6539 21.1886 18.7469C21.0793 18.7605 21 18.8535 21 18.9629V20.6172C21 20.7457 21.1121 20.8469 21.2406 20.8359C24.0214 20.5844 26.2308 18.2656 26.25 15.4164C26.2664 12.8625 24.5355 10.7105 22.1867 10.0871Z" fill="#7A7AFF"/>
<path id="Vector_2" d="M10.3059 17.9496C10.3551 17.0336 10.7352 16.1805 11.386 15.527C12.0805 14.8297 13.0266 14.4387 14.011 14.4387C15.0008 14.4387 15.9332 14.8242 16.636 15.527C16.6743 15.5652 16.7098 15.6035 16.7481 15.6445L16.0645 16.1805C16.0319 16.2057 16.0071 16.2395 15.993 16.2782C15.9788 16.3169 15.9758 16.3587 15.9844 16.399C15.993 16.4393 16.0127 16.4763 16.0414 16.5059C16.0701 16.5354 16.1065 16.5563 16.1465 16.566L18.8317 17.2223C18.9684 17.2551 19.1024 17.1512 19.1024 17.0117L19.1161 14.2418C19.1161 14.0586 18.9082 13.9547 18.7633 14.0695L18.129 14.5672C17.1282 13.4188 15.6571 12.6914 14.0137 12.6914C11.077 12.6914 8.68169 15.0184 8.56137 17.9332C8.55591 18.0562 8.65434 18.1602 8.78012 18.1602H10.0899C10.2047 18.1574 10.3004 18.0672 10.3059 17.9496ZM19.2227 18.1574H17.9129C17.7981 18.1574 17.7024 18.2477 17.6942 18.3652C17.645 19.2812 17.2649 20.1344 16.6141 20.7879C15.9196 21.4852 14.9735 21.8762 13.9891 21.8762C12.9993 21.8762 12.0668 21.4906 11.3641 20.7879C11.3258 20.7496 11.2903 20.7113 11.252 20.6703L11.9356 20.1344C11.9682 20.1092 11.993 20.0753 12.0071 20.0366C12.0213 19.998 12.0243 19.9561 12.0157 19.9158C12.0071 19.8756 11.9874 19.8385 11.9587 19.809C11.93 19.7794 11.8936 19.7586 11.8536 19.7488L9.16841 19.0926C9.03169 19.0598 8.8977 19.1637 8.8977 19.3031L8.88677 22.0758C8.88677 22.259 9.09458 22.3629 9.2395 22.248L9.87387 21.7504C10.8747 22.8988 12.3457 23.6262 13.9891 23.6262C16.9258 23.6262 19.3211 21.2992 19.4415 18.3844C19.4469 18.2613 19.3485 18.1574 19.2227 18.1574Z" fill="#7A7AFF"/>
</g>
</svg>
