<svg width="30" height="34" viewBox="0 0 30 34" fill="none" xmlns="http://www.w3.org/2000/svg">
<path id="Vector" d="M15.2115 31.875L17.3773 34H0V4.25H8.66328C8.66328 3.66341 8.77609 3.11556 9.00169 2.60645C9.2273 2.09733 9.53751 1.64355 9.93232 1.24512C10.3271 0.84668 10.784 0.542318 11.3029 0.332031C11.8218 0.121745 12.3858 0.0110677 12.9949 0C13.5928 0 14.1512 0.110677 14.6701 0.332031C15.1889 0.553385 15.6514 0.857747 16.0575 1.24512C16.4636 1.63249 16.7738 2.08073 16.9882 2.58984C17.2025 3.09896 17.3153 3.65234 17.3266 4.25H25.9898V21.2998L23.824 23.4248V6.375H21.6582V10.625H4.33164V6.375H2.16582V31.875H15.2115ZM6.49746 6.375V8.5H19.4924V6.375H15.1607V4.25C15.1607 3.95117 15.1043 3.67448 14.9915 3.41992C14.8787 3.16536 14.7265 2.94401 14.5347 2.75586C14.3429 2.56771 14.1117 2.41276 13.8409 2.29102C13.5702 2.16927 13.2882 2.11393 12.9949 2.125C12.6904 2.125 12.4083 2.18034 12.1489 2.29102C11.8895 2.40169 11.6638 2.55111 11.4721 2.73926C11.2803 2.92741 11.1224 3.1543 10.9983 3.41992C10.8742 3.68555 10.8178 3.96224 10.8291 4.25V6.375H6.49746ZM30 24.1221L20.5753 33.3857L16.0237 28.9033L17.5465 27.4092L20.5753 30.3643L28.4772 22.6279L30 24.1221Z" fill="#4B7BE5"/>
</svg>
