<svg width="28" height="28" viewBox="0 0 28 28" fill="none" xmlns="http://www.w3.org/2000/svg">
<g id="solar:trash-bin-2-line-duotone">
<g id="Group">
<path id="Vector" d="M23.9173 7H4.08398M21.9725 9.91667L21.4358 17.9667C21.2293 21.063 21.1267 22.6112 20.1175 23.555C19.1083 24.5 17.5567 24.5 14.4522 24.5H13.5492C10.4458 24.5 8.89415 24.5 7.88382 23.555C6.87465 22.6112 6.77198 21.063 6.56548 17.9667L6.02882 9.91667" stroke="#4B7BE5" stroke-width="1.5" stroke-linecap="round"/>
<path id="Vector_2" opacity="0.5" d="M7.58398 7H7.71232C8.18184 6.988 8.63681 6.83459 9.01773 6.55983C9.39865 6.28507 9.68778 5.90175 9.84732 5.46L9.88698 5.33983L10.0002 5.00033C10.097 4.70983 10.146 4.56517 10.2102 4.4415C10.3364 4.19929 10.5176 3.98999 10.7392 3.83035C10.9608 3.67071 11.2168 3.56517 11.4865 3.52217C11.623 3.5 11.7758 3.5 12.0815 3.5H15.9198C16.2255 3.5 16.3783 3.5 16.5148 3.52217C16.7845 3.56517 17.0405 3.67071 17.2621 3.83035C17.4837 3.98999 17.6649 4.19929 17.7911 4.4415C17.8553 4.56517 17.9043 4.70983 18.0011 5.00033L18.1143 5.33983C18.2622 5.83132 18.5679 6.26034 18.9843 6.56047C19.4006 6.8606 19.9043 7.01508 20.4173 7" stroke="#4B7BE5" stroke-width="1.5"/>
</g>
</g>
</svg>
