<svg width="18" height="16" viewBox="0 0 18 16" fill="none" xmlns="http://www.w3.org/2000/svg">
<g id="mingcute:up-fill">
<g id="Group">
<path id="Vector" fill-rule="evenodd" clip-rule="evenodd" d="M8.59176 5.29343C8.7905 5.10616 9.0599 5.00098 9.34078 5.00098C9.62166 5.00098 9.89106 5.10616 10.0898 5.29343L14.0878 9.0641C14.1862 9.15698 14.2643 9.26725 14.3175 9.3886C14.3708 9.50995 14.3982 9.64 14.3981 9.77133C14.3981 9.90267 14.3706 10.0327 14.3173 10.154C14.264 10.2754 14.1859 10.3856 14.0875 10.4784C13.989 10.5713 13.8721 10.6449 13.7435 10.6951C13.6149 10.7454 13.4771 10.7712 13.3379 10.7712C13.1987 10.7712 13.0608 10.7453 12.9322 10.695C12.8036 10.6447 12.6868 10.571 12.5884 10.4781L9.34078 7.4141L6.09317 10.4781C5.99544 10.5736 5.87852 10.6499 5.74923 10.7023C5.61994 10.7548 5.48087 10.7825 5.34014 10.7837C5.1994 10.7849 5.05982 10.7597 4.92954 10.7094C4.79925 10.6592 4.68087 10.585 4.58131 10.4912C4.48174 10.3973 4.40298 10.2857 4.34963 10.1628C4.29627 10.04 4.26939 9.90828 4.27054 9.7755C4.2717 9.64273 4.30087 9.51149 4.35636 9.38946C4.41185 9.26744 4.49254 9.15706 4.59373 9.06476L8.59106 5.29276L8.59176 5.29343Z" fill="#7A7AFF"/>
</g>
</g>
</svg>
