<svg width="35" height="35" viewBox="0 0 35 35" fill="none" xmlns="http://www.w3.org/2000/svg">
<g id="solar:cloud-upload-linear">
<g id="Group">
<path id="Vector" d="M9.16716 27.7083C5.71529 27.7083 2.91675 24.9433 2.91675 21.5323C2.91675 18.1198 5.71529 15.3548 9.16716 15.3548C9.58133 15.3548 9.98675 15.3956 10.3776 15.4715M10.3776 15.4715C10.035 14.5565 9.86016 13.5872 9.86133 12.6102C9.86133 8.06167 13.5917 4.375 18.1942 4.375C22.4817 4.375 26.0124 7.57458 26.4776 11.6885M10.3776 15.4715C11.1845 15.6282 11.9526 15.9423 12.638 16.396M20.9724 11.706C21.8655 11.3948 22.8047 11.2366 23.7505 11.2379C24.7042 11.2379 25.6215 11.3969 26.4776 11.6885M26.4776 11.6885C29.7384 12.8042 32.0834 15.8681 32.0834 19.4731C32.0834 23.4208 29.2732 26.721 25.5209 27.5231" stroke="#28358B" stroke-width="2" stroke-linecap="round"/>
<path id="Vector_2" d="M17.5002 23.3333V32.0833M17.5002 23.3333L20.4168 26.25M17.5002 23.3333L14.5835 26.25" stroke="#28358B" stroke-width="2" stroke-linecap="round" stroke-linejoin="round"/>
</g>
</g>
</svg>
