<svg width="32" height="32" viewBox="0 0 32 32" fill="none" xmlns="http://www.w3.org/2000/svg">
<g id="icon-park-outline:upload-two">
<g id="Group">
<path id="Vector" d="M16.0058 27.3311L16.0004 15.3311M27.0124 22.8751C28.0801 22.1244 28.8807 21.0529 29.2981 19.8162C29.7156 18.5795 29.728 17.242 29.3338 15.9978C28.5251 13.4445 26.0471 12.0451 23.3691 12.0478H21.8217C21.4525 10.6082 20.7615 9.27115 19.8007 8.13728C18.8399 7.00342 17.6344 6.10231 16.2749 5.5018C14.9154 4.90128 13.4375 4.61702 11.9522 4.6704C10.467 4.72379 9.01322 5.11344 7.70037 5.81001C6.38753 6.50658 5.24982 7.49192 4.37292 8.69183C3.49601 9.89175 2.90276 11.275 2.63783 12.7374C2.3729 14.1998 2.44319 15.7032 2.84342 17.1345C3.24365 18.5658 3.96338 19.8876 4.94842 21.0005" stroke="#7A7AFF" stroke-width="2" stroke-linecap="round" stroke-linejoin="round"/>
<path id="Vector_2" d="M20.2431 18.4224L16.0005 14.1797L11.7578 18.4224" stroke="#7A7AFF" stroke-width="2" stroke-linecap="round" stroke-linejoin="round"/>
</g>
</g>
</svg>
