<svg width="48" height="48" viewBox="0 0 48 48" fill="none" xmlns="http://www.w3.org/2000/svg">
<g id="icon-park-outline:upload-two">
<g id="Group">
<path id="Vector" d="M24.0275 36.0019L24.0218 23.2958M35.6818 31.2837C36.8123 30.4887 37.6601 29.3542 38.102 28.0448C38.544 26.7353 38.5572 25.3191 38.1397 24.0017C37.2835 21.2981 34.6597 19.8164 31.8241 19.8192H30.1857C29.7949 18.2948 29.0633 16.879 28.046 15.6782C27.0287 14.4775 25.7523 13.5233 24.3128 12.8873C22.8734 12.2513 21.3083 11.9502 19.7357 12.0067C18.163 12.0632 16.6236 12.4757 15.2334 13.2132C13.8432 13.9508 12.6385 14.9941 11.7099 16.2647C10.7814 17.5352 10.1532 18.9999 9.87267 20.5484C9.59214 22.0969 9.66659 23.6889 10.0904 25.2044C10.5142 26.72 11.2764 28.1196 12.3195 29.298" stroke="#979797" stroke-width="2.82358" stroke-linecap="round" stroke-linejoin="round"/>
<path id="Vector_2" d="M28.5144 26.5665L24.0221 22.0742L19.5298 26.5665" stroke="#979797" stroke-width="2.82358" stroke-linecap="round" stroke-linejoin="round"/>
</g>
</g>
</svg>
