<svg width="75" height="74" viewBox="0 0 75 74" fill="none" xmlns="http://www.w3.org/2000/svg">
<g id="B4 1">
<g clip-path="url(#clip0_260_2821)">
<g id="OBJECTS">
<path id="Vector" d="M84.3703 36.9988C84.3705 46.3136 81.6086 55.4193 76.4337 63.1644C71.2588 70.9095 63.9034 76.9461 55.2977 80.5108C46.692 84.0755 37.2224 85.0083 28.0866 83.1911C18.9507 81.3739 10.5589 76.8884 3.97235 70.3019C-2.61422 63.7153 -7.0997 55.3235 -8.91688 46.1877C-10.7341 37.0518 -9.80129 27.5823 -6.23656 18.9766C-2.67182 10.3708 3.36477 3.01545 11.1099 -2.15944C18.8549 -7.33433 27.9606 -10.0963 37.2755 -10.0961C43.4658 -10.1166 49.599 -8.9124 55.3221 -6.55293C61.0451 -4.19345 66.245 -0.725243 70.6222 3.652C74.9995 8.02925 78.4677 13.2291 80.8271 18.9521C83.1866 24.6752 84.3908 30.8085 84.3703 36.9988Z" fill="#BBBBFF"/>
<path id="Vector_2" d="M44.4612 44.6654C43.4191 49.2432 40.5975 52.5261 37.278 52.5261C33.9584 52.5261 31.1286 49.2356 30.0894 44.6506L30.8911 41.5419L31.1315 40.6122H43.4167L44.3316 44.165L44.4145 44.4836L44.4612 44.6654Z" fill="#F0F0F0"/>
<path id="Vector_3" d="M21.2508 49.2402H52.2169C53.8375 49.2402 55.3917 49.884 56.5376 51.0299C57.6835 52.1758 58.3272 53.73 58.3272 55.3505V60.1694H15.1411V55.3505C15.1411 53.7301 15.7848 52.176 16.9306 51.0301C18.0764 49.8842 19.6304 49.2404 21.2508 49.2402Z" fill="#5D5DBF"/>
<path id="Vector_4" d="M37.5613 8.07092H34.9026C31.8494 8.07141 28.8971 9.16407 26.5793 11.1514C24.2614 13.1388 22.731 15.8898 22.2645 18.9071L21.853 21.5718C21.191 25.8654 21.1368 30.2309 21.6919 34.5397C21.9976 36.9166 23.1587 39.1007 24.958 40.6835C26.7574 42.2663 29.0718 43.1393 31.4682 43.1394L37.5613 8.07092Z" fill="#333333"/>
<path id="Vector_5" d="M36.8218 6.97083H37.4625C41.5278 6.97083 45.4266 8.58576 48.3012 11.4603C51.1758 14.3349 52.7907 18.2337 52.7907 22.299V30.4214H21.4937V22.299C21.4937 18.2337 23.1086 14.3349 25.9832 11.4603C28.8578 8.58576 32.7566 6.97083 36.8218 6.97083Z" fill="#333333"/>
<path id="Vector_6" d="M37.2754 8.07092H39.9347C42.9878 8.07155 45.94 9.16428 48.2577 11.1516C50.5754 13.139 52.1058 15.8899 52.5722 18.9071L52.9837 21.5718C53.6459 25.864 53.7007 30.228 53.1466 34.5355C52.8409 36.9124 51.6798 39.0965 49.8805 40.6793C48.0811 42.2621 45.7668 43.1352 43.3703 43.1352L37.2754 8.07092Z" fill="#333333"/>
<path id="Vector_7" d="M52.7328 27.2475C58.8508 20.3834 54.7686 37.1635 51.3845 35.2023C45.4364 31.7566 52.7328 27.2475 52.7328 27.2475Z" fill="#F4F4F4"/>
<path id="Vector_8" d="M71.1733 69.6887C67.9819 72.9936 64.3278 75.8179 60.3253 78.0734C53.9605 81.658 46.844 83.7004 39.547 84.0369C38.795 84.0784 38.0371 84.0961 37.2732 84.0961C33.5618 84.0981 29.863 83.6629 26.2534 82.7993C21.3995 81.6374 16.7633 79.7044 12.5216 77.0739C9.17656 75.0029 6.10324 72.5221 3.37305 69.6893L4.18428 66.4917C4.7859 64.1343 6.02001 61.986 7.75337 60.2788C9.48673 58.5715 11.6535 57.3701 14.0198 56.8043L14.5527 56.6805L20.4682 55.2647L22.0847 54.8798C23.314 54.5846 24.4743 54.0537 25.5014 53.3166C26.0007 52.9612 26.4647 52.5587 26.887 52.1145C28.0388 50.9052 28.8623 49.4215 29.2793 47.8043L29.9069 45.3641L30.0727 44.7074L30.0846 44.6541L30.8899 41.5454L31.1268 40.6157H43.4137L44.3315 44.1686L44.4144 44.4877L44.4618 44.6654L44.4677 44.7074L44.6395 45.37L45.2671 47.8043C45.8416 50.0292 47.1812 51.9807 49.0509 53.3166C50.0738 54.0572 51.2329 54.5884 52.4616 54.8798L53.9538 55.2351L60.5266 56.8043C62.8929 57.3701 65.0597 58.5715 66.793 60.2788C68.5264 61.986 69.7605 64.1343 70.3621 66.4917L71.1733 69.6887Z" fill="#F4F4F4"/>
<path id="Vector_9" d="M48.2163 64.7225H25.603V76.3013H48.2163V64.7225Z" fill="#BBBBFF"/>
<path id="Vector_10" d="M44.4612 44.6654C43.4191 49.2432 40.5975 52.5261 37.278 52.5261C33.9584 52.5261 31.1286 49.2356 30.0894 44.6506L30.8911 41.5419L31.1315 40.6122H43.4167L44.3316 44.165L44.4145 44.4836L44.4612 44.6654Z" fill="#F0F0F0"/>
<path id="Vector_11" d="M21.821 27.2475C15.7036 20.3834 19.7852 37.1635 23.1693 35.2023C29.118 31.7566 21.821 27.2475 21.821 27.2475Z" fill="#F4F4F4"/>
<path id="Vector_12" d="M51.5107 22.3001C51.5109 22.8146 51.4813 23.3286 51.4218 23.8397C51.3508 24.5621 50.8889 28.9262 50.0244 33.3021C50.0185 33.3199 50.0185 33.3435 50.0126 33.3613C49.2605 37.1688 48.2006 40.9585 46.815 42.3382C45.2517 43.9014 43.9964 45.3226 42.5634 46.347C41.0143 47.4338 39.1679 48.0168 37.2756 48.0168C35.3832 48.0168 33.5369 47.4338 31.9877 46.347C30.5607 45.3226 29.2994 43.9014 27.7362 42.3382C26.3505 40.9526 25.2906 37.157 24.5327 33.3554V33.3495C24.5304 33.3471 24.5287 33.3443 24.5277 33.3413C24.5267 33.3382 24.5264 33.3349 24.5267 33.3317C24.432 32.8402 24.3432 32.3487 24.2544 31.8632L24.1478 31.2592C23.455 27.2445 23.1175 23.7331 23.1175 23.7331C23.0697 23.2569 23.046 22.7787 23.0464 22.3001C23.0464 22.1757 23.0464 22.0514 23.0523 21.927C23.0785 20.8291 23.2335 19.738 23.5142 18.6762L23.5497 18.5341C24.3377 15.6617 26.0074 13.109 28.3233 11.2361C30.6393 9.36313 33.4847 8.26434 36.4584 8.09461C36.7308 8.07685 36.9973 8.07092 37.2756 8.07092C41.0501 8.07029 44.6703 9.56904 47.3399 12.2375C50.0095 14.9059 51.5097 18.5255 51.5107 22.3001Z" fill="#F4F4F4"/>
<path id="Vector_13" d="M39.5158 35.0982C39.5158 36.0805 38.5151 36.8746 37.2775 36.8746C36.0399 36.8746 35.0451 36.0793 35.0451 35.0982C35.0428 34.9813 35.0588 34.8648 35.0925 34.7529C35.2782 35.1788 35.5841 35.5412 35.9728 35.7957C36.3614 36.0502 36.8159 36.1858 37.2805 36.1858C37.7451 36.1858 38.1995 36.0502 38.5882 35.7957C38.9768 35.5412 39.2828 35.1788 39.4684 34.7529C39.5021 34.8648 39.5181 34.9813 39.5158 35.0982Z" fill="#F0F0F0"/>
<path id="Vector_14" d="M23.0464 20.7428V28.154L23.757 28.7959H24.6813C25.2491 28.796 25.8004 28.6052 26.2467 28.2543C26.693 27.9033 27.0084 27.4125 27.1422 26.8608L28.336 21.946C28.5548 21.0461 29.0694 20.2457 29.7974 19.6731C30.5254 19.1006 31.4246 18.7892 32.3507 18.7887H42.2744C43.2011 18.7887 44.101 19.1001 44.8295 19.6729C45.558 20.2457 46.0729 21.0466 46.2915 21.9472L47.4847 26.862C47.6189 27.4135 47.9344 27.9039 48.3807 28.2546C48.8269 28.6053 49.3781 28.7959 49.9456 28.7959H50.3927C50.5292 28.7959 50.6617 28.7505 50.7696 28.6669C50.8774 28.5833 50.9544 28.4662 50.9884 28.334L51.577 26.0324V20.7428C51.577 17.382 50.2419 14.1589 47.8655 11.7824C45.4891 9.40599 42.2659 8.07092 38.9051 8.07092H35.7135C32.3535 8.07218 29.1316 9.4078 26.7562 11.7841C24.3808 14.1604 23.0464 17.3828 23.0464 20.7428Z" fill="#333333"/>
<path id="Vector_15" d="M70.3621 66.4912C69.7605 64.1338 68.5264 61.9855 66.793 60.2782C65.0597 58.571 62.8929 57.3696 60.5266 56.8038L58.2925 56.2708L49.8183 51.5148V55.6983C49.8182 58.4408 48.84 61.0934 47.0595 63.1794L37.1411 74.799L26.3695 62.1798C24.5891 60.0938 23.6111 57.4412 23.6113 54.6987V51.5148L15.1401 56.2714L15.2425 56.5148L14.5527 56.6806L14.0198 56.8044C11.6535 57.3702 9.48673 58.5716 7.75337 60.2788C6.02001 61.9861 4.7859 64.1344 4.18428 66.4918L3.37305 69.6894C6.10323 72.5222 9.17656 75.003 12.5216 77.074C16.7626 79.7043 21.3979 81.6373 26.2511 82.7994C29.8606 83.663 33.5594 84.0982 37.2708 84.0962C38.0347 84.0962 38.7926 84.079 39.5447 84.037C46.8416 83.7005 53.9581 81.658 60.3229 78.0735C64.3254 75.818 67.9795 72.9937 71.171 69.6888L70.3621 66.4912Z" fill="#5D5DBF"/>
<path id="Vector_16" d="M25.1413 63.2911H23.8013V77.4735H25.1413V63.2911Z" fill="#BBBBFF"/>
<path id="Vector_17" d="M50.7551 63.2911H49.415V77.4735H50.7551V63.2911Z" fill="#BBBBFF"/>
</g>
</g>
</g>
<defs>
<clipPath id="clip0_260_2821">
<rect x="0.361328" y="0.0866699" width="73.8266" height="73.8266" rx="12.7287" fill="white"/>
</clipPath>
</defs>
</svg>
