<svg width="56" height="57" viewBox="0 0 56 57" fill="none" xmlns="http://www.w3.org/2000/svg">
<g id="basil:file-user-outline">
<path id="Vector" d="M28.0003 21.5C26.7626 21.5 25.5757 21.9917 24.7005 22.8668C23.8253 23.742 23.3337 24.929 23.3337 26.1667C23.3337 27.4043 23.8253 28.5913 24.7005 29.4665C25.5757 30.3417 26.7626 30.8333 28.0003 30.8333C29.238 30.8333 30.425 30.3417 31.3002 29.4665C32.1753 28.5913 32.667 27.4043 32.667 26.1667C32.667 24.929 32.1753 23.742 31.3002 22.8668C30.425 21.9917 29.238 21.5 28.0003 21.5ZM18.667 41.3333C18.667 39.4768 19.4045 37.6963 20.7172 36.3836C22.03 35.0708 23.8105 34.3333 25.667 34.3333H30.3337C32.1902 34.3333 33.9707 35.0708 35.2834 36.3836C36.5962 37.6963 37.3337 39.4768 37.3337 41.3333C37.3337 41.9522 37.0878 42.5457 36.6502 42.9832C36.2127 43.4208 35.6192 43.6667 35.0003 43.6667H21.0003C20.3815 43.6667 19.788 43.4208 19.3504 42.9832C18.9128 42.5457 18.667 41.9522 18.667 41.3333Z" fill="#4B7BE5"/>
<path id="Vector_2" fill-rule="evenodd" clip-rule="evenodd" d="M16.3337 5.75C14.6319 5.75 12.9997 6.42604 11.7964 7.6294C10.593 8.83276 9.91699 10.4649 9.91699 12.1667V44.8333C9.91699 46.5351 10.593 48.1672 11.7964 49.3706C12.9997 50.574 14.6319 51.25 16.3337 51.25H39.667C41.3688 51.25 43.0009 50.574 44.2043 49.3706C45.4076 48.1672 46.0837 46.5351 46.0837 44.8333V19.6287C46.0837 18.7748 45.816 17.9425 45.3183 17.2487L38.2857 7.45333C37.9079 6.92663 37.4101 6.49744 36.8335 6.20124C36.257 5.90505 35.6182 5.75037 34.97 5.75H16.3337ZM13.417 12.1667C13.417 10.5567 14.7237 9.25 16.3337 9.25H33.2503V19.5097C33.2503 20.4757 34.0343 21.2597 35.0003 21.2597H42.5837V44.8333C42.5837 46.4433 41.277 47.75 39.667 47.75H16.3337C14.7237 47.75 13.417 46.4433 13.417 44.8333V12.1667Z" fill="#4B7BE5"/>
</g>
</svg>
