<svg width="23" height="21" viewBox="0 0 23 21" fill="none" xmlns="http://www.w3.org/2000/svg">
<path id="Vector" d="M12.5267 16.1536C12.5267 16.4213 12.4185 16.6782 12.226 16.8675C12.0334 17.0569 11.7722 17.1632 11.4998 17.1632C11.2275 17.1632 10.9663 17.0569 10.7737 16.8675C10.5811 16.6782 10.4729 16.4213 10.4729 16.1536C10.4729 15.8858 10.5811 15.629 10.7737 15.4396C10.9663 15.2503 11.2275 15.1439 11.4998 15.1439C11.7722 15.1439 12.0334 15.2503 12.226 15.4396C12.4185 15.629 12.5267 15.8858 12.5267 16.1536ZM11.4998 5.65296C11.2819 5.65296 11.073 5.73806 10.9189 5.88954C10.7649 6.04102 10.6783 6.24647 10.6783 6.4607V12.9226C10.6783 13.1368 10.7649 13.3423 10.9189 13.4938C11.073 13.6453 11.2819 13.7304 11.4998 13.7304C11.7177 13.7304 11.9267 13.6453 12.0807 13.4938C12.2348 13.3423 12.3214 13.1368 12.3214 12.9226V6.4607C12.3214 6.24647 12.2348 6.04102 12.0807 5.88954C11.9267 5.73806 11.7177 5.65296 11.4998 5.65296ZM8.98266 1.45999C10.0769 -0.486663 12.9227 -0.486663 14.017 1.45999L22.6373 16.8062C23.6962 18.6899 22.3095 21 20.121 21H2.87952C0.690145 21 -0.695775 18.6899 0.362355 16.8062L8.98266 1.45999ZM12.5785 2.24107C12.472 2.0515 12.3158 1.89346 12.126 1.78341C11.9363 1.67335 11.7201 1.6153 11.4998 1.6153C11.2796 1.6153 11.0633 1.67335 10.8736 1.78341C10.6839 1.89346 10.5277 2.0515 10.4212 2.24107L1.80085 17.5873C1.69727 17.7718 1.64441 17.9796 1.64748 18.1903C1.65055 18.401 1.70945 18.6072 1.81836 18.7887C1.92728 18.9701 2.08244 19.1205 2.26853 19.225C2.45463 19.3295 2.66522 19.3845 2.87952 19.3845H20.121C20.3353 19.3845 20.5458 19.3295 20.7319 19.225C20.918 19.1205 21.0732 18.9701 21.1821 18.7887C21.291 18.6072 21.3499 18.401 21.353 18.1903C21.3561 17.9796 21.3032 17.7718 21.1996 17.5873L12.5785 2.24107Z" fill="#FF6161"/>
</svg>
