<svg width="21" height="19" viewBox="0 0 21 19" fill="none" xmlns="http://www.w3.org/2000/svg">
<path id="Vector" d="M0.213867 3.71429C0.213867 2.8618 0.552514 2.04424 1.15531 1.44144C1.75811 0.838647 2.57567 0.5 3.42815 0.5H6.6193C7.21587 0.5 7.7893 0.736571 8.21101 1.15957L10.1229 3.07143H17.571C18.4235 3.07143 19.2411 3.41008 19.8439 4.01287C20.4466 4.61567 20.7853 5.43323 20.7853 6.28571V15.2857C20.7853 16.1382 20.4466 16.9558 19.8439 17.5586C19.2411 18.1614 18.4235 18.5 17.571 18.5H3.42815C2.57567 18.5 1.75811 18.1614 1.15531 17.5586C0.552514 16.9558 0.213867 16.1382 0.213867 15.2857V3.71429ZM15.6424 17.2143H17.571C18.0825 17.2143 18.573 17.0111 18.9347 16.6494C19.2964 16.2877 19.4996 15.7972 19.4996 15.2857V6.28571C19.4996 5.77423 19.2964 5.28369 18.9347 4.92201C18.573 4.56033 18.0825 4.35714 17.571 4.35714H16.9282V8.85714C16.9282 9.02764 16.8604 9.19115 16.7399 9.31171C16.6193 9.43227 16.4558 9.5 16.2853 9.5H15.6424V12.0714H16.2853C16.4558 12.0714 16.6193 12.1392 16.7399 12.2597C16.8604 12.3803 16.9282 12.5438 16.9282 12.7143C16.9282 12.8848 16.8604 13.0483 16.7399 13.1689C16.6193 13.2894 16.4558 13.3571 16.2853 13.3571H15.6424V17.2143ZM15.6424 4.35714H14.3567V8.21429H15.6424V4.35714ZM13.071 4.35714H10.1229L8.11715 6.36286C7.93793 6.5423 7.72508 6.68463 7.49078 6.78171C7.25648 6.87878 7.00534 6.92869 6.75172 6.92857H1.49958V15.2857C1.49958 15.7972 1.70277 16.2877 2.06445 16.6494C2.42612 17.0111 2.91666 17.2143 3.42815 17.2143H14.3567V14.6429H13.7139C13.5434 14.6429 13.3799 14.5751 13.2593 14.4546C13.1387 14.334 13.071 14.1705 13.071 14C13.071 13.8295 13.1387 13.666 13.2593 13.5454C13.3799 13.4249 13.5434 13.3571 13.7139 13.3571H14.3567V12.0714H13.7139C13.5434 12.0714 13.3799 12.0037 13.2593 11.8831C13.1387 11.7626 13.071 11.5991 13.071 11.4286C13.071 11.2581 13.1387 11.0946 13.2593 10.974C13.3799 10.8534 13.5434 10.7857 13.7139 10.7857H14.3567V9.5H13.7139C13.5434 9.5 13.3799 9.43227 13.2593 9.31171C13.1387 9.19115 13.071 9.02764 13.071 8.85714V4.35714ZM3.42815 1.78571C2.91666 1.78571 2.42612 1.9889 2.06445 2.35058C1.70277 2.71226 1.49958 3.2028 1.49958 3.71429V5.64286H6.75301C6.92318 5.64282 7.08639 5.57532 7.20687 5.45514L8.94772 3.71429L7.30201 2.06857C7.12134 1.88768 6.87624 1.78594 6.62058 1.78571H3.42815Z" fill="#4B7BE5"/>
</svg>
