<svg width="20" height="22" viewBox="0 0 20 22" fill="none" xmlns="http://www.w3.org/2000/svg">
<path d="M16.3636 13.75H14.5455C14.3043 13.75 14.0731 13.8466 13.9026 14.0185C13.7321 14.1904 13.6364 14.4235 13.6364 14.6666V21.0833C13.6364 21.3264 13.7321 21.5596 13.9026 21.7315C14.0731 21.9034 14.3043 22 14.5455 22C14.7866 22 15.0178 21.9034 15.1883 21.7315C15.3588 21.5596 15.4545 21.3264 15.4545 21.0833V20.1666H16.3636C17.2075 20.1666 18.0168 19.8286 18.6135 19.2269C19.2102 18.6253 19.5455 17.8092 19.5455 16.9583C19.5455 16.1074 19.2102 15.2914 18.6135 14.6897C18.0168 14.088 17.2075 13.75 16.3636 13.75ZM16.3636 18.3333H15.4545V15.5833H16.3636C16.7253 15.5833 17.0721 15.7282 17.3279 15.986C17.5836 16.2439 17.7273 16.5936 17.7273 16.9583C17.7273 17.323 17.5836 17.6727 17.3279 17.9306C17.0721 18.1884 16.7253 18.3333 16.3636 18.3333ZM10.9091 14.6666V21.0833C10.9091 21.3264 10.8133 21.5596 10.6428 21.7315C10.4723 21.9034 10.2411 22 10 22C9.75889 22 9.52766 21.9034 9.35718 21.7315C9.18669 21.5596 9.09091 21.3264 9.09091 21.0833V14.6666C9.09091 14.4235 9.18669 14.1904 9.35718 14.0185C9.52766 13.8466 9.75889 13.75 10 13.75C10.2411 13.75 10.4723 13.8466 10.6428 14.0185C10.8133 14.1904 10.9091 14.4235 10.9091 14.6666ZM6.36364 21.0833C6.36364 21.3264 6.26786 21.5596 6.09737 21.7315C5.92688 21.9034 5.69565 22 5.45455 22H1.81818C1.65791 22.0014 1.50011 21.9601 1.36077 21.8803C1.22143 21.8004 1.10551 21.6848 1.02475 21.5452C0.94399 21.4056 0.901268 21.247 0.900913 21.0854C0.900558 20.9238 0.942583 20.7649 1.02273 20.625L3.88182 15.5833H1.81818C1.57708 15.5833 1.34585 15.4867 1.17536 15.3148C1.00487 15.1429 0.909091 14.9098 0.909091 14.6666C0.909091 14.4235 1.00487 14.1904 1.17536 14.0185C1.34585 13.8466 1.57708 13.75 1.81818 13.75H5.45455C5.61482 13.7485 5.77262 13.7898 5.91196 13.8697C6.0513 13.9495 6.16722 14.0651 6.24798 14.2047C6.32874 14.3443 6.37146 14.503 6.37181 14.6646C6.37217 14.8262 6.33014 14.985 6.25 15.125L3.38523 20.1666H5.45455C5.69565 20.1666 5.92688 20.2632 6.09737 20.4351C6.26786 20.607 6.36364 20.8402 6.36364 21.0833ZM19.7341 6.68478L13.3705 0.268125C13.286 0.183027 13.1857 0.115547 13.0753 0.0695418C12.965 0.0235361 12.8467 -9.44035e-05 12.7273 2.83431e-07H1.81818C1.33597 2.83431e-07 0.873508 0.193154 0.532533 0.53697C0.191558 0.880786 0 1.3471 0 1.83333V10.0833C0 10.3264 0.0957791 10.5596 0.266267 10.7315C0.436754 10.9034 0.667985 11 0.909091 11C1.1502 11 1.38143 10.9034 1.55192 10.7315C1.7224 10.5596 1.81818 10.3264 1.81818 10.0833V1.83333H11.8182V7.33332C11.8182 7.57644 11.914 7.80959 12.0844 7.9815C12.2549 8.15341 12.4862 8.24999 12.7273 8.24999H18.1818V10.0833C18.1818 10.3264 18.2776 10.5596 18.4481 10.7315C18.6186 10.9034 18.8498 11 19.0909 11C19.332 11 19.5632 10.9034 19.7337 10.7315C19.9042 10.5596 20 10.3264 20 10.0833V7.33332C20.0001 7.21291 19.9767 7.09366 19.931 6.98238C19.8854 6.8711 19.8185 6.76997 19.7341 6.68478ZM13.6364 6.41666V3.12927L16.8966 6.41666H13.6364Z" fill="#4B7BE5"/>
</svg>
