<svg width="554" height="664" viewBox="0 0 554 664" fill="none" xmlns="http://www.w3.org/2000/svg">
<g opacity="0.3">
<path opacity="0.3" d="M386.552 136.1C371.455 136.085 356.98 130.076 346.305 119.39C335.63 108.705 329.626 94.217 329.611 79.1058V5.13611e-06H75.201C65.4401 -0.00362547 55.774 1.91758 46.7551 5.65386C37.7362 9.39015 29.5414 14.8684 22.6382 21.7755C15.7349 28.6826 10.2588 36.8833 6.52265 45.9092C2.7865 54.9352 0.863281 64.6094 0.863281 74.3794V522.756C0.892554 542.468 8.73831 561.363 22.6769 575.289C36.6156 589.214 55.5071 597.032 75.201 597.025H380.615C390.373 597.025 400.036 595.101 409.052 591.363C418.067 587.625 426.26 582.146 433.16 575.24C440.06 568.333 445.534 560.133 449.268 551.109C453.002 542.085 454.925 532.413 454.925 522.646V136.1H386.552Z" fill="#438EFF"/>
</g>
<path d="M454.925 136.1H386.552C371.455 136.085 356.98 130.076 346.305 119.39C335.63 108.705 329.626 94.217 329.611 79.1058V0L454.925 136.1Z" fill="#438EFF"/>
<path d="M508.828 471.54H163.539C139.046 471.54 119.19 491.413 119.19 515.929V618.971C119.19 643.487 139.046 663.361 163.539 663.361H508.828C533.321 663.361 553.176 643.487 553.176 618.971V515.929C553.176 491.413 533.321 471.54 508.828 471.54Z" fill="#438EFF"/>
<path d="M197.911 589.756V609.85H177.098V589.756H197.911Z" fill="white"/>
<path d="M383.239 594.676H352.09L346.926 609.85H325.801L356.177 527.317H379.317L409.693 609.85H388.32L383.239 594.676ZM378.047 579.391L367.719 548.849L357.281 579.391H378.047Z" fill="white"/>
<path d="M293.242 594.676H262.093L256.929 609.85H235.804L266.179 527.317H289.32L319.696 609.85H298.323L293.242 594.676ZM288.05 579.391L277.722 548.849L267.284 579.391H288.05Z" fill="white"/>
<path d="M332.87 364.628H302.495V242.293C302.495 238.195 300.868 234.265 297.974 231.368C295.079 228.47 291.152 226.842 287.058 226.842H209.738C205.644 226.842 201.718 228.47 198.823 231.368C195.928 234.265 194.302 238.195 194.302 242.293V364.628H164.064V231.956C164.064 222.558 167.794 213.545 174.433 206.9C181.072 200.254 190.077 196.521 199.466 196.521H297.248C306.637 196.521 315.642 200.254 322.281 206.9C328.92 213.545 332.65 222.558 332.65 231.956L332.87 364.628Z" fill="#438EFF"/>
<path d="M297.06 400.504C316.875 400.504 332.937 384.441 332.937 364.627C332.937 344.813 316.875 328.75 297.06 328.75C277.246 328.75 261.184 344.813 261.184 364.627C261.184 384.441 277.246 400.504 297.06 400.504Z" fill="#438EFF"/>
<path d="M158.823 400.504C178.637 400.504 194.7 384.441 194.7 364.627C194.7 344.813 178.637 328.75 158.823 328.75C139.009 328.75 122.946 344.813 122.946 364.627C122.946 384.441 139.009 400.504 158.823 400.504Z" fill="#438EFF"/>
<path d="M482.309 534.282C489.323 539.971 494.092 547.963 495.77 556.836H474.487C473.052 553.155 470.525 550.001 467.245 547.798C463.777 545.53 459.695 544.382 455.553 544.509C452.847 544.422 450.158 544.961 447.694 546.082C445.23 547.204 443.058 548.879 441.346 550.977C437.486 555.883 435.523 562.016 435.818 568.252C435.514 574.472 437.479 580.591 441.346 585.471C443.065 587.558 445.239 589.221 447.703 590.333C450.166 591.445 452.852 591.975 455.553 591.884C459.658 591.988 463.697 590.841 467.134 588.595C470.382 586.405 472.903 583.297 474.376 579.667H495.659C493.947 588.512 489.183 596.475 482.198 602.166C474.678 607.923 465.375 610.858 455.913 610.458C448.468 610.623 441.116 608.781 434.63 605.124C428.556 601.6 423.639 596.385 420.478 590.115C417.024 583.266 415.306 575.672 415.475 568.003C415.329 560.38 417.046 552.837 420.478 546.029C423.639 539.759 428.556 534.544 434.63 531.021C441.116 527.364 448.468 525.521 455.913 525.686C465.448 525.359 474.794 528.403 482.309 534.282Z" fill="white"/>
</svg>
