<svg width="553" height="664" viewBox="0 0 553 664" fill="none" xmlns="http://www.w3.org/2000/svg">
<g opacity="0.3">
<path opacity="0.3" d="M386.281 136.1C371.181 136.085 356.704 130.076 346.024 119.392C335.345 108.708 329.335 94.2195 329.313 79.1058V0H74.7921C55.0839 0 36.183 7.83642 22.2472 21.7853C8.31137 35.7341 0.482422 54.6526 0.482422 74.3793V522.756C0.504381 542.466 8.34397 561.36 22.2782 575.287C36.2124 589.213 55.1008 597.032 74.7921 597.025H380.206C399.914 597.025 418.815 589.188 432.751 575.24C446.687 561.291 454.516 542.372 454.516 522.646V136.1H386.281Z" fill="#6A53C5"/>
</g>
<path d="M454.515 136.1H386.281C371.181 136.085 356.704 130.076 346.024 119.392C335.344 108.708 329.334 94.2195 329.312 79.1058V0L454.515 136.1Z" fill="#6A53C5"/>
<path d="M508.419 471.539H163.13C138.637 471.539 118.782 491.413 118.782 515.929V618.971C118.782 643.487 138.637 663.361 163.13 663.361H508.419C532.912 663.361 552.768 643.487 552.768 618.971V515.929C552.768 491.413 532.912 471.539 508.419 471.539Z" fill="#6A53C5"/>
<path d="M242.707 589.755V609.85H221.894V589.755H242.707Z" fill="white"/>
<path d="M304.681 594.703H273.532L268.368 609.85H247.243L277.619 527.345H300.677L331.053 609.85H309.679L304.681 594.703ZM299.489 579.419L289.162 548.849L278.724 579.419H299.489Z" fill="white"/>
<path d="M354.47 526.736L374.795 589.286L395.118 526.736H416.658L387.773 609.85H361.816L333.042 526.736H354.47Z" fill="white"/>
<path d="M444.456 526.736V609.85H424.362V526.736H444.456Z" fill="white"/>
<path d="M227.057 414.131C196.931 414.094 168.05 402.099 146.747 380.777C125.445 359.455 113.461 330.546 113.425 300.392C113.461 270.238 125.445 241.329 146.747 220.007C168.05 198.685 196.931 186.69 227.057 186.653C257.183 186.69 286.065 198.685 307.368 220.007C328.67 241.329 340.654 270.238 340.69 300.392C340.654 330.546 328.67 359.455 307.368 380.777C286.065 402.099 257.183 414.094 227.057 414.131ZM227.057 206.582C202.214 206.626 178.401 216.523 160.834 234.107C143.267 251.69 133.378 275.525 133.335 300.392C133.335 325.287 143.204 349.165 160.775 366.785C178.347 384.404 202.185 394.324 227.057 394.368C251.929 394.324 275.768 384.404 293.34 366.785C310.911 349.165 320.781 325.287 320.78 300.392C320.737 275.525 310.848 251.69 293.281 234.107C275.714 216.523 251.901 206.626 227.057 206.582Z" fill="#6A53C5"/>
<path d="M259.68 292.598L233.228 277.341C231.859 276.55 230.306 276.134 228.725 276.133C227.144 276.133 225.591 276.548 224.222 277.338C222.852 278.128 221.714 279.264 220.923 280.633C220.131 282.001 219.714 283.554 219.713 285.135V315.677C219.714 317.258 220.131 318.811 220.923 320.179C221.714 321.548 222.852 322.684 224.222 323.474C225.591 324.264 227.144 324.679 228.725 324.679C230.306 324.678 231.859 324.262 233.228 323.472L259.68 308.187C261.046 307.395 262.179 306.258 262.967 304.89C263.755 303.522 264.17 301.971 264.17 300.392C264.17 298.814 263.755 297.263 262.967 295.895C262.179 294.527 261.046 293.39 259.68 292.598Z" fill="#6A53C5"/>
<path d="M206.168 274.963H196.494C192.892 274.963 189.971 277.884 189.971 281.486V319.326C189.971 322.928 192.892 325.849 196.494 325.849H206.168C209.771 325.849 212.691 322.928 212.691 319.326V281.486C212.691 277.884 209.771 274.963 206.168 274.963Z" fill="#6A53C5"/>
</svg>
