<svg width="562" height="675" viewBox="0 0 562 675" fill="none" xmlns="http://www.w3.org/2000/svg">
<g opacity="0.3">
<path opacity="0.3" d="M392.483 138.334C377.119 138.326 362.385 132.222 351.519 121.36C340.652 110.499 334.54 95.7685 334.525 80.4044V0.00012207H75.6977C65.7674 0.000121385 55.9344 1.95639 46.7603 5.75742C37.5862 9.55845 29.2509 15.1296 22.2304 22.1528C15.2099 29.1759 9.6416 37.5134 5.84399 46.6888C2.04637 55.8643 0.0939713 65.6983 0.0976615 75.6286V531.337C0.0939713 541.268 2.04637 551.101 5.84399 560.277C9.6416 569.452 15.2099 577.79 22.2304 584.813C29.2509 591.836 37.5862 597.407 46.7603 601.208C55.9344 605.009 65.7674 606.966 75.6977 606.966H386.415C396.345 606.966 406.178 605.009 415.352 601.208C424.526 597.407 432.862 591.836 439.882 584.813C446.903 577.79 452.47 569.452 456.268 560.277C460.066 551.101 462.019 541.268 462.015 531.337V138.362L392.483 138.334Z" fill="#A140FF"/>
</g>
<path d="M462.013 138.334H392.481C377.117 138.326 362.383 132.221 351.517 121.36C340.65 110.499 334.538 95.7684 334.523 80.4043V0L462.013 138.334Z" fill="#A140FF"/>
<path d="M516.854 479.28H165.57C140.652 479.28 120.451 499.48 120.451 524.399V629.132C120.451 654.05 140.652 674.25 165.57 674.25H516.854C541.773 674.25 561.973 654.05 561.973 629.132V524.399C561.973 499.48 541.773 479.28 516.854 479.28Z" fill="#A140FF"/>
<path d="M220.916 599.437V619.889H199.762V599.437H220.916Z" fill="white"/>
<path d="M294.349 583.788C297.312 587.48 298.891 592.091 298.816 596.823C298.962 599.996 298.389 603.16 297.139 606.079C295.889 608.999 293.994 611.597 291.596 613.68C286.764 617.725 279.853 619.776 270.863 619.776H231.531V535.298H269.879C278.476 535.298 285.125 537.171 289.826 540.917C292.176 542.845 294.039 545.299 295.264 548.082C296.489 550.864 297.042 553.895 296.878 556.93C297.055 561.515 295.624 566.017 292.832 569.657C290.158 573.033 286.394 575.377 282.185 576.287C286.979 577.32 291.274 579.968 294.349 583.788ZM251.984 569.938H265.356C272.455 569.938 276.004 566.904 276.004 560.836C276.004 554.767 272.38 551.743 265.132 551.761H251.984V569.938ZM277.914 593.958C277.98 592.626 277.746 591.296 277.231 590.066C276.716 588.837 275.932 587.738 274.936 586.85C272.528 585.005 269.537 584.088 266.508 584.266H252.04V603.257H266.621C274.15 603.257 277.914 600.158 277.914 593.958Z" fill="white"/>
<path d="M404.566 536.001V619.889H384.142V567.494L365.993 619.973H348.294L330.005 567.381V619.973H309.524V536.085H334.499L357.312 594.52L379.787 536.085L404.566 536.001Z" fill="white"/>
<path d="M439.119 590.25V619.889H418.667V535.411H451.761C461.819 535.411 469.47 537.893 474.714 542.856C477.372 545.47 479.449 548.615 480.809 552.086C482.169 555.557 482.782 559.275 482.609 562.999C482.697 567.913 481.475 572.761 479.069 577.046C476.637 581.246 472.994 584.614 468.617 586.71C463.361 589.217 457.582 590.431 451.761 590.25H439.119ZM461.819 562.999C461.819 555.507 457.717 551.762 449.514 551.762H439.119V573.759H449.514C457.717 573.834 461.819 570.247 461.819 562.999Z" fill="white"/>
<path d="M293.116 411.321H169.055C156.907 411.306 145.261 406.474 136.671 397.884C128.081 389.294 123.248 377.648 123.234 365.5V241.41C123.248 229.262 128.081 217.616 136.671 209.026C145.261 200.436 156.907 195.604 169.055 195.589H293.144C305.29 195.604 316.933 200.437 325.519 209.028C334.104 217.619 338.93 229.265 338.937 241.41V365.5C338.93 377.65 334.1 389.301 325.509 397.892C316.917 406.484 305.267 411.314 293.116 411.321ZM169.055 215.845C162.277 215.852 155.779 218.548 150.986 223.341C146.193 228.134 143.496 234.632 143.489 241.41V365.5C143.496 372.278 146.193 378.776 150.986 383.569C155.779 388.362 162.277 391.058 169.055 391.065H293.144C299.918 391.05 306.409 388.351 311.196 383.559C315.982 378.767 318.675 372.273 318.682 365.5V241.41C318.675 234.637 315.982 228.143 311.196 223.351C306.409 218.559 299.918 215.859 293.144 215.845H169.055Z" fill="#A140FF"/>
<path d="M328.794 341.901V365.5C328.787 374.96 325.026 384.031 318.336 390.72C311.647 397.41 302.575 401.172 293.115 401.179H169.053C159.588 401.179 150.51 397.421 143.814 390.73C137.118 384.04 133.353 374.965 133.346 365.5V325.888C153.236 321.617 183.493 320.269 220.212 334.934L242.968 313.245L258.476 352.577C258.476 352.577 262.634 338.108 276.062 340.159C289.491 342.21 311.235 349.486 320.534 343.277C323.032 341.839 325.965 341.35 328.794 341.901Z" fill="#A140FF"/>
<path d="M285.331 266.75C292.949 266.75 299.126 260.574 299.126 252.956C299.126 245.338 292.949 239.162 285.331 239.162C277.713 239.162 271.537 245.338 271.537 252.956C271.537 260.574 277.713 266.75 285.331 266.75Z" fill="#A140FF"/>
</svg>
