<svg width="562" height="675" viewBox="0 0 562 675" fill="none" xmlns="http://www.w3.org/2000/svg">
<g opacity="0.3">
<path opacity="0.3" d="M392.401 138.334C377.042 138.319 362.316 132.211 351.455 121.35C340.595 110.49 334.487 95.7637 334.472 80.4044V0.00012207H75.6158C65.6855 0.000121385 55.8525 1.95639 46.6785 5.75742C37.5044 9.55845 29.1691 15.1296 22.1485 22.1528C15.128 29.1759 9.55992 37.5133 5.7623 46.6888C1.96468 55.8643 0.01194 65.6983 0.0156302 75.6286V531.337C0.045405 551.368 8.02353 570.569 22.1981 584.722C36.3727 598.876 55.5849 606.825 75.6158 606.825H386.361C406.397 606.825 425.613 598.872 439.789 584.712C453.964 570.553 461.939 551.345 461.961 531.309V138.334H392.401Z" fill="#048739"/>
</g>
<path d="M461.963 138.334H392.403C377.044 138.319 362.318 132.211 351.457 121.35C340.596 110.489 334.489 95.7635 334.474 80.4043V0L461.963 138.334Z" fill="#048739"/>
<path d="M516.772 479.28H165.488C140.569 479.28 120.369 499.48 120.369 524.399V629.132C120.369 654.05 140.569 674.25 165.488 674.25H516.772C541.69 674.25 561.891 654.05 561.891 629.132V524.399C561.891 499.48 541.69 479.28 516.772 479.28Z" fill="#048739"/>
<path d="M222.184 599.437V619.889H201.03V599.437H222.184Z" fill="white"/>
<path d="M298.119 543.052C305.248 548.834 310.096 556.957 311.801 565.976H290.169C288.711 562.234 286.142 559.028 282.808 556.789C279.283 554.484 275.135 553.318 270.925 553.446C268.174 553.358 265.441 553.905 262.936 555.046C260.432 556.186 258.224 557.888 256.484 560.02C252.561 565.007 250.566 571.241 250.866 577.579C250.557 583.901 252.553 590.12 256.484 595.081C258.231 597.202 260.442 598.892 262.945 600.022C265.449 601.152 268.179 601.692 270.925 601.599C275.097 601.705 279.202 600.539 282.696 598.256C285.997 596.03 288.559 592.871 290.057 589.182H311.689C309.948 598.172 305.106 606.266 298.007 612.05C290.363 617.901 280.908 620.884 271.29 620.478C263.723 620.646 256.251 618.773 249.658 615.056C243.484 611.475 238.487 606.174 235.274 599.801C231.763 592.839 230.017 585.121 230.189 577.326C230.04 569.578 231.786 561.912 235.274 554.992C238.487 548.619 243.484 543.318 249.658 539.737C256.251 536.019 263.723 534.146 271.29 534.314C280.982 533.982 290.482 537.076 298.119 543.052Z" fill="white"/>
<path d="M366.64 619.889L348.351 587.974H343.688V619.889H323.264V535.411H358.156C363.966 535.249 369.735 536.432 375.012 538.866C379.351 540.918 382.972 544.226 385.407 548.362C387.759 552.573 388.952 557.333 388.863 562.156C389.023 567.806 387.238 573.341 383.806 577.832C380.028 582.369 374.815 585.481 369.028 586.654L389.115 619.889H366.64ZM343.688 573.984H356.358C359.593 574.213 362.795 573.209 365.32 571.174C366.318 570.119 367.083 568.866 367.567 567.496C368.051 566.127 368.242 564.671 368.129 563.223C368.228 561.785 368.029 560.342 367.546 558.984C367.062 557.626 366.305 556.382 365.32 555.329C362.839 553.254 359.637 552.244 356.414 552.52H343.688V573.984Z" fill="white"/>
<path d="M469.939 599.493C466.43 605.886 461.114 611.104 454.656 614.494C447.402 618.23 439.327 620.085 431.17 619.889H399.255V535.411H431.058C439.218 535.198 447.304 537.003 454.6 540.664C461.025 543.989 466.323 549.14 469.827 555.469C473.46 562.223 475.289 569.8 475.137 577.467C475.32 585.133 473.53 592.717 469.939 599.493ZM447.942 595.25C450.232 592.917 452.006 590.127 453.148 587.064C454.29 584 454.775 580.73 454.572 577.467C454.774 574.2 454.289 570.926 453.147 567.858C452.004 564.79 450.231 561.995 447.942 559.655C442.825 555.187 436.153 552.916 429.372 553.334H419.82V601.6H429.512C436.241 601.974 442.848 599.694 447.914 595.25H447.942Z" fill="white"/>
<path d="M230.243 174.181C230.243 174.181 296.207 188.228 235.103 394.689H226.675C226.675 394.689 167.959 204.523 230.243 174.181Z" fill="#048739"/>
<path d="M244.826 176.204C244.826 176.204 337.086 211.012 240.387 393.481C240.387 393.481 386.446 215.451 244.826 176.204Z" fill="#048739"/>
<path d="M283.256 188.762C283.256 188.762 371.864 232.841 251.707 386.598C251.707 386.598 389.676 238.123 283.256 188.762Z" fill="#048739"/>
<path d="M217.151 176.204C217.151 176.204 124.891 211.012 221.59 393.481C221.59 393.481 75.5304 215.451 217.151 176.204Z" fill="#048739"/>
<path d="M178.724 188.762C178.724 188.762 90.1163 232.841 210.273 386.598C210.273 386.598 72.3049 238.123 178.724 188.762Z" fill="#048739"/>
<path d="M243.363 432.728H219.595L212.459 410.056H250.498L243.363 432.728Z" fill="#048739"/>
</svg>
