<svg width="562" height="675" viewBox="0 0 562 675" fill="none" xmlns="http://www.w3.org/2000/svg">
<g opacity="0.3">
<path opacity="0.3" d="M392.399 138.367C377.04 138.352 362.313 132.243 351.452 121.382C340.591 110.521 334.483 95.7947 334.468 80.435V0H75.603C55.5518 0 36.3219 7.96551 22.1436 22.1438C7.9653 36.3221 0 55.5516 0 75.6027V531.356C0.0297758 551.387 8.00822 570.589 22.1833 584.743C36.3584 598.897 55.5713 606.847 75.603 606.847H386.331C396.262 606.85 406.096 604.898 415.272 601.1C424.447 597.302 432.785 591.734 439.809 584.713C446.832 577.692 452.403 569.357 456.204 560.182C460.006 551.008 461.962 541.175 461.962 531.244V138.254L392.399 138.367Z" fill="#048739"/>
</g>
<path d="M461.966 138.367H392.403C377.043 138.352 362.317 132.243 351.456 121.382C340.595 110.521 334.487 95.7947 334.472 80.4349V0L461.966 138.367Z" fill="#048739"/>
<path d="M516.774 479.325H165.477C140.558 479.325 120.357 499.526 120.357 524.445V629.182C120.357 654.101 140.558 674.302 165.477 674.302H516.774C541.693 674.302 561.894 654.101 561.894 629.182V524.445C561.894 499.526 541.693 479.325 516.774 479.325Z" fill="#048739"/>
<path d="M226.135 598.756V619.124H205.092V598.756H226.135Z" fill="white"/>
<path d="M301.737 542.622C308.847 548.376 313.677 556.473 315.363 565.463H293.842C292.407 561.733 289.868 558.528 286.566 556.276C283.091 553.998 279.004 552.832 274.85 552.933C272.111 552.85 269.39 553.397 266.896 554.532C264.402 555.667 262.202 557.359 260.466 559.479C256.605 564.47 254.661 570.681 254.987 576.982C254.659 583.259 256.604 589.443 260.466 594.401C262.209 596.509 264.412 598.189 266.905 599.314C269.398 600.439 272.116 600.978 274.85 600.89C279.004 600.992 283.091 599.826 286.566 597.547C289.867 595.341 292.423 592.188 293.898 588.501H315.419C313.698 597.462 308.873 605.53 301.793 611.286C294.196 617.126 284.789 620.109 275.215 619.714C267.675 619.88 260.23 618.006 253.667 614.292C247.517 610.736 242.537 605.464 239.338 599.121C235.876 592.233 234.14 584.606 234.281 576.898C234.137 569.181 235.872 561.543 239.338 554.647C242.537 548.304 247.517 543.032 253.667 539.476C260.23 535.761 267.675 533.888 275.215 534.054C284.785 533.724 294.169 536.756 301.737 542.622Z" fill="white"/>
<path d="M383.859 607.689C381.437 611.554 377.969 614.651 373.857 616.623C368.852 618.966 363.367 620.101 357.843 619.938C349.524 620.275 341.327 617.856 334.525 613.055C331.52 610.797 329.062 607.893 327.331 604.557C325.6 601.221 324.64 597.539 324.523 593.783H346.184C346.334 596.613 347.548 599.282 349.583 601.256C351.596 603.14 354.273 604.15 357.028 604.065C359.287 604.18 361.503 603.415 363.209 601.93C363.95 601.198 364.531 600.321 364.918 599.354C365.304 598.388 365.488 597.352 365.457 596.311C365.483 595.328 365.313 594.349 364.956 593.432C364.599 592.515 364.062 591.68 363.378 590.973C361.902 589.474 360.146 588.281 358.209 587.461C356.129 586.534 353.292 585.438 349.64 584.174C345.181 582.707 340.826 580.943 336.604 578.892C333.134 577.098 330.154 574.485 327.922 571.279C325.355 567.389 324.087 562.785 324.298 558.13C324.183 553.514 325.509 548.978 328.091 545.15C330.746 541.411 334.396 538.491 338.626 536.722C343.522 534.741 348.771 533.785 354.05 533.913C362.032 533.49 369.914 535.842 376.358 540.571C379.108 542.801 381.36 545.584 382.967 548.739C384.574 551.895 385.5 555.352 385.685 558.888H363.687C363.416 556.417 362.352 554.101 360.653 552.287C359.774 551.455 358.736 550.809 357.602 550.389C356.467 549.969 355.259 549.783 354.05 549.842C351.951 549.735 349.886 550.416 348.263 551.752C347.503 552.467 346.912 553.343 346.533 554.315C346.154 555.287 345.997 556.331 346.072 557.371C346.048 558.302 346.209 559.23 346.547 560.098C346.884 560.966 347.391 561.758 348.038 562.428C349.431 563.895 351.115 565.053 352.983 565.828C354.95 566.699 357.815 567.823 361.411 569.172C365.952 570.632 370.376 572.435 374.644 574.566C378.144 576.448 381.156 579.122 383.438 582.376C386.043 586.314 387.331 590.976 387.118 595.693C387.139 599.913 386.012 604.06 383.859 607.689Z" fill="white"/>
<path d="M414.229 535.008L434.822 598.306L455.415 535.008H477.189L447.914 619.124H421.617L392.455 535.008H414.229Z" fill="white"/>
<path d="M334.016 423.669H127.941C110.101 423.669 95.604 405.913 95.604 384.055V234.619C95.604 212.79 110.101 195.034 127.941 195.034H334.016C351.856 195.034 366.353 212.79 366.353 234.619V384.055C366.353 405.913 351.856 423.669 334.016 423.669ZM127.941 215.262C119.232 215.262 112.124 223.943 112.124 234.619V384.055C112.124 394.731 119.232 403.413 127.941 403.413H334.016C342.726 403.413 349.805 394.731 349.805 384.055V234.619C349.805 223.943 342.726 215.262 334.016 215.262H127.941Z" fill="#048739"/>
<path d="M358.097 333.682H103.868V353.938H358.097V333.682Z" fill="#048739"/>
<path d="M358.097 264.231H103.868V284.488H358.097V264.231Z" fill="#048739"/>
<path d="M293.001 205.148H272.745V413.527H293.001V205.148Z" fill="#048739"/>
<path d="M189.221 205.148H168.964V413.527H189.221V205.148Z" fill="#048739"/>
</svg>
