<svg width="553" height="675" viewBox="0 0 553 675" fill="none" xmlns="http://www.w3.org/2000/svg">
<g opacity="0.3">
<path opacity="0.3" d="M386.046 138.385C370.941 138.37 356.459 132.258 345.779 121.39C335.099 110.522 329.092 95.7868 329.077 80.4176V0.00012207H74.6671C54.9589 0.00012207 36.0577 7.96632 22.1219 22.1464C8.18603 36.3266 0.357422 55.5592 0.357422 75.6129V531.424C0.357422 551.478 8.18603 570.71 22.1219 584.891C36.0577 599.071 54.9589 607.037 74.6671 607.037H380.081C399.789 607.037 418.69 599.071 432.626 584.891C446.562 570.71 454.391 551.478 454.391 531.424V138.385H386.046Z" fill="#09A3A3"/>
</g>
<path d="M454.391 138.384H386.046C370.941 138.37 356.46 132.258 345.779 121.39C335.099 110.522 329.092 95.7867 329.077 80.4175V0L454.391 138.384Z" fill="#09A3A3"/>
<path d="M508.294 479.386H163.005C138.512 479.386 118.657 499.589 118.657 524.512V629.262C118.657 654.185 138.512 674.388 163.005 674.388H508.294C532.787 674.388 552.643 654.185 552.643 629.262V524.512C552.643 499.589 532.787 479.386 508.294 479.386Z" fill="#09A3A3"/>
<path d="M246.53 599.562V619.99H225.717V599.562H246.53Z" fill="white"/>
<path d="M326.657 599.619C323.204 606.006 317.974 611.216 311.621 614.595C304.486 618.335 296.539 620.19 288.514 619.99H257.004V535.498H288.375C296.404 535.283 304.361 537.087 311.538 540.753C317.854 544.086 323.064 549.236 326.519 555.561C330.102 562.313 331.911 569.891 331.771 577.562C331.947 585.237 330.186 592.831 326.657 599.619ZM305.042 595.376C307.288 593.031 309.028 590.235 310.151 587.168C311.274 584.1 311.756 580.829 311.566 577.562C311.756 574.295 311.274 571.023 310.151 567.955C309.028 564.888 307.288 562.093 305.042 559.747C299.996 555.279 293.424 553.008 286.745 553.425H277.237V601.698H286.745C293.377 602.077 299.893 599.809 304.904 595.376H305.042Z" fill="white"/>
<path d="M363.172 604.34H389.983V619.991H342.995V535.499H363.089L363.172 604.34Z" fill="white"/>
<path d="M419.313 604.34H446.123V619.991H399.135V535.499H419.23L419.313 604.34Z" fill="white"/>
<path d="M189.194 447.888C186.042 447.888 183.019 446.615 180.79 444.349C178.561 442.083 177.309 439.01 177.309 435.806V417.233C177.309 415.647 177.617 414.077 178.215 412.613C178.812 411.149 179.688 409.819 180.792 408.699C181.896 407.579 183.206 406.692 184.648 406.088C186.09 405.484 187.635 405.175 189.194 405.178C192.339 405.178 195.355 406.448 197.579 408.709C199.803 410.97 201.052 414.036 201.052 417.233V435.806C201.052 439.005 199.804 442.074 197.581 444.339C195.358 446.604 192.342 447.881 189.194 447.888Z" fill="#09A3A3"/>
<path d="M189.194 298.123C187.635 298.127 186.09 297.818 184.648 297.214C183.206 296.61 181.896 295.722 180.792 294.603C179.688 293.483 178.812 292.153 178.215 290.688C177.617 289.224 177.309 287.654 177.309 286.069V264.461C177.309 261.257 178.561 258.184 180.79 255.918C183.019 253.652 186.042 252.379 189.194 252.379C192.342 252.386 195.358 253.663 197.581 255.928C199.804 258.193 201.052 261.262 201.052 264.461V286.069C201.052 289.266 199.803 292.332 197.579 294.593C195.355 296.853 192.339 298.123 189.194 298.123Z" fill="#09A3A3"/>
<path d="M231.315 436.423C229.227 436.42 227.176 435.861 225.367 434.801C223.558 433.741 222.054 432.218 221.005 430.382L212.16 414.759C210.587 411.987 210.16 408.692 210.973 405.6C211.787 402.508 213.774 399.87 216.499 398.266C219.23 396.668 222.474 396.239 225.516 397.071C228.559 397.904 231.151 399.93 232.724 402.705L241.597 418.3C243.168 421.076 243.59 424.373 242.772 427.466C241.953 430.559 239.959 433.194 237.229 434.793C235.434 435.859 233.393 436.421 231.315 436.423Z" fill="#09A3A3"/>
<path d="M158.001 307.172C155.911 307.175 153.859 306.618 152.049 305.558C150.239 304.497 148.735 302.97 147.691 301.131L136.828 281.968C136.046 280.598 135.538 279.084 135.333 277.514C135.128 275.944 135.229 274.348 135.633 272.818C136.036 271.288 136.732 269.854 137.682 268.599C138.632 267.343 139.817 266.291 141.168 265.502C142.518 264.706 144.008 264.189 145.555 263.98C147.102 263.771 148.674 263.874 150.181 264.284C151.688 264.694 153.101 265.402 154.338 266.368C155.576 267.334 156.614 268.539 157.393 269.914L168.255 289.077C169.038 290.449 169.547 291.964 169.752 293.537C169.958 295.109 169.856 296.707 169.453 298.239C169.049 299.771 168.353 301.208 167.403 302.466C166.453 303.724 165.268 304.779 163.916 305.57C162.117 306.624 160.076 307.176 158.001 307.172Z" fill="#09A3A3"/>
<path d="M262.138 405.038C260.051 405.034 258.002 404.471 256.196 403.408L240.828 394.389C238.105 392.79 236.118 390.158 235.304 387.07C234.49 383.982 234.916 380.692 236.489 377.923C238.062 375.148 240.655 373.122 243.697 372.289C246.739 371.457 249.982 371.887 252.713 373.484L268.081 382.503C270.806 384.107 272.793 386.745 273.607 389.838C274.421 392.93 273.994 396.224 272.421 398.997C271.383 400.836 269.885 402.363 268.079 403.424C266.273 404.485 264.224 405.042 262.138 405.038Z" fill="#09A3A3"/>
<path d="M135.088 330.436C133.01 330.427 130.971 329.865 129.173 328.807L110.323 317.764C107.598 316.16 105.61 313.522 104.797 310.429C103.983 307.337 104.41 304.043 105.984 301.27C107.557 298.495 110.149 296.468 113.192 295.636C116.234 294.803 119.477 295.233 122.208 296.831L141.059 307.901C143.784 309.505 145.771 312.143 146.585 315.235C147.398 318.328 146.972 321.622 145.398 324.395C144.354 326.234 142.85 327.761 141.04 328.822C139.23 329.882 137.177 330.439 135.088 330.436Z" fill="#09A3A3"/>
<path d="M273.407 362.216H255.11C251.96 362.208 248.941 360.933 246.713 358.669C244.486 356.404 243.232 353.336 243.225 350.133C243.232 346.934 244.487 343.868 246.715 341.608C248.943 339.348 251.963 338.079 255.11 338.079H273.407C276.555 338.079 279.574 339.348 281.802 341.608C284.03 343.868 285.285 346.934 285.293 350.133C285.285 353.336 284.031 356.404 281.803 358.669C279.576 360.933 276.557 362.208 273.407 362.216Z" fill="#09A3A3"/>
<path d="M126.226 362.216H104.999C101.849 362.208 98.8305 360.933 96.6032 358.669C94.3759 356.404 93.1211 353.336 93.1138 350.133C93.1211 346.934 94.3764 343.868 96.6045 341.608C98.8327 339.348 101.852 338.079 104.999 338.079H126.226C129.371 338.079 132.387 339.349 134.611 341.61C136.835 343.871 138.084 346.936 138.084 350.133C138.084 353.333 136.836 356.402 134.613 358.667C132.39 360.932 129.374 362.208 126.226 362.216Z" fill="#09A3A3"/>
<path d="M245.473 329.144C243.383 329.147 241.33 328.59 239.52 327.529C237.71 326.469 236.207 324.942 235.162 323.102C234.385 321.73 233.882 320.215 233.68 318.645C233.479 317.074 233.584 315.479 233.99 313.95C234.396 312.42 235.094 310.988 236.044 309.733C236.995 308.478 238.179 307.426 239.53 306.637L256.114 296.831C258.844 295.233 262.088 294.803 265.13 295.636C268.173 296.468 270.765 298.495 272.339 301.27C273.912 304.043 274.339 307.337 273.525 310.429C272.711 313.522 270.724 316.16 267.999 317.764L251.415 327.542C249.61 328.604 247.558 329.157 245.473 329.144Z" fill="#09A3A3"/>
<path d="M116.266 405.038C114.181 405.036 112.133 404.476 110.329 403.416C108.524 402.356 107.026 400.832 105.984 398.997C104.41 396.224 103.983 392.93 104.797 389.837C105.61 386.745 107.598 384.107 110.323 382.503L127.902 372.191C130.631 370.598 133.869 370.169 136.909 370.996C139.949 371.822 142.543 373.838 144.126 376.602C145.7 379.375 146.127 382.669 145.313 385.762C144.5 388.854 142.512 391.492 139.787 393.096L122.208 403.408C120.402 404.471 118.353 405.033 116.266 405.038Z" fill="#09A3A3"/>
<path d="M190.647 429.315H188.742C175.17 429.015 161.928 424.997 150.413 417.682C139.029 410.501 129.698 400.405 123.351 388.404C117.419 377.103 114.309 364.491 114.294 351.679C114.294 351.005 114.294 350.386 114.294 349.74C114.621 336.536 118.251 323.635 124.842 312.257C131.425 300.894 140.737 291.419 151.904 284.72C163.133 278.008 175.86 274.324 188.88 274.015H190.62C203.227 273.999 215.64 277.176 226.739 283.26C238.524 289.695 248.438 299.172 255.486 310.74C262.69 322.512 266.639 336.044 266.918 349.909C266.918 350.387 266.918 351.005 266.918 351.679C266.92 365.093 263.505 378.279 257.004 389.949C250.209 402.197 240.261 412.329 228.23 419.255C216.766 425.854 203.818 429.32 190.647 429.315ZM190.343 298.123H189.598C180.586 298.309 171.773 300.844 164 305.485C156.289 310.105 149.857 316.641 145.305 324.48C140.751 332.353 138.25 341.281 138.042 350.414C138.042 350.92 138.042 351.286 138.042 351.651C138.045 360.471 140.178 369.156 144.255 376.94C148.636 385.234 155.083 392.211 162.95 397.17C170.916 402.199 180.06 404.964 189.432 405.178H190.647C199.735 405.189 208.67 402.797 216.577 398.238C224.88 393.457 231.744 386.462 236.432 378.007C240.908 369.97 243.258 360.889 243.253 351.651V350.583C243.048 340.984 240.331 331.615 235.382 323.44C230.503 315.464 223.658 308.926 215.528 304.474C207.774 300.283 199.123 298.102 190.343 298.123Z" fill="#09A3A3"/>
<path d="M221.117 305.907C219.041 305.912 217 305.359 215.201 304.306C213.849 303.514 212.664 302.459 211.714 301.201C210.764 299.943 210.068 298.507 209.665 296.975C209.261 295.442 209.159 293.844 209.365 292.272C209.571 290.7 210.08 289.184 210.862 287.812L221.006 269.914C221.785 268.539 222.823 267.334 224.06 266.368C225.298 265.402 226.71 264.694 228.218 264.284C229.725 263.874 231.297 263.771 232.844 263.98C234.39 264.189 235.881 264.706 237.23 265.502C238.581 266.291 239.766 267.343 240.716 268.598C241.667 269.853 242.365 271.286 242.771 272.815C243.176 274.344 243.282 275.939 243.08 277.51C242.879 279.08 242.375 280.595 241.598 281.968L231.426 299.866C230.382 301.705 228.879 303.232 227.069 304.293C225.259 305.354 223.206 305.91 221.117 305.907Z" fill="#09A3A3"/>
<path d="M147.11 436.423C145.032 436.422 142.991 435.86 141.196 434.794C139.844 434.002 138.659 432.947 137.708 431.689C136.758 430.431 136.061 428.995 135.658 427.463C135.255 425.93 135.153 424.332 135.359 422.76C135.564 421.188 136.073 419.672 136.856 418.3L146.447 401.441C147.226 400.067 148.264 398.862 149.501 397.896C150.739 396.93 152.151 396.222 153.659 395.812C155.166 395.402 156.738 395.299 158.284 395.508C159.831 395.717 161.322 396.234 162.671 397.03C165.396 398.634 167.384 401.271 168.198 404.364C169.012 407.456 168.585 410.751 167.011 413.524L157.42 430.383C156.375 432.222 154.873 433.749 153.063 434.809C151.253 435.87 149.2 436.426 147.11 436.423Z" fill="#09A3A3"/>
<path d="M298.543 282.839C296.622 282.839 294.78 282.063 293.422 280.682C292.064 279.302 291.301 277.429 291.301 275.477V264.237C291.301 263.272 291.489 262.316 291.853 261.425C292.217 260.533 292.751 259.723 293.424 259.042C294.097 258.36 294.895 257.821 295.773 257.454C296.652 257.087 297.593 256.9 298.543 256.904C300.456 256.904 302.291 257.676 303.644 259.052C304.997 260.427 305.756 262.292 305.756 264.237V275.477C305.76 276.442 305.576 277.399 305.215 278.292C304.854 279.185 304.324 279.996 303.654 280.68C302.984 281.364 302.187 281.907 301.309 282.277C300.432 282.648 299.492 282.839 298.543 282.839Z" fill="#09A3A3"/>
<path d="M298.543 191.715C297.593 191.718 296.652 191.531 295.773 191.165C294.895 190.798 294.097 190.258 293.424 189.577C292.751 188.895 292.217 188.086 291.853 187.194C291.489 186.302 291.301 185.347 291.301 184.381V171.231C291.301 169.278 292.064 167.406 293.422 166.026C294.78 164.645 296.622 163.869 298.543 163.869C299.492 163.869 300.432 164.06 301.309 164.43C302.187 164.801 302.984 165.343 303.654 166.027C304.324 166.711 304.854 167.523 305.215 168.416C305.576 169.309 305.76 170.265 305.756 171.231V184.381C305.756 186.326 304.997 188.192 303.644 189.567C302.291 190.942 300.456 191.715 298.543 191.715Z" fill="#09A3A3"/>
<path d="M324.174 275.841C322.905 275.845 321.657 275.509 320.556 274.868C319.455 274.227 318.539 273.303 317.9 272.188L312.51 262.691C311.565 260.984 311.326 258.966 311.844 257.08C312.362 255.194 313.596 253.594 315.274 252.632C316.103 252.157 317.016 251.853 317.961 251.738C318.906 251.622 319.864 251.697 320.781 251.958C321.697 252.219 322.554 252.661 323.302 253.258C324.05 253.856 324.675 254.598 325.141 255.442L330.669 264.939C331.136 265.782 331.435 266.71 331.549 267.671C331.663 268.631 331.589 269.605 331.333 270.537C331.076 271.469 330.641 272.34 330.053 273.101C329.465 273.861 328.735 274.496 327.905 274.97C326.763 275.602 325.473 275.904 324.174 275.841Z" fill="#09A3A3"/>
<path d="M279.661 197.222C278.389 197.22 277.141 196.879 276.04 196.233C274.939 195.587 274.024 194.659 273.386 193.542L266.781 181.881C266.314 181.038 266.014 180.109 265.901 179.149C265.787 178.188 265.86 177.214 266.117 176.283C266.374 175.351 266.809 174.48 267.397 173.719C267.985 172.959 268.715 172.324 269.545 171.85C270.373 171.371 271.286 171.064 272.232 170.947C273.177 170.829 274.137 170.903 275.054 171.164C275.972 171.425 276.829 171.869 277.577 172.469C278.325 173.069 278.948 173.813 279.412 174.66L286.018 186.321C286.485 187.164 286.784 188.092 286.898 189.052C287.012 190.013 286.938 190.987 286.681 191.918C286.425 192.85 285.99 193.721 285.402 194.482C284.814 195.242 284.084 195.878 283.254 196.351C282.148 196.947 280.912 197.246 279.661 197.222Z" fill="#09A3A3"/>
<path d="M342.927 256.763C341.656 256.769 340.406 256.429 339.307 255.779L329.964 250.16C329.135 249.686 328.405 249.05 327.817 248.29C327.228 247.529 326.794 246.658 326.537 245.726C326.28 244.795 326.207 243.821 326.32 242.86C326.434 241.9 326.733 240.971 327.2 240.128C327.664 239.282 328.287 238.538 329.035 237.938C329.783 237.338 330.641 236.894 331.558 236.633C332.476 236.372 333.435 236.298 334.38 236.415C335.326 236.533 336.24 236.84 337.068 237.319L346.41 242.938C347.243 243.409 347.975 244.043 348.565 244.804C349.156 245.564 349.592 246.436 349.849 247.368C350.106 248.301 350.179 249.276 350.063 250.238C349.947 251.199 349.645 252.127 349.174 252.97C348.559 254.11 347.656 255.062 346.558 255.729C345.46 256.396 344.207 256.753 342.927 256.763Z" fill="#09A3A3"/>
<path d="M265.637 211.356C264.365 211.362 263.116 211.023 262.017 210.372L250.545 203.657C249.716 203.183 248.986 202.548 248.398 201.787C247.81 201.027 247.375 200.155 247.118 199.224C246.861 198.292 246.788 197.318 246.902 196.358C247.015 195.397 247.315 194.469 247.781 193.626C248.728 191.92 250.302 190.666 252.157 190.139C254.012 189.613 255.998 189.856 257.677 190.816L269.12 197.532C270.797 198.494 272.031 200.094 272.55 201.98C273.068 203.866 272.828 205.884 271.884 207.591C271.263 208.724 270.358 209.669 269.261 210.331C268.163 210.992 266.913 211.346 265.637 211.356Z" fill="#09A3A3"/>
<path d="M349.778 230.715H338.722C337.772 230.715 336.832 230.525 335.955 230.154C335.078 229.784 334.281 229.241 333.611 228.557C332.941 227.873 332.41 227.061 332.049 226.168C331.688 225.275 331.504 224.319 331.508 223.353C331.508 221.408 332.268 219.543 333.621 218.168C334.974 216.792 336.808 216.02 338.722 216.02H349.778C350.727 216.016 351.669 216.203 352.547 216.57C353.425 216.937 354.224 217.476 354.897 218.158C355.569 218.839 356.103 219.649 356.468 220.541C356.832 221.432 357.02 222.388 357.02 223.353C357.02 225.306 356.257 227.179 354.899 228.559C353.541 229.94 351.698 230.715 349.778 230.715Z" fill="#09A3A3"/>
<path d="M260.337 230.715H247.401C246.452 230.715 245.511 230.525 244.634 230.154C243.757 229.784 242.961 229.241 242.29 228.557C241.62 227.873 241.089 227.061 240.728 226.168C240.367 225.275 240.183 224.319 240.187 223.353C240.187 222.39 240.374 221.437 240.736 220.547C241.099 219.657 241.63 218.849 242.3 218.168C242.97 217.487 243.766 216.947 244.641 216.578C245.516 216.21 246.454 216.02 247.401 216.02H260.337C262.25 216.02 264.085 216.792 265.438 218.168C266.791 219.543 267.551 221.408 267.551 223.353C267.555 224.319 267.371 225.275 267.01 226.168C266.649 227.061 266.118 227.873 265.448 228.557C264.777 229.241 263.981 229.784 263.104 230.154C262.227 230.525 261.286 230.715 260.337 230.715Z" fill="#09A3A3"/>
<path d="M332.784 210.738C331.513 210.736 330.265 210.395 329.164 209.749C328.063 209.103 327.148 208.175 326.51 207.057C326.043 206.214 325.744 205.286 325.63 204.325C325.516 203.365 325.59 202.391 325.847 201.459C326.103 200.528 326.538 199.656 327.126 198.896C327.714 198.135 328.444 197.5 329.274 197.026L339.418 191.069C340.247 190.594 341.161 190.291 342.105 190.175C343.05 190.059 344.008 190.134 344.925 190.395C345.841 190.656 346.698 191.098 347.447 191.696C348.195 192.294 348.819 193.035 349.285 193.879C349.756 194.721 350.058 195.65 350.174 196.611C350.29 197.572 350.217 198.547 349.96 199.48C349.703 200.413 349.267 201.284 348.677 202.045C348.087 202.805 347.354 203.439 346.521 203.91L336.378 209.867C335.272 210.462 334.035 210.762 332.784 210.738Z" fill="#09A3A3"/>
<path d="M254.167 256.763C252.899 256.764 251.653 256.424 250.556 255.778C249.459 255.131 248.549 254.201 247.92 253.082C247.44 252.249 247.127 251.328 246.999 250.372C246.872 249.415 246.931 248.442 247.176 247.51C247.42 246.577 247.844 245.703 248.422 244.938C249 244.172 249.722 243.531 250.546 243.051L261.243 236.785C262.071 236.306 262.984 235.999 263.93 235.882C264.875 235.764 265.835 235.838 266.752 236.099C267.67 236.36 268.527 236.804 269.275 237.404C270.023 238.004 270.646 238.748 271.11 239.595C271.577 240.438 271.876 241.366 271.99 242.327C272.103 243.287 272.03 244.261 271.773 245.193C271.516 246.124 271.082 246.995 270.494 247.756C269.905 248.517 269.175 249.152 268.346 249.626L257.677 255.92C256.595 256.496 255.388 256.786 254.167 256.763Z" fill="#09A3A3"/>
<path d="M299.42 271.542H298.232C289.987 271.36 281.944 268.913 274.954 264.462C267.987 260.11 262.272 253.965 258.385 246.647C254.753 239.732 252.855 232.01 252.862 224.169V222.96C253.063 214.931 255.278 207.086 259.296 200.173C263.315 193.207 269.019 187.403 275.865 183.314C282.701 179.231 290.446 176.988 298.371 176.795H299.42C307.128 176.77 314.721 178.702 321.511 182.415C328.702 186.371 334.741 192.186 339.019 199.274C343.383 206.444 345.785 214.67 345.978 223.101V224.197C345.983 232.351 343.909 240.368 339.958 247.462C335.817 254.922 329.754 261.091 322.423 265.305C315.42 269.387 307.49 271.537 299.42 271.542ZM299.227 191.715H298.812C293.32 191.808 287.945 193.348 283.21 196.183C278.513 198.996 274.598 202.98 271.833 207.759C269.066 212.545 267.545 217.971 267.415 223.522V224.281C267.412 229.652 268.711 234.941 271.198 239.679C273.864 244.709 277.777 248.942 282.548 251.958C287.4 255.02 292.967 256.708 298.674 256.847H299.42C304.945 256.851 310.378 255.399 315.188 252.632C320.242 249.723 324.423 245.468 327.283 240.325C329.994 235.428 331.421 229.902 331.425 224.281V223.607C331.3 217.775 329.651 212.082 326.648 207.113C323.674 202.256 319.504 198.275 314.552 195.564C309.835 193.01 304.57 191.688 299.227 191.715Z" fill="#09A3A3"/>
<path d="M317.956 196.436C316.693 196.438 315.453 196.099 314.362 195.452C313.533 194.979 312.803 194.343 312.214 193.582C311.626 192.822 311.192 191.951 310.935 191.019C310.678 190.087 310.605 189.114 310.718 188.153C310.832 187.192 311.131 186.264 311.598 185.421L317.79 174.547C318.256 173.703 318.88 172.962 319.629 172.364C320.377 171.766 321.234 171.324 322.15 171.063C323.067 170.802 324.025 170.727 324.97 170.843C325.915 170.959 326.827 171.262 327.657 171.737C328.487 172.211 329.217 172.846 329.805 173.607C330.393 174.367 330.827 175.239 331.084 176.17C331.341 177.102 331.415 178.076 331.301 179.036C331.187 179.997 330.888 180.925 330.421 181.768L324.229 192.67C323.609 193.809 322.7 194.759 321.597 195.421C320.494 196.083 319.237 196.434 317.956 196.436Z" fill="#09A3A3"/>
<path d="M272.917 275.842C271.655 275.844 270.414 275.505 269.324 274.858C268.494 274.384 267.764 273.749 267.176 272.988C266.588 272.228 266.153 271.357 265.896 270.425C265.64 269.494 265.566 268.52 265.68 267.559C265.794 266.599 266.093 265.67 266.56 264.827L272.392 254.543C272.858 253.699 273.483 252.958 274.231 252.36C274.979 251.762 275.836 251.32 276.753 251.059C277.669 250.798 278.627 250.723 279.572 250.839C280.517 250.955 281.43 251.258 282.259 251.733C283.089 252.207 283.819 252.843 284.407 253.603C284.995 254.364 285.43 255.235 285.687 256.166C285.943 257.098 286.017 258.072 285.903 259.033C285.789 259.993 285.49 260.921 285.023 261.765L279.191 272.076C278.562 273.208 277.651 274.151 276.55 274.812C275.448 275.473 274.196 275.828 272.917 275.842Z" fill="#09A3A3"/>
</svg>
