<svg width="553" height="664" viewBox="0 0 553 664" fill="none" xmlns="http://www.w3.org/2000/svg">
<g opacity="0.3">
<path opacity="0.3" d="M385.688 136.127C370.589 136.105 356.114 130.09 345.44 119.4C334.765 108.711 328.763 94.2195 328.748 79.1058V5.13611e-06H74.3377C64.5769 -0.00362547 54.9107 1.91758 45.8919 5.65387C36.873 9.39015 28.6781 14.8682 21.7749 21.7753C14.8716 28.6824 9.39552 36.8831 5.65937 45.9091C1.92322 54.935 -6.73954e-07 64.6095 0 74.3795V522.756C-6.73953e-07 532.526 1.92322 542.2 5.65937 551.226C9.39552 560.252 14.8716 568.453 21.7749 575.36C28.6781 582.267 36.873 587.745 45.8919 591.482C54.9107 595.218 64.5769 597.139 74.3377 597.136H379.751C389.51 597.136 399.173 595.212 408.188 591.474C417.204 587.736 425.396 582.257 432.297 575.35C439.197 568.443 444.67 560.244 448.405 551.22C452.139 542.196 454.061 532.524 454.061 522.756V136.127H385.688Z" fill="#09A3A3"/>
</g>
<path d="M454.062 136.127H385.689C370.59 136.105 356.115 130.09 345.44 119.4C334.766 108.71 328.763 94.2194 328.749 79.1057V-0.00012207L454.062 136.127Z" fill="#09A3A3"/>
<path d="M507.964 471.566H162.675C138.182 471.566 118.327 491.44 118.327 515.956V618.998C118.327 643.514 138.182 663.388 162.675 663.388H507.964C532.457 663.388 552.313 643.514 552.313 618.998V515.956C552.313 491.44 532.457 471.566 507.964 471.566Z" fill="#09A3A3"/>
<path d="M245.621 589.783V609.877H224.808V589.783H245.621Z" fill="white"/>
<path d="M322.658 589.838C319.205 596.121 313.974 601.246 307.622 604.57C300.486 608.248 292.54 610.073 284.514 609.877H253.005V526.763H284.376C292.405 526.551 300.362 528.326 307.539 531.932C313.854 535.211 319.064 540.277 322.519 546.498C326.102 553.14 327.912 560.595 327.771 568.141C327.948 575.691 326.187 583.161 322.658 589.838ZM301.043 585.664C303.288 583.357 305.028 580.607 306.151 577.59C307.274 574.573 307.757 571.354 307.566 568.141C307.757 564.927 307.274 561.708 306.151 558.691C305.028 555.674 303.288 552.924 301.043 550.616C295.997 546.222 289.425 543.988 282.746 544.397H273.238V591.883H282.746C289.378 592.256 295.893 590.025 300.905 585.664H301.043Z" fill="white"/>
<path d="M216.772 402.439C190.737 402.41 165.778 392.045 147.369 373.618C128.96 355.192 118.605 330.21 118.575 304.151C118.605 278.092 128.96 253.109 147.369 234.683C165.778 216.257 190.737 205.892 216.772 205.863C242.806 205.892 267.766 216.257 286.175 234.683C304.584 253.109 314.939 278.092 314.968 304.151C314.939 330.21 304.584 355.192 286.175 373.618C267.766 392.045 242.806 402.41 216.772 402.439ZM216.772 211.722C192.317 211.744 168.871 221.478 151.578 238.786C134.286 256.094 124.562 279.563 124.54 304.04C124.569 328.515 134.296 351.98 151.587 369.287C168.877 386.593 192.319 396.329 216.772 396.358C241.224 396.329 264.667 386.593 281.957 369.287C299.248 351.98 308.974 328.515 309.004 304.04C308.952 279.582 299.215 256.142 281.926 238.857C264.637 221.573 241.207 211.855 216.772 211.833V211.722Z" fill="#09A3A3"/>
<path d="M216.911 208.323V286.489C212.235 286.496 207.754 288.36 204.451 291.671C201.148 294.983 199.293 299.471 199.293 304.151C199.294 307.223 200.093 310.242 201.612 312.912L134.316 351.802L132.825 349.038C125.383 335.15 121.493 319.633 121.503 303.874C121.503 303.1 121.503 302.382 121.503 301.663C121.84 285.336 126.377 269.371 134.675 255.311C142.932 241.334 154.588 229.677 168.558 221.424C182.602 213.134 198.539 208.594 214.839 208.24L216.911 208.323Z" fill="#09A3A3"/>
<path d="M312.455 304.04C312.467 320.511 308.204 336.702 300.084 351.028C291.567 366.127 279.098 378.616 264.02 387.153C249.669 395.34 233.428 399.628 216.91 399.591V321.785C221.556 321.741 225.998 319.865 229.271 316.563C232.543 313.262 234.383 308.802 234.39 304.151C234.404 301.03 233.574 297.964 231.987 295.278L299.67 256.14C307.695 270.032 312.084 285.73 312.428 301.774C312.455 302.492 312.455 303.211 312.455 304.04Z" fill="#09A3A3"/>
<path d="M216.784 316.202C213.588 316.202 210.523 314.932 208.263 312.672C206.003 310.412 204.733 307.347 204.733 304.151C204.733 300.952 206.002 297.884 208.261 295.619C210.52 293.355 213.585 292.079 216.784 292.072C219.982 292.079 223.048 293.355 225.307 295.619C227.566 297.884 228.835 300.952 228.835 304.151C228.835 307.347 227.565 310.412 225.305 312.672C223.045 314.932 219.98 316.202 216.784 316.202ZM216.784 298.07C215.171 298.07 213.625 298.71 212.484 299.851C211.344 300.991 210.703 302.538 210.703 304.151C210.71 305.761 211.353 307.304 212.492 308.442C213.631 309.581 215.173 310.224 216.784 310.231C218.394 310.224 219.937 309.581 221.075 308.442C222.214 307.304 222.857 305.761 222.865 304.151C222.865 303.352 222.707 302.561 222.402 301.824C222.096 301.086 221.648 300.415 221.084 299.851C220.519 299.286 219.849 298.838 219.111 298.533C218.373 298.227 217.582 298.07 216.784 298.07Z" fill="#09A3A3"/>
<path d="M427.109 527.345V609.878H407.034V558.329L389.195 609.961H371.798L353.821 558.218V609.961H333.69V527.427H358.239L380.662 584.919L402.753 527.427L427.109 527.345Z" fill="white"/>
<path d="M500.336 533.452C507.036 538.482 511.548 545.893 512.939 554.154H491.657C490.267 551.188 488.012 548.712 485.189 547.051C482.023 545.171 478.395 544.213 474.713 544.287C471.851 544.17 468.998 544.684 466.357 545.792C463.716 546.9 461.35 548.576 459.428 550.699C455.384 555.539 453.33 561.733 453.679 568.03C453.679 575.935 455.697 582.006 459.732 586.245C462.001 588.445 464.705 590.147 467.671 591.242C470.636 592.337 473.797 592.8 476.952 592.602C481.462 592.684 485.876 591.296 489.528 588.649C493.257 585.864 495.952 581.916 497.185 577.428H471.784V562.972H513.99V582.845C512.366 587.788 509.815 592.375 506.472 596.361C502.835 600.644 498.32 604.094 493.232 606.477C487.476 609.137 481.192 610.459 474.852 610.347C467.139 610.549 459.511 608.709 452.74 605.012C446.545 601.528 441.502 596.312 438.228 590.004C434.711 583.173 432.954 575.573 433.115 567.891C432.977 560.257 434.734 552.707 438.228 545.918C441.496 539.624 446.517 534.41 452.684 530.909C459.354 527.235 466.879 525.395 474.492 525.575C483.745 525.241 492.842 528.014 500.336 533.452Z" fill="white"/>
</svg>
