<svg width="563" height="675" viewBox="0 0 563 675" fill="none" xmlns="http://www.w3.org/2000/svg">
<g opacity="0.3">
<path opacity="0.3" d="M392.571 138.367C377.212 138.352 362.485 132.243 351.624 121.382C340.763 110.521 334.655 95.7948 334.64 80.435V5.22152e-06H75.8031C65.8724 -0.00368511 56.0381 1.94878 46.8623 5.74653C37.6864 9.54429 29.349 15.1128 22.3256 22.1335C15.3023 29.1543 9.73088 37.4899 5.92972 46.6643C2.12856 55.8387 0.171874 65.6721 0.171875 75.6027V531.356C0.171874 541.286 2.12856 551.12 5.92972 560.295C9.73088 569.469 15.3023 577.805 22.3256 584.826C29.349 591.846 37.6864 597.414 46.8623 601.212C56.0381 605.01 65.8724 606.963 75.8031 606.959H386.531C396.459 606.959 406.29 605.004 415.463 601.204C424.635 597.405 432.97 591.836 439.991 584.815C447.011 577.795 452.58 569.461 456.379 560.288C460.178 551.115 462.134 541.284 462.134 531.356V138.367H392.571Z" fill="#0061DA"/>
</g>
<path d="M462.135 138.367H392.572C377.213 138.352 362.486 132.243 351.625 121.382C340.764 110.521 334.656 95.7947 334.641 80.4349V0L462.135 138.367Z" fill="#0061DA"/>
<path d="M367.086 235.237H77.0356C74.2489 235.237 71.5764 234.13 69.6059 232.16C67.6354 230.189 66.5282 227.517 66.5282 224.73C66.5245 223.348 66.7937 221.978 67.3201 220.7C67.8465 219.422 68.6199 218.26 69.596 217.282C70.572 216.303 71.7317 215.527 73.0083 214.997C74.285 214.467 75.6534 214.194 77.0356 214.194H367.086C369.88 214.194 372.56 215.304 374.536 217.28C376.512 219.256 377.622 221.936 377.622 224.73C377.614 227.519 376.501 230.192 374.526 232.162C372.551 234.131 369.876 235.237 367.086 235.237Z" fill="#0061DA"/>
<path d="M367.086 298.086H77.0356C74.2489 298.086 71.5764 296.979 69.6059 295.008C67.6354 293.037 66.5282 290.365 66.5282 287.578C66.5245 286.196 66.7937 284.827 67.3201 283.549C67.8465 282.27 68.6199 281.109 69.596 280.13C70.572 279.151 71.7317 278.375 73.0083 277.845C74.285 277.315 75.6534 277.043 77.0356 277.043H367.086C369.88 277.043 372.56 278.152 374.536 280.128C376.512 282.104 377.622 284.784 377.622 287.578C377.614 290.368 376.501 293.04 374.526 295.009C372.551 296.979 369.876 298.086 367.086 298.086Z" fill="#0061DA"/>
<path d="M367.086 360.933H77.0356C75.6534 360.933 74.285 360.66 73.0083 360.131C71.7317 359.601 70.572 358.825 69.596 357.846C68.6199 356.867 67.8465 355.705 67.3201 354.427C66.7937 353.149 66.5245 351.78 66.5282 350.398C66.5282 347.611 67.6354 344.938 69.6059 342.968C71.5764 340.997 74.2489 339.89 77.0356 339.89H367.086C369.876 339.89 372.551 340.996 374.526 342.966C376.501 344.936 377.614 347.608 377.622 350.398C377.622 353.192 376.512 355.872 374.536 357.847C372.56 359.823 369.88 360.933 367.086 360.933Z" fill="#0061DA"/>
<path d="M252.684 423.781H77.0356C75.6534 423.781 74.285 423.509 73.0083 422.979C71.7317 422.449 70.572 421.672 69.596 420.694C68.6199 419.715 67.8465 418.554 67.3201 417.276C66.7937 415.998 66.5245 414.628 66.5282 413.246C66.5282 410.459 67.6354 407.786 69.6059 405.816C71.5764 403.845 74.2489 402.739 77.0356 402.739H252.684C255.471 402.739 258.144 403.845 260.114 405.816C262.085 407.786 263.192 410.459 263.192 413.246C263.195 414.628 262.926 415.998 262.4 417.276C261.874 418.554 261.1 419.715 260.124 420.694C259.148 421.672 257.988 422.449 256.712 422.979C255.435 423.509 254.066 423.781 252.684 423.781Z" fill="#0061DA"/>
<path d="M516.973 479.325H165.677C140.757 479.325 120.557 499.526 120.557 524.445V629.182C120.557 654.101 140.757 674.302 165.677 674.302H516.973C541.893 674.302 562.093 654.101 562.093 629.182V524.445C562.093 499.526 541.893 479.325 516.973 479.325Z" fill="#0061DA"/>
<path d="M214.307 599.486V619.91H193.152V599.486H214.307Z" fill="white"/>
<path d="M295.615 599.542C292.097 605.93 286.784 611.146 280.332 614.545C273.07 618.258 264.998 620.102 256.844 619.911H224.929V535.43H256.844C265.004 535.228 273.088 537.032 280.388 540.684C286.814 544.02 292.112 549.181 295.615 555.518C299.248 562.262 301.077 569.829 300.925 577.488C301.07 585.172 299.241 592.765 295.615 599.542ZM273.645 595.3C275.929 592.955 277.698 590.161 278.84 587.093C279.982 584.026 280.471 580.755 280.275 577.488C280.472 574.225 279.983 570.957 278.842 567.894C277.7 564.831 275.93 562.042 273.645 559.704C268.526 555.216 261.841 552.933 255.046 553.354H245.41V601.621H255.074C261.854 602.03 268.523 599.76 273.645 595.3Z" fill="white"/>
<path d="M374.367 539.672C380.795 543.323 386.107 548.655 389.734 555.096C393.535 561.899 395.473 569.584 395.353 577.375C395.482 585.185 393.544 592.891 389.734 599.71C386.095 606.176 380.763 611.528 374.31 615.191C367.743 618.941 360.296 620.88 352.733 620.809C345.171 620.876 337.726 618.937 331.157 615.191C324.706 611.535 319.381 606.181 315.761 599.71C311.939 592.896 310 585.187 310.142 577.375C309.996 569.581 311.936 561.889 315.761 555.096C319.399 548.654 324.721 543.322 331.157 539.672C337.726 535.925 345.171 533.986 352.733 534.053C360.314 533.982 367.779 535.921 374.367 539.672ZM336.72 559.619C332.575 564.577 330.467 570.923 330.82 577.375C330.465 583.802 332.575 590.122 336.72 595.047C338.738 597.241 341.213 598.966 343.97 600.102C346.727 601.238 349.699 601.756 352.678 601.621C355.647 601.748 358.608 601.226 361.354 600.09C364.101 598.955 366.566 597.234 368.579 595.047C372.743 590.13 374.874 583.809 374.535 577.375C374.872 570.951 372.764 564.637 368.635 559.703C366.618 557.508 364.143 555.781 361.386 554.646C358.629 553.51 355.656 552.992 352.678 553.129C349.707 552.993 346.741 553.502 343.986 554.623C341.231 555.743 338.752 557.448 336.72 559.619Z" fill="white"/>
<path d="M472.105 543.072C479.23 548.87 484.077 556.999 485.788 566.025H464.154C462.695 562.284 460.139 559.072 456.822 556.81C453.325 554.533 449.221 553.368 445.05 553.467C442.296 553.378 439.557 553.926 437.048 555.066C434.539 556.206 432.327 557.908 430.581 560.041C426.669 565.045 424.676 571.283 424.962 577.628C424.676 583.948 426.67 590.159 430.581 595.131C432.341 597.242 434.558 598.924 437.066 600.049C439.573 601.173 442.304 601.711 445.05 601.621C449.223 601.732 453.33 600.566 456.822 598.278C460.12 596.056 462.675 592.895 464.154 589.203H485.788C484.049 598.202 479.206 606.306 472.105 612.101C464.463 617.935 455.022 620.917 445.415 620.529C437.845 620.689 430.373 618.805 423.782 615.078C417.614 611.493 412.61 606.207 409.37 599.851C405.887 592.88 404.152 585.166 404.313 577.375C404.154 569.585 405.889 561.872 409.37 554.9C412.61 548.544 417.614 543.257 423.782 539.672C430.373 535.945 437.845 534.062 445.415 534.222C455.072 533.966 464.514 537.097 472.105 543.072Z" fill="white"/>
</svg>
