<svg width="563" height="675" viewBox="0 0 563 675" fill="none" xmlns="http://www.w3.org/2000/svg">
<g opacity="0.3">
<path opacity="0.3" d="M392.515 138.367C377.155 138.352 362.428 132.243 351.567 121.382C340.706 110.521 334.598 95.7948 334.583 80.435V5.22152e-06H75.7464C65.8157 -0.00368511 55.9814 1.94878 46.8056 5.74653C37.6298 9.54429 29.292 15.1128 22.2687 22.1335C15.2453 29.1543 9.6739 37.4899 5.87274 46.6643C2.07158 55.8387 0.115234 65.6721 0.115234 75.6027V531.356C0.115234 541.286 2.07158 551.12 5.87274 560.295C9.6739 569.469 15.2453 577.805 22.2687 584.826C29.292 591.846 37.6298 597.414 46.8056 601.212C55.9814 605.01 65.8157 606.963 75.7464 606.959H386.474C406.525 606.959 425.755 598.994 439.934 584.815C454.112 570.637 462.077 551.407 462.077 531.356V138.367H392.515Z" fill="#0061DA"/>
</g>
<path d="M462.079 138.367H392.517C377.157 138.352 362.431 132.243 351.57 121.382C340.709 110.521 334.6 95.7947 334.585 80.4349V0L462.079 138.367Z" fill="#0061DA"/>
<path d="M367.03 235.237H76.9799C74.1931 235.237 71.5206 234.13 69.5501 232.16C67.5796 230.189 66.4724 227.517 66.4724 224.73C66.4688 223.348 66.7379 221.978 67.2643 220.7C67.7907 219.422 68.5641 218.26 69.5402 217.282C70.5162 216.303 71.6756 215.527 72.9522 214.997C74.2289 214.467 75.5976 214.194 76.9799 214.194H367.03C369.824 214.194 372.504 215.304 374.48 217.28C376.456 219.256 377.566 221.936 377.566 224.73C377.558 227.519 376.445 230.192 374.47 232.162C372.495 234.131 369.819 235.237 367.03 235.237Z" fill="#0061DA"/>
<path d="M367.03 298.086H76.9799C74.1931 298.086 71.5206 296.979 69.5501 295.008C67.5796 293.037 66.4724 290.365 66.4724 287.578C66.4688 286.196 66.7379 284.827 67.2643 283.549C67.7907 282.27 68.5641 281.109 69.5402 280.13C70.5162 279.151 71.6756 278.375 72.9522 277.845C74.2289 277.315 75.5976 277.043 76.9799 277.043H367.03C369.824 277.043 372.504 278.152 374.48 280.128C376.456 282.104 377.566 284.784 377.566 287.578C377.558 290.368 376.445 293.04 374.47 295.009C372.495 296.979 369.819 298.086 367.03 298.086Z" fill="#0061DA"/>
<path d="M367.03 360.933H76.9799C75.5976 360.933 74.2289 360.66 72.9522 360.131C71.6756 359.601 70.5162 358.825 69.5402 357.846C68.5641 356.867 67.7907 355.705 67.2643 354.427C66.7379 353.149 66.4688 351.78 66.4724 350.398C66.4724 347.611 67.5796 344.938 69.5501 342.968C71.5206 340.997 74.1931 339.89 76.9799 339.89H367.03C369.819 339.89 372.495 340.996 374.47 342.966C376.445 344.936 377.558 347.608 377.566 350.398C377.566 353.192 376.456 355.872 374.48 357.847C372.504 359.823 369.824 360.933 367.03 360.933Z" fill="#0061DA"/>
<path d="M252.572 423.781H76.9799C75.5976 423.781 74.2289 423.509 72.9522 422.979C71.6756 422.449 70.5162 421.672 69.5402 420.694C68.5641 419.715 67.7907 418.554 67.2643 417.276C66.7379 415.998 66.4688 414.628 66.4724 413.246C66.4724 410.459 67.5796 407.786 69.5501 405.816C71.5206 403.845 74.1931 402.739 76.9799 402.739H252.572C255.359 402.739 258.031 403.845 260.002 405.816C261.972 407.786 263.079 410.459 263.079 413.246C263.083 414.628 262.814 415.998 262.288 417.276C261.761 418.554 260.988 419.715 260.012 420.694C259.036 421.672 257.876 422.449 256.6 422.979C255.323 423.509 253.954 423.781 252.572 423.781Z" fill="#0061DA"/>
<path d="M516.918 479.325H165.621C140.702 479.325 120.501 499.526 120.501 524.445V629.182C120.501 654.101 140.702 674.302 165.621 674.302H516.918C541.837 674.302 562.038 654.101 562.038 629.182V524.445C562.038 499.526 541.837 479.325 516.918 479.325Z" fill="#0061DA"/>
<path d="M171.999 599.486V619.91H150.844V599.486H171.999Z" fill="white"/>
<path d="M253.308 599.541C249.782 605.923 244.47 611.138 238.024 614.544C230.763 618.258 222.69 620.102 214.537 619.91H182.621V535.43H214.537C222.696 535.231 230.78 537.035 238.08 540.683C244.507 544.02 249.804 549.18 253.308 555.517C256.94 562.261 258.769 569.829 258.618 577.487C258.762 585.172 256.934 592.765 253.308 599.541ZM231.338 595.299C233.621 592.955 235.391 590.16 236.533 587.093C237.674 584.026 238.163 580.754 237.968 577.487C238.165 574.225 237.676 570.956 236.534 567.894C235.392 564.831 233.622 562.041 231.338 559.703C226.219 555.215 219.533 552.933 212.739 553.354H203.074V601.62H212.739C219.528 602.037 226.208 599.766 231.338 595.299Z" fill="white"/>
<path d="M332.054 539.672C338.482 543.323 343.794 548.655 347.422 555.096C351.224 561.898 353.162 569.583 353.04 577.375C353.183 585.187 351.243 592.896 347.422 599.71C343.802 606.181 338.477 611.535 332.026 615.191C325.458 618.941 318.012 620.88 310.449 620.809C302.886 620.88 295.44 618.941 288.872 615.191C282.421 611.535 277.096 606.181 273.476 599.71C269.654 592.896 267.715 585.187 267.857 577.375C267.711 569.581 269.651 561.889 273.476 555.096C277.114 548.654 282.436 543.322 288.872 539.672C295.44 535.921 302.886 533.982 310.449 534.053C318.02 533.987 325.474 535.925 332.054 539.672ZM294.407 559.619C290.262 564.577 288.154 570.923 288.507 577.375C288.153 583.802 290.263 590.122 294.407 595.047C296.426 597.241 298.9 598.966 301.657 600.102C304.414 601.238 307.386 601.756 310.364 601.621C313.333 601.744 316.293 601.22 319.039 600.085C321.785 598.95 324.251 597.23 326.266 595.047C330.43 590.13 332.561 583.809 332.222 577.375C332.559 570.951 330.452 564.637 326.322 559.703C324.305 557.508 321.83 555.781 319.073 554.646C316.316 553.51 313.343 552.992 310.364 553.129C307.393 552.992 304.428 553.502 301.673 554.623C298.918 555.743 296.439 557.448 294.407 559.619Z" fill="white"/>
<path d="M429.797 543.072C436.922 548.87 441.768 556.999 443.479 566.025H421.846C420.386 562.284 417.83 559.072 414.513 556.81C411.017 554.533 406.913 553.368 402.741 553.467C399.987 553.378 397.249 553.926 394.74 555.066C392.231 556.206 390.018 557.908 388.273 560.041C384.363 565.046 382.37 571.284 382.654 577.628C382.368 583.948 384.362 590.159 388.273 595.131C390.032 597.242 392.25 598.924 394.757 600.049C397.264 601.173 399.995 601.711 402.741 601.621C406.914 601.732 411.022 600.566 414.513 598.278C417.812 596.056 420.367 592.895 421.846 589.203H443.479C441.74 598.202 436.898 606.306 429.797 612.101C422.154 617.935 412.714 620.917 403.107 620.529C395.537 620.689 388.064 618.805 381.474 615.078C375.306 611.493 370.302 606.207 367.061 599.851C363.57 592.882 361.825 585.169 361.976 577.375C361.826 569.582 363.571 561.869 367.061 554.9C370.302 548.544 375.306 543.257 381.474 539.672C388.064 535.945 395.537 534.062 403.107 534.222C412.764 533.966 422.206 537.097 429.797 543.072Z" fill="white"/>
<path d="M506.216 619.91L488.404 593.614L473.12 619.91H449.689L476.717 576.42L448.875 535.43H473.12L490.455 560.883L505.373 535.43H528.692L502.03 577.965L530.462 619.91H506.216Z" fill="white"/>
</svg>
