<svg width="562" height="675" viewBox="0 0 562 675" fill="none" xmlns="http://www.w3.org/2000/svg">
<g opacity="0.3">
<path opacity="0.3" d="M392.58 138.334C377.216 138.326 362.482 132.222 351.616 121.36C340.749 110.499 334.637 95.7684 334.622 80.4043V0H75.6821C65.7517 -6.85656e-07 55.9188 1.95627 46.7447 5.7573C37.5706 9.55833 29.2353 15.1295 22.2148 22.1526C15.1943 29.1757 9.62632 37.5132 5.8287 46.6887C2.03109 55.8642 0.0783463 65.6982 0.0820365 75.6285V531.337C0.111811 551.368 8.08993 570.569 22.2645 584.722C36.4391 598.876 55.6511 606.825 75.6821 606.825H386.399C396.33 606.825 406.163 604.869 415.337 601.068C424.511 597.267 432.846 591.696 439.867 584.672C446.887 577.649 452.455 569.312 456.253 560.136C460.051 550.961 462.003 541.127 461.999 531.197V138.221L392.58 138.334Z" fill="#005FAD"/>
</g>
<path d="M462 138.334H392.581C377.217 138.326 362.483 132.222 351.617 121.36C340.75 110.499 334.638 95.7685 334.623 80.4044V0.00012207L462 138.334Z" fill="#005FAD"/>
<path d="M347.012 242.561H96.9773C94.5706 242.561 92.2626 241.605 90.5608 239.903C88.8591 238.202 87.903 235.894 87.903 233.487C87.903 231.08 88.8591 228.772 90.5608 227.071C92.2626 225.369 94.5706 224.413 96.9773 224.413H347.012C348.202 224.413 349.38 224.648 350.48 225.104C351.579 225.56 352.578 226.229 353.418 227.072C354.259 227.915 354.924 228.916 355.377 230.016C355.83 231.117 356.061 232.297 356.058 233.487C356.058 235.889 355.106 238.192 353.41 239.893C351.714 241.594 349.413 242.554 347.012 242.561Z" fill="#005FAD"/>
<path d="M516.839 479.28H165.555C140.636 479.28 120.436 499.48 120.436 524.399V629.132C120.436 654.05 140.636 674.25 165.555 674.25H516.839C541.757 674.25 561.958 654.05 561.958 629.132V524.399C561.958 499.48 541.757 479.28 516.839 479.28Z" fill="#005FAD"/>
<path d="M198.733 599.437V619.889H177.578V599.437H198.733Z" fill="white"/>
<path d="M280.204 599.493C276.695 605.887 271.379 611.104 264.922 614.495C257.668 618.23 249.592 620.085 241.435 619.889H209.408V535.411H241.323C249.483 535.199 257.569 537.003 264.865 540.664C271.291 543.989 276.588 549.14 280.092 555.47C283.725 562.223 285.554 569.8 285.402 577.467C285.585 585.133 283.795 592.717 280.204 599.493ZM258.207 595.251C260.501 592.918 262.279 590.13 263.426 587.066C264.573 584.003 265.063 580.733 264.865 577.467C265.064 574.198 264.574 570.923 263.427 567.855C262.28 564.787 260.502 561.993 258.207 559.656C253.091 555.185 246.418 552.913 239.637 553.335H229.973V601.6H239.637C246.386 601.996 253.018 599.714 258.095 595.251H258.207Z" fill="white"/>
<path d="M411.823 535.411L391.652 619.889H366.368L352.854 563.364L339.229 619.889H313.945L293.745 535.411H315.967L326.839 596.571L341.645 535.411H364.12L378.925 596.571L389.91 535.411H411.823Z" fill="white"/>
<path d="M488.296 542.21C495.106 547.317 499.685 554.854 501.078 563.252H479.474C478.062 560.237 475.77 557.72 472.9 556.032C469.683 554.121 465.994 553.147 462.253 553.223C459.343 553.102 456.443 553.623 453.758 554.75C451.073 555.876 448.669 557.58 446.717 559.74C442.606 564.659 440.518 570.955 440.873 577.355C440.873 585.39 442.924 591.561 447.025 595.869C449.332 598.105 452.08 599.836 455.094 600.948C458.108 602.061 461.322 602.532 464.528 602.33C469.112 602.414 473.598 601.004 477.31 598.313C481.094 595.481 483.823 591.467 485.064 586.907H459.275V572.214H502.146V592.413C500.496 597.437 497.902 602.1 494.504 606.151C490.808 610.504 486.218 614.011 481.047 616.434C475.187 619.139 468.791 620.483 462.337 620.366C454.498 620.575 446.744 618.704 439.862 614.944C433.566 611.403 428.44 606.101 425.113 599.689C421.526 592.751 419.738 585.023 419.915 577.214C419.762 569.453 421.548 561.776 425.113 554.88C428.426 548.477 433.531 543.176 439.806 539.625C446.585 535.891 454.233 534.02 461.971 534.203C471.395 533.852 480.664 536.671 488.296 542.21Z" fill="white"/>
<path d="M282.482 163.422V413.456C282.486 414.649 282.253 415.83 281.799 416.933C281.344 418.035 280.676 419.037 279.833 419.881C278.989 420.724 277.987 421.392 276.885 421.847C275.782 422.302 274.6 422.534 273.408 422.53C272.217 422.53 271.039 422.295 269.939 421.839C268.84 421.383 267.841 420.714 267.001 419.871C266.161 419.028 265.495 418.027 265.042 416.926C264.589 415.825 264.358 414.646 264.361 413.456V163.422C264.361 161.02 265.314 158.716 267.009 157.015C268.705 155.314 271.006 154.354 273.408 154.347C275.814 154.347 278.123 155.303 279.824 157.005C281.526 158.707 282.482 161.015 282.482 163.422Z" fill="#005FAD"/>
<path d="M302.959 203.286H245.058V261.187H302.959V203.286Z" fill="#005FAD"/>
</svg>
