<svg width="562" height="675" viewBox="0 0 562 675" fill="none" xmlns="http://www.w3.org/2000/svg">
<g opacity="0.3">
<path opacity="0.3" d="M392.43 138.334C377.071 138.319 362.345 132.211 351.485 121.35C340.624 110.49 334.516 95.7636 334.501 80.4043V0H75.6734C65.7418 0 55.9072 1.95627 46.7316 5.75696C37.5559 9.55764 29.2189 15.1282 22.1962 22.1509C15.1734 29.1737 9.60256 37.511 5.80188 46.6867C2.0012 55.8623 0.0449219 65.6969 0.0449219 75.6285V531.337C0.0449219 541.269 2.0012 551.103 5.80188 560.279C9.60256 569.455 15.1734 577.792 22.1962 584.814C29.2189 591.837 37.5559 597.408 46.7316 601.209C55.9072 605.009 65.7418 606.966 75.6734 606.966H386.39C396.321 606.966 406.154 605.009 415.328 601.208C424.502 597.407 432.837 591.836 439.858 584.813C446.878 577.79 452.446 569.452 456.244 560.277C460.042 551.101 461.994 541.268 461.991 531.337V138.362L392.43 138.334Z" fill="#C27200"/>
</g>
<path d="M461.993 138.334H392.433C377.074 138.319 362.348 132.211 351.487 121.35C340.627 110.49 334.519 95.7637 334.504 80.4044V0.00012207L461.993 138.334Z" fill="#C27200"/>
<path d="M516.83 479.28H165.545C140.627 479.28 120.427 499.48 120.427 524.399V629.132C120.427 654.05 140.627 674.25 165.545 674.25H516.83C541.748 674.25 561.948 654.05 561.948 629.132V524.399C561.948 499.48 541.748 479.28 516.83 479.28Z" fill="#C27200"/>
<path d="M245.275 599.437V619.889H224.12V599.437H245.275Z" fill="white"/>
<path d="M276.321 551.649V569.32H304.864V584.744H276.321V603.51H308.461V619.889H255.869V535.411H308.461V551.649H276.321Z" fill="white"/>
<path d="M340.486 590.25V619.889H320.034V535.411H353.128C363.186 535.411 370.837 537.893 376.081 542.856C378.739 545.47 380.815 548.615 382.176 552.086C383.536 555.557 384.149 559.275 383.975 562.999C384.064 567.913 382.842 572.761 380.436 577.046C378.004 581.246 374.362 584.614 369.985 586.71C364.729 589.217 358.949 590.431 353.128 590.25H340.486ZM363.186 562.999C363.186 555.507 359.084 551.762 350.881 551.762H340.486V573.759H350.881C359.14 573.834 363.27 570.247 363.27 562.999H363.186Z" fill="white"/>
<path d="M451.287 608.399C448.879 612.292 445.396 615.404 441.258 617.361C436.241 619.729 430.734 620.874 425.188 620.704C416.831 621.041 408.595 618.612 401.758 613.793C398.748 611.519 396.285 608.6 394.55 605.251C392.814 601.902 391.85 598.206 391.729 594.436H413.473C413.654 597.275 414.863 599.952 416.872 601.965C418.9 603.843 421.583 604.852 424.345 604.775C426.616 604.912 428.848 604.145 430.554 602.64C431.303 601.913 431.893 601.038 432.285 600.07C432.677 599.103 432.862 598.064 432.83 597.021C432.859 596.029 432.69 595.041 432.333 594.115C431.976 593.189 431.438 592.343 430.751 591.627C429.265 590.127 427.499 588.934 425.554 588.115C423.475 587.197 420.609 586.102 416.957 584.828C412.477 583.357 408.103 581.583 403.865 579.518C400.37 577.713 397.371 575.08 395.128 571.849C392.558 567.94 391.29 563.318 391.504 558.645C391.386 554.016 392.722 549.467 395.325 545.637C397.974 541.881 401.638 538.958 405.888 537.209C410.802 535.225 416.07 534.269 421.368 534.4C429.409 533.948 437.356 536.312 443.843 541.086C446.553 543.278 448.78 546.007 450.385 549.101C451.99 552.195 452.938 555.588 453.17 559.066H431.06C430.813 556.58 429.746 554.247 428.026 552.436C427.144 551.601 426.101 550.953 424.962 550.533C423.822 550.113 422.608 549.929 421.395 549.992C419.295 549.884 417.231 550.566 415.608 551.902C414.84 552.612 414.242 553.486 413.858 554.458C413.474 555.431 413.313 556.478 413.389 557.521C413.365 558.452 413.526 559.379 413.864 560.247C414.202 561.115 414.709 561.907 415.355 562.578C416.77 564.039 418.46 565.204 420.328 566.005C422.323 566.876 425.188 568 428.925 569.349C433.477 570.813 437.911 572.625 442.185 574.77C445.708 576.653 448.74 579.338 451.034 582.609C453.65 586.563 454.948 591.244 454.743 595.981C454.785 600.364 453.587 604.668 451.287 608.399Z" fill="white"/>
<path d="M345.682 358.842H338.686C338.649 330.49 327.368 303.311 307.318 283.266C287.268 263.221 260.085 251.947 231.734 251.917C203.385 251.947 176.205 263.222 156.159 283.268C136.113 303.313 124.838 330.493 124.809 358.842H117.813C117.851 328.64 129.865 299.685 151.221 278.329C172.577 256.973 201.532 244.959 231.734 244.922C261.941 244.952 290.902 256.962 312.264 278.319C333.626 299.676 345.645 328.635 345.682 358.842Z" fill="#C27200"/>
<path d="M393.638 244.922H69.8298V251.917H393.638V244.922Z" fill="#C27200"/>
<path d="M132.507 347.66H110.117V370.051H132.507V347.66Z" fill="#C27200"/>
<path d="M353.383 347.66H330.992V370.051H353.383V347.66Z" fill="#C27200"/>
<path d="M242.945 236.859H220.554V259.249H242.945V236.859Z" fill="#C27200"/>
<path d="M69.4678 259.277C75.6586 259.277 80.6772 254.259 80.6772 248.068C80.6772 241.877 75.6586 236.859 69.4678 236.859C63.277 236.859 58.2584 241.877 58.2584 248.068C58.2584 254.259 63.277 259.277 69.4678 259.277Z" fill="#C27200"/>
<path d="M392.573 259.277C398.764 259.277 403.782 254.259 403.782 248.068C403.782 241.877 398.764 236.859 392.573 236.859C386.382 236.859 381.363 241.877 381.363 248.068C381.363 254.259 386.382 259.277 392.573 259.277Z" fill="#C27200"/>
</svg>
