<svg width="554" height="675" viewBox="0 0 554 675" fill="none" xmlns="http://www.w3.org/2000/svg">
<g opacity="0.3">
<path opacity="0.3" d="M386.681 138.385C371.577 138.37 357.095 132.258 346.415 121.39C335.735 110.522 329.728 95.7868 329.713 80.4176V0.00012207H75.1925C55.4843 0.00012207 36.5834 7.96631 22.6476 22.1464C8.71176 36.3266 0.882812 55.5592 0.882812 75.6129V531.424C0.912079 551.459 8.75403 570.662 22.6867 584.818C36.6193 598.974 55.5034 606.925 75.1925 606.925H380.607C400.315 606.925 419.215 598.958 433.151 584.778C447.087 570.598 454.916 551.366 454.916 531.312V138.272L386.681 138.385Z" fill="#09A3A3"/>
</g>
<path d="M454.916 138.384H386.681C371.577 138.37 357.095 132.258 346.415 121.39C335.734 110.522 329.728 95.7867 329.713 80.4175V0L454.916 138.384Z" fill="#09A3A3"/>
<path d="M508.82 479.386H163.531C139.038 479.386 119.183 499.589 119.183 524.512V629.262C119.183 654.185 139.038 674.388 163.531 674.388H508.82C533.313 674.388 553.169 654.185 553.169 629.262V524.512C553.169 499.589 533.313 479.386 508.82 479.386Z" fill="#09A3A3"/>
<path d="M241.671 599.562V619.99H220.996V599.562H241.671Z" fill="white"/>
<path d="M272.212 551.74V569.442H300.294V584.84H272.212V603.609H303.888V619.991H252.146V535.499H303.888V551.74H272.212Z" fill="white"/>
<path d="M365.61 619.991L348.086 593.691L333.05 619.991H309.998L336.56 576.495L309.169 535.499H333.05L350.076 560.956L364.781 535.499H387.722L361.491 578.04L389.463 619.991H365.61Z" fill="white"/>
<path d="M417.242 551.74V569.442H445.352V584.84H417.242V603.609H448.862V619.991H397.147V535.499H448.862V551.74H417.242Z" fill="white"/>
<path d="M227.911 415.041C224.759 415.041 221.736 413.768 219.507 411.502C217.278 409.236 216.025 406.163 216.025 402.959V384.386C216.025 382.8 216.333 381.23 216.931 379.766C217.528 378.302 218.404 376.972 219.508 375.852C220.612 374.732 221.923 373.845 223.365 373.241C224.806 372.637 226.351 372.328 227.911 372.331C231.056 372.331 234.071 373.601 236.295 375.862C238.519 378.122 239.768 381.189 239.768 384.386V402.959C239.768 406.158 238.52 409.227 236.297 411.492C234.074 413.757 231.058 415.033 227.911 415.041Z" fill="#09A3A3"/>
<path d="M227.911 265.305C224.759 265.305 221.736 264.031 219.507 261.766C217.278 259.5 216.025 256.427 216.025 253.222V231.615C216.025 228.41 217.278 225.337 219.507 223.071C221.736 220.805 224.759 219.532 227.911 219.532C231.058 219.54 234.074 220.816 236.297 223.081C238.52 225.346 239.768 228.415 239.768 231.615V253.222C239.768 256.422 238.52 259.491 236.297 261.756C234.074 264.021 231.058 265.297 227.911 265.305Z" fill="#09A3A3"/>
<path d="M270.03 403.577C267.941 403.58 265.888 403.023 264.078 401.962C262.268 400.902 260.765 399.375 259.72 397.535L250.875 381.913C249.303 379.144 248.877 375.854 249.691 372.767C250.505 369.679 252.492 367.046 255.215 365.447C256.565 364.652 258.056 364.134 259.602 363.925C261.149 363.716 262.721 363.82 264.228 364.229C265.735 364.639 267.148 365.347 268.386 366.313C269.623 367.279 270.661 368.484 271.44 369.859L280.284 385.453C281.858 388.226 282.285 391.52 281.471 394.613C280.658 397.705 278.67 400.343 275.945 401.947C274.147 403.005 272.108 403.567 270.03 403.577Z" fill="#09A3A3"/>
<path d="M196.717 274.324C194.628 274.327 192.575 273.77 190.765 272.71C188.955 271.649 187.452 270.122 186.407 268.283L175.517 249.148C173.946 246.372 173.523 243.075 174.342 239.982C175.161 236.889 177.154 234.254 179.884 232.655C182.612 231.055 185.852 230.621 188.894 231.448C191.936 232.275 194.531 234.296 196.109 237.066L206.972 256.229C208.545 259.002 208.972 262.296 208.158 265.388C207.345 268.481 205.357 271.119 202.632 272.723C200.832 273.774 198.792 274.326 196.717 274.324Z" fill="#09A3A3"/>
<path d="M300.827 372.191C298.751 372.192 296.712 371.64 294.912 370.589L279.544 361.57C276.819 359.966 274.832 357.328 274.018 354.236C273.204 351.143 273.631 347.849 275.205 345.076C276.778 342.301 279.37 340.275 282.413 339.442C285.455 338.61 288.698 339.039 291.429 340.636L306.797 349.656C309.522 351.26 311.51 353.898 312.323 356.99C313.137 360.083 312.71 363.377 311.137 366.15C310.092 367.989 308.589 369.516 306.779 370.576C304.969 371.637 302.916 372.194 300.827 372.191Z" fill="#09A3A3"/>
<path d="M173.805 297.589C171.726 297.584 169.686 297.022 167.89 295.96L149.039 284.917C146.314 283.313 144.327 280.675 143.513 277.583C142.699 274.49 143.126 271.196 144.7 268.423C145.478 267.049 146.516 265.844 147.754 264.878C148.991 263.912 150.404 263.204 151.911 262.794C153.419 262.384 154.99 262.281 156.537 262.49C158.084 262.699 159.575 263.216 160.924 264.012L179.775 275.055C182.495 276.664 184.477 279.301 185.29 282.392C186.103 285.482 185.681 288.774 184.114 291.548C183.07 293.388 181.567 294.914 179.757 295.975C177.947 297.036 175.894 297.592 173.805 297.589Z" fill="#09A3A3"/>
<path d="M312.152 329.369H293.854C290.702 329.369 287.679 328.096 285.45 325.83C283.221 323.564 281.969 320.491 281.969 317.286C281.976 314.087 283.232 311.021 285.46 308.761C287.688 306.501 290.707 305.232 293.854 305.232H312.152C315.299 305.232 318.318 306.501 320.546 308.761C322.774 311.021 324.03 314.087 324.037 317.286C324.037 320.491 322.785 323.564 320.556 325.83C318.327 328.096 315.304 329.369 312.152 329.369Z" fill="#09A3A3"/>
<path d="M164.915 329.369H143.687C140.535 329.369 137.512 328.096 135.283 325.83C133.054 323.564 131.802 320.491 131.802 317.287C131.809 314.087 133.065 311.021 135.293 308.761C137.521 306.501 140.54 305.232 143.687 305.232H164.887C166.447 305.229 167.991 305.538 169.433 306.142C170.875 306.746 172.185 307.633 173.289 308.753C174.393 309.872 175.269 311.203 175.867 312.667C176.465 314.131 176.772 315.701 176.772 317.287C176.776 318.872 176.472 320.442 175.878 321.908C175.283 323.374 174.41 324.706 173.309 325.828C172.208 326.95 170.899 327.841 169.459 328.448C168.018 329.056 166.474 329.369 164.915 329.369Z" fill="#09A3A3"/>
<path d="M284.188 296.298C282.102 296.301 280.052 295.747 278.243 294.692C276.434 293.636 274.929 292.117 273.879 290.285C272.307 287.509 271.884 284.212 272.703 281.119C273.522 278.026 275.516 275.39 278.246 273.791L294.83 264.013C297.557 262.413 300.798 261.979 303.84 262.806C306.882 263.633 309.476 265.654 311.054 268.424C312.628 271.197 313.055 274.491 312.241 277.584C311.428 280.676 309.44 283.314 306.715 284.918L290.131 294.696C288.324 295.754 286.273 296.307 284.188 296.298Z" fill="#09A3A3"/>
<path d="M154.982 372.191C152.896 372.194 150.847 371.638 149.041 370.577C147.235 369.516 145.738 367.989 144.7 366.15C143.126 363.377 142.699 360.083 143.513 356.99C144.327 353.898 146.314 351.26 149.039 349.656L166.618 339.344C169.348 337.752 172.585 337.322 175.625 338.149C178.665 338.975 181.26 340.991 182.843 343.755C184.414 346.531 184.837 349.828 184.018 352.921C183.199 356.014 181.205 358.65 178.476 360.249L160.924 370.561C159.123 371.637 157.071 372.2 154.982 372.191Z" fill="#09A3A3"/>
<path d="M229.28 396.496H227.375C213.803 396.173 200.565 392.146 189.046 384.835C177.663 377.654 168.331 367.558 161.984 355.557C156.052 344.256 152.941 331.644 152.927 318.832C152.927 318.186 152.927 317.54 152.927 316.894C153.253 303.69 156.884 290.789 163.476 279.41C170.058 268.047 179.37 258.572 190.537 251.874C201.766 245.162 214.493 241.477 227.513 241.169H229.253C241.86 241.155 254.272 244.332 265.372 250.413C277.157 256.849 287.071 266.326 294.119 277.893C301.312 289.67 305.261 303.199 305.551 317.062C305.551 317.54 305.551 318.186 305.551 318.832C305.554 332.247 302.138 345.432 295.638 357.102C288.842 369.351 278.894 379.483 266.863 386.409C255.402 393.017 242.454 396.492 229.28 396.496ZM228.977 265.277H228.231C219.209 265.477 210.388 268.02 202.605 272.667C194.909 277.285 188.487 283.81 183.938 291.633C179.433 299.5 176.98 308.409 176.813 317.512C176.813 318.018 176.813 318.383 176.813 318.748C176.807 327.573 178.952 336.261 183.054 344.037C187.424 352.33 193.862 359.308 201.721 364.268C209.695 369.301 218.85 372.066 228.231 372.276H229.446C238.534 372.286 247.469 369.895 255.376 365.335C263.678 360.554 270.543 353.559 275.231 345.104C279.707 337.067 282.057 327.986 282.051 318.748V317.681C281.847 308.078 279.12 298.706 274.154 290.538C269.295 282.561 262.456 276.029 254.326 271.599C246.555 267.377 237.869 265.203 229.06 265.277H228.977Z" fill="#09A3A3"/>
<path d="M259.834 273.06C257.757 273.068 255.716 272.515 253.919 271.458C252.567 270.667 251.381 269.612 250.431 268.354C249.481 267.096 248.784 265.659 248.381 264.127C247.978 262.595 247.876 260.997 248.082 259.425C248.287 257.852 248.796 256.337 249.579 254.965L259.723 237.066C260.502 235.691 261.539 234.487 262.777 233.521C264.014 232.555 265.427 231.846 266.935 231.437C268.442 231.027 270.014 230.923 271.56 231.132C273.107 231.341 274.598 231.859 275.948 232.655C277.3 233.446 278.485 234.501 279.435 235.759C280.385 237.017 281.082 238.454 281.485 239.986C281.888 241.518 281.99 243.116 281.784 244.688C281.579 246.261 281.07 247.776 280.287 249.148L270.143 267.019C269.099 268.858 267.596 270.385 265.786 271.446C263.976 272.506 261.923 273.063 259.834 273.06Z" fill="#09A3A3"/>
<path d="M185.799 403.577C183.72 403.575 181.679 403.013 179.884 401.947C177.154 400.348 175.161 397.712 174.342 394.619C173.523 391.526 173.946 388.23 175.517 385.454L185.136 368.595C186.714 365.824 189.309 363.804 192.351 362.977C195.393 362.15 198.633 362.583 201.361 364.183C204.086 365.787 206.073 368.425 206.887 371.517C207.701 374.61 207.273 377.904 205.7 380.677L196.109 397.536C195.064 399.375 193.561 400.902 191.751 401.963C189.941 403.023 187.888 403.58 185.799 403.577Z" fill="#09A3A3"/>
</svg>
