<svg width="553" height="664" viewBox="0 0 553 664" fill="none" xmlns="http://www.w3.org/2000/svg">
<g opacity="0.3">
<path opacity="0.3" d="M385.688 136.1C370.591 136.085 356.117 130.076 345.441 119.39C334.766 108.705 328.763 94.217 328.748 79.1058V5.13611e-06H74.3377C64.5769 -0.00362547 54.9107 1.91758 45.8919 5.65386C36.873 9.39015 28.6781 14.8684 21.7749 21.7755C14.8716 28.6826 9.39552 36.8833 5.65937 45.9092C1.92322 54.9352 -6.73954e-07 64.6093 0 74.3793V522.756C0.0292723 542.468 7.87502 561.363 21.8136 575.289C35.7523 589.214 54.6438 597.032 74.3377 597.025H379.751C389.51 597.025 399.173 595.101 408.188 591.363C417.204 587.625 425.396 582.146 432.297 575.24C439.197 568.333 444.67 560.133 448.405 551.109C452.139 542.085 454.061 532.413 454.061 522.646V136.1H385.688Z" fill="#5956E9"/>
</g>
<path d="M454.062 136.1H385.689C370.592 136.085 356.117 130.076 345.442 119.39C334.767 108.705 328.763 94.217 328.749 79.1058V0L454.062 136.1Z" fill="#5956E9"/>
<path d="M507.964 471.539H162.675C138.182 471.539 118.327 491.413 118.327 515.929V618.971C118.327 643.487 138.182 663.361 162.675 663.361H507.964C532.457 663.361 552.313 643.487 552.313 618.971V515.929C552.313 491.413 532.457 471.539 507.964 471.539Z" fill="#5956E9"/>
<path d="M241.313 589.755V609.85H220.528V589.755H241.313Z" fill="white"/>
<path d="M305.961 526.736V542.74H271.854V561.093H298.195V576.378H271.854V609.988H251.759V526.874L305.961 526.736Z" fill="white"/>
<path d="M336.333 594.454H363.144V609.85H316.156V526.736H336.25L336.333 594.454Z" fill="white"/>
<path d="M387.87 526.736L408.194 589.286L428.518 526.736H450.002L421.117 609.85H395.16L366.386 526.736H387.87Z" fill="white"/>
<path d="M329.853 364.6V232.729C329.855 232.09 329.8 231.451 329.687 230.822C329.678 230.638 329.678 230.453 329.687 230.269C329.687 229.827 329.439 229.412 329.301 228.998L329.052 228.445C328.863 228.046 328.651 227.658 328.417 227.284C328.342 227.127 328.249 226.979 328.141 226.842C327.803 226.342 327.424 225.87 327.009 225.432L326.788 225.266C326.424 224.898 326.027 224.565 325.601 224.271L325.131 223.967C324.772 223.746 324.386 223.553 323.999 223.359L323.447 223.11C323.005 222.943 322.553 222.805 322.094 222.696H321.652C321.026 222.56 320.387 222.495 319.746 222.502H133.626C131.07 222.736 128.693 223.918 126.961 225.814C125.23 227.711 124.268 230.187 124.265 232.757C124.252 232.913 124.252 233.07 124.265 233.227V365.014C124.198 366.711 124.737 368.377 125.784 369.713C126.692 371.243 127.981 372.511 129.525 373.392C131.069 374.274 132.815 374.74 134.593 374.744H319.608C322.298 374.715 324.871 373.641 326.783 371.748C328.695 369.855 329.796 367.291 329.853 364.6ZM135.2 247.323V227.312H151.465V247.323H135.2ZM162.649 247.323V227.312H178.914V247.323H162.649ZM190.098 247.323V227.312H206.362V247.323H190.098ZM217.546 247.323V227.312H233.811V247.323H217.546ZM244.995 247.323V227.312H261.259V247.323H244.995ZM272.415 247.323V227.312H288.68V247.323H272.415ZM299.864 247.323V227.312H316.129V247.323H299.864ZM131.417 344.367V252.74H322.563V344.367H131.417ZM135.145 369.768V349.757H151.41V369.768H135.145ZM162.593 369.768V349.757H178.858V369.768H162.593ZM190.042 369.768V349.757H206.307V369.768H190.042ZM217.491 369.768V349.757H233.756V369.768H217.491ZM244.939 369.768V349.757H261.204V369.768H244.939ZM272.36 369.768V349.757H288.625V369.768H272.36ZM299.809 369.768V349.757H316.074V369.768H299.809Z" fill="#5956E9"/>
<path d="M249.201 291.768L222.749 276.483C221.38 275.693 219.827 275.277 218.246 275.276C216.666 275.276 215.112 275.691 213.743 276.481C212.373 277.271 211.235 278.407 210.444 279.776C209.653 281.144 209.235 282.697 209.233 284.278V314.848C209.235 316.429 209.653 317.981 210.444 319.35C211.235 320.718 212.373 321.855 213.743 322.644C215.112 323.434 216.666 323.85 218.246 323.849C219.827 323.849 221.38 323.433 222.749 322.642L249.201 307.357C250.566 306.565 251.7 305.428 252.488 304.06C253.276 302.692 253.691 301.141 253.691 299.563C253.691 297.984 253.276 296.433 252.488 295.065C251.7 293.697 250.566 292.56 249.201 291.768Z" fill="#5956E9"/>
</svg>
