<svg width="562" height="674" viewBox="0 0 562 674" fill="none" xmlns="http://www.w3.org/2000/svg">
<g opacity="0.3">
<path opacity="0.3" d="M392.377 138.282C377.023 138.267 362.303 132.162 351.446 121.305C340.589 110.448 334.483 95.728 334.468 80.3745V5.21848e-06H75.7371C65.8105 -0.00368361 55.9802 1.94833 46.8081 5.74454C37.636 9.54075 29.3016 15.1068 22.2811 22.1247C15.2606 29.1426 9.6915 37.4748 5.89188 46.6455C2.09226 55.8162 0.136718 65.6455 0.136719 75.5722V531.14C0.166488 551.168 8.14551 570.366 22.3209 584.515C36.4963 598.664 55.7087 606.607 75.7371 606.6H386.339C406.382 606.6 425.604 598.638 439.776 584.465C453.949 570.293 461.911 551.071 461.911 531.028V138.282H392.377Z" fill="#C27200"/>
</g>
<path d="M461.91 138.282H392.376C377.022 138.267 362.302 132.162 351.445 121.305C340.589 110.448 334.483 95.728 334.468 80.3745V0L461.91 138.282Z" fill="#C27200"/>
<path d="M516.728 479.102H165.574C140.665 479.102 120.472 499.295 120.472 524.204V628.898C120.472 653.807 140.665 674 165.574 674H516.728C541.637 674 561.83 653.807 561.83 628.898V524.204C561.83 499.295 541.637 479.102 516.728 479.102Z" fill="#C27200"/>
<path d="M254.176 599.214V619.631H233.029V599.214H254.176Z" fill="white"/>
<path d="M330.509 542.008C337.324 547.107 341.902 554.644 343.287 563.042H321.663C320.245 560.025 317.957 557.501 315.091 555.797C311.884 553.888 308.207 552.916 304.476 552.988C301.57 552.868 298.674 553.387 295.99 554.508C293.307 555.629 290.902 557.324 288.945 559.476C284.832 564.403 282.736 570.703 283.076 577.112C283.076 585.144 285.126 591.313 289.226 595.619C291.536 597.857 294.288 599.588 297.306 600.7C300.324 601.812 303.54 602.282 306.75 602.078C311.332 602.157 315.816 600.748 319.528 598.062C323.301 595.222 326.026 591.213 327.279 586.66H301.471V571.973H344.354V592.558C342.715 597.584 340.121 602.247 336.715 606.291C333.031 610.641 328.452 614.147 323.291 616.569C317.432 619.271 311.039 620.615 304.588 620.501C296.749 620.703 288.997 618.823 282.121 615.053C275.827 611.517 270.695 606.229 267.35 599.832C263.802 592.932 262.017 585.262 262.154 577.505C261.998 569.702 263.784 561.982 267.35 555.039C270.689 548.656 275.799 543.371 282.065 539.817C288.842 536.085 296.488 534.214 304.223 534.397C313.588 533.938 322.838 536.616 330.509 542.008Z" fill="white"/>
<path d="M376.256 535.184V619.631H355.84V535.184H376.256Z" fill="white"/>
<path d="M445.426 535.184V551.444H410.771V570.092H437.535V585.622H410.771V619.771H390.354V535.324L445.426 535.184Z" fill="white"/>
<path d="M218.176 433.69C187.538 433.653 158.166 421.466 136.501 399.802C114.837 378.138 102.65 348.765 102.613 318.128C102.65 287.49 114.837 258.117 136.501 236.453C158.166 214.789 187.538 202.602 218.176 202.565C248.814 202.602 278.186 214.789 299.85 236.453C321.514 258.117 333.702 287.49 333.739 318.128C333.702 348.765 321.514 378.138 299.85 399.802C278.186 421.466 248.814 433.653 218.176 433.69ZM218.176 222.813C192.91 222.857 168.693 232.914 150.827 250.779C132.962 268.644 122.905 292.862 122.861 318.128C122.905 343.393 132.962 367.611 150.827 385.476C168.693 403.341 192.91 413.398 218.176 413.442C243.441 413.398 267.659 403.341 285.524 385.476C303.39 367.611 313.446 343.393 313.49 318.128C313.446 292.862 303.39 268.644 285.524 250.779C267.659 232.914 243.441 222.857 218.176 222.813Z" fill="#C27200"/>
<path d="M218.176 382.888C204.971 382.907 191.965 379.664 180.315 373.447C168.664 367.23 158.73 358.231 151.394 347.251L168.244 336.017C173.724 344.22 181.143 350.943 189.843 355.592C198.543 360.241 208.256 362.672 218.12 362.668C227.988 362.674 237.704 360.241 246.405 355.587C255.106 350.932 262.523 344.2 267.996 335.989L284.846 347.223C277.526 358.194 267.611 367.19 255.981 373.411C244.351 379.633 231.366 382.888 218.176 382.888Z" fill="#C27200"/>
<path d="M186.133 300.408C193.562 300.408 199.584 294.385 199.584 286.956C199.584 279.527 193.562 273.504 186.133 273.504C178.703 273.504 172.681 279.527 172.681 286.956C172.681 294.385 178.703 300.408 186.133 300.408Z" fill="#C27200"/>
<path d="M250.217 300.408C257.647 300.408 263.669 294.385 263.669 286.956C263.669 279.527 257.647 273.504 250.217 273.504C242.788 273.504 236.766 279.527 236.766 286.956C236.766 294.385 242.788 300.408 250.217 300.408Z" fill="#C27200"/>
</svg>
