<svg width="553" height="675" viewBox="0 0 553 675" fill="none" xmlns="http://www.w3.org/2000/svg">
<g opacity="0.3">
<path opacity="0.3" d="M386.091 138.385C370.991 138.362 356.517 132.247 345.842 121.38C335.168 110.513 329.165 95.782 329.15 80.4176V0.000127292H74.7401C64.9792 -0.00356352 55.3131 1.9495 46.2942 5.74774C37.2753 9.54598 29.0805 15.1148 22.1772 22.1365C15.274 29.1582 9.79787 37.4948 6.06172 46.6704C2.32556 55.846 0.402343 65.6809 0.402344 75.6129V531.424C0.402343 541.356 2.32556 551.191 6.06172 560.367C9.79787 569.542 15.274 577.879 22.1772 584.9C29.0805 591.922 37.2753 597.491 46.2942 601.29C55.3131 605.088 64.9792 607.041 74.7401 607.037H380.154C389.912 607.037 399.575 605.081 408.591 601.281C417.606 597.481 425.799 591.912 432.699 584.891C439.599 577.869 445.073 569.534 448.807 560.36C452.542 551.186 454.464 541.354 454.464 531.424V138.385H386.091Z" fill="#09A3A3"/>
</g>
<path d="M454.464 138.384H386.091C370.991 138.362 356.517 132.247 345.842 121.38C335.168 110.513 329.165 95.7818 329.15 80.4175V0L454.464 138.384Z" fill="#09A3A3"/>
<path d="M508.367 479.386H163.078C138.585 479.386 118.729 499.589 118.729 524.512V629.262C118.729 654.185 138.585 674.388 163.078 674.388H508.367C532.86 674.388 552.715 654.185 552.715 629.262V524.512C552.715 499.589 532.86 479.386 508.367 479.386Z" fill="#09A3A3"/>
<path d="M246.024 599.562V619.99H225.211V599.562H246.024Z" fill="white"/>
<path d="M276.536 535.499V619.991H256.442V535.499H276.536Z" fill="white"/>
<path d="M346.768 608.526C344.372 612.407 340.941 615.516 336.873 617.489C331.933 619.845 326.517 620.99 321.063 620.833C312.845 621.164 304.75 618.724 298.039 613.893C295.061 611.633 292.624 608.717 290.91 605.365C289.197 602.012 288.251 598.309 288.144 594.533H309.565C309.699 597.384 310.894 600.076 312.909 602.063C314.899 603.95 317.542 604.96 320.261 604.873C322.497 604.991 324.69 604.214 326.37 602.71C327.107 601.983 327.687 601.108 328.073 600.14C328.458 599.172 328.641 598.133 328.609 597.09C328.638 596.099 328.469 595.113 328.113 594.191C327.756 593.269 327.22 592.429 326.536 591.723C325.073 590.218 323.336 589.015 321.422 588.183C319.377 587.283 316.558 586.188 312.964 584.895C308.559 583.419 304.256 581.645 300.084 579.585C296.661 577.78 293.721 575.158 291.516 571.942C288.969 568.039 287.711 563.414 287.922 558.736C287.806 554.097 289.12 549.538 291.681 545.698C294.306 541.948 297.918 539.026 302.102 537.268C306.927 535.284 312.101 534.328 317.304 534.459C325.215 534.009 333.033 536.374 339.416 541.146C342.128 543.393 344.35 546.191 345.939 549.359C347.529 552.528 348.451 555.999 348.648 559.551H326.895C326.645 557.061 325.585 554.727 323.882 552.919C323.015 552.082 321.99 551.434 320.868 551.014C319.747 550.593 318.553 550.41 317.359 550.475C315.293 550.367 313.262 551.049 311.665 552.385C310.915 553.099 310.329 553.974 309.951 554.945C309.574 555.917 309.413 556.962 309.482 558.005C309.45 559.897 310.155 561.726 311.444 563.091C312.821 564.549 314.477 565.706 316.309 566.491C318.271 567.362 321.091 568.486 324.767 569.835C329.247 571.307 333.609 573.129 337.813 575.286C341.284 577.149 344.269 579.827 346.519 583.097C349.093 587.052 350.37 591.734 350.168 596.472C350.136 600.73 348.96 604.897 346.768 608.526Z" fill="white"/>
<path d="M421.989 539.741C428.299 543.391 433.519 548.712 437.094 555.139C440.83 561.952 442.735 569.648 442.616 577.45C442.767 585.308 440.861 593.066 437.094 599.928C433.509 606.389 428.27 611.74 421.933 615.41C415.478 619.162 408.159 621.101 400.726 621.03C393.293 621.097 385.975 619.158 379.518 615.41C373.183 611.747 367.951 606.394 364.385 599.928C360.605 593.071 358.698 585.31 358.862 577.45C358.718 569.645 360.625 561.943 364.385 555.139C367.97 548.71 373.199 543.389 379.518 539.741C385.975 535.994 393.293 534.055 400.726 534.122C408.177 534.05 415.513 535.989 421.989 539.741ZM384.985 559.691C380.909 564.648 378.836 570.996 379.186 577.45C378.858 583.874 380.929 590.188 384.985 595.124C386.97 597.318 389.402 599.043 392.112 600.179C394.821 601.315 397.743 601.834 400.67 601.698C403.588 601.822 406.498 601.298 409.197 600.162C411.896 599.027 414.319 597.308 416.3 595.124C420.393 590.206 422.487 583.885 422.154 577.45C422.487 571.016 420.415 564.691 416.355 559.747C414.372 557.552 411.94 555.825 409.23 554.689C406.52 553.553 403.598 553.035 400.67 553.173C397.758 553.05 394.853 553.569 392.155 554.694C389.458 555.819 387.031 557.523 385.041 559.691H384.985Z" fill="white"/>
<path d="M217.174 409.112C191.139 409.082 166.18 398.546 147.771 379.814C129.362 361.082 119.007 335.685 118.978 309.195C119.007 282.704 129.362 257.307 147.771 238.575C166.18 219.843 191.139 209.306 217.174 209.277C243.208 209.306 268.168 219.843 286.577 238.575C304.986 257.307 315.341 282.704 315.37 309.195C315.341 335.685 304.986 361.082 286.577 379.814C268.168 398.546 243.208 409.082 217.174 409.112ZM217.174 215.233C192.719 215.256 169.273 225.15 151.981 242.746C134.688 260.341 124.964 284.199 124.942 309.082C124.972 333.963 134.698 357.817 151.989 375.41C169.279 393.004 192.721 402.901 217.174 402.931C241.626 402.901 265.069 393.004 282.359 375.41C299.65 357.817 309.376 333.963 309.406 309.082C309.355 284.218 299.617 260.389 282.328 242.818C265.039 225.247 241.609 215.368 217.174 215.346V215.233Z" fill="#09A3A3"/>
<path d="M217.313 211.777V291.239C212.638 291.247 208.157 293.142 204.853 296.508C201.55 299.874 199.695 304.437 199.695 309.194C199.696 312.318 200.495 315.387 202.014 318.101L134.718 357.636L133.227 354.826C125.785 340.708 121.895 324.934 121.905 308.913C121.905 308.126 121.905 307.396 121.905 306.665C122.243 290.067 126.779 273.838 135.077 259.544C143.334 245.336 154.99 233.485 168.96 225.096C183.005 216.668 198.941 212.053 215.242 211.693L217.313 211.777Z" fill="#09A3A3"/>
<path d="M312.858 309.082C312.87 325.825 308.607 342.285 300.487 356.849C291.969 372.198 279.501 384.895 264.422 393.573C250.071 401.896 233.831 406.255 217.312 406.217V327.121C221.959 327.076 226.401 325.169 229.673 321.813C232.946 318.456 234.785 313.922 234.792 309.194C234.807 306.022 233.976 302.905 232.39 300.174L300.072 260.387C308.098 274.51 312.486 290.467 312.83 306.778C312.858 307.508 312.858 308.239 312.858 309.082Z" fill="#09A3A3"/>
<path d="M217.186 321.445C213.99 321.445 210.925 320.154 208.665 317.856C206.405 315.559 205.135 312.443 205.135 309.194C205.135 305.942 206.404 302.823 208.663 300.521C210.922 298.219 213.987 296.922 217.186 296.915C220.384 296.922 223.45 298.219 225.709 300.521C227.968 302.823 229.237 305.942 229.237 309.194C229.237 312.443 227.967 315.559 225.707 317.856C223.447 320.154 220.382 321.445 217.186 321.445ZM217.186 303.012C215.573 303.012 214.027 303.664 212.886 304.823C211.746 305.982 211.105 307.555 211.105 309.194C211.112 310.831 211.755 312.399 212.894 313.557C214.033 314.715 215.575 315.368 217.186 315.376C218.796 315.368 220.339 314.715 221.478 313.557C222.616 312.399 223.26 310.831 223.267 309.194C223.267 308.382 223.109 307.578 222.804 306.828C222.498 306.078 222.05 305.397 221.486 304.823C220.921 304.249 220.251 303.793 219.513 303.483C218.775 303.172 217.984 303.012 217.186 303.012Z" fill="#09A3A3"/>
</svg>
