<svg width="562" height="675" viewBox="0 0 562 675" fill="none" xmlns="http://www.w3.org/2000/svg">
<g opacity="0.3">
<path opacity="0.3" d="M392.386 138.334C377.024 138.326 362.294 132.221 351.432 121.358C340.57 110.496 334.464 95.766 334.456 80.4044V0.00012207H75.6007C65.6704 0.000121385 55.8374 1.95639 46.6633 5.75742C37.4893 9.55845 29.1533 15.1296 22.1328 22.1528C15.1122 29.1759 9.54463 37.5134 5.74702 46.6888C1.9494 55.8643 -0.00368498 65.6983 5.2195e-06 75.6286V531.337C-0.00368498 541.268 1.9494 551.101 5.74702 560.277C9.54463 569.452 15.1122 577.79 22.1328 584.813C29.1533 591.836 37.4893 597.407 46.6633 601.208C55.8374 605.009 65.6704 606.966 75.6007 606.966H386.317C396.248 606.966 406.081 605.009 415.255 601.208C424.429 597.407 432.764 591.836 439.785 584.813C446.805 577.79 452.373 569.452 456.171 560.277C459.969 551.101 461.922 541.268 461.918 531.337V138.362L392.386 138.334Z" fill="#048739"/>
</g>
<path d="M461.92 138.334H392.388C377.027 138.326 362.296 132.221 351.434 121.358C340.572 110.496 334.466 95.7658 334.458 80.4043V0L461.92 138.334Z" fill="#048739"/>
<path d="M516.757 479.28H165.473C140.554 479.28 120.354 499.48 120.354 524.399V629.132C120.354 654.05 140.554 674.25 165.473 674.25H516.757C541.675 674.25 561.875 654.05 561.875 629.132V524.399C561.875 499.48 541.675 479.28 516.757 479.28Z" fill="#048739"/>
<path d="M234.603 599.437V619.889H213.449V599.437H234.603Z" fill="white"/>
<path d="M297.397 535.411V593.116C297.397 601.974 294.99 608.783 290.176 613.54C287.489 616.017 284.331 617.928 280.89 619.159C277.449 620.39 273.794 620.915 270.146 620.703C266.149 620.918 262.15 620.338 258.379 618.998C254.609 617.657 251.14 615.583 248.176 612.894C242.763 607.668 240.048 600.177 240.029 590.419H260.229C260.229 598.313 263.234 602.246 269.19 602.246C274.388 602.246 276.972 599.212 276.972 593.172V535.467L297.397 535.411Z" fill="white"/>
<path d="M331.275 590.25V619.889H310.851V535.411H343.945C353.965 535.411 361.606 537.893 366.869 542.856C369.533 545.466 371.613 548.61 372.974 552.082C374.334 555.554 374.945 559.275 374.764 562.999C374.841 567.908 373.63 572.751 371.252 577.046C368.806 581.234 365.168 584.598 360.801 586.71C355.542 589.207 349.765 590.42 343.945 590.25H331.275ZM353.974 562.999C353.974 555.507 349.873 551.762 341.669 551.762H331.275V573.759H341.669C349.873 573.834 353.974 570.247 353.974 562.999Z" fill="white"/>
<path d="M505.419 542.21C512.221 547.325 516.797 554.858 518.202 563.252H496.57C495.106 560.312 492.797 557.876 489.939 556.257C486.722 554.345 483.033 553.372 479.292 553.447C476.387 553.329 473.491 553.851 470.811 554.978C468.131 556.104 465.732 557.807 463.784 559.965C459.663 564.879 457.565 571.176 457.913 577.58C457.913 585.615 459.963 591.786 464.065 596.094C466.371 598.33 469.12 600.06 472.134 601.173C475.148 602.286 478.361 602.757 481.567 602.555C486.151 602.639 490.638 601.229 494.35 598.538C498.141 595.707 500.879 591.693 502.132 587.132H476.313V572.439H519.213V592.638C517.574 597.667 514.979 602.331 511.571 606.376C507.881 610.735 503.29 614.243 498.114 616.658C492.263 619.362 485.877 620.706 479.432 620.592C471.594 620.797 463.84 618.926 456.957 615.169C450.661 611.628 445.535 606.327 442.208 599.915C438.633 592.972 436.847 585.247 437.01 577.44C436.87 569.68 438.656 562.006 442.208 555.105C445.529 548.707 450.632 543.409 456.901 539.85C463.683 536.122 471.329 534.252 479.067 534.428C488.472 534.018 497.745 536.756 505.419 542.21Z" fill="white"/>
<path d="M293.019 411.321H168.929C156.781 411.306 145.135 406.474 136.545 397.884C127.955 389.294 123.123 377.648 123.108 365.5V241.41C123.123 229.262 127.955 217.616 136.545 209.026C145.135 200.436 156.781 195.604 168.929 195.589H293.019C305.164 195.604 316.807 200.437 325.393 209.028C333.978 217.619 338.804 229.265 338.812 241.41V365.5C338.804 377.645 333.978 389.292 325.393 397.882C316.807 406.473 305.164 411.306 293.019 411.321ZM168.929 215.845C162.151 215.852 155.652 218.548 150.859 223.341C146.067 228.134 143.371 234.632 143.363 241.41V365.5C143.371 372.278 146.067 378.776 150.859 383.569C155.652 388.362 162.151 391.058 168.929 391.065H293.019C299.794 391.058 306.29 388.361 311.078 383.568C315.867 378.774 318.556 372.275 318.556 365.5V241.41C318.556 234.635 315.867 228.136 311.078 223.343C306.29 218.549 299.794 215.852 293.019 215.845H168.929Z" fill="#048739"/>
<path d="M328.696 341.901V365.5C328.689 374.96 324.927 384.031 318.238 390.72C311.548 397.41 302.478 401.172 293.017 401.179H168.927C159.465 401.179 150.39 397.42 143.699 390.728C137.008 384.037 133.249 374.962 133.249 365.5V325.888C153.111 321.617 183.368 320.269 220.086 334.934L242.842 313.245L258.349 352.577C258.349 352.577 262.507 338.108 275.936 340.159C289.365 342.21 311.11 349.486 320.409 343.277C322.914 341.832 325.858 341.343 328.696 341.901Z" fill="#048739"/>
<path d="M285.239 266.75C292.857 266.75 299.034 260.574 299.034 252.956C299.034 245.338 292.857 239.162 285.239 239.162C277.621 239.162 271.445 245.338 271.445 252.956C271.445 260.574 277.621 266.75 285.239 266.75Z" fill="#048739"/>
<path d="M400.222 551.339V569.119H428.444V584.638H400.222V603.52H432V620H380V535H432V551.339H400.222Z" fill="white"/>
</svg>
