<svg width="562" height="675" viewBox="0 0 562 675" fill="none" xmlns="http://www.w3.org/2000/svg">
<g opacity="0.3">
<path opacity="0.3" d="M392.497 138.334C377.136 138.326 362.405 132.221 351.543 121.358C340.681 110.496 334.575 95.766 334.568 80.4044V0.00012207H75.7121C65.7817 0.000121385 55.9488 1.95639 46.7747 5.75742C37.6006 9.55845 29.2646 15.1296 22.2441 22.1528C15.2236 29.1759 9.65596 37.5134 5.85834 46.6888C2.06073 55.8643 0.107643 65.6983 0.111333 75.6286V531.337C0.107643 541.268 2.06073 551.101 5.85834 560.277C9.65596 569.452 15.2236 577.79 22.2441 584.813C29.2646 591.836 37.6006 597.407 46.7747 601.208C55.9488 605.009 65.7817 606.966 75.7121 606.966H386.429C396.359 606.966 406.192 605.009 415.366 601.208C424.54 597.407 432.875 591.836 439.896 584.813C446.916 577.79 452.485 569.452 456.282 560.277C460.08 551.101 462.033 541.268 462.029 531.337V138.362L392.497 138.334Z" fill="#048739"/>
</g>
<path d="M462.031 138.334H392.499C377.138 138.326 362.407 132.221 351.545 121.358C340.683 110.496 334.577 95.7658 334.57 80.4043V0L462.031 138.334Z" fill="#048739"/>
<path d="M516.868 479.28H165.584C140.666 479.28 120.465 499.48 120.465 524.399V629.132C120.465 654.05 140.666 674.25 165.584 674.25H516.868C541.787 674.25 561.986 654.05 561.986 629.132V524.399C561.986 499.48 541.787 479.28 516.868 479.28Z" fill="#048739"/>
<path d="M236.715 599.437V619.889H215.561V599.437H236.715Z" fill="white"/>
<path d="M299.508 535.411V593.116C299.508 601.974 297.101 608.783 292.287 613.54C289.6 616.017 286.443 617.928 283.001 619.159C279.56 620.39 275.906 620.915 272.257 620.703C268.26 620.918 264.261 620.338 260.49 618.998C256.72 617.657 253.252 615.583 250.287 612.894C244.875 607.668 242.159 600.177 242.14 590.419H262.34C262.34 598.313 265.345 602.246 271.301 602.246C276.499 602.246 279.083 599.212 279.083 593.172V535.467L299.508 535.411Z" fill="white"/>
<path d="M333.387 590.25V619.889H312.962V535.411H346.057C356.077 535.411 363.718 537.893 368.981 542.856C371.645 545.466 373.725 548.61 375.086 552.082C376.446 555.554 377.057 559.275 376.876 562.999C376.953 567.908 375.742 572.751 373.364 577.046C370.918 581.234 367.279 584.598 362.913 586.71C357.654 589.207 351.877 590.42 346.057 590.25H333.387ZM356.086 562.999C356.086 555.507 351.985 551.762 343.781 551.762H333.387V573.759H343.781C351.985 573.834 356.086 570.247 356.086 562.999Z" fill="white"/>
<path d="M452.647 542.21C459.449 547.325 464.026 554.858 465.43 563.252H443.798C442.334 560.312 440.025 557.876 437.167 556.257C433.95 554.345 430.262 553.372 426.52 553.447C423.615 553.329 420.72 553.851 418.04 554.978C415.359 556.104 412.96 557.807 411.012 559.965C406.892 564.879 404.793 571.176 405.141 577.58C405.141 585.615 407.192 591.786 411.293 596.094C413.6 598.33 416.348 600.06 419.362 601.173C422.376 602.286 425.589 602.757 428.796 602.555C433.38 602.639 437.866 601.229 441.578 598.538C445.369 595.707 448.107 591.693 449.36 587.132H423.542V572.439H466.441V592.638C464.802 597.667 462.207 602.331 458.8 606.376C455.109 610.735 450.518 614.243 445.343 616.658C439.491 619.362 433.105 620.706 426.66 620.592C418.822 620.797 411.068 618.926 404.185 615.169C397.889 611.628 392.763 606.327 389.436 599.915C385.861 592.972 384.075 585.247 384.239 577.44C384.098 569.68 385.884 562.006 389.436 555.105C392.757 548.707 397.861 543.409 404.129 539.85C410.911 536.122 418.558 534.252 426.295 534.428C435.7 534.018 444.974 536.756 452.647 542.21Z" fill="white"/>
<path d="M293.13 411.321H169.04C156.892 411.306 145.246 406.474 136.656 397.884C128.066 389.294 123.234 377.648 123.219 365.5V241.41C123.234 229.262 128.066 217.616 136.656 209.026C145.246 200.436 156.892 195.604 169.04 195.589H293.13C305.275 195.604 316.918 200.437 325.504 209.028C334.089 217.619 338.916 229.265 338.923 241.41V365.5C338.916 377.645 334.089 389.292 325.504 397.882C316.918 406.473 305.275 411.306 293.13 411.321ZM169.04 215.845C162.262 215.852 155.763 218.548 150.971 223.341C146.178 228.134 143.482 234.632 143.475 241.41V365.5C143.482 372.278 146.178 378.776 150.971 383.569C155.763 388.362 162.262 391.058 169.04 391.065H293.13C299.906 391.058 306.401 388.361 311.189 383.568C315.978 378.774 318.668 372.275 318.668 365.5V241.41C318.668 234.635 315.978 228.136 311.189 223.343C306.401 218.549 299.906 215.852 293.13 215.845H169.04Z" fill="#048739"/>
<path d="M328.808 341.901V365.5C328.8 374.96 325.039 384.031 318.35 390.72C311.66 397.41 302.589 401.172 293.129 401.179H169.039C159.576 401.179 150.501 397.42 143.81 390.728C137.119 384.037 133.36 374.962 133.36 365.5V325.888C153.222 321.617 183.479 320.269 220.198 334.934L242.954 313.245L258.461 352.577C258.461 352.577 262.619 338.108 276.048 340.159C289.477 342.21 311.221 349.486 320.52 343.277C323.026 341.832 325.97 341.343 328.808 341.901Z" fill="#048739"/>
<path d="M285.35 266.75C292.968 266.75 299.145 260.574 299.145 252.956C299.145 245.338 292.968 239.162 285.35 239.162C277.732 239.162 271.556 245.338 271.556 252.956C271.556 260.574 277.732 266.75 285.35 266.75Z" fill="#048739"/>
</svg>
