<svg width="553" height="675" viewBox="0 0 553 675" fill="none" xmlns="http://www.w3.org/2000/svg">
<g opacity="0.3">
<path opacity="0.3" d="M385.688 138.384C370.589 138.362 356.114 132.247 345.44 121.38C334.765 110.513 328.762 95.7818 328.748 80.4175V0H74.31C54.6018 0 35.7007 7.96619 21.7649 22.1463C7.82907 36.3265 0 55.559 0 75.6128V531.424C0.0292666 551.458 7.87126 570.662 21.8039 584.818C35.7366 598.974 54.6209 606.924 74.31 606.924H379.724C389.485 606.928 399.151 604.975 408.169 601.177C417.188 597.379 425.383 591.81 432.287 584.788C439.19 577.766 444.666 569.43 448.402 560.254C452.138 551.079 454.061 541.244 454.061 531.312V138.272L385.688 138.384Z" fill="#09A3A3"/>
</g>
<path d="M454.062 138.384H385.689C370.589 138.362 356.115 132.247 345.44 121.38C334.766 110.513 328.763 95.7817 328.748 80.4174V-0.00012207L454.062 138.384Z" fill="#09A3A3"/>
<path d="M507.937 479.385H162.648C138.155 479.385 118.3 499.589 118.3 524.511V629.262C118.3 654.185 138.155 674.388 162.648 674.388H507.937C532.43 674.388 552.286 654.185 552.286 629.262V524.511C552.286 499.589 532.43 479.385 507.937 479.385Z" fill="#09A3A3"/>
<path d="M207.706 599.562V619.99H186.921V599.562H207.706Z" fill="white"/>
<path d="M311.516 536.089V619.99H291.441V567.587L273.574 620.047H256.205L238.228 567.446V620.047H218.152V536.145H242.701L265.124 594.589L287.216 536.145L311.516 536.089Z" fill="white"/>
<path d="M394.949 599.619C391.488 606 386.259 611.208 379.913 614.595C372.776 618.331 364.831 620.186 356.806 619.99H325.379V535.498H356.778C364.806 535.286 372.762 537.091 379.94 540.753C386.256 544.086 391.466 549.236 394.921 555.56C398.496 562.315 400.295 569.893 400.145 577.562C400.296 585.245 398.507 592.839 394.949 599.619ZM373.307 595.376C375.558 593.035 377.301 590.24 378.425 587.171C379.548 584.103 380.027 580.83 379.83 577.562C380.027 574.294 379.548 571.02 378.425 567.952C377.301 564.884 375.558 562.089 373.307 559.747C368.272 555.278 361.708 553.007 355.037 553.425H345.473V601.698H355.009C361.68 602.116 368.244 599.845 373.279 595.376H373.307Z" fill="white"/>
<path d="M473.256 583.884C476.167 587.579 477.721 592.188 477.651 596.921C477.801 600.095 477.24 603.262 476.009 606.182C474.779 609.103 472.911 611.701 470.548 613.78C465.793 617.854 459.022 619.878 450.149 619.878H411.453V535.386H449.182C457.64 535.386 464.181 537.259 468.806 541.006C471.127 542.927 472.966 545.38 474.172 548.164C475.378 550.949 475.917 553.984 475.744 557.022C475.904 561.605 474.498 566.103 471.764 569.75C469.116 573.108 465.421 575.447 461.288 576.381C466.016 577.386 470.25 580.04 473.256 583.884ZM431.575 570.031H444.621C451.605 570.031 455.097 567.006 455.097 560.955C455.097 554.886 451.531 551.88 444.4 551.88H431.464L431.575 570.031ZM457.087 594.055C457.157 592.723 456.93 591.391 456.423 590.16C455.916 588.929 455.141 587.83 454.157 586.946C451.788 585.101 448.845 584.184 445.865 584.361H431.63V603.384H445.976C453.383 603.384 457.087 600.274 457.087 594.055Z" fill="white"/>
<path d="M227.017 190.873C220.32 190.873 213.689 192.215 207.503 194.824C201.316 197.432 195.696 201.255 190.962 206.075C186.228 210.894 182.474 216.616 179.913 222.912C177.353 229.208 176.037 235.956 176.041 242.77C176.039 253.34 179.211 263.657 185.134 272.34C191.057 281.023 199.446 287.657 209.178 291.352V307.958L214.701 313.578V331.561L209.482 334.652V347.942L214.701 351.033V360.025L208.488 363.677V374.636L214.701 378.317V390.792L208.985 394.164V403.886L224.228 416.109H240.797L248.142 404.645V289.947C257.057 285.826 264.617 279.181 269.92 270.805C275.224 262.429 278.045 252.677 278.048 242.714C278.034 228.955 272.65 215.764 263.08 206.043C253.511 196.322 240.539 190.865 227.017 190.873ZM228.315 233.02C224.887 233.02 221.6 231.634 219.177 229.168C216.753 226.702 215.391 223.358 215.391 219.87C215.399 216.387 216.764 213.049 219.186 210.589C221.609 208.129 224.892 206.748 228.315 206.748C230.011 206.744 231.691 207.081 233.258 207.739C234.826 208.397 236.251 209.362 237.452 210.581C238.652 211.8 239.604 213.248 240.254 214.842C240.904 216.436 241.238 218.144 241.238 219.87C241.209 223.335 239.834 226.649 237.413 229.086C234.991 231.523 231.721 232.887 228.315 232.879V233.02Z" fill="#09A3A3"/>
</svg>
