<svg width="554" height="664" viewBox="0 0 554 664" fill="none" xmlns="http://www.w3.org/2000/svg">
<g opacity="0.3">
<path opacity="0.3" d="M386.614 136.268C371.517 136.253 357.043 130.244 346.367 119.558C335.692 108.873 329.688 94.385 329.673 79.2738V0.167974H75.2635C65.5026 0.164343 55.8365 2.08555 46.8176 5.82183C37.7987 9.55812 29.6036 15.0363 22.7003 21.9434C15.7971 28.8506 10.321 37.0513 6.58482 46.0772C2.84866 55.1031 0.925781 64.7774 0.925781 74.5473V522.924C0.955054 542.636 8.80081 561.531 22.7394 575.457C36.6781 589.382 55.5696 597.2 75.2635 597.193H380.677C400.385 597.193 419.286 589.357 433.222 575.408C447.158 561.459 454.987 542.54 454.987 522.814V136.268H386.614Z" fill="#438EFF"/>
</g>
<path d="M454.987 136.268H386.614C371.517 136.253 357.043 130.244 346.367 119.558C335.692 108.873 329.688 94.385 329.673 79.2738V0.167969L454.987 136.268Z" fill="#438EFF"/>
<path d="M508.89 471.708H163.601C139.108 471.708 119.253 491.581 119.253 516.097V619.139C119.253 643.655 139.108 663.529 163.601 663.529H508.89C533.383 663.529 553.239 643.655 553.239 619.139V516.097C553.239 491.581 533.383 471.708 508.89 471.708Z" fill="#438EFF"/>
<path d="M231.082 589.924V610.018H210.408V589.924H231.082Z" fill="white"/>
<path d="M334.893 527.485V610.018H314.79V558.497L296.951 610.101H279.443L261.494 558.386V610.101H241.391V527.568H265.94L288.39 585.059L310.482 527.568L334.893 527.485Z" fill="white"/>
<path d="M368.85 526.904V610.018H348.756V526.904H368.85Z" fill="white"/>
<path d="M452.209 589.979C448.748 596.263 443.52 601.395 437.172 604.739C430.03 608.395 422.087 610.21 414.065 610.018H382.694V526.904H414.065C422.094 526.689 430.052 528.464 437.228 532.073C443.558 535.345 448.773 540.424 452.209 546.667C455.807 553.293 457.617 560.743 457.46 568.281C457.61 575.846 455.801 583.32 452.209 589.979ZM430.594 585.805C432.841 583.499 434.582 580.749 435.705 577.732C436.828 574.714 437.309 571.495 437.117 568.281C437.307 565.068 436.826 561.849 435.703 558.832C434.579 555.815 432.839 553.065 430.594 550.758C425.548 546.363 418.975 544.129 412.296 544.539H402.788V592.024H412.296C418.975 592.434 425.548 590.2 430.594 585.805Z" fill="white"/>
<path d="M332.933 364.796H302.695V242.461C302.695 238.363 301.069 234.433 298.174 231.536C295.279 228.638 291.352 227.01 287.258 227.01H209.938C205.842 227.01 201.913 228.637 199.014 231.534C196.114 234.431 194.482 238.361 194.474 242.461V364.796H164.099V232.124C164.106 222.723 167.842 213.71 174.485 207.066C181.129 200.421 190.136 196.689 199.528 196.689H297.31C306.699 196.689 315.704 200.422 322.343 207.067C328.982 213.713 332.712 222.726 332.712 232.124L332.933 364.796Z" fill="#438EFF"/>
<path d="M297.122 400.672C316.937 400.672 332.999 384.609 332.999 364.795C332.999 344.981 316.937 328.918 297.122 328.918C277.308 328.918 261.246 344.981 261.246 364.795C261.246 384.609 277.308 400.672 297.122 400.672Z" fill="#438EFF"/>
<path d="M158.858 400.672C178.672 400.672 194.735 384.609 194.735 364.795C194.735 344.981 178.672 328.918 158.858 328.918C139.044 328.918 122.981 344.981 122.981 364.795C122.981 384.609 139.044 400.672 158.858 400.672Z" fill="#438EFF"/>
</svg>
