<svg width="553" height="664" viewBox="0 0 553 664" fill="none" xmlns="http://www.w3.org/2000/svg">
<g opacity="0.3">
<path opacity="0.3" d="M385.89 136.1C370.793 136.085 356.318 130.076 345.643 119.39C334.968 108.705 328.964 94.217 328.949 79.1058V0H74.5116C54.8033 0 35.9021 7.83642 21.9663 21.7853C8.03045 35.7341 0.201172 54.6526 0.201172 74.3793V522.756C0.230438 542.464 8.07273 561.354 22.0054 575.279C35.938 589.204 54.8225 597.025 74.5116 597.025H379.925C389.684 597.029 399.349 595.107 408.366 591.371C417.384 587.634 425.577 582.155 432.478 575.248C439.379 568.34 444.853 560.139 448.586 551.114C452.319 542.088 454.239 532.414 454.235 522.646V136.1H385.89Z" fill="#6A53C5"/>
</g>
<path d="M454.236 136.1H385.891C370.793 136.085 356.319 130.076 345.644 119.39C334.968 108.705 328.964 94.217 328.95 79.1058V0L454.236 136.1Z" fill="#6A53C5"/>
<path d="M508.139 471.539H162.85C138.357 471.539 118.501 491.413 118.501 515.929V618.971C118.501 643.487 138.357 663.361 162.85 663.361H508.139C532.632 663.361 552.487 643.487 552.487 618.971V515.929C552.487 491.413 532.632 471.539 508.139 471.539Z" fill="#6A53C5"/>
<path d="M202.938 589.755V609.85H182.152V589.755H202.938Z" fill="white"/>
<path d="M306.748 527.345V609.85H286.672V558.329L268.806 609.933H251.436L233.459 558.219V609.933H213.384V527.428H237.933L260.356 584.891L282.447 527.428L306.748 527.345Z" fill="white"/>
<path d="M428.774 526.736L449.126 589.286L469.451 526.736H490.934L462.05 609.85H436.092L407.319 526.736H428.774Z" fill="white"/>
<path d="M216.09 192.402C187.967 192.402 160.995 203.585 141.109 223.489C121.223 243.394 110.051 270.391 110.051 298.54C110.051 326.69 121.223 353.686 141.109 373.591C160.995 393.496 187.967 404.678 216.09 404.678C244.211 404.663 271.175 393.472 291.055 373.563C310.934 353.655 322.101 326.66 322.101 298.513C322.087 270.375 310.913 243.394 291.035 223.498C271.157 203.601 244.202 192.417 216.09 192.402ZM216.09 213.077C221.715 213.077 227.109 215.314 231.086 219.295C235.063 223.275 237.298 228.675 237.298 234.305C237.298 239.935 235.063 245.334 231.086 249.315C227.109 253.296 221.715 255.532 216.09 255.532C210.466 255.532 205.071 253.296 201.094 249.315C197.117 245.334 194.882 239.935 194.882 234.305C194.882 228.675 197.117 223.275 201.094 219.295C205.071 215.314 210.466 213.077 216.09 213.077ZM142.139 255.809C144.952 250.934 149.584 247.378 155.016 245.921C160.448 244.465 166.236 245.228 171.106 248.042C173.52 249.434 175.636 251.288 177.334 253.498C179.031 255.708 180.277 258.232 181 260.924C181.723 263.617 181.91 266.426 181.548 269.19C181.187 271.954 180.284 274.621 178.893 277.036C176.075 281.912 171.438 285.469 166.002 286.926C160.565 288.382 154.773 287.619 149.898 284.803C145.028 281.988 141.475 277.352 140.02 271.914C138.565 266.477 139.327 260.684 142.139 255.809ZM171.106 349.066C168.693 350.458 166.029 351.361 163.267 351.723C160.505 352.085 157.7 351.899 155.01 351.175C152.32 350.451 149.798 349.204 147.59 347.505C145.381 345.806 143.53 343.687 142.139 341.272C139.327 336.397 138.565 330.603 140.02 325.166C141.475 319.729 145.028 315.093 149.898 312.277C154.773 309.462 160.565 308.698 166.002 310.155C171.438 311.611 176.075 315.168 178.893 320.044C181.704 324.927 182.463 330.726 181.003 336.169C179.542 341.611 175.983 346.25 171.106 349.066ZM216.09 384.031C210.466 384.031 205.071 381.794 201.094 377.813C197.117 373.832 194.882 368.433 194.882 362.803C194.882 357.173 197.117 351.774 201.094 347.793C205.071 343.812 210.466 341.576 216.09 341.576C218.876 341.572 221.635 342.119 224.21 343.184C226.785 344.25 229.124 345.813 231.094 347.785C233.064 349.757 234.626 352.098 235.691 354.676C236.755 357.253 237.301 360.015 237.298 362.803C237.298 368.433 235.063 373.832 231.086 377.813C227.109 381.794 221.715 384.031 216.09 384.031ZM290.041 341.272C288.653 343.69 286.802 345.811 284.594 347.512C282.386 349.213 279.864 350.462 277.173 351.186C274.482 351.91 271.675 352.095 268.913 351.732C266.15 351.368 263.486 350.462 261.073 349.066C256.202 346.245 252.648 341.604 251.193 336.162C249.738 330.721 250.501 324.923 253.314 320.044C256.127 315.17 260.759 311.613 266.191 310.157C271.623 308.7 277.411 309.463 282.282 312.277C284.696 313.669 286.811 315.523 288.508 317.734C290.205 319.945 291.45 322.47 292.17 325.163C292.891 327.856 293.074 330.666 292.709 333.43C292.344 336.194 291.437 338.859 290.041 341.272ZM282.282 284.692C277.411 287.507 271.623 288.269 266.191 286.813C260.759 285.356 256.127 281.8 253.314 276.926C250.503 272.051 249.74 266.258 251.195 260.82C252.65 255.383 256.204 250.747 261.073 247.931C265.944 245.117 271.732 244.354 277.164 245.811C282.596 247.267 287.228 250.824 290.041 255.698C291.437 258.111 292.344 260.776 292.709 263.54C293.074 266.304 292.891 269.113 292.17 271.807C291.45 274.5 290.205 277.024 288.508 279.236C286.811 281.447 284.696 283.301 282.282 284.692Z" fill="#6A53C5"/>
<path d="M315.88 382.759C314.421 382.755 312.967 382.597 311.541 382.289C299.738 379.525 294.957 366.977 294.957 366.452C294.791 366 294.717 365.52 294.738 365.039C294.76 364.558 294.876 364.087 295.082 363.652C295.288 363.217 295.578 362.828 295.937 362.506C296.295 362.185 296.713 361.938 297.168 361.781C297.616 361.618 298.092 361.545 298.568 361.567C299.045 361.589 299.512 361.705 299.944 361.908C300.375 362.111 300.762 362.397 301.083 362.75C301.403 363.102 301.651 363.515 301.811 363.964C301.811 364.13 305.377 373.445 313.227 375.186C319.916 376.651 328.567 372.422 338.269 362.637C338.608 362.297 339.011 362.027 339.454 361.843C339.898 361.659 340.373 361.564 340.853 361.564C341.333 361.564 341.809 361.659 342.252 361.843C342.696 362.027 343.098 362.297 343.437 362.637C344.116 363.321 344.497 364.245 344.497 365.208C344.497 366.171 344.116 367.095 343.437 367.778C333.404 377.756 324.2 382.759 315.88 382.759Z" fill="#6A53C5"/>
<path d="M324.452 609.521V525.093H344.858V560.793H345.971L373.88 525.093H397.914L367.985 562.772L398.449 609.521H374.045L353.02 576.335L344.858 586.641V609.521H324.452Z" fill="white"/>
</svg>
