<svg width="553" height="664" viewBox="0 0 553 664" fill="none" xmlns="http://www.w3.org/2000/svg">
<g opacity="0.3">
<path opacity="0.3" d="M386.009 136.1C370.912 136.085 356.437 130.076 345.762 119.39C335.087 108.705 329.083 94.217 329.068 79.1058V0H74.6307C54.9225 0 36.0212 7.83642 22.0854 21.7853C8.14959 35.7341 0.320312 54.6526 0.320312 74.3793V522.756C0.349579 542.464 8.19187 561.354 22.1245 575.279C36.0572 589.204 54.9416 597.025 74.6307 597.025H380.044C389.804 597.029 399.468 595.107 408.485 591.371C417.503 587.634 425.696 582.155 432.597 575.248C439.498 568.34 444.972 560.139 448.705 551.114C452.438 542.088 454.358 532.414 454.354 522.646V136.1H386.009Z" fill="#6A53C5"/>
</g>
<path d="M454.355 136.1H386.01C370.913 136.085 356.438 130.076 345.763 119.39C335.088 108.705 329.084 94.217 329.069 79.1058V0L454.355 136.1Z" fill="#6A53C5"/>
<path d="M508.258 471.539H162.969C138.476 471.539 118.62 491.413 118.62 515.929V618.971C118.62 643.487 138.476 663.361 162.969 663.361H508.258C532.751 663.361 552.606 643.487 552.606 618.971V515.929C552.606 491.413 532.751 471.539 508.258 471.539Z" fill="#6A53C5"/>
<path d="M203.057 589.755V609.85H182.272V589.755H203.057Z" fill="white"/>
<path d="M306.867 527.345V609.85H286.791V558.329L268.925 609.933H251.556L233.579 558.219V609.933H213.503V527.428H238.052L260.475 584.891L282.566 527.428L306.867 527.345Z" fill="white"/>
<path d="M381.509 530.91C387.827 534.501 393.048 539.747 396.613 546.084C400.349 552.777 402.254 560.337 402.136 568.003C402.279 575.732 400.374 583.362 396.613 590.115C393.036 596.468 387.794 601.724 381.453 605.317C374.998 609.007 367.679 610.914 360.246 610.845C352.813 610.906 345.497 608.999 339.038 605.317C332.704 601.724 327.472 596.467 323.905 590.115C320.133 583.367 318.226 575.734 318.383 568.003C318.239 560.334 320.146 552.767 323.905 546.084C327.489 539.752 332.718 534.508 339.038 530.91C345.497 527.227 352.813 525.32 360.246 525.382C367.697 525.312 375.033 527.219 381.509 530.91ZM344.506 550.562C340.419 555.421 338.344 561.661 338.706 568.003C338.373 574.332 340.445 580.553 344.506 585.416C346.49 587.574 348.922 589.272 351.632 590.39C354.341 591.507 357.263 592.017 360.19 591.884C363.109 592.009 366.019 591.495 368.719 590.378C371.418 589.26 373.842 587.567 375.82 585.416C379.93 580.576 382.034 574.346 381.702 568.003C382.026 561.679 379.944 555.466 375.875 550.617C373.892 548.457 371.46 546.758 368.75 545.641C366.04 544.523 363.118 544.014 360.19 544.149C357.267 544.013 354.35 544.516 351.641 545.623C348.932 546.731 346.497 548.416 344.506 550.562Z" fill="white"/>
<path d="M428.893 526.736L449.246 589.286L469.57 526.736H491.053L462.169 609.85H436.212L407.438 526.736H428.893Z" fill="white"/>
<path d="M216.209 192.402C188.086 192.402 161.114 203.585 141.228 223.489C121.342 243.394 110.17 270.391 110.17 298.54C110.17 326.69 121.342 353.686 141.228 373.591C161.114 393.496 188.086 404.678 216.209 404.678C244.33 404.663 271.294 393.472 291.174 373.563C311.053 353.655 322.22 326.66 322.22 298.513C322.206 270.375 311.032 243.394 291.154 223.498C271.276 203.601 244.321 192.417 216.209 192.402ZM216.209 213.077C221.834 213.077 227.228 215.314 231.205 219.295C235.182 223.275 237.417 228.675 237.417 234.305C237.417 239.935 235.182 245.334 231.205 249.315C227.228 253.296 221.834 255.532 216.209 255.532C210.585 255.532 205.19 253.296 201.213 249.315C197.236 245.334 195.001 239.935 195.001 234.305C195.001 228.675 197.236 223.275 201.213 219.295C205.19 215.314 210.585 213.077 216.209 213.077ZM142.258 255.809C145.071 250.934 149.703 247.378 155.135 245.921C160.567 244.465 166.355 245.228 171.226 248.042C173.639 249.434 175.755 251.288 177.453 253.498C179.151 255.708 180.396 258.232 181.119 260.924C181.842 263.617 182.029 266.426 181.667 269.19C181.306 271.954 180.403 274.621 179.012 277.036C176.194 281.912 171.558 285.469 166.121 286.926C160.684 288.382 154.892 287.619 150.017 284.803C145.148 281.988 141.595 277.352 140.139 271.914C138.684 266.477 139.447 260.684 142.258 255.809ZM171.226 349.066C168.812 350.458 166.148 351.361 163.386 351.723C160.624 352.085 157.819 351.899 155.129 351.175C152.439 350.451 149.917 349.204 147.709 347.505C145.501 345.806 143.649 343.687 142.258 341.272C139.447 336.397 138.684 330.603 140.139 325.166C141.595 319.729 145.148 315.093 150.017 312.277C154.892 309.462 160.684 308.698 166.121 310.155C171.558 311.611 176.194 315.168 179.012 320.044C181.823 324.927 182.582 330.726 181.122 336.169C179.662 341.611 176.102 346.25 171.226 349.066ZM216.209 384.031C210.585 384.031 205.19 381.794 201.213 377.813C197.236 373.832 195.001 368.433 195.001 362.803C195.001 357.173 197.236 351.774 201.213 347.793C205.19 343.812 210.585 341.576 216.209 341.576C218.995 341.572 221.755 342.119 224.329 343.184C226.904 344.25 229.243 345.813 231.213 347.785C233.183 349.757 234.745 352.098 235.81 354.676C236.874 357.253 237.421 360.015 237.417 362.803C237.417 368.433 235.182 373.832 231.205 377.813C227.228 381.794 221.834 384.031 216.209 384.031ZM290.16 341.272C288.772 343.69 286.921 345.811 284.713 347.512C282.505 349.213 279.983 350.462 277.293 351.186C274.602 351.91 271.795 352.095 269.032 351.732C266.269 351.368 263.605 350.462 261.193 349.066C256.321 346.245 252.767 341.604 251.312 336.162C249.857 330.721 250.62 324.923 253.433 320.044C256.246 315.17 260.878 311.613 266.31 310.157C271.742 308.7 277.53 309.463 282.401 312.277C284.815 313.669 286.931 315.523 288.627 317.734C290.324 319.945 291.569 322.47 292.29 325.163C293.01 327.856 293.194 330.666 292.828 333.43C292.463 336.194 291.556 338.859 290.16 341.272ZM282.401 284.692C277.53 287.507 271.742 288.269 266.31 286.813C260.878 285.356 256.246 281.8 253.433 276.926C250.622 272.051 249.859 266.258 251.314 260.82C252.77 255.383 256.323 250.747 261.193 247.931C266.063 245.117 271.851 244.354 277.283 245.811C282.715 247.267 287.347 250.824 290.16 255.698C291.556 258.111 292.463 260.776 292.828 263.54C293.194 266.304 293.01 269.113 292.29 271.807C291.569 274.5 290.324 277.024 288.627 279.236C286.931 281.447 284.815 283.301 282.401 284.692Z" fill="#6A53C5"/>
<path d="M315.999 382.759C314.541 382.755 313.086 382.597 311.66 382.289C299.858 379.525 295.076 366.977 295.076 366.452C294.91 366 294.836 365.52 294.857 365.039C294.879 364.558 294.995 364.087 295.201 363.652C295.407 363.217 295.697 362.828 296.056 362.506C296.414 362.185 296.833 361.938 297.287 361.781C297.735 361.618 298.211 361.545 298.687 361.567C299.164 361.589 299.631 361.705 300.063 361.908C300.494 362.111 300.881 362.397 301.202 362.75C301.522 363.102 301.77 363.515 301.93 363.964C301.93 364.13 305.496 373.445 313.346 375.186C320.035 376.651 328.687 372.422 338.388 362.637C338.727 362.297 339.13 362.027 339.573 361.843C340.017 361.659 340.492 361.564 340.972 361.564C341.452 361.564 341.928 361.659 342.372 361.843C342.815 362.027 343.218 362.297 343.557 362.637C344.235 363.321 344.616 364.245 344.616 365.208C344.616 366.171 344.235 367.095 343.557 367.778C333.523 377.756 324.319 382.759 315.999 382.759Z" fill="#6A53C5"/>
</svg>
