<svg width="553" height="664" viewBox="0 0 553 664" fill="none" xmlns="http://www.w3.org/2000/svg">
<g opacity="0.3">
<path opacity="0.3" d="M386.151 136.268C371.054 136.253 356.579 130.244 345.904 119.558C335.229 108.873 329.225 94.3849 329.211 79.2738V0.167969H74.7728C55.0646 0.167969 36.1637 8.00431 22.2278 21.9531C8.292 35.902 0.462891 54.8207 0.462891 74.5473V522.924C0.492157 542.632 8.33411 561.522 22.2668 575.447C36.1994 589.372 55.0837 597.193 74.7728 597.193H380.214C399.908 597.193 418.797 589.368 432.73 575.437C446.663 561.506 454.502 542.609 454.524 522.896V136.268H386.151Z" fill="#438EFF"/>
</g>
<path d="M454.525 136.268H386.152C371.055 136.253 356.58 130.244 345.905 119.558C335.23 108.873 329.226 94.385 329.211 79.2738V0.167969L454.525 136.268Z" fill="#438EFF"/>
<path d="M508.4 471.708H163.111C138.618 471.708 118.762 491.581 118.762 516.097V619.139C118.762 643.655 138.618 663.529 163.111 663.529H508.4C532.893 663.529 552.748 643.655 552.748 619.139V516.097C552.748 491.581 532.893 471.708 508.4 471.708Z" fill="#438EFF"/>
<path d="M217.696 589.924V610.018H196.883V589.924H217.696Z" fill="white"/>
<path d="M321.507 527.485V610.018H301.431V558.497L283.565 610.101H266.196L248.219 558.386V610.101H228.088V527.568H252.637L275.06 585.059L297.151 527.568L321.507 527.485Z" fill="white"/>
<path d="M355.464 580.858V610.018H335.369V526.904H367.929C377.797 526.904 385.342 529.364 390.511 534.257C393.124 536.822 395.165 539.912 396.499 543.323C397.833 546.734 398.43 550.389 398.25 554.047C398.35 558.879 397.157 563.65 394.795 567.867C392.382 571.989 388.805 575.306 384.513 577.403C379.332 579.837 373.651 581.02 367.929 580.858H355.464ZM377.797 554.047C377.797 546.787 373.761 543.147 365.69 543.129H355.464V564.771H365.69C373.761 564.771 377.797 561.196 377.797 554.047Z" fill="white"/>
<path d="M451.557 526.269C455.463 528.042 458.761 530.926 461.038 534.561C463.21 538.12 464.331 542.222 464.272 546.391C464.49 551.099 463.009 555.73 460.098 559.437C457.445 562.649 453.764 564.846 449.678 565.656V566.264C460.439 569.691 465.81 576.389 465.792 586.358C465.87 590.825 464.733 595.23 462.503 599.1C460.239 602.889 456.901 605.919 452.912 607.807C448.189 609.996 443.024 611.065 437.82 610.93C428.257 610.93 420.656 608.581 415.073 603.882C409.489 599.183 406.421 591.997 405.951 582.351H425.576C425.552 585.522 426.637 588.601 428.644 591.057C429.705 592.167 430.999 593.027 432.433 593.577C433.867 594.126 435.405 594.351 436.936 594.236C438.196 594.304 439.457 594.108 440.637 593.66C441.818 593.213 442.892 592.524 443.79 591.638C444.642 590.751 445.306 589.701 445.743 588.552C446.18 587.403 446.381 586.177 446.333 584.949C446.333 578.112 441.395 574.703 431.518 574.722H427.759V558.387H431.408C440.253 558.516 444.675 555.337 444.675 548.851C444.757 547.665 444.595 546.474 444.201 545.353C443.806 544.231 443.187 543.202 442.381 542.328C441.564 541.545 440.596 540.938 439.536 540.543C438.476 540.149 437.347 539.975 436.217 540.034C434.966 539.959 433.714 540.169 432.555 540.647C431.397 541.126 430.362 541.861 429.528 542.798C427.79 544.998 426.82 547.706 426.764 550.509H407.112C407.065 546.753 407.775 543.025 409.199 539.549C410.624 536.073 412.734 532.92 415.404 530.277C420.49 525.578 427.621 523.228 436.798 523.228C441.883 523.119 446.928 524.159 451.557 526.269Z" fill="white"/>
<path d="M332.47 364.796H302.232V242.461C302.232 238.363 300.606 234.433 297.711 231.536C294.816 228.638 290.89 227.01 286.796 227.01H209.476C207.448 227.01 205.441 227.41 203.568 228.186C201.695 228.963 199.994 230.101 198.56 231.536C197.127 232.97 195.99 234.674 195.214 236.548C194.438 238.423 194.039 240.432 194.039 242.461V364.796H163.663V232.124C163.663 227.468 164.58 222.858 166.361 218.557C168.142 214.256 170.752 210.348 174.042 207.058C177.332 203.767 181.238 201.157 185.537 199.378C189.835 197.599 194.441 196.685 199.093 196.689H297.123C306.512 196.689 315.517 200.422 322.156 207.067C328.795 213.713 332.525 222.726 332.525 232.124L332.47 364.796Z" fill="#438EFF"/>
<path d="M296.659 400.672C316.474 400.672 332.536 384.609 332.536 364.795C332.536 344.981 316.474 328.918 296.659 328.918C276.845 328.918 260.783 344.981 260.783 364.795C260.783 384.609 276.845 400.672 296.659 400.672Z" fill="#438EFF"/>
<path d="M158.395 400.672C178.209 400.672 194.271 384.609 194.271 364.795C194.271 344.981 178.209 328.918 158.395 328.918C138.58 328.918 122.518 344.981 122.518 364.795C122.518 384.609 138.58 400.672 158.395 400.672Z" fill="#438EFF"/>
</svg>
