<svg width="553" height="664" viewBox="0 0 553 664" fill="none" xmlns="http://www.w3.org/2000/svg">
<g opacity="0.3">
<path opacity="0.3" d="M385.778 136.1C370.681 136.085 356.206 130.076 345.531 119.39C334.856 108.705 328.852 94.217 328.838 79.1058V0H74.3996C54.6961 -1.36173e-06 35.7994 7.83262 21.8644 21.7755C7.92936 35.7183 0.0971657 54.6299 0.0898438 74.3518V522.728C0.111799 542.441 7.9505 561.338 21.8839 575.269C35.8174 589.2 54.7057 597.025 74.3996 597.025H379.814C389.574 597.029 399.24 595.107 408.259 591.371C417.278 587.635 425.473 582.157 432.376 575.249C439.28 568.342 444.756 560.142 448.492 551.116C452.228 542.09 454.151 532.416 454.151 522.646V136.1H385.778Z" fill="#5956E9"/>
</g>
<path d="M454.152 136.1H385.779C370.682 136.085 356.207 130.076 345.532 119.39C334.856 108.705 328.853 94.217 328.838 79.1058V0L454.152 136.1Z" fill="#5956E9"/>
<path d="M508.027 471.539H162.738C138.245 471.539 118.39 491.413 118.39 515.929V618.971C118.39 643.487 138.245 663.361 162.738 663.361H508.027C532.52 663.361 552.376 643.487 552.376 618.971V515.929C552.376 491.413 532.52 471.539 508.027 471.539Z" fill="#5956E9"/>
<path d="M217.13 589.755V609.85H196.317V589.755H217.13Z" fill="white"/>
<path d="M320.94 527.345V609.85H300.865V558.329L282.998 609.933H265.629L247.652 558.219V609.933H227.576V527.428H252.126L274.548 584.891L296.64 527.428L320.94 527.345Z" fill="white"/>
<path d="M354.897 580.717V609.85H334.803V526.736H367.39C377.258 526.736 384.803 529.196 389.972 534.089C392.587 536.659 394.63 539.753 395.964 543.169C397.298 546.585 397.893 550.244 397.711 553.907C397.807 558.738 396.614 563.508 394.256 567.727C391.842 571.841 388.264 575.149 383.974 577.235C378.8 579.691 373.116 580.884 367.39 580.717H354.897ZM377.23 553.907C377.23 546.536 373.195 542.851 365.124 542.851H354.897V564.493H365.124C373.195 564.566 377.23 561.038 377.23 553.907Z" fill="white"/>
<path d="M405.744 594.564V577.676L443.721 525.603H465.336V576.985H475.342V594.482H465.336V609.767H444.993V594.482L405.744 594.564ZM446.651 548.958L426.198 577.068H446.651V548.958Z" fill="white"/>
<path d="M329.915 364.6V232.729C329.908 232.089 329.844 231.451 329.722 230.822C329.692 230.634 329.646 230.449 329.584 230.269C329.484 229.837 329.355 229.412 329.197 228.998C329.126 228.809 329.043 228.624 328.949 228.445C328.78 228.042 328.576 227.653 328.341 227.284L328.065 226.842C327.717 226.341 327.33 225.87 326.905 225.432L326.712 225.267C326.336 224.912 325.939 224.58 325.525 224.272L325.027 223.968L323.923 223.359L323.343 223.111C322.911 222.943 322.468 222.805 322.018 222.696H321.575C320.949 222.563 320.31 222.498 319.67 222.503H133.661C131.104 222.737 128.727 223.918 126.995 225.815C125.263 227.712 124.302 230.188 124.299 232.757C124.299 232.923 124.299 233.061 124.299 233.227V365.07C124.232 366.767 124.771 368.432 125.818 369.769C126.724 371.3 128.012 372.57 129.557 373.452C131.102 374.334 132.849 374.798 134.627 374.799H319.642C322.348 374.785 324.94 373.709 326.862 371.801C328.783 369.894 329.879 367.308 329.915 364.6ZM135.4 247.323V227.312H151.665V247.323H135.4ZM162.849 247.323V227.312H179.114V247.323H162.849ZM190.297 247.323V227.312H206.562V247.323H190.297ZM217.746 247.323V227.312H234.011V247.323H217.746ZM245.194 247.323V227.312H261.459V247.323H245.194ZM272.643 247.323V227.312H288.908V247.323H272.643ZM300.091 247.323V227.312H316.356V247.323H300.091ZM131.644 344.368V252.741H322.818V344.368H131.644ZM135.372 369.769V349.757H151.637V369.769H135.372ZM162.821 369.769V349.757H179.086V369.769H162.821ZM190.27 369.769V349.757H206.534V369.769H190.27ZM217.718 369.769V349.757H233.983V369.769H217.718ZM245.167 369.769V349.757H261.431V369.769H245.167ZM272.615 369.769V349.757H288.88V369.769H272.615ZM300.064 369.769V349.757H316.329V369.769H300.064Z" fill="#5956E9"/>
<path d="M249.263 291.768L222.812 276.483C221.443 275.7 219.894 275.289 218.317 275.292C216.74 275.295 215.191 275.712 213.826 276.501C212.46 277.29 211.326 278.423 210.536 279.788C209.746 281.153 209.328 282.701 209.323 284.278V314.848C209.328 316.424 209.746 317.973 210.536 319.337C211.326 320.702 212.46 321.836 213.826 322.625C215.191 323.414 216.74 323.83 218.317 323.833C219.894 323.837 221.443 323.426 222.812 322.642L249.263 307.357C250.629 306.565 251.762 305.428 252.55 304.06C253.338 302.692 253.753 301.141 253.753 299.563C253.753 297.984 253.338 296.433 252.55 295.065C251.762 293.697 250.629 292.56 249.263 291.768Z" fill="#5956E9"/>
</svg>
