<svg width="554" height="664" viewBox="0 0 554 664" fill="none" xmlns="http://www.w3.org/2000/svg">
<g opacity="0.3">
<path opacity="0.3" d="M386.645 136.1C371.546 136.085 357.068 130.076 346.388 119.392C335.708 108.708 329.699 94.2195 329.677 79.1058V0H75.2668C55.5585 0 36.6573 7.83642 22.7215 21.7853C8.78564 35.7341 0.957031 54.6526 0.957031 74.3793V522.756C0.986298 542.464 8.82791 561.354 22.7606 575.279C36.6932 589.204 55.5776 597.025 75.2668 597.025H380.681C400.389 597.025 419.29 589.188 433.225 575.24C447.161 561.291 454.99 542.372 454.99 522.646V136.1H386.645Z" fill="#5956E9"/>
</g>
<path d="M454.99 136.1H386.645C371.545 136.085 357.068 130.076 346.388 119.392C335.708 108.708 329.698 94.2195 329.677 79.1058V0L454.99 136.1Z" fill="#5956E9"/>
<path d="M508.894 471.539H163.605C139.112 471.539 119.256 491.413 119.256 515.929V618.971C119.256 643.487 139.112 663.361 163.605 663.361H508.894C533.387 663.361 553.243 643.487 553.243 618.971V515.929C553.243 491.413 533.387 471.539 508.894 471.539Z" fill="#5956E9"/>
<path d="M180.635 589.755V609.85H159.822V589.755H180.635Z" fill="white"/>
<path d="M284.445 527.345V609.85H264.341V558.329L246.503 609.933H229.106L211.156 558.219V609.933H191.053V527.428H215.602L238.053 584.891L260.144 527.428L284.445 527.345Z" fill="white"/>
<path d="M318.402 580.717V609.85H298.308V526.736H330.868C340.726 526.736 348.244 529.187 353.422 534.089C356.046 536.653 358.097 539.746 359.436 543.163C360.775 546.579 361.372 550.242 361.189 553.907C361.264 558.736 360.073 563.501 357.734 567.727C355.319 571.841 351.742 575.149 347.452 577.235C342.277 579.691 336.593 580.884 330.868 580.717H318.402ZM340.735 553.907C340.735 546.536 336.7 542.851 328.629 542.851H318.402V564.493H328.629C336.7 564.566 340.735 561.038 340.735 553.907Z" fill="white"/>
<path d="M391.11 542.74V560.126H419.193V575.3H391.11V593.763H422.731V609.85H370.989V526.736H422.731V542.74H391.11Z" fill="white"/>
<path d="M498.739 533.453C505.438 538.479 509.941 545.894 511.315 554.155H490.171C488.776 551.185 486.523 548.701 483.703 547.024C480.538 545.142 476.909 544.184 473.228 544.26C470.368 544.145 467.519 544.658 464.878 545.761C462.238 546.864 459.871 548.53 457.943 550.645C453.916 555.504 451.864 561.7 452.193 568.003C452.193 575.908 454.211 581.979 458.246 586.218C460.515 588.418 463.219 590.12 466.185 591.215C469.15 592.31 472.311 592.773 475.466 592.575C479.976 592.657 484.39 591.269 488.042 588.622C491.722 585.908 494.411 582.064 495.699 577.677H470.298V563.221H512.283V583.205C510.658 588.147 508.107 592.734 504.765 596.721C501.128 601.003 496.613 604.453 491.525 606.837C485.768 609.497 479.485 610.819 473.145 610.707C465.43 610.9 457.801 609.05 451.033 605.344C444.839 601.872 439.795 596.665 436.522 590.364C433.03 583.573 431.273 576.024 431.408 568.39C431.255 560.709 433.012 553.111 436.522 546.278C439.799 539.997 444.818 534.796 450.977 531.297C457.65 527.629 465.173 525.789 472.785 525.962C482.028 525.504 491.161 528.14 498.739 533.453Z" fill="white"/>
<path d="M330.781 364.6V232.729C330.775 232.089 330.71 231.451 330.588 230.822C330.604 230.638 330.604 230.453 330.588 230.269C330.588 229.827 330.34 229.412 330.202 228.998L329.953 228.445C329.774 228.041 329.562 227.652 329.318 227.284L329.069 226.842C328.713 226.348 328.326 225.877 327.909 225.432L327.716 225.266C327.34 224.912 326.944 224.58 326.529 224.271L326.032 223.967C325.673 223.746 325.286 223.553 324.899 223.359L324.347 223.11C323.905 222.943 323.453 222.805 322.994 222.696H322.552C321.936 222.562 321.305 222.497 320.674 222.502H134.665C132.109 222.736 129.732 223.918 128 225.815C126.268 227.711 125.306 230.187 125.303 232.757C125.303 232.923 125.303 233.061 125.303 233.227V365.014C125.249 366.71 125.786 368.371 126.822 369.713C127.735 371.245 129.029 372.514 130.577 373.396C132.126 374.277 133.877 374.742 135.659 374.744H320.674C323.342 374.687 325.884 373.599 327.768 371.708C329.652 369.817 330.732 367.27 330.781 364.6ZM136.129 247.323V227.312H152.393V247.323H136.129ZM163.577 247.323V227.312H179.842V247.323H163.577ZM191.025 247.323V227.312H207.291V247.323H191.025ZM218.474 247.323V227.312H234.739V247.323H218.474ZM245.923 247.323V227.312H262.187V247.323H245.923ZM273.371 247.323V227.312H289.636V247.323H273.371ZM300.82 247.323V227.312H317.085V247.323H300.82ZM132.373 344.367V252.74H323.519V344.367H132.373ZM136.101 369.768V349.757H152.365V369.768H136.101ZM163.549 369.768V349.757H179.814V369.768H163.549ZM190.998 369.768V349.757H207.263V369.768H190.998ZM218.447 369.768V349.757H234.711V369.768H218.447ZM245.895 369.768V349.757H262.16V369.768H245.895ZM273.344 369.768V349.757H289.608V369.768H273.344ZM300.792 369.768V349.757H317.057V369.768H300.792Z" fill="#5956E9"/>
<path d="M250.13 291.768L223.678 276.483C222.309 275.693 220.756 275.277 219.175 275.276C217.594 275.276 216.041 275.691 214.672 276.481C213.302 277.271 212.164 278.407 211.373 279.776C210.581 281.144 210.164 282.697 210.163 284.278V314.848C210.164 316.429 210.581 317.981 211.373 319.35C212.164 320.718 213.302 321.855 214.672 322.644C216.041 323.434 217.594 323.85 219.175 323.849C220.756 323.849 222.309 323.433 223.678 322.642L250.13 307.357C251.496 306.565 252.629 305.428 253.417 304.06C254.205 302.692 254.619 301.141 254.619 299.563C254.619 297.984 254.205 296.433 253.417 295.065C252.629 293.697 251.496 292.56 250.13 291.768Z" fill="#5956E9"/>
</svg>
