<svg width="554" height="664" viewBox="0 0 554 664" fill="none" xmlns="http://www.w3.org/2000/svg">
<g opacity="0.3">
<path opacity="0.3" d="M386.427 136.1C371.33 136.085 356.855 130.076 346.18 119.39C335.505 108.705 329.501 94.217 329.486 79.1058V5.13611e-06H75.076C65.3151 -0.00362547 55.649 1.91758 46.6301 5.65386C37.6112 9.39015 29.4164 14.8684 22.5132 21.7755C15.6099 28.6826 10.1338 36.8833 6.39765 45.9092C2.6615 54.9352 0.738281 64.6094 0.738281 74.3794V522.756C0.767554 542.468 8.61331 561.363 22.5519 575.289C36.4906 589.214 55.3821 597.032 75.076 597.025H380.49C390.248 597.025 399.911 595.101 408.927 591.363C417.942 587.625 426.135 582.146 433.035 575.24C439.935 568.333 445.409 560.133 449.143 551.109C452.877 542.085 454.8 532.413 454.8 522.646V136.1H386.427Z" fill="#438EFF"/>
</g>
<path d="M454.8 136.1H386.427C371.33 136.085 356.856 130.076 346.18 119.39C335.505 108.705 329.501 94.217 329.487 79.1058V0L454.8 136.1Z" fill="#438EFF"/>
<path d="M508.703 471.54H163.414C138.921 471.54 119.065 491.413 119.065 515.929V618.971C119.065 643.487 138.921 663.361 163.414 663.361H508.703C533.196 663.361 553.051 643.487 553.051 618.971V515.929C553.051 491.413 533.196 471.54 508.703 471.54Z" fill="#438EFF"/>
<path d="M197.786 589.756V609.85H176.973V589.756H197.786Z" fill="white"/>
<path d="M332.745 364.628H302.37V242.293C302.37 238.195 300.743 234.265 297.849 231.368C294.954 228.47 291.027 226.842 286.933 226.842H209.613C205.519 226.842 201.593 228.47 198.698 231.368C195.803 234.265 194.177 238.195 194.177 242.293V364.628H163.939V231.956C163.939 222.558 167.669 213.545 174.308 206.9C180.947 200.254 189.952 196.521 199.341 196.521H297.123C306.512 196.521 315.517 200.254 322.156 206.9C328.795 213.545 332.525 222.558 332.525 231.956L332.745 364.628Z" fill="#438EFF"/>
<path d="M296.935 400.504C316.749 400.504 332.812 384.441 332.812 364.627C332.812 344.813 316.749 328.75 296.935 328.75C277.121 328.75 261.058 344.813 261.058 364.627C261.058 384.441 277.121 400.504 296.935 400.504Z" fill="#438EFF"/>
<path d="M158.698 400.504C178.512 400.504 194.575 384.441 194.575 364.627C194.575 344.813 178.512 328.75 158.698 328.75C138.884 328.75 122.821 344.813 122.821 364.627C122.821 384.441 138.884 400.504 158.698 400.504Z" fill="#438EFF"/>
<path d="M299.643 567.307C299.643 576.596 297.857 584.47 294.284 590.928C290.711 597.387 285.874 602.292 279.773 605.645C273.699 608.998 266.883 610.675 259.326 610.675C251.74 610.675 244.911 608.985 238.837 605.604C232.763 602.224 227.94 597.318 224.367 590.887C220.822 584.429 219.049 576.568 219.049 567.307C219.049 558.017 220.822 550.143 224.367 543.685C227.94 537.226 232.763 532.321 238.837 528.968C244.911 525.615 251.74 523.938 259.326 523.938C266.883 523.938 273.699 525.615 279.773 528.968C285.874 532.321 290.711 537.226 294.284 543.685C297.857 550.143 299.643 558.017 299.643 567.307ZM278.784 567.307C278.784 561.81 278 557.165 276.434 553.373C274.895 549.58 272.669 546.708 269.755 544.757C266.87 542.806 263.393 541.83 259.326 541.83C255.286 541.83 251.809 542.806 248.896 544.757C245.983 546.708 243.743 549.58 242.176 553.373C240.637 557.165 239.868 561.81 239.868 567.307C239.868 572.803 240.637 577.448 242.176 581.241C243.743 585.033 245.983 587.905 248.896 589.856C251.809 591.808 255.286 592.783 259.326 592.783C263.393 592.783 266.87 591.808 269.755 589.856C272.669 587.905 274.895 585.033 276.434 581.241C278 577.448 278.784 572.803 278.784 567.307ZM366.963 552.672C366.496 550.94 365.808 549.415 364.902 548.096C363.995 546.749 362.882 545.609 361.562 544.674C360.243 543.74 358.732 543.039 357.028 542.572C355.324 542.077 353.455 541.83 351.421 541.83C347.326 541.83 343.781 542.819 340.785 544.798C337.817 546.777 335.522 549.663 333.901 553.455C332.279 557.22 331.468 561.796 331.468 567.183C331.468 572.597 332.252 577.214 333.818 581.034C335.385 584.855 337.652 587.768 340.62 589.774C343.588 591.78 347.189 592.783 351.421 592.783C355.159 592.783 358.319 592.179 360.903 590.969C363.514 589.733 365.492 587.988 366.839 585.734C368.186 583.48 368.859 580.828 368.859 577.778L372.652 578.231H352.122V563.349H388.523V574.521C388.523 582.079 386.915 588.551 383.7 593.938C380.512 599.324 376.115 603.461 370.508 606.346C364.929 609.232 358.512 610.675 351.256 610.675C343.204 610.675 336.127 608.93 330.026 605.439C323.924 601.949 319.17 596.975 315.762 590.516C312.354 584.03 310.65 576.335 310.65 567.43C310.65 560.505 311.681 554.362 313.742 549.003C315.803 543.616 318.675 539.054 322.358 535.316C326.068 531.579 330.355 528.748 335.22 526.824C340.112 524.9 345.375 523.938 351.009 523.938C355.901 523.938 360.449 524.639 364.654 526.041C368.887 527.443 372.624 529.421 375.867 531.977C379.138 534.533 381.79 537.57 383.824 541.088C385.857 544.606 387.122 548.467 387.616 552.672H366.963ZM455.956 552.672C455.489 550.94 454.802 549.415 453.895 548.096C452.988 546.749 451.875 545.609 450.556 544.674C449.237 543.74 447.725 543.039 446.021 542.572C444.317 542.077 442.448 541.83 440.414 541.83C436.32 541.83 432.774 542.819 429.779 544.798C426.81 546.777 424.516 549.663 422.894 553.455C421.273 557.22 420.462 561.796 420.462 567.183C420.462 572.597 421.245 577.214 422.812 581.034C424.378 584.855 426.646 587.768 429.614 589.774C432.582 591.78 436.182 592.783 440.414 592.783C444.152 592.783 447.313 592.179 449.896 590.969C452.507 589.733 454.486 587.988 455.832 585.734C457.179 583.48 457.852 580.828 457.852 577.778L461.645 578.231H441.115V563.349H477.517V574.521C477.517 582.079 475.909 588.551 472.693 593.938C469.505 599.324 465.108 603.461 459.501 606.346C453.922 609.232 447.505 610.675 440.25 610.675C432.197 610.675 425.12 608.93 419.019 605.439C412.918 601.949 408.163 596.975 404.755 590.516C401.347 584.03 399.643 576.335 399.643 567.43C399.643 560.505 400.674 554.362 402.735 549.003C404.797 543.616 407.669 539.054 411.351 535.316C415.061 531.579 419.349 528.748 424.213 526.824C429.105 524.9 434.368 523.938 440.002 523.938C444.894 523.938 449.443 524.639 453.648 526.041C457.88 527.443 461.618 529.421 464.861 531.977C468.131 534.533 470.783 537.57 472.817 541.088C474.851 544.606 476.115 548.467 476.61 552.672H455.956Z" fill="white"/>
</svg>
