<svg width="553" height="664" viewBox="0 0 553 664" fill="none" xmlns="http://www.w3.org/2000/svg">
<g opacity="0.3">
<path opacity="0.3" d="M385.989 136.1C370.892 136.085 356.418 130.076 345.742 119.39C335.067 108.705 329.063 94.217 329.049 79.1058V5.13611e-06H74.6385C64.8776 -0.00362547 55.2115 1.91758 46.1926 5.65386C37.1737 9.39015 28.9789 14.8684 22.0757 21.7755C15.1724 28.6826 9.69631 36.8833 5.96015 45.9092C2.224 54.9352 0.300781 64.6094 0.300781 74.3794V522.756C0.330054 542.468 8.17581 561.363 22.1144 575.289C36.0531 589.214 54.9446 597.032 74.6385 597.025H380.052C389.811 597.025 399.474 595.101 408.489 591.363C417.505 587.625 425.697 582.146 432.597 575.24C439.498 568.333 444.971 560.133 448.706 551.109C452.44 542.085 454.362 532.413 454.362 522.646V136.1H385.989Z" fill="#438EFF"/>
</g>
<path d="M454.363 136.1H385.99C370.893 136.085 356.418 130.076 345.743 119.39C335.068 108.705 329.064 94.217 329.049 79.1058V0L454.363 136.1Z" fill="#438EFF"/>
<path d="M508.266 471.54H162.977C138.484 471.54 118.628 491.413 118.628 515.929V618.971C118.628 643.487 138.484 663.361 162.977 663.361H508.266C532.759 663.361 552.614 643.487 552.614 618.971V515.929C552.614 491.413 532.759 471.54 508.266 471.54Z" fill="#438EFF"/>
<path d="M197.348 589.756V609.85H176.535V589.756H197.348Z" fill="white"/>
<path d="M332.307 364.628H301.932V242.293C301.932 238.195 300.305 234.265 297.411 231.368C294.516 228.47 290.589 226.842 286.495 226.842H209.175C205.081 226.842 201.155 228.47 198.26 231.368C195.365 234.265 193.739 238.195 193.739 242.293V364.628H163.501V231.956C163.501 222.558 167.231 213.545 173.87 206.9C180.509 200.254 189.514 196.521 198.903 196.521H296.685C306.074 196.521 315.079 200.254 321.718 206.9C328.357 213.545 332.087 222.558 332.087 231.956L332.307 364.628Z" fill="#438EFF"/>
<path d="M296.498 400.504C316.312 400.504 332.375 384.441 332.375 364.627C332.375 344.813 316.312 328.75 296.498 328.75C276.684 328.75 260.621 344.813 260.621 364.627C260.621 384.441 276.684 400.504 296.498 400.504Z" fill="#438EFF"/>
<path d="M158.261 400.504C178.075 400.504 194.137 384.441 194.137 364.627C194.137 344.813 178.075 328.75 158.261 328.75C138.446 328.75 122.384 344.813 122.384 364.627C122.384 384.441 138.446 400.504 158.261 400.504Z" fill="#438EFF"/>
<path d="M219.519 609.521V525.093H254.395C260.716 525.093 266.171 526.329 270.761 528.803C275.378 531.249 278.937 534.671 281.438 539.068C283.939 543.438 285.189 548.522 285.189 554.321C285.189 560.147 283.911 565.245 281.355 569.615C278.827 573.958 275.213 577.324 270.513 579.715C265.814 582.106 260.235 583.302 253.776 583.302H232.257V567.224H249.984C253.062 567.224 255.631 566.688 257.693 565.616C259.781 564.545 261.362 563.047 262.433 561.123C263.505 559.172 264.041 556.904 264.041 554.321C264.041 551.71 263.505 549.456 262.433 547.56C261.362 545.636 259.781 544.152 257.693 543.108C255.604 542.063 253.034 541.541 249.984 541.541H239.925V609.521H219.519ZM371.884 555.681H351.272C350.997 553.565 350.434 551.655 349.582 549.951C348.73 548.247 347.603 546.791 346.202 545.581C344.8 544.372 343.137 543.451 341.213 542.819C339.317 542.16 337.215 541.83 334.906 541.83C330.811 541.83 327.28 542.833 324.311 544.839C321.371 546.846 319.103 549.745 317.509 553.538C315.943 557.33 315.16 561.92 315.16 567.307C315.16 572.913 315.957 577.613 317.551 581.405C319.172 585.171 321.439 588.015 324.353 589.939C327.293 591.835 330.77 592.783 334.782 592.783C337.036 592.783 339.083 592.495 340.925 591.918C342.794 591.341 344.429 590.502 345.831 589.403C347.26 588.276 348.428 586.916 349.335 585.322C350.269 583.7 350.915 581.873 351.272 579.839L371.884 579.963C371.527 583.7 370.442 587.383 368.628 591.011C366.841 594.638 364.382 597.95 361.249 600.946C358.115 603.914 354.295 606.278 349.788 608.036C345.308 609.795 340.169 610.675 334.37 610.675C326.73 610.675 319.887 608.998 313.84 605.645C307.822 602.265 303.067 597.346 299.577 590.887C296.086 584.429 294.341 576.568 294.341 567.307C294.341 558.017 296.114 550.143 299.659 543.685C303.204 537.226 308 532.321 314.046 528.968C320.093 525.615 326.867 523.938 334.37 523.938C339.482 523.938 344.209 524.653 348.551 526.082C352.894 527.484 356.714 529.545 360.012 532.266C363.31 534.959 365.989 538.271 368.051 542.201C370.112 546.131 371.39 550.624 371.884 555.681ZM383.561 525.093H408.832L430.269 577.365H431.258L452.695 525.093H477.965V609.521H458.095V557.66H457.394L437.112 608.985H424.415L404.132 557.372H403.431V609.521H383.561V525.093Z" fill="white"/>
</svg>
