<svg width="562" height="675" viewBox="0 0 562 675" fill="none" xmlns="http://www.w3.org/2000/svg">
<g opacity="0.3">
<path opacity="0.3" d="M392.456 138.367C377.096 138.352 362.37 132.243 351.509 121.382C340.648 110.521 334.54 95.7947 334.525 80.435V0H75.6595C55.6084 0 36.3786 7.96551 22.2003 22.1438C8.02198 36.3221 0.0566406 55.5516 0.0566406 75.6027V531.356C0.0864165 551.387 8.06482 570.589 22.2399 584.743C36.415 598.897 55.6278 606.847 75.6595 606.847H386.416C406.447 606.847 425.66 598.897 439.835 584.743C454.01 570.589 461.989 551.387 462.019 531.356V138.367H392.456Z" fill="#E40011"/>
</g>
<path d="M462.019 138.367H392.457C377.097 138.352 362.37 132.243 351.509 121.382C340.648 110.521 334.54 95.7947 334.525 80.4349V0L462.019 138.367Z" fill="#E40011"/>
<path d="M366.972 423.781H76.922C74.1278 423.781 71.448 422.671 69.4722 420.696C67.4964 418.72 66.3865 416.04 66.3865 413.246C66.3939 410.457 67.5072 407.784 69.4821 405.814C71.4571 403.844 74.1327 402.739 76.922 402.739H366.972C369.759 402.739 372.432 403.845 374.402 405.816C376.373 407.786 377.48 410.459 377.48 413.246C377.483 414.628 377.214 415.998 376.688 417.276C376.162 418.554 375.388 419.715 374.412 420.694C373.436 421.672 372.277 422.449 371 422.979C369.723 423.509 368.354 423.781 366.972 423.781Z" fill="#E40011"/>
<path d="M366.972 305.109H76.922C74.1327 305.109 71.4571 304.003 69.4821 302.033C67.5072 300.063 66.3939 297.391 66.3865 294.602C66.3865 291.808 67.4964 289.127 69.4722 287.152C71.448 285.176 74.1278 284.066 76.922 284.066H366.972C368.354 284.066 369.723 284.339 371 284.869C372.277 285.399 373.436 286.175 374.412 287.154C375.388 288.132 376.162 289.294 376.688 290.572C377.214 291.85 377.483 293.22 377.48 294.602C377.48 297.389 376.373 300.061 374.402 302.032C372.432 304.002 369.759 305.109 366.972 305.109Z" fill="#E40011"/>
<path d="M366.972 364.445H76.922C74.1278 364.445 71.448 363.335 69.4722 361.359C67.4964 359.383 66.3865 356.704 66.3865 353.91C66.3939 351.12 67.5072 348.447 69.4821 346.478C71.4571 344.508 74.1327 343.402 76.922 343.402H366.972C369.759 343.402 372.432 344.509 374.402 346.48C376.373 348.45 377.48 351.123 377.48 353.91C377.483 355.292 377.214 356.661 376.688 357.939C376.162 359.217 375.388 360.379 374.412 361.358C373.436 362.336 372.277 363.113 371 363.643C369.723 364.172 368.354 364.445 366.972 364.445Z" fill="#E40011"/>
<path d="M252.57 245.773H76.922C74.1327 245.773 71.4571 244.667 69.4821 242.697C67.5072 240.728 66.3939 238.055 66.3865 235.266C66.3865 232.471 67.4964 229.792 69.4722 227.816C71.448 225.84 74.1278 224.73 76.922 224.73H252.57C255.36 224.737 258.032 225.85 260.002 227.825C261.972 229.8 263.078 232.476 263.078 235.266C263.07 238.05 261.961 240.718 259.992 242.687C258.023 244.656 255.355 245.766 252.57 245.773Z" fill="#E40011"/>
<path d="M252.57 186.437H76.922C74.1327 186.437 71.4571 185.331 69.4821 183.361C67.5072 181.391 66.3939 178.719 66.3865 175.93C66.3865 173.136 67.4964 170.455 69.4722 168.479C71.448 166.504 74.1278 165.394 76.922 165.394H252.57C255.36 165.402 258.032 166.515 260.002 168.49C261.972 170.465 263.078 173.14 263.078 175.93C263.07 178.714 261.961 181.382 259.992 183.351C258.023 185.32 255.355 186.43 252.57 186.437Z" fill="#E40011"/>
<path d="M516.83 479.325H165.533C140.614 479.325 120.413 499.526 120.413 524.445V629.182C120.413 654.101 140.614 674.302 165.533 674.302H516.83C541.749 674.302 561.95 654.101 561.95 629.182V524.445C561.95 499.526 541.749 479.325 516.83 479.325Z" fill="#E40011"/>
<path d="M235.658 599.486V619.91H214.53V599.486H235.658Z" fill="white"/>
<path d="M266.732 590.271V619.91H246.307V535.43H279.403C289.433 535.43 297.103 537.93 302.356 542.903C305.015 545.515 307.09 548.661 308.446 552.133C309.802 555.604 310.407 559.324 310.223 563.047C310.325 567.958 309.113 572.808 306.711 577.094C304.258 581.284 300.623 584.657 296.26 586.787C290.998 589.274 285.221 590.478 279.403 590.299L266.732 590.271ZM289.433 563.047C289.433 555.555 285.331 551.809 277.127 551.809H266.732V573.807H277.127C285.331 573.882 289.433 570.295 289.433 563.047Z" fill="white"/>
<path d="M390.94 599.542C387.422 605.93 382.108 611.146 375.656 614.545C368.396 618.261 360.323 620.106 352.169 619.91H320.281V535.43H352.169C360.329 535.225 368.414 537.029 375.713 540.683C382.147 544.009 387.447 549.172 390.94 555.518C394.595 562.254 396.435 569.825 396.278 577.488C396.43 585.177 394.591 592.774 390.94 599.542ZM368.97 595.299C371.254 592.955 373.023 590.16 374.165 587.093C375.306 584.026 375.795 580.755 375.6 577.488C375.796 574.225 375.308 570.957 374.166 567.894C373.024 564.831 371.254 562.041 368.97 559.704C363.86 555.22 357.185 552.938 350.399 553.354H340.706V601.621H350.399C357.179 602.033 363.849 599.762 368.97 595.299Z" fill="white"/>
<path d="M462.947 535.43V551.697H428.307V570.211H455.053V585.748H428.307V619.91H407.854V535.43H462.947Z" fill="white"/>
<path d="M361.832 165.394H312.16C303.502 165.394 296.483 172.413 296.483 181.071V230.742C296.483 239.4 303.502 246.419 312.16 246.419H361.832C370.49 246.419 377.509 239.4 377.509 230.742V181.071C377.509 172.413 370.49 165.394 361.832 165.394Z" fill="#E40011"/>
</svg>
