<svg width="563" height="674" viewBox="0 0 563 674" fill="none" xmlns="http://www.w3.org/2000/svg">
<g opacity="0.3">
<path opacity="0.3" d="M392.81 138.282C377.456 138.267 362.736 132.162 351.879 121.305C341.023 110.448 334.917 95.728 334.902 80.3745V0H76.1424C56.0995 0 36.8775 7.9621 22.705 22.1346C8.53241 36.3072 0.570312 55.5291 0.570312 75.5721V531.14C0.600076 551.163 8.57523 570.357 22.7445 584.505C36.9139 598.653 56.1189 606.6 76.1424 606.6H386.772C406.801 606.6 426.01 598.649 440.18 584.495C454.35 570.341 462.322 551.14 462.344 531.112V138.282H392.81Z" fill="#005FAD"/>
</g>
<path d="M462.344 138.282H392.81C377.456 138.267 362.736 132.162 351.879 121.305C341.022 110.448 334.917 95.728 334.902 80.3745V0L462.344 138.282Z" fill="#005FAD"/>
<path d="M517.135 479.102H165.981C141.072 479.102 120.879 499.295 120.879 524.204V628.898C120.879 653.807 141.072 674 165.981 674H517.135C542.044 674 562.236 653.807 562.236 628.898V524.204C562.236 499.295 542.044 479.102 517.135 479.102Z" fill="#005FAD"/>
<path d="M222.598 599.214V619.631H201.451V599.214H222.598Z" fill="white"/>
<path d="M253.656 590.031V619.631H233.211V535.184H266.294C276.347 535.184 283.995 537.674 289.238 542.654C291.899 545.264 293.977 548.407 295.338 551.878C296.698 555.348 297.308 559.067 297.129 562.79C297.217 567.702 295.996 572.548 293.591 576.832C291.152 581.023 287.513 584.388 283.144 586.492C277.889 588.998 272.112 590.211 266.294 590.031H253.656ZM276.348 562.79C276.348 555.301 272.247 551.557 264.047 551.557H253.656V573.546H264.047C272.247 573.621 276.348 570.035 276.348 562.79Z" fill="white"/>
<path d="M382.166 619.631H361.75L327.544 567.789V619.631H307.127V535.184H327.544L361.721 587.503V535.184H382.138L382.166 619.631Z" fill="white"/>
<path d="M461.951 542.008C468.766 547.107 473.344 554.644 474.729 563.042H453.105C451.686 560.034 449.41 557.513 446.561 555.797C443.344 553.889 439.658 552.916 435.918 552.988C433.012 552.868 430.116 553.387 427.432 554.508C424.749 555.629 422.344 557.324 420.388 559.476C416.285 564.407 414.198 570.707 414.546 577.112C414.546 585.144 416.596 591.313 420.696 595.619C423.001 597.856 425.748 599.587 428.761 600.699C431.774 601.811 434.987 602.281 438.192 602.078C442.774 602.157 447.258 600.748 450.97 598.062C454.752 595.231 457.48 591.218 458.721 586.66H432.941V571.973H475.824V592.558C474.163 597.581 471.561 602.241 468.157 606.291C464.481 610.65 459.9 614.157 454.733 616.569C448.875 619.274 442.481 620.618 436.03 620.501C428.191 620.699 420.44 618.819 413.563 615.053C407.27 611.524 402.146 606.234 398.82 599.832C395.26 592.937 393.474 585.263 393.624 577.505C393.456 569.7 395.242 561.977 398.82 555.039C402.141 548.652 407.243 543.365 413.507 539.817C420.284 536.085 427.93 534.214 435.665 534.397C445.03 533.938 454.28 536.616 461.951 542.008Z" fill="white"/>
<path d="M154.186 187.372H115.571V225.987H154.186V187.372Z" fill="#005FAD"/>
<path d="M192.828 225.987H154.214V264.601H192.828V225.987Z" fill="#005FAD"/>
<path d="M231.443 187.372H192.828V225.987H231.443V187.372Z" fill="#005FAD"/>
<path d="M270.058 225.987H231.443V264.601H270.058V225.987Z" fill="#005FAD"/>
<path d="M308.73 187.372H270.115V225.987H308.73V187.372Z" fill="#005FAD"/>
<path d="M347.344 225.987H308.729V264.601H347.344V225.987Z" fill="#005FAD"/>
<path d="M154.186 264.545H115.571V303.159H154.186V264.545Z" fill="#005FAD"/>
<path d="M192.828 303.159H154.214V341.774H192.828V303.159Z" fill="#005FAD"/>
<path d="M231.443 264.545H192.828V303.159H231.443V264.545Z" fill="#005FAD"/>
<path d="M270.058 303.159H231.443V341.774H270.058V303.159Z" fill="#005FAD"/>
<path d="M308.73 264.545H270.115V303.159H308.73V264.545Z" fill="#005FAD"/>
<path d="M347.344 303.159H308.729V341.774H347.344V303.159Z" fill="#005FAD"/>
<path d="M154.186 342.083H115.571V380.698H154.186V342.083Z" fill="#005FAD"/>
<path d="M192.828 380.698H154.214V419.312H192.828V380.698Z" fill="#005FAD"/>
<path d="M231.443 342.083H192.828V380.698H231.443V342.083Z" fill="#005FAD"/>
<path d="M270.058 380.698H231.443V419.312H270.058V380.698Z" fill="#005FAD"/>
<path d="M308.73 342.083H270.115V380.698H308.73V342.083Z" fill="#005FAD"/>
<path d="M347.344 380.698H308.729V419.312H347.344V380.698Z" fill="#005FAD"/>
</svg>
