<svg width="563" height="675" viewBox="0 0 563 675" fill="none" xmlns="http://www.w3.org/2000/svg">
<g opacity="0.3">
<path opacity="0.3" d="M392.825 138.367C377.465 138.352 362.739 132.243 351.878 121.382C341.017 110.521 334.909 95.7947 334.894 80.435V0H76.0285C55.9774 0 36.7479 7.96551 22.5696 22.1438C8.39129 36.3221 0.425781 55.5516 0.425781 75.6027V531.356C0.425781 551.407 8.39129 570.637 22.5696 584.815C36.7479 598.994 55.9774 606.959 76.0285 606.959H386.757C396.687 606.963 406.521 605.01 415.697 601.212C424.873 597.414 433.211 591.846 440.234 584.826C447.258 577.805 452.829 569.469 456.63 560.295C460.431 551.12 462.388 541.286 462.388 531.356V138.367H392.825Z" fill="#E40011"/>
</g>
<path d="M462.389 138.367H392.827C377.467 138.352 362.741 132.243 351.879 121.382C341.018 110.521 334.911 95.7947 334.896 80.4349V0L462.389 138.367Z" fill="#E40011"/>
<path d="M517.2 479.325H165.903C140.984 479.325 120.783 499.526 120.783 524.445V629.182C120.783 654.101 140.984 674.302 165.903 674.302H517.2C542.119 674.302 562.32 654.101 562.32 629.182V524.445C562.32 499.526 542.119 479.325 517.2 479.325Z" fill="#E40011"/>
<path d="M244.287 599.486V619.91H223.131V599.486H244.287Z" fill="white"/>
<path d="M275.36 590.271V619.91H254.936V535.43H288.031C298.07 535.43 305.712 537.921 310.956 542.903C313.618 545.514 315.698 548.659 317.059 552.131C318.419 555.602 319.03 559.322 318.851 563.047C318.94 567.957 317.728 572.803 315.339 577.094C312.883 581.291 309.236 584.665 304.86 586.787C299.601 589.285 293.822 590.489 288.003 590.299L275.36 590.271ZM298.061 563.047C298.061 555.555 293.959 551.809 285.755 551.809H275.36V573.807H285.755C293.959 573.882 298.061 570.295 298.061 563.047Z" fill="white"/>
<path d="M349.335 590.271V619.91H328.882V535.43H361.978C372.036 535.43 379.688 537.921 384.932 542.903C387.594 545.514 389.673 548.659 391.034 552.131C392.394 555.602 393.005 559.322 392.826 563.047C392.918 567.961 391.696 572.811 389.286 577.094C386.848 581.296 383.208 584.672 378.835 586.787C373.576 589.285 367.797 590.489 361.978 590.299L349.335 590.271ZM372.036 563.047C372.036 555.555 367.934 551.809 359.73 551.809H349.335V573.807H359.73C367.934 573.882 372.036 570.295 372.036 563.047Z" fill="white"/>
<path d="M463.566 535.43V551.697H440.612V619.91H420.075V551.697H397.346V535.43H463.566Z" fill="white"/>
<path d="M210.265 235.237H87.5197C84.7303 235.237 82.0546 234.132 80.0796 232.162C78.1046 230.192 76.9916 227.519 76.9841 224.73C76.9841 221.936 78.0942 219.256 80.07 217.28C82.0458 215.305 84.7255 214.194 87.5197 214.194H210.153C212.947 214.194 215.628 215.305 217.603 217.28C219.579 219.256 220.689 221.936 220.689 224.73C220.681 227.5 219.584 230.155 217.633 232.122C215.682 234.089 213.035 235.208 210.265 235.237Z" fill="#E40011"/>
<path d="M210.265 298.086H87.5197C84.7303 298.086 82.0546 296.979 80.0796 295.009C78.1046 293.04 76.9916 290.368 76.9841 287.578C76.9841 284.784 78.0942 282.104 80.07 280.128C82.0458 278.152 84.7255 277.043 87.5197 277.043H210.153C212.947 277.043 215.628 278.152 217.603 280.128C219.579 282.104 220.689 284.784 220.689 287.578C220.681 290.348 219.584 293.004 217.633 294.97C215.682 296.937 213.035 298.056 210.265 298.086Z" fill="#E40011"/>
<path d="M210.265 360.933H87.5197C84.7255 360.933 82.0458 359.823 80.07 357.847C78.0942 355.872 76.9841 353.192 76.9841 350.398C77.0064 347.618 78.1261 344.96 80.0995 343.002C82.0729 341.045 84.74 339.946 87.5197 339.947H210.153C212.942 339.947 215.618 341.052 217.593 343.022C219.568 344.992 220.681 347.665 220.689 350.454C220.674 353.219 219.573 355.868 217.623 357.828C215.673 359.789 213.03 360.904 210.265 360.933Z" fill="#E40011"/>
<path d="M210.265 423.781H87.5197C84.7255 423.781 82.0458 422.671 80.07 420.696C78.0942 418.72 76.9841 416.04 76.9841 413.246C76.9916 410.457 78.1046 407.784 80.0796 405.814C82.0546 403.844 84.7303 402.739 87.5197 402.739H210.153C212.942 402.739 215.618 403.844 217.593 405.814C219.568 407.784 220.681 410.457 220.689 413.246C220.689 416.021 219.595 418.683 217.643 420.656C215.692 422.628 213.04 423.752 210.265 423.781Z" fill="#E40011"/>
<path d="M329.837 331.518V238.131C307.085 239.332 285.662 249.215 269.981 265.743C254.3 282.271 245.557 304.184 245.552 326.966C245.549 338.648 247.847 350.217 252.315 361.01C256.784 371.803 263.336 381.611 271.596 389.871C279.856 398.131 289.664 404.683 300.457 409.152C311.25 413.62 322.818 415.918 334.5 415.915C357.282 415.917 379.196 407.175 395.721 391.492C412.245 375.809 422.12 354.382 423.308 331.631L329.837 331.518Z" fill="#E40011"/>
<path d="M346.864 231.023V315.307H431.148C430.022 293.318 420.781 272.528 405.212 256.959C389.643 241.39 368.853 232.149 346.864 231.023Z" fill="#E40011"/>
</svg>
