<svg width="562" height="675" viewBox="0 0 562 675" fill="none" xmlns="http://www.w3.org/2000/svg">
<g opacity="0.3">
<path opacity="0.3" d="M392.385 138.334C377.026 138.319 362.3 132.211 351.44 121.35C340.579 110.489 334.471 95.7635 334.456 80.4043V0H75.6003C55.5499 0 36.3206 7.96489 22.1428 22.1427C7.96502 36.3205 0 55.5499 0 75.6004V531.309C0.0223365 551.345 7.99719 570.553 22.1726 584.712C36.348 598.872 55.5644 606.825 75.6003 606.825H386.317C396.249 606.825 406.083 604.869 415.259 601.068C424.435 597.267 432.772 591.697 439.795 584.674C446.817 577.651 452.388 569.314 456.189 560.138C459.989 550.963 461.946 541.128 461.946 531.197V138.221L392.385 138.334Z" fill="#005FAD"/>
</g>
<path d="M461.947 138.334H392.387C377.028 138.319 362.302 132.211 351.442 121.35C340.581 110.49 334.473 95.7637 334.458 80.4044V0.00012207L461.947 138.334Z" fill="#005FAD"/>
<path d="M516.757 479.28H165.473C140.554 479.28 120.354 499.48 120.354 524.399V629.132C120.354 654.05 140.554 674.25 165.473 674.25H516.757C541.675 674.25 561.875 654.05 561.875 629.132V524.399C561.875 499.48 541.675 479.28 516.757 479.28Z" fill="#005FAD"/>
<path d="M275.656 599.437V619.889H254.501V599.437H275.656Z" fill="white"/>
<path d="M306.729 590.25V619.889H286.276V535.411H319.399C329.419 535.411 337.061 537.893 342.323 542.856C344.981 545.47 347.058 548.615 348.418 552.086C349.778 555.557 350.392 559.275 350.218 562.999C350.306 567.913 349.084 572.761 346.678 577.046C344.247 581.246 340.604 584.614 336.227 586.71C330.971 589.217 325.191 590.431 319.371 590.25H306.729ZM329.428 562.999C329.428 555.507 325.327 551.762 317.123 551.762H306.729V573.759H317.123C325.327 573.834 329.428 570.247 329.428 562.999Z" fill="white"/>
<path d="M417.558 608.399C415.139 612.292 411.646 615.404 407.5 617.36C402.483 619.729 396.976 620.874 391.431 620.703C383.081 621.045 374.853 618.615 368.029 613.792C365.005 611.53 362.53 608.614 360.789 605.263C359.047 601.912 358.084 598.211 357.971 594.436H379.716C379.894 597.281 381.114 599.962 383.143 601.965C385.157 603.847 387.833 604.856 390.588 604.774C392.866 604.907 395.106 604.141 396.825 602.639C397.565 601.907 398.146 601.03 398.533 600.064C398.92 599.097 399.103 598.061 399.072 597.021C399.108 596.028 398.942 595.038 398.584 594.111C398.227 593.184 397.686 592.339 396.993 591.626C395.507 590.127 393.742 588.934 391.796 588.115C389.717 587.197 386.851 586.102 383.199 584.828C378.72 583.357 374.346 581.583 370.108 579.518C366.613 577.713 363.613 575.08 361.37 571.849C358.801 567.939 357.533 563.318 357.746 558.644C357.628 554.016 358.965 549.467 361.567 545.637C364.223 541.887 367.885 538.966 372.13 537.209C377.044 535.225 382.312 534.269 387.61 534.399C395.65 533.955 403.595 536.318 410.085 541.086C412.842 543.331 415.098 546.128 416.71 549.297C418.321 552.466 419.251 555.937 419.44 559.487H397.359C397.084 557.004 396.009 554.677 394.296 552.857C393.415 552.022 392.372 551.374 391.232 550.954C390.093 550.534 388.879 550.35 387.666 550.413C385.566 550.306 383.502 550.987 381.879 552.323C381.111 553.033 380.513 553.907 380.128 554.88C379.744 555.852 379.584 556.899 379.66 557.942C379.636 558.873 379.797 559.8 380.135 560.668C380.472 561.536 380.979 562.329 381.626 562.999C383.04 564.46 384.73 565.625 386.599 566.426C388.593 567.297 391.459 568.421 395.195 569.77C399.748 571.234 404.181 573.046 408.456 575.192C411.979 577.074 415.011 579.76 417.305 583.03C419.921 586.985 421.219 591.665 421.013 596.403C420.966 600.64 419.772 604.785 417.558 608.399Z" fill="white"/>
<path d="M140.638 367.495C140.638 367.495 122.321 328.641 146.004 290.715C146.004 290.715 152.999 311.111 158.759 309.762C158.759 309.762 151.426 280.517 156.82 271.864C156.82 271.864 180.194 238.376 206.012 220.256C206.012 220.256 206.827 240.174 212.895 241.803C212.895 241.803 211.94 229.498 220.509 210.9C220.509 210.9 262.087 178.873 331.479 181.795C331.479 181.795 304.088 224.189 288.692 252.816C280.558 268.262 271.612 283.267 261.891 297.766C261.891 297.766 241.495 309.706 228.178 308.582C228.178 308.582 239.416 317.404 251.608 313.021C251.608 313.021 220.565 369.209 160.332 376.316C160.332 376.316 149.094 399.438 146.847 419.665C146.847 419.665 135.609 426.464 130.328 425.284C130.328 425.284 159.461 313.358 258.772 232.308C258.913 232.308 201.658 247.451 140.638 367.495Z" fill="#005FAD"/>
</svg>
