<svg width="562" height="675" viewBox="0 0 562 675" fill="none" xmlns="http://www.w3.org/2000/svg">
<g opacity="0.3">
<path opacity="0.3" d="M392.385 138.334C377.026 138.319 362.3 132.211 351.44 121.35C340.579 110.489 334.471 95.7635 334.456 80.4043V0H75.6003C55.5499 0 36.3206 7.96489 22.1428 22.1427C7.96502 36.3205 0 55.5499 0 75.6004V531.309C0.0223365 551.345 7.99719 570.553 22.1726 584.712C36.348 598.872 55.5644 606.825 75.6003 606.825H386.317C396.249 606.825 406.083 604.869 415.259 601.068C424.435 597.267 432.772 591.697 439.795 584.674C446.817 577.651 452.388 569.314 456.189 560.138C459.989 550.963 461.946 541.128 461.946 531.197V138.221L392.385 138.334Z" fill="#005FAD"/>
</g>
<path d="M461.947 138.334H392.387C377.028 138.319 362.302 132.211 351.442 121.35C340.581 110.49 334.473 95.7637 334.458 80.4044V0.00012207L461.947 138.334Z" fill="#005FAD"/>
<path d="M516.756 479.28H165.472C140.554 479.28 120.354 499.48 120.354 524.399V629.132C120.354 654.05 140.554 674.25 165.472 674.25H516.756C541.675 674.25 561.875 654.05 561.875 629.132V524.399C561.875 499.48 541.675 479.28 516.756 479.28Z" fill="#005FAD"/>
<path d="M275.656 599.437V619.889H254.501V599.437H275.656Z" fill="white"/>
<path d="M306.729 590.25V619.889H286.276V535.411H319.399C329.419 535.411 337.061 537.893 342.323 542.856C344.981 545.47 347.058 548.615 348.418 552.086C349.778 555.557 350.392 559.275 350.218 562.999C350.306 567.913 349.084 572.761 346.678 577.046C344.247 581.246 340.604 584.614 336.227 586.71C330.971 589.217 325.191 590.431 319.371 590.25H306.729ZM329.428 562.999C329.428 555.507 325.327 551.762 317.123 551.762H306.729V573.759H317.123C325.327 573.834 329.428 570.247 329.428 562.999Z" fill="white"/>
<path d="M417.557 608.399C415.138 612.292 411.646 615.404 407.5 617.36C402.483 619.729 396.976 620.874 391.43 620.703C383.081 621.045 374.853 618.615 368.028 613.792C365.004 611.53 362.53 608.614 360.788 605.263C359.047 601.912 358.084 598.211 357.971 594.436H379.715C379.894 597.281 381.114 599.962 383.143 601.965C385.157 603.847 387.832 604.856 390.587 604.774C392.866 604.907 395.105 604.141 396.824 602.639C397.564 601.907 398.146 601.03 398.533 600.064C398.919 599.097 399.103 598.061 399.072 597.021C399.107 596.028 398.941 595.038 398.584 594.111C398.227 593.184 397.685 592.339 396.993 591.626C395.507 590.127 393.741 588.934 391.795 588.115C389.717 587.197 386.851 586.102 383.199 584.828C378.72 583.357 374.346 581.583 370.107 579.518C366.613 577.713 363.613 575.08 361.37 571.849C358.801 567.939 357.532 563.318 357.746 558.644C357.628 554.016 358.964 549.467 361.567 545.637C364.222 541.887 367.884 538.966 372.13 537.209C377.044 535.225 382.312 534.269 387.61 534.399C395.65 533.955 403.595 536.318 410.085 541.086C412.841 543.331 415.098 546.128 416.709 549.297C418.32 552.466 419.25 555.937 419.44 559.487H397.358C397.084 557.004 396.009 554.677 394.296 552.857C393.414 552.022 392.372 551.374 391.232 550.954C390.092 550.534 388.879 550.35 387.666 550.413C385.566 550.306 383.502 550.987 381.878 552.323C381.11 553.033 380.512 553.907 380.128 554.88C379.744 555.852 379.584 556.899 379.659 557.942C379.635 558.873 379.797 559.8 380.134 560.668C380.472 561.536 380.979 562.329 381.626 562.999C383.04 564.46 384.73 565.625 386.598 566.426C388.593 567.297 391.458 568.421 395.195 569.77C399.748 571.234 404.181 573.046 408.455 575.192C411.979 577.074 415.01 579.76 417.305 583.03C419.92 586.985 421.218 591.665 421.013 596.403C420.966 600.64 419.772 604.785 417.557 608.399Z" fill="white"/>
<path d="M140.639 367.495C140.639 367.495 122.321 328.641 146.004 290.715C146.004 290.715 153 311.111 158.759 309.762C158.759 309.762 151.427 280.517 156.821 271.864C156.821 271.864 180.194 238.376 206.013 220.256C206.013 220.256 206.827 240.174 212.896 241.803C212.896 241.803 211.94 229.498 220.509 210.9C220.509 210.9 262.088 178.873 331.479 181.795C331.479 181.795 304.088 224.189 288.693 252.816C280.559 268.262 271.612 283.267 261.891 297.766C261.891 297.766 241.495 309.706 228.179 308.582C228.179 308.582 239.416 317.404 251.609 313.021C251.609 313.021 220.565 369.209 160.332 376.316C160.332 376.316 149.095 399.438 146.847 419.665C146.847 419.665 135.61 426.464 130.328 425.284C130.328 425.284 159.461 313.358 258.773 232.308C258.913 232.308 201.658 247.451 140.639 367.495Z" fill="#005FAD"/>
<path d="M507.204 599.493C503.695 605.887 498.379 611.104 491.921 614.495C484.668 618.23 476.592 620.085 468.435 619.889H436.408V535.411H468.323C476.483 535.199 484.569 537.003 491.865 540.664C498.29 543.989 503.588 549.14 507.092 555.47C510.725 562.223 512.554 569.8 512.402 577.467C512.585 585.133 510.795 592.717 507.204 599.493ZM485.207 595.251C487.501 592.918 489.279 590.13 490.426 587.066C491.573 584.003 492.063 580.733 491.865 577.467C492.064 574.198 491.574 570.923 490.427 567.855C489.28 564.787 487.502 561.993 485.207 559.656C480.091 555.185 473.418 552.913 466.637 553.335H456.973V601.6H466.637C473.386 601.996 480.018 599.714 485.095 595.251H485.207Z" fill="white"/>
</svg>
