<svg width="563" height="675" viewBox="0 0 563 675" fill="none" xmlns="http://www.w3.org/2000/svg">
<g opacity="0.3">
<path opacity="0.3" d="M392.766 138.367C377.403 138.352 362.674 132.245 351.808 121.384C340.943 110.524 334.828 95.7973 334.806 80.435V0H75.8566C55.8055 0 36.5757 7.96551 22.3974 22.1438C8.21908 36.3221 0.253906 55.5516 0.253906 75.6027V531.356C0.283682 551.387 8.26209 570.589 22.4372 584.743C36.6123 598.897 55.8249 606.847 75.8566 606.847H386.585C406.636 606.847 425.866 598.881 440.044 584.703C454.222 570.525 462.188 551.295 462.188 531.244V138.254L392.766 138.367Z" fill="#E40011"/>
</g>
<path d="M462.19 138.367H392.768C377.405 138.352 362.676 132.244 351.811 121.384C340.945 110.524 334.831 95.7973 334.808 80.4349V0L462.19 138.367Z" fill="#E40011"/>
<path d="M517.03 479.325H165.733C140.814 479.325 120.613 499.526 120.613 524.445V629.182C120.613 654.101 140.814 674.302 165.733 674.302H517.03C541.949 674.302 562.15 654.101 562.15 629.182V524.445C562.15 499.526 541.949 479.325 517.03 479.325Z" fill="#E40011"/>
<path d="M250.41 590.271V619.91H229.958V535.43H263.081C273.12 535.43 280.762 537.921 286.007 542.903C288.669 545.514 290.748 548.659 292.109 552.131C293.469 555.602 294.081 559.322 293.901 563.047C293.994 567.961 292.772 572.811 290.361 577.094C287.923 581.296 284.283 584.672 279.91 586.787C274.651 589.285 268.872 590.489 263.053 590.299L250.41 590.271ZM273.111 563.047C273.111 555.555 269.009 551.809 260.806 551.809H250.41V573.807H260.806C269.009 573.882 273.111 570.295 273.111 563.047Z" fill="white"/>
<path d="M323.765 535.43V584.174C323.455 588.756 324.79 593.299 327.53 596.985C328.902 598.495 330.598 599.675 332.49 600.439C334.382 601.203 336.422 601.53 338.458 601.396C340.499 601.532 342.543 601.206 344.441 600.442C346.338 599.679 348.038 598.497 349.415 596.985C352.154 593.299 353.489 588.756 353.18 584.174V535.43H373.605V584.174C373.842 591.181 372.234 598.128 368.941 604.318C366.01 609.589 361.58 613.871 356.214 616.624C350.557 619.446 344.302 620.862 337.981 620.753C331.762 620.884 325.607 619.485 320.056 616.68C314.828 613.933 310.578 609.634 307.891 604.375C304.757 598.115 303.231 591.172 303.452 584.174V535.43H323.765Z" fill="white"/>
<path d="M450.025 583.837C452.981 587.522 454.561 592.121 454.492 596.845C454.641 600.017 454.068 603.183 452.818 606.102C451.567 609.022 449.671 611.62 447.272 613.702C442.439 617.766 435.528 619.799 426.538 619.799H387.205V535.318H425.554C434.151 535.318 440.801 537.19 445.502 540.936C447.861 542.857 449.73 545.31 450.956 548.094C452.182 550.878 452.73 553.913 452.554 556.95C452.717 561.533 451.287 566.03 448.508 569.677C445.826 573.045 442.066 575.386 437.86 576.307C442.664 577.335 446.963 579.996 450.025 583.837ZM407.658 569.959H421.032C428.139 569.959 431.68 566.952 431.68 560.883C431.68 554.815 428.055 551.809 420.807 551.809H407.658V569.959ZM433.59 593.979C433.651 592.648 433.416 591.319 432.901 590.09C432.386 588.861 431.604 587.761 430.612 586.871C428.199 585.036 425.208 584.129 422.183 584.315H407.715V603.307H422.296C429.806 603.307 433.571 600.197 433.59 593.979Z" fill="white"/>
<path d="M199.754 235.237H77.0919C74.3052 235.237 71.6324 234.13 69.6618 232.16C67.6913 230.189 66.5845 227.517 66.5845 224.73C66.5808 223.348 66.8497 221.978 67.376 220.7C67.9024 219.422 68.6758 218.26 69.6519 217.282C70.628 216.303 71.7876 215.527 73.0643 214.997C74.3409 214.467 75.7097 214.194 77.0919 214.194H199.754C202.528 214.231 205.176 215.361 207.122 217.339C209.069 219.317 210.156 221.983 210.149 224.758C210.134 227.518 209.037 230.163 207.093 232.123C205.149 234.082 202.514 235.201 199.754 235.237Z" fill="#E40011"/>
<path d="M199.754 298.086H77.0919C74.3052 298.086 71.6324 296.979 69.6618 295.008C67.6913 293.037 66.5845 290.365 66.5845 287.578C66.5808 286.196 66.8497 284.827 67.376 283.549C67.9024 282.27 68.6758 281.109 69.6519 280.13C70.628 279.151 71.7876 278.375 73.0643 277.845C74.3409 277.315 75.7097 277.043 77.0919 277.043H199.754C202.543 277.05 205.215 278.163 207.185 280.138C209.155 282.113 210.261 284.789 210.261 287.578C210.254 290.363 209.144 293.031 207.175 295C205.206 296.969 202.538 298.078 199.754 298.086Z" fill="#E40011"/>
<path d="M199.754 360.933H77.0919C75.7097 360.933 74.3409 360.66 73.0643 360.131C71.7876 359.601 70.628 358.825 69.6519 357.846C68.6758 356.867 67.9024 355.705 67.376 354.427C66.8497 353.149 66.5808 351.78 66.5845 350.398C66.5845 347.611 67.6913 344.938 69.6618 342.968C71.6324 340.997 74.3052 339.89 77.0919 339.89H199.754C202.538 339.898 205.206 341.007 207.175 342.976C209.144 344.945 210.254 347.613 210.261 350.398C210.261 353.187 209.155 355.863 207.185 357.838C205.215 359.813 202.543 360.926 199.754 360.933Z" fill="#E40011"/>
<path d="M199.754 423.781H77.0919C75.7097 423.781 74.3409 423.509 73.0643 422.979C71.7876 422.449 70.628 421.672 69.6519 420.694C68.6758 419.715 67.9024 418.554 67.376 417.276C66.8497 415.998 66.5808 414.628 66.5845 413.246C66.5845 410.459 67.6913 407.786 69.6618 405.816C71.6324 403.845 74.3052 402.739 77.0919 402.739H199.754C202.538 402.746 205.206 403.855 207.175 405.824C209.144 407.793 210.254 410.461 210.261 413.246C210.261 416.035 209.155 418.71 207.185 420.685C205.215 422.66 202.543 423.774 199.754 423.781Z" fill="#E40011"/>
<path d="M367.141 235.237H247.57C244.783 235.237 242.111 234.13 240.14 232.16C238.17 230.189 237.063 227.517 237.063 224.73C237.059 223.348 237.328 221.978 237.854 220.7C238.381 219.422 239.154 218.26 240.13 217.282C241.106 216.303 242.266 215.527 243.543 214.997C244.819 214.467 246.188 214.194 247.57 214.194H367.141C369.936 214.194 372.615 215.304 374.591 217.28C376.567 219.256 377.677 221.936 377.677 224.73C377.669 227.519 376.556 230.192 374.581 232.162C372.606 234.131 369.931 235.237 367.141 235.237Z" fill="#E40011"/>
<path d="M367.141 298.086H247.57C244.783 298.086 242.111 296.979 240.14 295.008C238.17 293.037 237.063 290.365 237.063 287.578C237.059 286.196 237.328 284.827 237.854 283.549C238.381 282.27 239.154 281.109 240.13 280.13C241.106 279.151 242.266 278.375 243.543 277.845C244.819 277.315 246.188 277.043 247.57 277.043H367.141C369.936 277.043 372.615 278.152 374.591 280.128C376.567 282.104 377.677 284.784 377.677 287.578C377.669 290.368 376.556 293.04 374.581 295.009C372.606 296.979 369.931 298.086 367.141 298.086Z" fill="#E40011"/>
<path d="M367.141 360.933H247.57C246.188 360.933 244.819 360.66 243.543 360.131C242.266 359.601 241.106 358.825 240.13 357.846C239.154 356.867 238.381 355.705 237.854 354.427C237.328 353.149 237.059 351.78 237.063 350.398C237.063 347.611 238.17 344.938 240.14 342.968C242.111 340.997 244.783 339.89 247.57 339.89H367.141C369.931 339.89 372.606 340.996 374.581 342.966C376.556 344.936 377.669 347.608 377.677 350.398C377.677 353.192 376.567 355.872 374.591 357.847C372.615 359.823 369.936 360.933 367.141 360.933Z" fill="#E40011"/>
<path d="M367.141 423.781H247.57C246.188 423.781 244.819 423.509 243.543 422.979C242.266 422.449 241.106 421.672 240.13 420.694C239.154 419.715 238.381 418.554 237.854 417.276C237.328 415.998 237.059 414.628 237.063 413.246C237.063 410.459 238.17 407.786 240.14 405.816C242.111 403.845 244.783 402.739 247.57 402.739H367.141C369.931 402.739 372.606 403.844 374.581 405.814C376.556 407.784 377.669 410.457 377.677 413.246C377.677 416.04 376.567 418.72 374.591 420.696C372.615 422.671 369.936 423.781 367.141 423.781Z" fill="#E40011"/>
</svg>
