<svg width="554" height="675" viewBox="0 0 554 675" fill="none" xmlns="http://www.w3.org/2000/svg">
<g opacity="0.3">
<path opacity="0.3" d="M386.614 138.385C371.515 138.362 357.04 132.247 346.366 121.38C335.691 110.513 329.688 95.782 329.673 80.4176V0.000127292H75.2635C65.5026 -0.00356352 55.8365 1.9495 46.8176 5.74774C37.7987 9.54598 29.6036 15.1148 22.7003 22.1365C15.7971 29.1582 10.321 37.4948 6.58482 46.6704C2.84866 55.846 0.925781 65.6809 0.925781 75.6129V531.424C0.925781 541.356 2.84866 551.191 6.58482 560.367C10.321 569.542 15.7971 577.879 22.7003 584.9C29.6036 591.922 37.7987 597.491 46.8176 601.29C55.8365 605.088 65.5026 607.041 75.2635 607.037H380.677C400.385 607.037 419.286 599.071 433.222 584.891C447.158 570.71 454.987 551.478 454.987 531.424V138.385H386.614Z" fill="#09A3A3"/>
</g>
<path d="M454.987 138.384H386.615C371.515 138.362 357.041 132.247 346.366 121.38C335.692 110.513 329.688 95.7818 329.674 80.4175V0L454.987 138.384Z" fill="#09A3A3"/>
<path d="M508.89 479.386H163.601C139.108 479.386 119.253 499.589 119.253 524.512V629.262C119.253 654.185 139.108 674.388 163.601 674.388H508.89C533.383 674.388 553.239 654.185 553.239 629.262V524.512C553.239 499.589 533.383 479.386 508.89 479.386Z" fill="#09A3A3"/>
<path d="M227.134 599.562V619.99H206.321V599.562H227.134Z" fill="white"/>
<path d="M280.256 619.99L262.263 588.071H257.674V619.99H237.58V535.498H271.909C277.625 535.34 283.3 536.523 288.493 538.955C292.756 541.015 296.317 544.322 298.72 548.452C301.034 552.674 302.207 557.444 302.12 562.276C302.281 567.924 300.514 573.455 297.117 577.927C293.416 582.47 288.294 585.584 282.606 586.75L302.369 619.99H280.256ZM257.674 574.106H270.14C273.324 574.349 276.48 573.343 278.957 571.296C279.939 570.24 280.692 568.987 281.168 567.618C281.644 566.248 281.833 564.792 281.721 563.344C281.813 561.906 281.615 560.464 281.14 559.107C280.665 557.749 279.922 556.504 278.957 555.449C276.513 553.378 273.366 552.369 270.195 552.639H257.73L257.674 574.106Z" fill="white"/>
<path d="M363.723 604.564H332.602L327.41 619.99H306.285L336.661 536.089H359.774L390.15 619.99H368.776L363.723 604.564ZM358.559 589.026L348.204 557.949L337.766 589.026H358.559Z" fill="white"/>
<path d="M440.696 619.99L422.702 588.071H418.114V619.99H398.02V535.498H432.349C438.064 535.34 443.739 536.523 448.933 538.955C453.195 541.015 456.756 544.322 459.16 548.452C461.474 552.674 462.647 557.444 462.559 562.276C462.721 567.924 460.953 573.455 457.556 577.927C453.855 582.47 448.733 585.584 443.045 586.75L462.808 619.99H440.696ZM418.114 574.106H430.58C433.763 574.343 436.916 573.338 439.397 571.296C440.379 570.24 441.132 568.987 441.608 567.618C442.084 566.248 442.272 564.792 442.161 563.344C442.253 561.906 442.055 560.464 441.58 559.107C441.104 557.749 440.362 556.504 439.397 555.449C436.953 553.378 433.805 552.369 430.635 552.639H418.169L418.114 574.106Z" fill="white"/>
<path d="M263.179 423.836H90.5338C87.7922 423.829 85.1654 422.715 83.2294 420.74C81.2934 418.765 80.206 416.089 80.2061 413.299C80.2061 410.512 81.2943 407.839 83.2311 405.868C85.1679 403.898 87.7947 402.79 90.5338 402.79H263.179C264.537 402.787 265.883 403.056 267.139 403.582C268.396 404.109 269.537 404.882 270.499 405.858C271.461 406.835 272.224 407.994 272.745 409.271C273.266 410.548 273.534 411.917 273.534 413.299C273.534 416.094 272.443 418.774 270.501 420.75C268.559 422.726 265.925 423.836 263.179 423.836Z" fill="#09A3A3"/>
<path d="M263.179 361.766H90.5338C87.7922 361.759 85.1654 360.645 83.2294 358.67C81.2934 356.695 80.206 354.019 80.2061 351.229C80.2133 348.445 81.3039 345.776 83.2392 343.807C85.1744 341.837 87.7969 340.728 90.5338 340.721H263.179C265.92 340.721 268.55 341.827 270.491 343.797C272.433 345.767 273.527 348.44 273.534 351.229C273.534 354.024 272.443 356.704 270.501 358.68C268.559 360.656 265.925 361.766 263.179 361.766Z" fill="#09A3A3"/>
<path d="M263.179 299.697H90.5338C87.7947 299.697 85.1679 298.589 83.2311 296.619C81.2943 294.648 80.2061 291.975 80.2061 289.188C80.206 286.398 81.2934 283.722 83.2294 281.747C85.1654 279.772 87.7922 278.659 90.5338 278.651H263.179C265.925 278.651 268.559 279.761 270.501 281.737C272.443 283.713 273.534 286.393 273.534 289.188C273.534 290.57 273.266 291.939 272.745 293.216C272.224 294.493 271.461 295.652 270.499 296.629C269.537 297.605 268.396 298.378 267.139 298.905C265.883 299.431 264.537 299.7 263.179 299.697Z" fill="#09A3A3"/>
<path d="M263.179 237.627H90.5338C87.7947 237.627 85.1679 236.52 83.2311 234.55C81.2943 232.579 80.2061 229.906 80.2061 227.119C80.2061 224.332 81.2943 221.659 83.2311 219.688C85.1679 217.717 87.7947 216.61 90.5338 216.61H263.179C264.537 216.606 265.883 216.875 267.139 217.402C268.396 217.928 269.537 218.702 270.499 219.678C271.461 220.654 272.224 221.814 272.745 223.091C273.266 224.368 273.534 225.736 273.534 227.119C273.534 228.501 273.266 229.87 272.745 231.147C272.224 232.424 271.461 233.583 270.499 234.56C269.537 235.536 268.396 236.309 267.139 236.836C265.883 237.362 264.537 237.631 263.179 237.627Z" fill="#09A3A3"/>
<path d="M340.642 428.557C331.342 428.549 322.424 424.79 315.848 418.105C309.271 411.419 305.574 402.354 305.566 392.9V357.243H375.689V392.9C375.682 402.349 371.988 411.41 365.418 418.095C358.847 424.779 349.937 428.542 340.642 428.557ZM323.505 375.479V392.9C323.512 397.518 325.32 401.945 328.532 405.21C331.744 408.476 336.099 410.313 340.642 410.321C345.185 410.313 349.539 408.476 352.751 405.21C355.963 401.945 357.771 397.518 357.778 392.9V375.479H323.505Z" fill="#09A3A3"/>
<path d="M305.534 357.271H340.692V321.53H305.534V357.271Z" fill="#09A3A3"/>
<path d="M340.549 321.557H375.707V285.816H340.549V321.557Z" fill="#09A3A3"/>
<path d="M305.534 285.844H340.692V250.103H305.534V285.844Z" fill="#09A3A3"/>
<path d="M340.549 250.132H375.707V214.391H340.549V250.132Z" fill="#09A3A3"/>
</svg>
