<svg width="562" height="674" viewBox="0 0 562 674" fill="none" xmlns="http://www.w3.org/2000/svg">
<g opacity="0.3">
<path opacity="0.3" d="M392.24 138.282C376.886 138.267 362.166 132.162 351.309 121.305C340.453 110.448 334.347 95.728 334.332 80.3745V0H75.5722C55.5341 -1.38357e-06 36.3162 7.95823 22.1445 22.1247C7.97276 36.2912 0.00744635 55.5061 0 75.5442V531.112C0.0223282 551.14 7.99422 570.341 22.1643 584.495C36.3345 598.649 55.5438 606.6 75.5722 606.6H386.174C396.1 606.603 405.931 604.651 415.103 600.855C424.275 597.059 432.609 591.493 439.63 584.475C446.65 577.457 452.219 569.125 456.019 559.954C459.818 550.784 461.774 540.954 461.774 531.028V138.282H392.24Z" fill="#FF3E4C"/>
</g>
<path d="M461.773 138.282H392.239C376.885 138.267 362.165 132.162 351.308 121.305C340.452 110.448 334.346 95.728 334.331 80.3745V0L461.773 138.282Z" fill="#FF3E4C"/>
<path d="M516.564 479.102H165.41C140.501 479.102 120.309 499.295 120.309 524.204V628.898C120.309 653.807 140.501 674 165.41 674H516.564C541.473 674 561.666 653.807 561.666 628.898V524.204C561.666 499.295 541.473 479.102 516.564 479.102Z" fill="#FF3E4C"/>
<path d="M204.164 599.214V619.631H183.045V599.214H204.164Z" fill="white"/>
<path d="M258.171 619.63L239.889 587.756H235.227V619.63H214.81V535.184H249.69C255.5 535.02 261.269 536.213 266.54 538.666C270.876 540.717 274.497 544.024 276.93 548.158C279.282 552.368 280.474 557.126 280.385 561.947C280.543 567.587 278.758 573.109 275.33 577.589C271.549 582.125 266.341 585.244 260.558 586.436L280.834 619.63H258.171ZM235.227 573.77H247.892C251.128 574.013 254.333 573.008 256.851 570.962C257.849 569.913 258.615 568.666 259.099 567.301C259.583 565.937 259.774 564.486 259.659 563.042C259.754 561.605 259.554 560.163 259.071 558.806C258.588 557.449 257.832 556.205 256.851 555.151C254.371 553.076 251.17 552.066 247.948 552.343H235.283L235.227 573.77Z" fill="white"/>
<path d="M343.093 604.241H311.443L306.108 619.63H284.596L315.487 535.802H339.021L369.913 619.63H348.233L343.093 604.241ZM337.842 588.711L327.339 557.651L316.695 588.711H337.842Z" fill="white"/>
<path d="M492.749 535.184L472.585 619.631H447.31L433.802 563.155L420.182 619.631H394.907L374.715 535.184H396.929L407.797 596.349L422.597 535.184H445.064L459.863 596.349L470.844 535.184H492.749Z" fill="white"/>
<path d="M183.497 347.279H115.311C109.977 333.231 107.255 318.327 107.279 303.3C107.258 288.283 109.98 273.389 115.311 259.35C117.434 253.791 119.958 248.394 122.865 243.202L132.273 259.35L158.082 303.637L169.315 323.127L183.497 347.279Z" fill="#FF3E4C"/>
<path d="M326.665 381.484C307.73 404.705 281.002 420.254 251.458 425.238C245.228 426.272 238.928 426.836 232.614 426.923L242.555 410.073L267.83 366.937L279.288 347.279L293.33 323.239L307.091 347.279L318.324 366.937L326.665 381.484Z" fill="#FF3E4C"/>
<path d="M354.495 303.3C354.52 318.32 351.788 333.217 346.435 347.25C344.312 352.837 341.788 358.262 338.88 363.482L329.613 347.25L304.731 303.805L293.498 284.147L279.231 259.237H346.351C351.746 273.3 354.507 288.237 354.495 303.3Z" fill="#FF3E4C"/>
<path d="M337 239.86H217.141L231.435 214.922L242.668 195.263L250.672 181.222C280.992 186.112 308.399 202.134 327.536 226.155C330.997 230.504 334.159 235.083 337 239.86Z" fill="#FF3E4C"/>
<path d="M229.075 179.733L220.173 195.263L194.645 239.86L183.412 259.518L169.37 284.259L154.935 259.518L143.702 239.86L135.277 225.313C154.597 201.527 182.076 185.78 212.366 181.138C217.898 180.296 223.48 179.826 229.075 179.733Z" fill="#FF3E4C"/>
<path d="M245.224 366.825L231.182 390.583L219.949 409.904L210.934 425.35C181.436 420.524 154.686 405.169 135.643 382.13C131.656 377.303 128.033 372.187 124.803 366.825H245.224Z" fill="#FF3E4C"/>
</svg>
