<svg width="562" height="675" viewBox="0 0 562 675" fill="none" xmlns="http://www.w3.org/2000/svg">
<g opacity="0.3">
<path opacity="0.3" d="M392.415 138.334C377.056 138.319 362.33 132.211 351.469 121.35C340.608 110.49 334.5 95.7637 334.485 80.4044V0.00012207H75.6578C55.5999 0.00012207 36.3633 7.96797 22.1802 22.151C7.99715 36.3341 0.0292969 55.5707 0.0292969 75.6286V531.337C0.0292969 551.395 7.99715 570.631 22.1802 584.815C36.3633 598.998 55.5999 606.966 75.6578 606.966H386.375C396.305 606.966 406.138 605.009 415.312 601.208C424.486 597.407 432.821 591.836 439.842 584.813C446.862 577.79 452.43 569.452 456.228 560.277C460.026 551.101 461.978 541.268 461.975 531.337V138.362L392.415 138.334Z" fill="#C27200"/>
</g>
<path d="M461.977 138.334H392.417C377.058 138.319 362.332 132.211 351.472 121.35C340.611 110.489 334.503 95.7635 334.488 80.4043V0L461.977 138.334Z" fill="#C27200"/>
<path d="M516.812 479.28H165.527C140.609 479.28 120.409 499.48 120.409 524.399V629.132C120.409 654.05 140.609 674.25 165.527 674.25H516.812C541.73 674.25 561.93 654.05 561.93 629.132V524.399C561.93 499.48 541.73 479.28 516.812 479.28Z" fill="#C27200"/>
<path d="M224.78 599.437V619.889H203.626V599.437H224.78Z" fill="white"/>
<path d="M292.707 608.398C290.292 612.285 286.811 615.395 282.678 617.36C277.65 619.725 272.134 620.871 266.58 620.703C258.231 621.044 250.002 618.614 243.178 613.792C240.153 611.532 237.679 608.617 235.942 605.264C234.205 601.912 233.25 598.21 233.148 594.435H254.893C255.048 597.281 256.26 599.966 258.292 601.965C260.315 603.85 263.001 604.86 265.765 604.774C268.035 604.902 270.264 604.136 271.974 602.639C272.723 601.912 273.313 601.037 273.705 600.069C274.097 599.102 274.282 598.063 274.25 597.02C274.28 596.025 274.109 595.035 273.747 594.108C273.384 593.181 272.839 592.337 272.143 591.626C270.661 590.121 268.894 588.927 266.945 588.114C264.866 587.196 262.001 586.101 258.348 584.827C253.871 583.352 249.498 581.578 245.257 579.518C241.771 577.711 238.78 575.078 236.548 571.848C233.956 567.948 232.677 563.322 232.896 558.644C232.778 554.015 234.114 549.466 236.716 545.636C239.376 541.88 243.05 538.957 247.308 537.208C252.212 535.224 257.471 534.268 262.759 534.399C270.8 533.95 278.747 536.314 285.234 541.085C287.941 543.285 290.169 546.014 291.783 549.106C293.396 552.198 294.361 555.587 294.618 559.065H272.508C272.254 556.576 271.176 554.243 269.446 552.435C268.565 551.598 267.523 550.95 266.383 550.53C265.243 550.11 264.029 549.926 262.816 549.991C260.716 549.884 258.651 550.565 257.028 551.901C256.265 552.615 255.67 553.489 255.286 554.461C254.903 555.433 254.739 556.478 254.809 557.52C254.79 558.453 254.957 559.38 255.299 560.249C255.641 561.117 256.153 561.908 256.804 562.577C258.202 564.043 259.884 565.21 261.748 566.004C263.743 566.875 266.608 567.999 270.345 569.348C274.899 570.807 279.333 572.619 283.605 574.77C287.128 576.653 290.16 579.338 292.454 582.608C295.07 586.563 296.368 591.243 296.163 595.981C296.207 600.363 295.008 604.668 292.707 608.398Z" fill="white"/>
<path d="M323.246 535.411L343.895 598.959L364.572 535.411H386.457L357.043 619.889H330.635L301.361 535.411H323.246Z" fill="white"/>
<path d="M460.035 542.209C466.845 547.321 471.431 554.854 472.845 563.251H451.213C449.801 560.236 447.509 557.719 444.64 556.031C441.422 554.12 437.734 553.147 433.992 553.222C431.083 553.103 428.183 553.625 425.499 554.752C422.814 555.878 420.41 557.581 418.456 559.739C414.346 564.658 412.257 570.954 412.613 577.354C412.613 585.389 414.663 591.56 418.765 595.868C421.071 598.105 423.82 599.835 426.834 600.948C429.848 602.06 433.061 602.531 436.268 602.33C440.852 602.413 445.338 601.003 449.05 598.312C452.841 595.481 455.579 591.468 456.832 586.906H431.014V572.213H473.913V592.413C472.263 597.436 469.67 602.099 466.272 606.15C462.575 610.503 457.986 614.01 452.815 616.433C446.964 619.136 440.577 620.48 434.133 620.366C426.294 620.571 418.54 618.701 411.658 614.944C405.361 611.403 400.235 606.101 396.908 599.689C393.333 592.746 391.547 585.021 391.711 577.214C391.571 569.454 393.356 561.78 396.908 554.879C400.229 548.482 405.333 543.183 411.601 539.624C418.381 535.89 426.029 534.019 433.767 534.202C443.172 533.863 452.419 536.682 460.035 542.209Z" fill="white"/>
<path d="M345.667 358.842H338.671C338.634 330.49 327.353 303.311 307.302 283.266C287.252 263.221 260.07 251.947 231.718 251.917C203.369 251.947 176.19 263.222 156.144 283.268C136.098 303.313 124.823 330.493 124.793 358.842H117.77C117.807 328.635 129.825 299.676 151.187 278.319C172.549 256.962 201.511 244.952 231.718 244.922C261.925 244.952 290.887 256.962 312.249 278.319C333.611 299.676 345.629 328.635 345.667 358.842Z" fill="#C27200"/>
<path d="M393.623 244.922H69.814V251.917H393.623V244.922Z" fill="#C27200"/>
<path d="M132.462 347.66H110.072V370.051H132.462V347.66Z" fill="#C27200"/>
<path d="M353.334 347.66H330.943V370.051H353.334V347.66Z" fill="#C27200"/>
<path d="M242.901 236.859H220.51V259.249H242.901V236.859Z" fill="#C27200"/>
<path d="M69.4501 259.277C75.6409 259.277 80.6597 254.259 80.6597 248.068C80.6597 241.877 75.6409 236.859 69.4501 236.859C63.2593 236.859 58.2407 241.877 58.2407 248.068C58.2407 254.259 63.2593 259.277 69.4501 259.277Z" fill="#C27200"/>
<path d="M392.557 259.277C398.748 259.277 403.766 254.259 403.766 248.068C403.766 241.877 398.748 236.859 392.557 236.859C386.366 236.859 381.347 241.877 381.347 248.068C381.347 254.259 386.366 259.277 392.557 259.277Z" fill="#C27200"/>
</svg>
