<svg width="562" height="675" viewBox="0 0 562 675" fill="none" xmlns="http://www.w3.org/2000/svg">
<g opacity="0.3">
<path opacity="0.3" d="M392.51 138.334C377.151 138.319 362.425 132.211 351.564 121.35C340.704 110.49 334.596 95.7636 334.581 80.4043V0H75.725C65.7947 -6.85656e-07 55.9617 1.95627 46.7877 5.7573C37.6136 9.55833 29.2783 15.1295 22.2578 22.1526C15.2372 29.1758 9.66895 37.5132 5.87133 46.6887C2.07371 55.8642 0.121315 65.6982 0.125005 75.6285V531.337C0.121315 541.268 2.07371 551.101 5.87133 560.277C9.66895 569.452 15.2372 577.79 22.2578 584.813C29.2783 591.836 37.6136 597.407 46.7877 601.208C55.9617 605.009 65.7947 606.966 75.725 606.966H386.442C406.5 606.966 425.737 598.997 439.92 584.814C454.103 570.631 462.07 551.395 462.07 531.337V138.362L392.51 138.334Z" fill="#A140FF"/>
</g>
<path d="M462.072 138.334H392.512C377.153 138.319 362.427 132.211 351.566 121.35C340.706 110.49 334.598 95.7637 334.583 80.4044V0.00012207L462.072 138.334Z" fill="#A140FF"/>
<path d="M516.88 479.28H165.596C140.678 479.28 120.478 499.48 120.478 524.399V629.132C120.478 654.05 140.678 674.25 165.596 674.25H516.88C541.799 674.25 561.999 654.05 561.999 629.132V524.399C561.999 499.48 541.799 479.28 516.88 479.28Z" fill="#A140FF"/>
<path d="M235.071 599.437V619.889H213.917V599.437H235.071Z" fill="white"/>
<path d="M306.346 535.411V551.649H283.421V619.889H262.856V551.649H240.156V535.411H306.346Z" fill="white"/>
<path d="M335.452 535.411V619.889H315V535.411H335.452Z" fill="white"/>
<path d="M404.676 535.411V551.649H370.036V570.163H396.809V585.699H370.036V619.889H349.612V535.411H404.676Z" fill="white"/>
<path d="M470.219 535.411V551.649H435.579V570.163H462.353V585.699H435.579V619.889H415.155V535.411H470.219Z" fill="white"/>
<path d="M293.172 411.321H169.053C156.905 411.306 145.26 406.474 136.67 397.884C128.08 389.294 123.248 377.648 123.233 365.5V241.41C123.248 229.262 128.08 217.616 136.67 209.026C145.26 200.436 156.905 195.604 169.053 195.589H293.172C305.312 195.611 316.948 200.448 325.528 209.038C334.107 217.628 338.929 229.27 338.937 241.41V365.5C338.929 377.641 334.107 389.283 325.528 397.872C316.948 406.462 305.312 411.299 293.172 411.321ZM169.053 215.845C162.275 215.852 155.777 218.548 150.984 223.341C146.191 228.134 143.496 234.632 143.488 241.41V365.5C143.496 372.278 146.191 378.777 150.984 383.569C155.777 388.362 162.275 391.058 169.053 391.065H293.172C299.945 391.051 306.436 388.351 311.223 383.559C316.01 378.767 318.701 372.273 318.709 365.5V241.41C318.701 234.637 316.01 228.143 311.223 223.351C306.436 218.559 299.945 215.86 293.172 215.845H169.053Z" fill="#A140FF"/>
<path d="M328.821 341.901V365.5C328.821 374.958 325.066 384.029 318.38 390.719C311.695 397.409 302.628 401.172 293.17 401.179H169.051C159.589 401.179 150.514 397.42 143.823 390.729C137.132 384.037 133.373 374.962 133.373 365.5V325.888C153.235 321.617 183.492 320.269 220.239 334.934L242.966 313.245L258.474 352.577C258.474 352.577 262.632 338.108 276.061 340.159C289.49 342.21 311.234 349.486 320.533 343.278C323.039 341.832 325.983 341.343 328.821 341.901Z" fill="#A140FF"/>
<path d="M285.386 266.75C293.004 266.75 299.18 260.574 299.18 252.956C299.18 245.338 293.004 239.162 285.386 239.162C277.768 239.162 271.592 245.338 271.592 252.956C271.592 260.574 277.768 266.75 285.386 266.75Z" fill="#A140FF"/>
</svg>
