<svg width="563" height="675" viewBox="0 0 563 675" fill="none" xmlns="http://www.w3.org/2000/svg">
<g opacity="0.3">
<path opacity="0.3" d="M392.708 138.367C377.345 138.352 362.616 132.245 351.75 121.384C340.885 110.524 334.77 95.7973 334.748 80.435V0H75.9113C55.8602 0 36.63 7.96551 22.4517 22.1438C8.27342 36.3221 0.308594 55.5516 0.308594 75.6027V531.356C0.308594 551.407 8.27342 570.637 22.4517 584.815C36.63 598.994 55.8602 606.959 75.9113 606.959H386.64C406.691 606.959 425.92 598.994 440.099 584.815C454.277 570.637 462.242 551.407 462.242 531.356V138.367H392.708Z" fill="#0061DA"/>
</g>
<path d="M462.239 138.367H392.705C377.343 138.352 362.613 132.244 351.747 121.384C340.882 110.524 334.767 95.7973 334.745 80.4349V0L462.239 138.367Z" fill="#0061DA"/>
<path d="M367.223 235.237H77.1449C74.3604 235.23 71.6923 234.12 69.7233 232.151C67.7544 230.182 66.6449 227.514 66.6375 224.73C66.6374 221.941 67.7433 219.265 69.7131 217.29C71.6828 215.315 74.3555 214.202 77.1449 214.194H367.223C370.013 214.202 372.685 215.315 374.655 217.29C376.625 219.265 377.731 221.941 377.731 224.73C377.723 227.514 376.614 230.182 374.645 232.151C372.676 234.12 370.008 235.23 367.223 235.237Z" fill="#0061DA"/>
<path d="M367.223 298.086H77.1449C74.3604 298.078 71.6923 296.969 69.7233 295C67.7544 293.031 66.6449 290.363 66.6375 287.578C66.6374 284.789 67.7433 282.113 69.7131 280.138C71.6828 278.163 74.3555 277.05 77.1449 277.043H367.223C370.013 277.05 372.685 278.163 374.655 280.138C376.625 282.113 377.731 284.789 377.731 287.578C377.723 290.363 376.614 293.031 374.645 295C372.676 296.969 370.008 298.078 367.223 298.086Z" fill="#0061DA"/>
<path d="M367.223 360.933H77.1449C74.3555 360.926 71.6828 359.813 69.7131 357.838C67.7433 355.863 66.6374 353.187 66.6375 350.398C66.6449 347.613 67.7544 344.945 69.7233 342.976C71.6923 341.007 74.3604 339.898 77.1449 339.89H367.223C370.008 339.898 372.676 341.007 374.645 342.976C376.614 344.945 377.723 347.613 377.731 350.398C377.731 353.187 376.625 355.863 374.655 357.838C372.685 359.813 370.013 360.926 367.223 360.933Z" fill="#0061DA"/>
<path d="M367.223 423.753H77.1449C74.3581 423.753 71.6856 422.646 69.7151 420.676C67.7446 418.705 66.6375 416.033 66.6375 413.246C66.6374 410.457 67.7433 407.781 69.7131 405.806C71.6828 403.831 74.3555 402.718 77.1449 402.711H367.223C370.013 402.718 372.685 403.831 374.655 405.806C376.625 407.781 377.731 410.457 377.731 413.246C377.731 416.033 376.623 418.705 374.653 420.676C372.682 422.646 370.01 423.753 367.223 423.753Z" fill="#0061DA"/>
<path d="M517.083 479.325H165.786C140.867 479.325 120.666 499.526 120.666 524.445V629.182C120.666 654.101 140.867 674.302 165.786 674.302H517.083C542.002 674.302 562.203 654.101 562.203 629.182V524.445C562.203 499.526 542.002 479.325 517.083 479.325Z" fill="#0061DA"/>
<path d="M240.684 599.486V619.91H219.529V599.486H240.684Z" fill="white"/>
<path d="M312.017 535.43V551.697H289.063V619.91H268.526V551.697H245.797V535.43H312.017Z" fill="white"/>
<path d="M371.889 619.91L354.076 593.614L338.765 619.91H315.362L342.361 576.42L314.519 535.43H338.765L356.099 560.883L371.046 535.43H394.336L367.702 577.965L396.134 619.91H371.889Z" fill="white"/>
<path d="M464.714 535.43V551.697H441.789V619.91H421.223V551.697H398.523V535.43H464.714Z" fill="white"/>
</svg>
