<svg width="553" height="664" viewBox="0 0 553 664" fill="none" xmlns="http://www.w3.org/2000/svg">
<g opacity="0.3">
<path opacity="0.3" d="M386.091 136.268C370.994 136.253 356.519 130.244 345.844 119.558C335.169 108.873 329.165 94.385 329.15 79.2738V0.167974H74.7401C64.9792 0.164343 55.3131 2.08555 46.2942 5.82183C37.2753 9.55812 29.0805 15.0363 22.1772 21.9434C15.274 28.8506 9.79787 37.0513 6.06172 46.0772C2.32556 55.1031 0.402343 64.7774 0.402344 74.5473V522.924C0.431616 542.636 8.27737 561.531 22.216 575.457C36.1546 589.382 55.0462 597.2 74.7401 597.193H380.154C389.912 597.193 399.575 595.269 408.591 591.531C417.606 587.793 425.799 582.314 432.699 575.408C439.599 568.501 445.073 560.301 448.807 551.277C452.542 542.253 454.464 532.581 454.464 522.814V136.268H386.091Z" fill="#438EFF"/>
</g>
<path d="M454.464 136.268H386.092C370.994 136.253 356.52 130.244 345.845 119.558C335.169 108.873 329.166 94.385 329.151 79.2738V0.167969L454.464 136.268Z" fill="#438EFF"/>
<path d="M508.367 471.708H163.078C138.585 471.708 118.729 491.581 118.729 516.097V619.139C118.729 643.655 138.585 663.529 163.078 663.529H508.367C532.86 663.529 552.715 643.655 552.715 619.139V516.097C552.715 491.581 532.86 471.708 508.367 471.708Z" fill="#438EFF"/>
<path d="M197.45 589.924V610.018H176.637V589.924H197.45Z" fill="white"/>
<path d="M320.755 526.904L300.901 610.018H276.048L262.793 554.406L249.4 610.018H224.547L204.692 526.904H226.535L237.222 587.104L251.802 526.904H273.894L288.474 587.104L299.271 526.904H320.755Z" fill="white"/>
<path d="M382.778 594.844H351.629L346.465 610.018H325.34L355.716 527.485H378.857L409.233 610.018H387.859L382.778 594.844ZM377.587 579.559L367.259 549.016L356.821 579.559H377.587Z" fill="white"/>
<path d="M432.565 526.904L452.889 589.454L473.214 526.904H494.697L465.813 610.018H439.855L411.082 526.904H432.565Z" fill="white"/>
<path d="M332.409 364.796H302.034V242.461C302.034 238.363 300.408 234.433 297.513 231.536C294.618 228.638 290.691 227.01 286.597 227.01H209.277C205.183 227.01 201.257 228.638 198.362 231.536C195.467 234.433 193.841 238.363 193.841 242.461V364.796H163.604V232.124C163.604 222.726 167.333 213.713 173.972 207.067C180.611 200.422 189.616 196.689 199.005 196.689H296.787C306.176 196.689 315.181 200.422 321.82 207.067C328.459 213.713 332.189 222.726 332.189 232.124L332.409 364.796Z" fill="#438EFF"/>
<path d="M296.599 400.672C316.413 400.672 332.476 384.609 332.476 364.795C332.476 344.981 316.413 328.918 296.599 328.918C276.785 328.918 260.722 344.981 260.722 364.795C260.722 384.609 276.785 400.672 296.599 400.672Z" fill="#438EFF"/>
<path d="M158.362 400.672C178.176 400.672 194.239 384.609 194.239 364.795C194.239 344.981 178.176 328.918 158.362 328.918C138.548 328.918 122.485 344.981 122.485 364.795C122.485 384.609 138.548 400.672 158.362 400.672Z" fill="#438EFF"/>
</svg>
