<svg width="553" height="664" viewBox="0 0 553 664" fill="none" xmlns="http://www.w3.org/2000/svg">
<g opacity="0.3">
<path opacity="0.3" d="M385.688 136.268C370.591 136.253 356.117 130.244 345.441 119.558C334.766 108.873 328.762 94.3849 328.748 79.2738V0.167969H74.31C54.6065 0.167967 35.7097 8.00059 21.7746 21.9434C7.8396 35.8863 0.00732198 54.7978 0 74.5197V522.896C0.0219553 542.609 7.86069 561.506 21.7941 575.437C35.7276 589.368 54.6161 597.193 74.31 597.193H379.724C389.485 597.197 399.151 595.275 408.169 591.539C417.188 587.803 425.383 582.325 432.287 575.417C439.19 568.51 444.666 560.31 448.402 551.284C452.138 542.258 454.061 532.583 454.061 522.814V136.268H385.688Z" fill="#438EFF"/>
</g>
<path d="M454.061 136.268H385.689C370.591 136.253 356.117 130.244 345.442 119.558C334.766 108.873 328.762 94.385 328.748 79.2738V0.167969L454.061 136.268Z" fill="#438EFF"/>
<path d="M507.937 471.708H162.648C138.155 471.708 118.3 491.581 118.3 516.097V619.139C118.3 643.655 138.155 663.529 162.648 663.529H507.937C532.43 663.529 552.285 643.655 552.285 619.139V516.097C552.285 491.581 532.43 471.708 507.937 471.708Z" fill="#438EFF"/>
<path d="M185.035 589.924V610.018H164.222V589.924H185.035Z" fill="white"/>
<path d="M308.341 526.904L288.486 610.018H263.633L250.378 554.406L236.985 610.018H212.132L192.278 526.904H214.121L224.807 587.104L239.388 526.904H261.479L276.059 587.104L286.857 526.904H308.341Z" fill="white"/>
<path d="M412.281 527.485V610.018H392.123V558.497L374.256 610.101H356.887L338.91 558.386V610.101H318.807V527.568H343.356L365.806 585.059L387.76 527.568L412.281 527.485Z" fill="white"/>
<path d="M477.728 594.844H446.469L441.277 610.018H420.152L450.528 527.485H473.669L504.045 610.018H482.671L477.728 594.844ZM472.564 579.559L462.209 549.016L451.771 579.559H472.564Z" fill="white"/>
<path d="M324.882 364.796H294.644V242.461C294.644 238.363 293.018 234.433 290.123 231.536C287.228 228.638 283.302 227.01 279.208 227.01H201.888C197.794 227.01 193.868 228.638 190.973 231.536C188.078 234.433 186.452 238.363 186.452 242.461V364.796H156.076V232.124C156.083 222.723 159.819 213.71 166.463 207.066C173.106 200.421 182.113 196.689 191.505 196.689H289.287C298.676 196.689 307.681 200.422 314.32 207.067C320.959 213.713 324.689 222.726 324.689 232.124L324.882 364.796Z" fill="#438EFF"/>
<path d="M289.072 400.672C308.886 400.672 324.949 384.609 324.949 364.795C324.949 344.981 308.886 328.918 289.072 328.918C269.258 328.918 253.195 344.981 253.195 364.795C253.195 384.609 269.258 400.672 289.072 400.672Z" fill="#438EFF"/>
<path d="M150.808 400.672C170.622 400.672 186.684 384.609 186.684 364.795C186.684 344.981 170.622 328.918 150.808 328.918C130.993 328.918 114.931 344.981 114.931 364.795C114.931 384.609 130.993 400.672 150.808 400.672Z" fill="#438EFF"/>
</svg>
