<svg width="563" height="675" viewBox="0 0 563 675" fill="none" xmlns="http://www.w3.org/2000/svg">
<g opacity="0.3">
<path opacity="0.3" d="M392.767 138.367C377.407 138.352 362.681 132.243 351.82 121.382C340.959 110.521 334.85 95.7947 334.835 80.435V0H75.9706C55.9195 0 36.6893 7.96551 22.511 22.1438C8.3327 36.3221 0.367187 55.5516 0.367188 75.6027V531.356C0.367188 551.407 8.3327 570.637 22.511 584.815C36.6893 598.994 55.9195 606.959 75.9706 606.959H386.698C406.749 606.959 425.979 598.994 440.158 584.815C454.336 570.637 462.302 551.407 462.302 531.356V138.367H392.767Z" fill="#048739"/>
</g>
<path d="M462.304 138.367H392.769C377.409 138.352 362.683 132.243 351.822 121.382C340.961 110.521 334.852 95.7947 334.837 80.4349V0L462.304 138.367Z" fill="#048739"/>
<path d="M517.142 479.325H165.845C140.926 479.325 120.725 499.526 120.725 524.445V629.182C120.725 654.101 140.926 674.302 165.845 674.302H517.142C542.061 674.302 562.262 654.101 562.262 629.182V524.445C562.262 499.526 542.061 479.325 517.142 479.325Z" fill="#048739"/>
<path d="M246.001 599.486V619.91H224.845V599.486H246.001Z" fill="white"/>
<path d="M307.895 619.91L290.111 593.614L274.8 619.91H251.396L278.395 576.42L250.553 535.43H274.8L292.134 560.883L307.08 535.43H330.37L303.737 577.965L332.169 619.91H307.895Z" fill="white"/>
<path d="M397.348 608.448C394.924 612.328 391.445 615.436 387.318 617.41C382.296 619.762 376.792 620.907 371.248 620.753C362.884 621.103 354.642 618.662 347.818 613.814C344.799 611.548 342.329 608.632 340.593 605.281C338.857 601.929 337.898 598.23 337.788 594.457H359.533C359.688 597.303 360.9 599.988 362.932 601.986C364.955 603.872 367.641 604.882 370.405 604.796C371.532 604.862 372.66 604.705 373.726 604.333C374.791 603.962 375.773 603.384 376.615 602.632C377.364 601.906 377.954 601.03 378.345 600.063C378.737 599.095 378.923 598.057 378.89 597.013C378.918 596.023 378.746 595.037 378.384 594.115C378.022 593.193 377.477 592.354 376.783 591.647C375.296 590.142 373.531 588.94 371.586 588.107C369.544 587.208 366.678 586.112 362.989 584.82C358.511 583.344 354.137 581.57 349.897 579.51C346.412 577.715 343.421 575.091 341.187 571.869C338.595 567.968 337.315 563.342 337.535 558.664C337.433 554.029 338.768 549.475 341.356 545.628C344.013 541.869 347.688 538.945 351.948 537.199C356.858 535.202 362.129 534.246 367.428 534.39C375.473 533.946 383.421 536.321 389.904 541.105C392.663 543.35 394.923 546.146 396.539 549.315C398.155 552.484 399.091 555.955 399.287 559.507H377.177C376.93 557.021 375.862 554.688 374.142 552.877C373.264 552.035 372.222 551.381 371.082 550.956C369.942 550.531 368.727 550.343 367.512 550.404C365.405 550.308 363.336 550.988 361.696 552.315C360.94 553.032 360.351 553.907 359.972 554.879C359.593 555.85 359.434 556.894 359.505 557.934C359.462 559.822 360.169 561.65 361.471 563.018C362.869 564.478 364.552 565.636 366.416 566.418C368.411 567.289 371.277 568.413 375.013 569.762C379.572 571.247 384.014 573.068 388.302 575.212C391.805 577.101 394.823 579.774 397.123 583.022C399.745 586.985 401.044 591.677 400.832 596.423C400.794 600.675 399.589 604.835 397.348 608.448Z" fill="white"/>
<path d="M432.55 604.262H459.914V619.91H412.153V535.43H432.606L432.55 604.262Z" fill="white"/>
<path d="M334.389 423.782H128.398C110.558 423.782 96.0325 406.025 96.0325 384.168V234.732C96.0325 212.902 110.558 195.146 128.398 195.146H334.473C352.285 195.146 366.81 212.902 366.81 234.732V384.168C366.726 406.025 352.201 423.782 334.389 423.782ZM128.398 215.374C119.66 215.374 112.581 224.056 112.581 234.732V384.168C112.581 394.844 119.66 403.525 128.398 403.525H334.473C343.182 403.525 350.262 394.844 350.262 384.168V234.732C350.262 224.056 343.182 215.374 334.473 215.374H128.398Z" fill="#048739"/>
<path d="M358.465 333.794H104.236V354.05H358.465V333.794Z" fill="#048739"/>
<path d="M358.465 264.343H104.236V284.6H358.465V264.343Z" fill="#048739"/>
<path d="M293.341 205.26H273.084V413.639H293.341V205.26Z" fill="#048739"/>
<path d="M189.587 205.26H169.331V413.639H189.587V205.26Z" fill="#048739"/>
</svg>
