<svg width="553" height="675" viewBox="0 0 553 675" fill="none" xmlns="http://www.w3.org/2000/svg">
<g opacity="0.3">
<path opacity="0.3" d="M386.151 138.385C371.052 138.362 356.577 132.247 345.903 121.38C335.228 110.513 329.225 95.782 329.211 80.4176V0.00012207H74.7728C55.0646 0.00012207 36.1637 7.96631 22.2278 22.1464C8.292 36.3266 0.462891 55.5592 0.462891 75.6129V531.424C0.492157 551.459 8.33411 570.662 22.2668 584.818C36.1994 598.974 55.0837 606.925 74.7728 606.925H380.214C399.903 606.925 418.788 598.974 432.72 584.818C446.653 570.662 454.495 551.459 454.524 531.424V138.385H386.151Z" fill="#09A3A3"/>
</g>
<path d="M454.526 138.384H386.153C371.053 138.362 356.578 132.247 345.904 121.38C335.229 110.513 329.227 95.7818 329.212 80.4175V0L454.526 138.384Z" fill="#09A3A3"/>
<path d="M508.4 479.386H163.111C138.618 479.386 118.763 499.589 118.763 524.512V629.262C118.763 654.185 138.618 674.388 163.111 674.388H508.4C532.893 674.388 552.749 654.185 552.749 629.262V524.512C552.749 499.589 532.893 479.386 508.4 479.386Z" fill="#09A3A3"/>
<path d="M255.501 599.562V619.99H234.688V599.562H255.501Z" fill="white"/>
<path d="M286.734 603.497H323.413V619.991H264.401V604.452L300.499 551.88H264.871V535.499H323.192V551.037L286.734 603.497Z" fill="white"/>
<path d="M355.795 535.499V619.991H335.783V535.499H355.795Z" fill="white"/>
<path d="M389.732 590.347V619.991H369.638V535.499H402.087C411.955 535.499 419.5 537.972 424.669 542.973C427.286 545.58 429.331 548.72 430.669 552.188C432.008 555.655 432.61 559.371 432.436 563.092C432.523 568.006 431.321 572.855 428.953 577.141C426.54 581.331 422.963 584.704 418.671 586.835C413.49 589.311 407.81 590.514 402.087 590.347H389.732ZM412.065 563.092C412.065 555.692 408.03 551.946 399.959 551.852H389.732V573.825H399.959C408.03 573.919 412.065 570.341 412.065 563.092Z" fill="white"/>
<path d="M227.485 428.557C218.19 428.542 209.279 424.779 202.709 418.095C196.139 411.41 192.445 402.349 192.438 392.9V357.243H262.56V392.9C262.553 402.354 258.855 411.419 252.279 418.105C245.702 424.79 236.785 428.549 227.485 428.557ZM210.376 375.479V392.9C210.376 397.515 212.177 401.942 215.385 405.208C218.593 408.475 222.945 410.313 227.485 410.321C232.028 410.313 236.382 408.476 239.594 405.21C242.807 401.945 244.614 397.518 244.622 392.9V375.479H210.376Z" fill="#09A3A3"/>
<path d="M192.378 357.271H227.536V321.53H192.378V357.271Z" fill="#09A3A3"/>
<path d="M227.42 321.557H262.578V285.816H227.42V321.557Z" fill="#09A3A3"/>
<path d="M192.378 285.844H227.536V250.103H192.378V285.844Z" fill="#09A3A3"/>
<path d="M227.42 250.132H262.578V214.391H227.42V250.132Z" fill="#09A3A3"/>
</svg>
